<?xml version="1.0" encoding="UTF-8"?>
<!-- Generator: visioncortex VTracer 0.6.4 -->
<svg version="1.1" xmlns="http://www.w3.org/2000/svg" width="512" height="512">
<path d="M0,0 L2,0 L2,1 L4,1 L4,2 L7,2 L7,3 L10,3 L10,4 L12,4 L12,5 L15,5 L15,6 L18,6 L18,7 L20,7 L20,8 L22,8 L22,9 L25,9 L25,10 L27,10 L27,11 L29,11 L29,12 L32,12 L32,13 L34,13 L34,14 L36,14 L36,15 L38,15 L38,16 L40,16 L40,17 L42,17 L42,18 L44,18 L44,19 L45,19 L45,20 L47,20 L47,21 L49,21 L49,22 L51,22 L51,23 L52,23 L52,24 L54,24 L54,25 L56,25 L56,26 L58,26 L58,27 L59,27 L59,28 L61,28 L61,29 L62,29 L62,30 L64,30 L64,31 L65,31 L65,32 L66,32 L66,33 L68,33 L68,34 L69,34 L69,35 L71,35 L71,36 L72,36 L72,37 L73,37 L73,38 L74,38 L74,39 L76,39 L76,40 L77,40 L77,41 L78,41 L78,42 L79,42 L79,43 L80,43 L80,44 L82,44 L82,45 L83,45 L83,46 L84,46 L84,47 L85,47 L85,48 L86,48 L86,49 L87,49 L87,50 L88,50 L88,51 L89,51 L89,52 L90,52 L90,53 L91,53 L91,54 L90,54 L90,55 L89,55 L89,56 L88,56 L88,57 L86,57 L86,58 L85,58 L85,59 L83,59 L83,58 L82,58 L82,57 L81,57 L81,56 L80,56 L80,55 L79,55 L79,54 L78,54 L78,53 L77,53 L77,52 L76,52 L76,51 L74,51 L74,50 L73,50 L73,49 L71,49 L71,48 L70,48 L70,47 L68,47 L68,46 L67,46 L67,45 L66,45 L66,44 L64,44 L64,43 L62,43 L62,42 L60,42 L60,41 L58,41 L58,40 L56,40 L56,39 L54,39 L54,38 L52,38 L52,37 L50,37 L50,36 L48,36 L48,35 L46,35 L46,34 L44,34 L44,33 L41,33 L41,32 L39,32 L39,31 L37,31 L37,30 L34,30 L34,29 L32,29 L32,28 L29,28 L29,27 L27,27 L27,26 L24,26 L24,25 L22,25 L22,24 L19,24 L19,23 L17,23 L17,22 L14,22 L14,21 L11,21 L11,20 L8,20 L8,19 L5,19 L5,18 L2,18 L2,17 L-1,17 L-1,16 L-4,16 L-4,15 L-8,15 L-8,13 L-7,13 L-7,10 L-6,10 L-6,8 L-5,8 L-5,7 L-4,7 L-4,5 L-3,5 L-3,4 L-2,4 L-2,3 L-1,3 L-1,1 L0,1 Z M65,46 L66,46 L66,47 L68,47 L68,48 L69,48 L69,49 L71,49 L71,50 L72,50 L72,51 L73,51 L73,52 L75,52 L75,58 L74,58 L74,59 L73,59 L73,60 L69,60 L69,59 L68,59 L68,58 L67,58 L67,57 L66,57 L66,56 L65,56 L65,54 L64,54 L64,48 L65,48 Z " fill="#000000" transform="translate(263,184)"/>
<path d="M0,0 L1,0 L1,1 L0,1 Z " fill="#000000" opacity="0.99607843" transform="translate(255,196)"/>
<path d="M0,0 L1,0 L1,1 L4,1 L4,2 L6,2 L6,3 L8,3 L8,4 L11,4 L11,5 L13,5 L13,6 L15,6 L15,7 L18,7 L18,8 L20,8 L20,9 L22,9 L22,10 L24,10 L24,11 L26,11 L26,12 L28,12 L28,13 L30,13 L30,14 L32,14 L32,15 L34,15 L34,16 L36,16 L36,17 L38,17 L38,18 L39,18 L39,20 L38,20 L38,27 L39,27 L39,30 L40,30 L40,31 L41,31 L41,32 L42,32 L42,33 L43,33 L43,34 L49,34 L49,33 L50,33 L50,32 L51,32 L51,28 L52,28 L52,30 L53,30 L53,32 L54,32 L54,34 L55,34 L55,38 L56,38 L56,42 L57,42 L57,47 L58,47 L58,53 L59,53 L59,54 L57,54 L57,55 L54,55 L54,54 L51,54 L51,53 L48,53 L48,52 L45,52 L45,51 L42,51 L42,50 L38,50 L38,49 L33,49 L33,48 L28,48 L28,47 L22,47 L22,46 L16,46 L16,44 L15,44 L15,43 L14,43 L14,41 L13,41 L13,39 L12,39 L12,38 L11,38 L11,36 L10,36 L10,34 L9,34 L9,32 L8,32 L8,29 L7,29 L7,27 L6,27 L6,24 L5,24 L5,21 L4,21 L4,18 L3,18 L3,15 L2,15 L2,11 L1,11 L1,3 L0,3 Z " fill="#FFFFFF" transform="translate(288,211)"/>
<path d="M0,0 L1,0 L1,1 L0,1 Z " fill="#FEFEFE" opacity="0.99607843" transform="translate(320,225)"/>
<path d="M0,0 L28,0 L28,2 L27,2 L27,3 L26,3 L26,4 L4,4 L4,3 L-3,3 L-3,2 L-5,2 L-5,1 L0,1 Z " fill="#000000" transform="translate(326,323)"/>
<path d="M0,0 L1,0 L1,1 L0,1 Z " fill="#000000" opacity="0.5411765" transform="translate(343,327)"/>
<path d="M0,0 L1,0 L1,1 L0,1 Z " fill="#000000" opacity="0.9098039" transform="translate(341,322)"/>
<path d="M0,0 L1,0 L1,1 L0,1 Z " fill="#000000" opacity="0.7176471" transform="translate(350,322)"/>
<path d="M0,0 L1,0 L1,1 L0,1 Z " fill="#FFFFFF" opacity="0.49019608" transform="translate(344,266)"/>
<path d="M0,0 L1,0 L1,1 L0,1 Z " fill="#000000" opacity="0.40392157" transform="translate(337,327)"/>
<path d="M0,0 L1,0 L1,1 L0,1 Z " fill="#000000" opacity="0.9529412" transform="translate(329,326)"/>
<path d="M0,0 L1,0 L1,1 L0,1 Z " fill="#000000" opacity="0.67058825" transform="translate(333,322)"/>
<path d="M0,0 L1,0 L1,1 L0,1 Z " fill="#FFFFFF" opacity="0.9529412" transform="translate(343,248)"/>
<path d="M0,0 L1,0 L1,1 L0,1 Z " fill="#FFFFFF" opacity="0.5686275" transform="translate(288,218)"/>
<path d="M0,0 L1,0 L1,1 L0,1 Z " fill="#000000" opacity="0.95686275" transform="translate(347,243)"/>
<path d="M0,0 L1,0 L1,1 L0,1 Z " fill="#000000" opacity="0.98039216" transform="translate(284,208)"/>
<path d="M0,0 L1,0 L1,1 L0,1 Z " fill="#000000" opacity="0.94509804" transform="translate(264,201)"/>
<path d="M0,0 L1,0 L1,1 L0,1 Z " fill="#000000" opacity="0.9882353" transform="translate(258,199)"/>
<path d="M0,0 L1,0 L1,1 L0,1 Z " fill="#000000" opacity="0.9490196" transform="translate(343,322)"/>
<path d="M0,0 L1,0 L1,4 L0,4 Z " fill="#5D5D5D" transform="translate(338,237)"/>
<path d="M0,0 L1,0 L1,5 L0,5 Z " fill="#A7A7A7" transform="translate(326,232)"/>
<path d="M0,0 L1,0 L1,1 L0,1 Z M1,1 L2,1 L2,2 L1,2 Z M2,2 L3,2 L3,3 L2,3 Z M3,3 L4,3 L4,4 L3,4 Z " fill="#000000" opacity="0.03529412" transform="translate(351,233)"/>
<path d="M0,0 L1,0 L1,1 L0,1 Z M-1,1 L0,1 L0,3 L-1,3 Z " fill="#010101" opacity="0.99215686" transform="translate(328,228)"/>
<path d="M0,0 L1,0 L1,1 L0,1 Z " fill="#000000" opacity="0.3882353" transform="translate(350,327)"/>
<path d="M0,0 L1,0 L1,1 L0,1 Z " fill="#000000" opacity="0.49803922" transform="translate(341,327)"/>
<path d="M0,0 L1,0 L1,1 L0,1 Z " fill="#000000" opacity="0.2627451" transform="translate(333,327)"/>
<path d="M0,0 L1,0 L1,1 L0,1 Z " fill="#000000" opacity="0.5176471" transform="translate(325,326)"/>
<path d="M0,0 L1,0 L1,1 L0,1 Z " fill="#000000" opacity="0.7529412" transform="translate(324,323)"/>
<path d="M0,0 L1,0 L1,1 L0,1 Z " fill="#000000" opacity="0.58431375" transform="translate(354,322)"/>
<path d="M0,0 L1,0 L1,1 L0,1 Z " fill="#000000" opacity="0.81960785" transform="translate(337,322)"/>
<path d="M0,0 L1,0 L1,1 L0,1 Z " fill="#000000" opacity="0.35686275" transform="translate(329,322)"/>
<path d="M0,0 L1,0 L1,1 L0,1 Z " fill="#FFFFFF" opacity="0.9764706" transform="translate(341,265)"/>
<path d="M0,0 L1,0 L1,1 L0,1 Z " fill="#FFFFFF" opacity="0.8901961" transform="translate(332,262)"/>
<path d="M0,0 L1,0 L1,1 L0,1 Z " fill="#FFFFFF" opacity="0.63529414" transform="translate(346,261)"/>
<path d="M0,0 L1,0 L1,1 L0,1 Z " fill="#FFFFFF" opacity="0.7607843" transform="translate(328,261)"/>
<path d="M0,0 L1,0 L1,1 L0,1 Z " fill="#FFFFFF" opacity="0.7411765" transform="translate(324,260)"/>
<path d="M0,0 L1,0 L1,1 L0,1 Z " fill="#FFFFFF" opacity="0.7137255" transform="translate(319,259)"/>
<path d="M0,0 L1,0 L1,1 L0,1 Z " fill="#FFFFFF" opacity="0.45882353" transform="translate(312,258)"/>
<path d="M0,0 L1,0 L1,1 L0,1 Z " fill="#FFFFFF" opacity="0.6862745" transform="translate(307,257)"/>
<path d="M0,0 L1,0 L1,1 L0,1 Z " fill="#FFFFFF" opacity="0.59607846" transform="translate(345,255)"/>
<path d="M0,0 L1,0 L1,1 L0,1 Z " fill="#FFFFFF" opacity="0.99607843" transform="translate(300,250)"/>
<path d="M0,0 L4,0 L4,1 L0,1 Z " fill="#686868" transform="translate(332,244)"/>
<path d="M0,0 L1,0 L1,2 L0,2 Z " fill="#040404" opacity="0.972549" transform="translate(335,233)"/>
<path d="M0,0 L1,0 L1,2 L0,2 Z " fill="#070707" opacity="0.9490196" transform="translate(332,231)"/>
<path d="M0,0 L1,0 L1,1 L0,1 Z " fill="#000000" opacity="0.9607843" transform="translate(317,208)"/>
<path d="M0,0 L1,0 L1,1 L0,1 Z " fill="#000000" opacity="0.95686275" transform="translate(310,204)"/>
<path d="M0,0 L1,0 L1,1 L0,1 Z " fill="#000000" opacity="0.8745098" transform="translate(270,203)"/>
<path d="M0,0 L1,0 L1,1 L0,1 Z " fill="#000000" opacity="0.73333335" transform="translate(259,188)"/>
<path d="M0,0 L1,0 L1,1 L0,1 Z " fill="#000000" opacity="0.4" transform="translate(263,183)"/>
<path d="M0,0 L1,0 L1,1 L0,1 Z " fill="#000000" opacity="0.7921569" transform="translate(320,324)"/>
<path d="M0,0 L1,0 L1,1 L0,1 Z " fill="#FFFFFF" opacity="0.94509804" transform="translate(303,255)"/>
<path d="M0,0 L1,0 L1,1 L0,1 Z M1,1 L2,1 L2,2 L1,2 Z " fill="#000000" opacity="0.007843138" transform="translate(345,243)"/>
<path d="M0,0 L1,0 L1,1 L0,1 Z " fill="#000000" opacity="0.7019608" transform="translate(342,239)"/>
<path d="M0,0 L1,0 L1,1 L0,1 Z " fill="#FFFFFF" opacity="0.92156863" transform="translate(339,238)"/>
<path d="M0,0 L1,0 L1,1 L0,1 Z " fill="#FFFFFF" opacity="0.34117648" transform="translate(292,234)"/>
<path d="M0,0 L1,0 L1,1 L0,1 Z " fill="#FFFFFF" opacity="0.30588236" transform="translate(291,231)"/>
<path d="M0,0 L1,0 L1,1 L0,1 Z " fill="#000000" opacity="0.64705884" transform="translate(347,230)"/>
<path d="M0,0 L1,0 L1,1 L0,1 Z " fill="#0A0A0A" transform="translate(329,230)"/>
<path d="M0,0 L1,0 L1,1 L0,1 Z " fill="#FFFFFF" opacity="0.26666668" transform="translate(290,228)"/>
<path d="M0,0 L1,0 L1,1 L0,1 Z " fill="#000000" opacity="0.95686275" transform="translate(342,226)"/>
<path d="M0,0 L1,0 L1,1 L0,1 Z " fill="#000000" opacity="0.77254903" transform="translate(340,224)"/>
<path d="M0,0 L1,0 L1,1 L0,1 Z " fill="#FFFFFF" opacity="0.43529412" transform="translate(289,224)"/>
<path d="M0,0 L1,0 L1,1 L0,1 Z " fill="#000000" opacity="0.7921569" transform="translate(335,220)"/>
<path d="M0,0 L1,0 L1,1 L0,1 Z " fill="#FFFFFF" opacity="0.2627451" transform="translate(288,220)"/>
<path d="M0,0 L1,0 L1,1 L0,1 Z " fill="#000000" opacity="0.8117647" transform="translate(331,217)"/>
<path d="M0,0 L1,0 L1,1 L0,1 Z " fill="#000000" opacity="0.8862745" transform="translate(328,215)"/>
<path d="M0,0 L1,0 L1,1 L0,1 Z " fill="#000000" opacity="0.92941177" transform="translate(325,213)"/>
<path d="M0,0 L1,0 L1,1 L0,1 Z " fill="#FFFFFF" opacity="0.12941177" transform="translate(287,212)"/>
<path d="M0,0 L1,0 L1,1 L0,1 Z " fill="#000000" opacity="0.9098039" transform="translate(322,211)"/>
<path d="M0,0 L1,0 L1,1 L0,1 Z " fill="#000000" opacity="0.25882354" transform="translate(272,186)"/>
<path d="M0,0 L1,0 L1,1 L0,1 Z " fill="#000000" opacity="0.96862745" transform="translate(261,186)"/>
<path d="M0,0 L1,0 L1,1 L0,1 Z " fill="#000000" opacity="0.43137255" transform="translate(348,327)"/>
<path d="M0,0 L1,0 L1,1 L0,1 Z " fill="#000000" opacity="0.47843137" transform="translate(346,327)"/>
<path d="M0,0 L1,0 L1,1 L0,1 Z " fill="#000000" opacity="0.4509804" transform="translate(339,327)"/>
<path d="M0,0 L1,0 L1,1 L0,1 Z " fill="#000000" opacity="0.35686275" transform="translate(335,327)"/>
<path d="M0,0 L1,0 L1,1 L0,1 Z " fill="#000000" opacity="0.105882354" transform="translate(331,327)"/>
<path d="M0,0 L1,0 L1,1 L0,1 Z " fill="#000000" opacity="0.79607844" transform="translate(327,326)"/>
<path d="M0,0 L1,0 L1,1 L0,1 Z " fill="#000000" opacity="0.17254902" transform="translate(323,326)"/>
<path d="M0,0 L1,0 L1,1 L0,1 Z " fill="#000000" opacity="0.007843138" transform="translate(354,325)"/>
<path d="M0,0 L1,0 L1,1 L0,1 Z " fill="#000000" opacity="0.98039216" transform="translate(322,325)"/>
<path d="M0,0 L2,0 L2,1 L0,1 Z " fill="#000000" transform="translate(321,324)"/>
<path d="M0,0 L1,0 L1,1 L0,1 Z " fill="#000000" opacity="0.40392157" transform="translate(322,323)"/>
<path d="M0,0 L1,0 L1,1 L0,1 Z " fill="#000000" opacity="0.6509804" transform="translate(352,322)"/>
<path d="M0,0 L1,0 L1,1 L0,1 Z " fill="#000000" opacity="0.7882353" transform="translate(348,322)"/>
<path d="M0,0 L1,0 L1,1 L0,1 Z " fill="#000000" opacity="0.85490197" transform="translate(346,322)"/>
<path d="M0,0 L1,0 L1,1 L0,1 Z " fill="#000000" opacity="0.8666667" transform="translate(339,322)"/>
<path d="M0,0 L1,0 L1,1 L0,1 Z " fill="#000000" opacity="0.77254903" transform="translate(335,322)"/>
<path d="M0,0 L1,0 L1,1 L0,1 Z " fill="#000000" opacity="0.5137255" transform="translate(331,322)"/>
<path d="M0,0 L1,0 L1,1 L0,1 Z " fill="#000000" opacity="0.2" transform="translate(327,322)"/>
<path d="M0,0 L1,0 L1,1 L0,1 Z " fill="#FFFFFF" opacity="0.4117647" transform="translate(342,266)"/>
<path d="M0,0 L1,0 L1,1 L0,1 Z " fill="#FFFFFF" opacity="0.03137255" transform="translate(347,265)"/>
<path d="M0,0 L1,0 L1,1 L0,1 Z " fill="#FFFFFF" opacity="0.3019608" transform="translate(339,265)"/>
<path d="M0,0 L1,0 L1,1 L0,1 Z " fill="#FFFFFF" opacity="0.5647059" transform="translate(337,264)"/>
<path d="M0,0 L1,0 L1,1 L0,1 Z " fill="#FFFFFF" opacity="0.91764706" transform="translate(346,263)"/>
<path d="M0,0 L1,0 L1,1 L0,1 Z " fill="#FFFFFF" opacity="0.4627451" transform="translate(334,263)"/>
<path d="M0,0 L1,0 L1,1 L0,1 Z " fill="#FFFFFF" opacity="0.3254902" transform="translate(330,262)"/>
<path d="M0,0 L1,0 L1,1 L0,1 Z " fill="#FFFFFF" opacity="0.19607843" transform="translate(326,261)"/>
<path d="M0,0 L1,0 L1,1 L0,1 Z " fill="#FFFFFF" opacity="0.32941177" transform="translate(322,260)"/>
<path d="M0,0 L1,0 L1,1 L0,1 Z " fill="#FFFFFF" opacity="0.28627452" transform="translate(346,259)"/>
<path d="M0,0 L1,0 L1,1 L0,1 Z " fill="#FFFFFF" opacity="0.3019608" transform="translate(317,259)"/>
<path d="M0,0 L1,0 L1,1 L0,1 Z " fill="#FFFFFF" opacity="0.76862746" transform="translate(314,258)"/>
<path d="M0,0 L1,0 L1,1 L0,1 Z " fill="#FFFFFF" opacity="0.14901961" transform="translate(310,258)"/>
<path d="M0,0 L1,0 L1,1 L0,1 Z " fill="#FFFFFF" opacity="0.9411765" transform="translate(345,257)"/>
<path d="M0,0 L1,0 L1,1 L0,1 Z " fill="#FFFFFF" opacity="0.98039216" transform="translate(309,257)"/>
<path d="M0,0 L1,0 L1,1 L0,1 Z " fill="#FFFFFF" opacity="0.3764706" transform="translate(305,257)"/>
<path d="M0,0 L1,0 L1,1 L0,1 Z " fill="#FFFFFF" opacity="0.003921569" transform="translate(301,254)"/>
<path d="M0,0 L1,0 L1,1 L0,1 Z " fill="#FFFFFF" opacity="0.2" transform="translate(345,253)"/>
<path d="M0,0 L1,0 L1,1 L0,1 Z " fill="#FFFFFF" opacity="0.7411765" transform="translate(344,251)"/>
<path d="M0,0 L1,0 L1,1 L0,1 Z " fill="#FFFFFF" opacity="0.26666668" transform="translate(344,249)"/>
<path d="M0,0 L1,0 L1,1 L0,1 Z " fill="#FFFFFF" opacity="0.39215687" transform="translate(343,246)"/>
<path d="M0,0 L1,0 L1,1 L0,1 Z " fill="#FFFFFF" opacity="0.3647059" transform="translate(342,243)"/>
<path d="M0,0 L1,0 L1,2 L0,2 Z " fill="#F9F9F9" transform="translate(338,241)"/>
<path d="M0,0 L1,0 L1,1 L0,1 Z M1,1 L2,1 L2,2 L1,2 Z " fill="#000000" opacity="0.003921569" transform="translate(343,241)"/>
<path d="M0,0 L1,0 L1,1 L0,1 Z " fill="#FFFFFF" opacity="0.58431375" transform="translate(341,241)"/>
<path d="M0,0 L1,0 L1,1 L0,1 Z M1,1 L2,1 L2,2 L1,2 Z " fill="#010101" transform="translate(329,241)"/>
<path d="M0,0 L1,0 L1,1 L0,1 Z " fill="#FFFFFF" opacity="0.98039216" transform="translate(340,240)"/>
<path d="M0,0 L1,0 L1,2 L0,2 Z " fill="#FFFFFF" transform="translate(339,239)"/>
<path d="M0,0 L1,0 L1,2 L0,2 Z " fill="#EDEDED" transform="translate(327,239)"/>
<path d="M0,0 L1,0 L1,1 L0,1 Z " fill="#FFFFFF" opacity="0.05490196" transform="translate(294,240)"/>
<path d="M0,0 L1,0 L1,1 L0,1 Z " fill="#6C6C6C" transform="translate(338,237)"/>
<path d="M0,0 L1,0 L1,1 L0,1 Z " fill="#FFFFFF" opacity="0.19215687" transform="translate(293,237)"/>
<path d="M0,0 L1,0 L1,1 L0,1 Z M1,1 L2,1 L2,2 L1,2 Z " fill="#000000" opacity="0.7372549" transform="translate(351,234)"/>
<path d="M0,0 L1,0 L1,2 L0,2 Z " fill="#B4B4B4" transform="translate(326,232)"/>
<path d="M0,0 L1,0 L1,1 L0,1 Z M1,1 L2,1 L2,2 L1,2 Z " fill="#000000" opacity="0.039215688" transform="translate(349,231)"/>
<path d="M0,0 L1,0 L1,2 L0,2 Z " fill="#353535" transform="translate(327,229)"/>
<path d="M0,0 L1,0 L1,1 L0,1 Z " fill="#010101" opacity="0.9490196" transform="translate(326,227)"/>
<path d="M0,0 L1,0 L1,1 L0,1 Z " fill="#020202" opacity="0.91764706" transform="translate(324,226)"/>
<path d="M0,0 L1,0 L1,1 L0,1 Z " fill="#070707" opacity="0.85882354" transform="translate(314,221)"/>
<path d="M0,0 L1,0 L1,1 L0,1 Z " fill="#030303" opacity="0.89411765" transform="translate(312,220)"/>
<path d="M0,0 L1,0 L1,1 L0,1 Z " fill="#010101" opacity="0.9254902" transform="translate(310,219)"/>
<path d="M0,0 L1,0 L1,1 L0,1 Z " fill="#010101" opacity="0.95686275" transform="translate(308,218)"/>
<path d="M0,0 L1,0 L1,1 L0,1 Z " fill="#0A0A0A" opacity="0.8862745" transform="translate(303,216)"/>
<path d="M0,0 L1,0 L1,1 L0,1 Z " fill="#FFFFFF" opacity="0.7647059" transform="translate(288,216)"/>
<path d="M0,0 L1,0 L1,1 L0,1 Z " fill="#030303" opacity="0.9607843" transform="translate(301,215)"/>
<path d="M0,0 L1,0 L1,1 L0,1 Z " fill="#0A0A0A" opacity="0.91764706" transform="translate(296,213)"/>
<path d="M0,0 L1,0 L1,1 L0,1 Z " fill="#010101" opacity="0.9843137" transform="translate(294,212)"/>
<path d="M0,0 L1,0 L1,1 L0,1 Z " fill="#0D0D0D" opacity="0.8980392" transform="translate(291,211)"/>
<path d="M0,0 L1,0 L1,1 L0,1 Z " fill="#303030" opacity="0.78431374" transform="translate(288,210)"/>
<path d="M0,0 L1,0 L1,1 L0,1 Z " fill="#000000" opacity="0.45490196" transform="translate(285,209)"/>
<path d="M0,0 L1,0 L1,1 L0,1 Z " fill="#000000" opacity="0.29411766" transform="translate(282,208)"/>
<path d="M0,0 L1,0 L1,1 L0,1 Z " fill="#000000" opacity="0.52156866" transform="translate(280,207)"/>
<path d="M0,0 L1,0 L1,1 L0,1 Z " fill="#000000" opacity="0.36078432" transform="translate(277,206)"/>
<path d="M0,0 L1,0 L1,1 L0,1 Z " fill="#000000" opacity="0.58431375" transform="translate(275,205)"/>
<path d="M0,0 L1,0 L1,1 L0,1 Z " fill="#000000" opacity="0.50980395" transform="translate(272,204)"/>
<path d="M0,0 L1,0 L1,1 L0,1 Z " fill="#000000" opacity="0.23921569" transform="translate(268,203)"/>
<path d="M0,0 L1,0 L1,1 L0,1 Z " fill="#000000" opacity="0.9137255" transform="translate(267,202)"/>
<path d="M0,0 L1,0 L1,1 L0,1 Z " fill="#000000" opacity="0.28627452" transform="translate(265,202)"/>
<path d="M0,0 L1,0 L1,1 L0,1 Z " fill="#000000" opacity="0.3372549" transform="translate(262,201)"/>
<path d="M0,0 L1,0 L1,1 L0,1 Z " fill="#000000" opacity="0.972549" transform="translate(261,200)"/>
<path d="M0,0 L1,0 L1,1 L0,1 Z " fill="#000000" opacity="0.38431373" transform="translate(259,200)"/>
<path d="M0,0 L1,0 L1,1 L0,1 Z " fill="#000000" opacity="0.43137255" transform="translate(256,199)"/>
<path d="M0,0 L1,0 L1,1 L0,1 Z " fill="#000000" opacity="0.5686275" transform="translate(254,197)"/>
<path d="M0,0 L1,0 L1,1 L0,1 Z " fill="#000000" opacity="0.105882354" transform="translate(292,194)"/>
<path d="M0,0 L1,0 L1,1 L0,1 Z " fill="#000000" opacity="0.2901961" transform="translate(255,194)"/>
<path d="M0,0 L1,0 L1,1 L0,1 Z " fill="#000000" opacity="0.03137255" transform="translate(290,193)"/>
<path d="M0,0 L1,0 L1,1 L0,1 Z " fill="#000000" opacity="0.84313726" transform="translate(256,193)"/>
<path d="M0,0 L1,0 L1,1 L0,1 Z " fill="#000000" opacity="0.13333334" transform="translate(285,191)"/>
<path d="M0,0 L1,0 L1,1 L0,1 Z " fill="#000000" opacity="0.74509805" transform="translate(257,191)"/>
<path d="M0,0 L1,0 L1,1 L0,1 Z " fill="#000000" opacity="0.043137256" transform="translate(283,190)"/>
<path d="M0,0 L1,0 L1,1 L0,1 Z " fill="#000000" opacity="0.16078432" transform="translate(280,189)"/>
<path d="M0,0 L1,0 L1,1 L0,1 Z " fill="#000000" opacity="0.019607844" transform="translate(278,188)"/>
<path d="M0,0 L1,0 L1,1 L0,1 Z " fill="#000000" opacity="0.11372549" transform="translate(275,187)"/>
<path d="M0,0 L1,0 L1,1 L0,1 Z " fill="#000000" opacity="0.03137255" transform="translate(270,185)"/>
<path d="M0,0 L1,0 L1,1 L0,1 Z " fill="#000000" opacity="0.07450981" transform="translate(267,184)"/>
<path d="M0,0 L1,0 L1,1 L0,1 Z M-1,1 L0,1 L0,2 L-1,2 Z " fill="#000000" transform="translate(263,184)"/>
<path d="M0,0 L1,0 L1,1 L0,1 Z " fill="#000000" opacity="0.19607843" transform="translate(352,327)"/>
<path d="M0,0 L1,0 L1,1 L0,1 Z " fill="#000000" opacity="0.3647059" transform="translate(351,327)"/>
<path d="M0,0 L1,0 L1,1 L0,1 Z " fill="#000000" opacity="0.4117647" transform="translate(349,327)"/>
<path d="M0,0 L1,0 L1,1 L0,1 Z " fill="#000000" opacity="0.45490196" transform="translate(347,327)"/>
<path d="M0,0 L1,0 L1,1 L0,1 Z " fill="#000000" opacity="0.5019608" transform="translate(345,327)"/>
<path d="M0,0 L1,0 L1,1 L0,1 Z " fill="#000000" opacity="0.5254902" transform="translate(344,327)"/>
<path d="M0,0 L1,0 L1,1 L0,1 Z " fill="#000000" opacity="0.52156866" transform="translate(342,327)"/>
<path d="M0,0 L1,0 L1,1 L0,1 Z " fill="#000000" opacity="0.4745098" transform="translate(340,327)"/>
<path d="M0,0 L1,0 L1,1 L0,1 Z " fill="#000000" opacity="0.42745098" transform="translate(338,327)"/>
<path d="M0,0 L1,0 L1,1 L0,1 Z " fill="#000000" opacity="0.38039216" transform="translate(336,327)"/>
<path d="M0,0 L1,0 L1,1 L0,1 Z " fill="#000000" opacity="0.32941177" transform="translate(334,327)"/>
<path d="M0,0 L1,0 L1,1 L0,1 Z " fill="#000000" opacity="0.18431373" transform="translate(332,327)"/>
<path d="M0,0 L1,0 L1,1 L0,1 Z " fill="#000000" opacity="0.02745098" transform="translate(330,327)"/>
<path d="M0,0 L1,0 L1,1 L0,1 Z " fill="#000000" opacity="0.11764706" transform="translate(353,326)"/>
<path d="M0,0 L1,0 L1,1 L0,1 Z " fill="#000000" opacity="0.9372549" transform="translate(352,326)"/>
<path d="M0,0 L1,0 L1,1 L0,1 Z " fill="#000000" opacity="0.8745098" transform="translate(328,326)"/>
<path d="M0,0 L1,0 L1,1 L0,1 Z " fill="#000000" opacity="0.6862745" transform="translate(326,326)"/>
<path d="M0,0 L1,0 L1,1 L0,1 Z " fill="#000000" opacity="0.34509805" transform="translate(324,326)"/>
<path d="M0,0 L1,0 L1,1 L0,1 Z " fill="#000000" opacity="0.019607844" transform="translate(322,326)"/>
<path d="M0,0 L1,0 L1,1 L0,1 Z " fill="#000000" opacity="0.75686276" transform="translate(353,325)"/>
<path d="M0,0 L1,0 L1,1 L0,1 Z " fill="#000000" opacity="0.78039217" transform="translate(321,325)"/>
<path d="M0,0 L1,0 L1,1 L0,1 Z " fill="#000000" opacity="0.38039216" transform="translate(320,325)"/>
<path d="M0,0 L1,0 L1,1 L0,1 Z " fill="#000000" opacity="0.48235294" transform="translate(354,324)"/>
<path d="M0,0 L1,0 L1,1 L0,1 Z " fill="#000000" opacity="0.03137255" transform="translate(319,324)"/>
<path d="M0,0 L1,0 L1,1 L0,1 Z " fill="#000000" opacity="0.21568628" transform="translate(355,323)"/>
<path d="M0,0 L1,0 L1,1 L0,1 Z " fill="#000000" opacity="0.9843137" transform="translate(354,323)"/>
<path d="M0,0 L1,0 L1,1 L0,1 Z " fill="#000000" opacity="0.92156863" transform="translate(325,323)"/>
<path d="M0,0 L1,0 L1,1 L0,1 Z " fill="#000000" opacity="0.5764706" transform="translate(323,323)"/>
<path d="M0,0 L1,0 L1,1 L0,1 Z " fill="#000000" opacity="0.1882353" transform="translate(321,323)"/>
<path d="M0,0 L1,0 L1,1 L0,1 Z " fill="#000000" opacity="0.4117647" transform="translate(355,322)"/>
<path d="M0,0 L1,0 L1,1 L0,1 Z " fill="#000000" opacity="0.6156863" transform="translate(353,322)"/>
<path d="M0,0 L1,0 L1,1 L0,1 Z " fill="#000000" opacity="0.6862745" transform="translate(351,322)"/>
<path d="M0,0 L1,0 L1,1 L0,1 Z " fill="#000000" opacity="0.7529412" transform="translate(349,322)"/>
<path d="M0,0 L1,0 L1,1 L0,1 Z " fill="#000000" opacity="0.8235294" transform="translate(347,322)"/>
<path d="M0,0 L1,0 L1,1 L0,1 Z " fill="#000000" opacity="0.8901961" transform="translate(345,322)"/>
<path d="M0,0 L1,0 L1,1 L0,1 Z " fill="#000000" opacity="0.9254902" transform="translate(344,322)"/>
<path d="M0,0 L1,0 L1,1 L0,1 Z " fill="#000000" opacity="0.93333334" transform="translate(342,322)"/>
<path d="M0,0 L1,0 L1,1 L0,1 Z " fill="#000000" opacity="0.8901961" transform="translate(340,322)"/>
<path d="M0,0 L1,0 L1,1 L0,1 Z " fill="#000000" opacity="0.84313726" transform="translate(338,322)"/>
<path d="M0,0 L1,0 L1,1 L0,1 Z " fill="#000000" opacity="0.79607844" transform="translate(336,322)"/>
<path d="M0,0 L1,0 L1,1 L0,1 Z " fill="#000000" opacity="0.7411765" transform="translate(334,322)"/>
<path d="M0,0 L1,0 L1,1 L0,1 Z " fill="#000000" opacity="0.5921569" transform="translate(332,322)"/>
<path d="M0,0 L1,0 L1,1 L0,1 Z " fill="#000000" opacity="0.43529412" transform="translate(330,322)"/>
<path d="M0,0 L1,0 L1,1 L0,1 Z " fill="#000000" opacity="0.2784314" transform="translate(328,322)"/>
<path d="M0,0 L1,0 L1,1 L0,1 Z " fill="#000000" opacity="0.09019608" transform="translate(326,322)"/>
<path d="M0,0 L1,0 L1,1 L0,1 Z " fill="#FFFFFF" opacity="0.12941177" transform="translate(345,266)"/>
<path d="M0,0 L1,0 L1,1 L0,1 Z " fill="#FFFFFF" opacity="0.6" transform="translate(343,266)"/>
<path d="M0,0 L1,0 L1,1 L0,1 Z " fill="#FFFFFF" opacity="0.07058824" transform="translate(341,266)"/>
<path d="M0,0 L1,0 L1,1 L0,1 Z " fill="#FFFFFF" opacity="0.5803922" transform="translate(346,265)"/>
<path d="M0,0 L1,0 L1,1 L0,1 Z " fill="#FFFFFF" opacity="0.9843137" transform="translate(345,265)"/>
<path d="M0,0 L1,0 L1,1 L0,1 Z " fill="#FFFFFF" opacity="0.6745098" transform="translate(340,265)"/>
<path d="M0,0 L1,0 L1,1 L0,1 Z " fill="#FFFFFF" opacity="0.015686275" transform="translate(338,265)"/>
<path d="M0,0 L1,0 L1,1 L0,1 Z " fill="#FFFFFF" opacity="0.047058824" transform="translate(347,264)"/>
<path d="M0,0 L1,0 L1,1 L0,1 Z " fill="#FFFFFF" opacity="0.91764706" transform="translate(338,264)"/>
<path d="M0,0 L1,0 L1,1 L0,1 Z " fill="#FFFFFF" opacity="0.19215687" transform="translate(336,264)"/>
<path d="M0,0 L1,0 L1,1 L0,1 Z " fill="#FFFFFF" opacity="0.8235294" transform="translate(335,263)"/>
<path d="M0,0 L1,0 L1,1 L0,1 Z " fill="#FFFFFF" opacity="0.17254902" transform="translate(333,263)"/>
<path d="M0,0 L1,0 L1,1 L0,1 Z " fill="#FFFFFF" opacity="0.7882353" transform="translate(346,262)"/>
<path d="M0,0 L1,0 L1,1 L0,1 Z " fill="#FFFFFF" opacity="0.60784316" transform="translate(331,262)"/>
<path d="M0,0 L1,0 L1,1 L0,1 Z " fill="#FFFFFF" opacity="0.05882353" transform="translate(329,262)"/>
<path d="M0,0 L1,0 L1,1 L0,1 Z " fill="#FFFFFF" opacity="0.9843137" transform="translate(329,261)"/>
<path d="M0,0 L1,0 L1,1 L0,1 Z " fill="#FFFFFF" opacity="0.47843137" transform="translate(327,261)"/>
<path d="M0,0 L1,0 L1,1 L0,1 Z " fill="#FFFFFF" opacity="0.003921569" transform="translate(325,261)"/>
<path d="M0,0 L1,0 L1,1 L0,1 Z " fill="#FFFFFF" opacity="0.4627451" transform="translate(346,260)"/>
<path d="M0,0 L1,0 L1,1 L0,1 Z " fill="#FFFFFF" opacity="0.9411765" transform="translate(325,260)"/>
<path d="M0,0 L1,0 L1,1 L0,1 Z " fill="#FFFFFF" opacity="0.53333336" transform="translate(323,260)"/>
<path d="M0,0 L1,0 L1,1 L0,1 Z " fill="#FFFFFF" opacity="0.12156863" transform="translate(321,260)"/>
<path d="M0,0 L1,0 L1,1 L0,1 Z " fill="#FFFFFF" opacity="0.92156863" transform="translate(320,259)"/>
<path d="M0,0 L1,0 L1,1 L0,1 Z " fill="#FFFFFF" opacity="0.50980395" transform="translate(318,259)"/>
<path d="M0,0 L1,0 L1,1 L0,1 Z " fill="#FFFFFF" opacity="0.09803922" transform="translate(316,259)"/>
<path d="M0,0 L1,0 L1,1 L0,1 Z " fill="#FFFFFF" opacity="0.11372549" transform="translate(346,258)"/>
<path d="M0,0 L1,0 L1,1 L0,1 Z " fill="#FFFFFF" opacity="0.9254902" transform="translate(315,258)"/>
<path d="M0,0 L1,0 L1,1 L0,1 Z " fill="#FFFFFF" opacity="0.6156863" transform="translate(313,258)"/>
<path d="M0,0 L1,0 L1,1 L0,1 Z " fill="#FFFFFF" opacity="0.3019608" transform="translate(311,258)"/>
<path d="M0,0 L1,0 L1,1 L0,1 Z " fill="#FFFFFF" opacity="0.015686275" transform="translate(309,258)"/>
<path d="M0,0 L1,0 L1,1 L0,1 Z " fill="#FFFFFF" opacity="0.84313726" transform="translate(308,257)"/>
<path d="M0,0 L1,0 L1,1 L0,1 Z " fill="#FFFFFF" opacity="0.5294118" transform="translate(306,257)"/>
<path d="M0,0 L1,0 L1,1 L0,1 Z " fill="#FFFFFF" opacity="0.21568628" transform="translate(304,257)"/>
<path d="M0,0 L1,0 L1,1 L0,1 Z " fill="#FFFFFF" opacity="0.76862746" transform="translate(345,256)"/>
<path d="M0,0 L1,0 L1,1 L0,1 Z " fill="#FFFFFF" opacity="0.3764706" transform="translate(303,256)"/>
<path d="M0,0 L1,0 L1,1 L0,1 Z " fill="#FFFFFF" opacity="0.11764706" transform="translate(302,255)"/>
<path d="M0,0 L1,0 L1,1 L0,1 Z " fill="#FFFFFF" opacity="0.41960785" transform="translate(345,254)"/>
<path d="M0,0 L1,0 L1,1 L0,1 Z " fill="#FFFFFF" opacity="0.7411765" transform="translate(302,254)"/>
<path d="M0,0 L1,0 L1,1 L0,1 Z " fill="#FFFFFF" opacity="0.41568628" transform="translate(301,253)"/>
<path d="M0,0 L1,0 L1,1 L0,1 Z " fill="#FFFFFF" opacity="0.015686275" transform="translate(345,252)"/>
<path d="M0,0 L1,0 L1,1 L0,1 Z " fill="#FFFFFF" opacity="0.95686275" transform="translate(344,252)"/>
<path d="M0,0 L1,0 L1,1 L0,1 Z " fill="#FFFFFF" opacity="0.9372549" transform="translate(301,252)"/>
<path d="M0,0 L1,0 L1,1 L0,1 Z " fill="#FFFFFF" opacity="0.08627451" transform="translate(300,252)"/>
<path d="M0,0 L1,0 L1,1 L0,1 Z " fill="#FFFFFF" opacity="0.6313726" transform="translate(300,251)"/>
<path d="M0,0 L1,0 L1,1 L0,1 Z " fill="#FFFFFF" opacity="0.50980395" transform="translate(344,250)"/>
<path d="M0,0 L1,0 L1,1 L0,1 Z " fill="#FFFFFF" opacity="0.23137255" transform="translate(299,250)"/>
<path d="M0,0 L1,0 L1,1 L0,1 Z " fill="#FFFFFF" opacity="0.77254903" transform="translate(299,249)"/>
<path d="M0,0 L1,0 L1,1 L0,1 Z " fill="#FFFFFF" opacity="0.023529412" transform="translate(344,248)"/>
<path d="M0,0 L1,0 L1,1 L0,1 Z " fill="#FFFFFF" opacity="0.27058825" transform="translate(298,248)"/>
<path d="M0,0 L1,0 L1,1 L0,1 Z " fill="#FFFFFF" opacity="0.6862745" transform="translate(343,247)"/>
<path d="M0,0 L1,0 L1,1 L0,1 Z " fill="#FFFFFF" opacity="0.7647059" transform="translate(298,247)"/>
<path d="M0,0 L1,0 L1,1 L0,1 Z " fill="#FFFFFF" opacity="0.2627451" transform="translate(297,246)"/>
<path d="M0,0 L1,0 L1,1 L0,1 Z " fill="#FFFFFF" opacity="0.101960786" transform="translate(343,245)"/>
<path d="M0,0 L1,0 L1,1 L0,1 Z " fill="#FFFFFF" opacity="0.7607843" transform="translate(297,245)"/>
<path d="M0,0 L1,0 L1,1 L0,1 Z " fill="#000000" opacity="0.15686275" transform="translate(347,244)"/>
<path d="M0,0 L1,0 L1,1 L0,1 Z " fill="#FFFFFF" opacity="0.7529412" transform="translate(342,244)"/>
<path d="M0,0 L1,0 L1,1 L0,1 Z " fill="#F5F5F5" transform="translate(336,244)"/>
<path d="M0,0 L1,0 L1,1 L0,1 Z " fill="#949494" transform="translate(335,244)"/>
<path d="M0,0 L1,0 L1,1 L0,1 Z " fill="#6D6D6D" transform="translate(334,244)"/>
<path d="M0,0 L1,0 L1,1 L0,1 Z " fill="#878787" transform="translate(332,244)"/>
<path d="M0,0 L1,0 L1,1 L0,1 Z " fill="#F4F4F4" transform="translate(331,244)"/>
<path d="M0,0 L1,0 L1,1 L0,1 Z " fill="#FFFFFF" opacity="0.25882354" transform="translate(296,244)"/>
<path d="M0,0 L1,0 L1,1 L0,1 Z " fill="#000000" opacity="0.27450982" transform="translate(348,243)"/>
<path d="M0,0 L1,0 L1,1 L0,1 Z " fill="#000000" opacity="0.63529414" transform="translate(346,243)"/>
<path d="M0,0 L1,0 L1,1 L0,1 Z " fill="#D2D2D2" transform="translate(337,243)"/>
<path d="M0,0 L1,0 L1,1 L0,1 Z " fill="#141414" transform="translate(336,243)"/>
<path d="M0,0 L1,0 L1,1 L0,1 Z " fill="#191919" transform="translate(331,243)"/>
<path d="M0,0 L1,0 L1,1 L0,1 Z " fill="#BABABA" transform="translate(330,243)"/>
<path d="M0,0 L1,0 L1,1 L0,1 Z " fill="#FFFFFF" opacity="0.75686276" transform="translate(296,243)"/>
<path d="M0,0 L1,0 L1,1 L0,1 Z " fill="#000000" opacity="0.3372549" transform="translate(349,242)"/>
<path d="M0,0 L1,0 L1,1 L0,1 Z " fill="#000000" opacity="0.9764706" transform="translate(348,242)"/>
<path d="M0,0 L1,0 L1,1 L0,1 Z " fill="#000000" opacity="0.61960787" transform="translate(345,242)"/>
<path d="M0,0 L1,0 L1,1 L0,1 Z " fill="#FFFFFF" opacity="0.03529412" transform="translate(342,242)"/>
<path d="M0,0 L1,0 L1,1 L0,1 Z " fill="#FFFFFF" opacity="0.9372549" transform="translate(341,242)"/>
<path d="M0,0 L1,0 L1,1 L0,1 Z " fill="#252525" transform="translate(337,242)"/>
<path d="M0,0 L1,0 L1,1 L0,1 Z " fill="#969696" transform="translate(329,242)"/>
<path d="M0,0 L1,0 L1,1 L0,1 Z " fill="#FFFFFF" opacity="0.22745098" transform="translate(295,242)"/>
<path d="M0,0 L1,0 L1,1 L0,1 Z " fill="#000000" opacity="0.40392157" transform="translate(350,241)"/>
<path d="M0,0 L1,0 L1,1 L0,1 Z " fill="#000000" opacity="0.99215686" transform="translate(349,241)"/>
<path d="M0,0 L1,0 L1,1 L0,1 Z " fill="#000000" opacity="0.6117647" transform="translate(344,241)"/>
<path d="M0,0 L1,0 L1,1 L0,1 Z " fill="#B7B7B7" transform="translate(338,241)"/>
<path d="M0,0 L1,0 L1,1 L0,1 Z " fill="#AEAEAE" transform="translate(328,241)"/>
<path d="M0,0 L1,0 L1,1 L0,1 Z " fill="#FFFFFF" opacity="0.6313726" transform="translate(295,241)"/>
<path d="M0,0 L1,0 L1,1 L0,1 Z " fill="#000000" opacity="0.45882353" transform="translate(351,240)"/>
<path d="M0,0 L1,0 L1,1 L0,1 Z " fill="#000000" opacity="0.6392157" transform="translate(343,240)"/>
<path d="M0,0 L1,0 L1,1 L0,1 Z " fill="#000000" opacity="0.015686275" transform="translate(342,240)"/>
<path d="M0,0 L1,0 L1,1 L0,1 Z " fill="#FFFFFF" opacity="0.14509805" transform="translate(341,240)"/>
<path d="M0,0 L1,0 L1,1 L0,1 Z " fill="#757575" transform="translate(338,240)"/>
<path d="M0,0 L1,0 L1,1 L0,1 Z " fill="#151515" transform="translate(328,240)"/>
<path d="M0,0 L1,0 L1,1 L0,1 Z " fill="#FFFFFF" opacity="0.9607843" transform="translate(295,240)"/>
<path d="M0,0 L1,0 L1,1 L0,1 Z " fill="#000000" opacity="0.44705883" transform="translate(352,239)"/>
<path d="M0,0 L1,0 L1,1 L0,1 Z " fill="#000000" opacity="0.03529412" transform="translate(341,239)"/>
<path d="M0,0 L1,0 L1,1 L0,1 Z " fill="#FFFFFF" opacity="0.5568628" transform="translate(340,239)"/>
<path d="M0,0 L1,0 L1,1 L0,1 Z " fill="#919191" transform="translate(327,239)"/>
<path d="M0,0 L1,0 L1,1 L0,1 Z " fill="#FFFFFF" opacity="0.4117647" transform="translate(294,239)"/>
<path d="M0,0 L1,0 L1,1 L0,1 Z " fill="#000000" opacity="0.4392157" transform="translate(353,238)"/>
<path d="M0,0 L1,0 L1,1 L0,1 Z " fill="#000000" opacity="0.7607843" transform="translate(341,238)"/>
<path d="M0,0 L1,0 L1,1 L0,1 Z " fill="#787878" opacity="0.1254902" transform="translate(340,238)"/>
<path d="M0,0 L1,0 L1,1 L0,1 Z " fill="#5B5B5B" transform="translate(338,238)"/>
<path d="M0,0 L1,0 L1,1 L0,1 Z " fill="#333333" transform="translate(327,238)"/>
<path d="M0,0 L1,0 L1,1 L0,1 Z " fill="#FFFFFF" opacity="0.8039216" transform="translate(294,238)"/>
<path d="M0,0 L1,0 L1,1 L0,1 Z " fill="#000000" opacity="0.31764707" transform="translate(354,237)"/>
<path d="M0,0 L1,0 L1,1 L0,1 Z " fill="#000000" opacity="0.8509804" transform="translate(340,237)"/>
<path d="M0,0 L1,0 L1,1 L0,1 Z " fill="#B2B2B2" opacity="0.46666667" transform="translate(339,237)"/>
<path d="M0,0 L1,0 L1,1 L0,1 Z " fill="#E1E1E1" transform="translate(326,237)"/>
<path d="M0,0 L1,0 L1,1 L0,1 Z " fill="#000000" opacity="0.73333335" transform="translate(353,236)"/>
<path d="M0,0 L1,0 L1,1 L0,1 Z " fill="#000000" opacity="0.9254902" transform="translate(339,236)"/>
<path d="M0,0 L1,0 L1,1 L0,1 Z " fill="#4A4A4A" opacity="0.78431374" transform="translate(338,236)"/>
<path d="M0,0 L1,0 L1,1 L0,1 Z " fill="#C2C2C2" transform="translate(326,236)"/>
<path d="M0,0 L1,0 L1,1 L0,1 Z " fill="#FFFFFF" opacity="0.5882353" transform="translate(293,236)"/>
<path d="M0,0 L1,0 L1,1 L0,1 Z " fill="#000000" opacity="0.9882353" transform="translate(338,235)"/>
<path d="M0,0 L1,0 L1,1 L0,1 Z " fill="#2A2A2A" opacity="0.9019608" transform="translate(337,235)"/>
<path d="M0,0 L1,0 L1,1 L0,1 Z " fill="#020202" transform="translate(336,235)"/>
<path d="M0,0 L1,0 L1,1 L0,1 Z " fill="#FFFFFF" opacity="0.9411765" transform="translate(293,235)"/>
<path d="M0,0 L1,0 L1,1 L0,1 Z " fill="#FFFFFF" opacity="0.03529412" transform="translate(292,235)"/>
<path d="M0,0 L1,0 L1,1 L0,1 Z " fill="#191919" opacity="0.92156863" transform="translate(336,234)"/>
<path d="M0,0 L1,0 L1,1 L0,1 Z " fill="#1E1E1E" transform="translate(335,234)"/>
<path d="M0,0 L1,0 L1,1 L0,1 Z " fill="#A2A2A2" transform="translate(326,234)"/>
<path d="M0,0 L1,0 L1,1 L0,1 Z " fill="#000000" opacity="0.7411765" transform="translate(350,233)"/>
<path d="M0,0 L1,0 L1,1 L0,1 Z " fill="#393939" opacity="0.9843137" transform="translate(334,233)"/>
<path d="M0,0 L1,0 L1,1 L0,1 Z " fill="#FFFFFF" opacity="0.6666667" transform="translate(292,233)"/>
<path d="M0,0 L1,0 L1,1 L0,1 Z " fill="#000000" opacity="0.74509805" transform="translate(349,232)"/>
<path d="M0,0 L1,0 L1,1 L0,1 Z " fill="#292929" opacity="0.9411765" transform="translate(333,232)"/>
<path d="M0,0 L1,0 L1,1 L0,1 Z " fill="#141414" transform="translate(332,232)"/>
<path d="M0,0 L1,0 L1,1 L0,1 Z " fill="#CCCCCC" transform="translate(326,232)"/>
<path d="M0,0 L1,0 L1,1 L0,1 Z " fill="#FFFFFF" opacity="0.9529412" transform="translate(292,232)"/>
<path d="M0,0 L1,0 L1,1 L0,1 Z " fill="#FFFFFF" opacity="0.03137255" transform="translate(291,232)"/>
<path d="M0,0 L1,0 L1,1 L0,1 Z " fill="#000000" opacity="0.72156864" transform="translate(348,231)"/>
<path d="M0,0 L1,0 L1,1 L0,1 Z " fill="#313131" opacity="0.9764706" transform="translate(331,231)"/>
<path d="M0,0 L1,0 L1,1 L0,1 Z " fill="#040404" transform="translate(327,231)"/>
<path d="M0,0 L1,0 L1,1 L0,1 Z " fill="#F7F7F7" transform="translate(326,231)"/>
<path d="M0,0 L1,0 L1,1 L0,1 Z " fill="#000000" opacity="0.019607844" transform="translate(348,230)"/>
<path d="M0,0 L1,0 L1,1 L0,1 Z " fill="#262626" opacity="0.89411765" transform="translate(330,230)"/>
<path d="M0,0 L1,0 L1,1 L0,1 Z " fill="#000000" transform="translate(328,230)"/>
<path d="M0,0 L1,0 L1,1 L0,1 Z " fill="#FFFFFF" opacity="0.627451" transform="translate(291,230)"/>
<path d="M0,0 L1,0 L1,1 L0,1 Z " fill="#000000" opacity="0.003921569" transform="translate(347,229)"/>
<path d="M0,0 L1,0 L1,1 L0,1 Z " fill="#000000" opacity="0.56078434" transform="translate(346,229)"/>
<path d="M0,0 L1,0 L1,1 L0,1 Z " fill="#060606" opacity="0.9019608" transform="translate(329,229)"/>
<path d="M0,0 L1,0 L1,1 L0,1 Z " fill="#232323" opacity="0.9607843" transform="translate(328,229)"/>
<path d="M0,0 L1,0 L1,1 L0,1 Z " fill="#858585" transform="translate(327,229)"/>
<path d="M0,0 L1,0 L1,1 L0,1 Z " fill="#FFFFFF" opacity="0.92941177" transform="translate(291,229)"/>
<path d="M0,0 L1,0 L1,1 L0,1 Z " fill="#FFFFFF" opacity="0.015686275" transform="translate(290,229)"/>
<path d="M0,0 L1,0 L1,1 L0,1 Z " fill="#000000" opacity="0.4745098" transform="translate(345,228)"/>
<path d="M0,0 L1,0 L1,1 L0,1 Z " fill="#343434" opacity="0.7411765" transform="translate(327,228)"/>
<path d="M0,0 L1,0 L1,1 L0,1 Z " fill="#EAEAEA" opacity="0.8901961" transform="translate(326,228)"/>
<path d="M0,0 L1,0 L1,1 L0,1 Z " fill="#000000" opacity="0.38039216" transform="translate(344,227)"/>
<path d="M0,0 L1,0 L1,1 L0,1 Z " fill="#000000" opacity="0.9882353" transform="translate(343,227)"/>
<path d="M0,0 L1,0 L1,1 L0,1 Z " fill="#545454" opacity="0.7254902" transform="translate(325,227)"/>
<path d="M0,0 L1,0 L1,1 L0,1 Z " fill="#F4F4F4" opacity="0.9372549" transform="translate(324,227)"/>
<path d="M0,0 L1,0 L1,1 L0,1 Z " fill="#FFFFFF" opacity="0.5882353" transform="translate(290,227)"/>
<path d="M0,0 L1,0 L1,1 L0,1 Z " fill="#000000" opacity="0.3019608" transform="translate(343,226)"/>
<path d="M0,0 L1,0 L1,1 L0,1 Z " fill="#6F6F6F" opacity="0.74509805" transform="translate(323,226)"/>
<path d="M0,0 L1,0 L1,1 L0,1 Z " fill="#FAFAFA" opacity="0.972549" transform="translate(322,226)"/>
<path d="M0,0 L1,0 L1,1 L0,1 Z " fill="#FFFFFF" opacity="0.89411765" transform="translate(290,226)"/>
<path d="M0,0 L1,0 L1,1 L0,1 Z " fill="#000000" opacity="0.1882353" transform="translate(342,225)"/>
<path d="M0,0 L1,0 L1,1 L0,1 Z " fill="#000000" opacity="0.88235295" transform="translate(341,225)"/>
<path d="M0,0 L1,0 L1,1 L0,1 Z " fill="#050505" opacity="0.8862745" transform="translate(322,225)"/>
<path d="M0,0 L1,0 L1,1 L0,1 Z " fill="#8B8B8B" opacity="0.77254903" transform="translate(321,225)"/>
<path d="M0,0 L1,0 L1,1 L0,1 Z " fill="#FFFFFF" opacity="0.16470589" transform="translate(289,225)"/>
<path d="M0,0 L1,0 L1,1 L0,1 Z " fill="#000000" opacity="0.08627451" transform="translate(341,224)"/>
<path d="M0,0 L1,0 L1,1 L0,1 Z " fill="#0A0A0A" opacity="0.84705883" transform="translate(320,224)"/>
<path d="M0,0 L1,0 L1,1 L0,1 Z " fill="#9F9F9F" opacity="0.7607843" transform="translate(319,224)"/>
<path d="M0,0 L1,0 L1,1 L0,1 Z " fill="#FFFFFF" opacity="0.99215686" transform="translate(318,224)"/>
<path d="M0,0 L1,0 L1,1 L0,1 Z " fill="#000000" opacity="0.023529412" transform="translate(340,223)"/>
<path d="M0,0 L1,0 L1,1 L0,1 Z " fill="#000000" opacity="0.627451" transform="translate(339,223)"/>
<path d="M0,0 L1,0 L1,1 L0,1 Z " fill="#0C0C0C" opacity="0.7921569" transform="translate(318,223)"/>
<path d="M0,0 L1,0 L1,1 L0,1 Z " fill="#A7A7A7" opacity="0.7294118" transform="translate(317,223)"/>
<path d="M0,0 L1,0 L1,1 L0,1 Z " fill="#FFFFFF" opacity="0.9882353" transform="translate(316,223)"/>
<path d="M0,0 L1,0 L1,1 L0,1 Z " fill="#FFFFFF" opacity="0.70980394" transform="translate(289,223)"/>
<path d="M0,0 L1,0 L1,1 L0,1 Z " fill="#000000" opacity="0.45882353" transform="translate(338,222)"/>
<path d="M0,0 L1,0 L1,1 L0,1 Z " fill="#000000" opacity="0.99215686" transform="translate(337,222)"/>
<path d="M0,0 L1,0 L1,1 L0,1 Z " fill="#090909" opacity="0.8156863" transform="translate(316,222)"/>
<path d="M0,0 L1,0 L1,1 L0,1 Z " fill="#939393" opacity="0.7411765" transform="translate(315,222)"/>
<path d="M0,0 L1,0 L1,1 L0,1 Z " fill="#FEFEFE" opacity="0.98039216" transform="translate(314,222)"/>
<path d="M0,0 L1,0 L1,1 L0,1 Z " fill="#FFFFFF" opacity="0.94509804" transform="translate(289,222)"/>
<path d="M0,0 L1,0 L1,1 L0,1 Z " fill="#000000" opacity="0.2901961" transform="translate(337,221)"/>
<path d="M0,0 L1,0 L1,1 L0,1 Z " fill="#000000" opacity="0.93333334" transform="translate(336,221)"/>
<path d="M0,0 L1,0 L1,1 L0,1 Z " fill="#808080" opacity="0.74509805" transform="translate(313,221)"/>
<path d="M0,0 L1,0 L1,1 L0,1 Z " fill="#FAFAFA" opacity="0.96862745" transform="translate(312,221)"/>
<path d="M0,0 L1,0 L1,1 L0,1 Z " fill="#FFFFFF" opacity="0.105882354" transform="translate(288,221)"/>
<path d="M0,0 L1,0 L1,1 L0,1 Z " fill="#000000" opacity="0.1254902" transform="translate(336,220)"/>
<path d="M0,0 L1,0 L1,1 L0,1 Z " fill="#686868" opacity="0.7294118" transform="translate(311,220)"/>
<path d="M0,0 L1,0 L1,1 L0,1 Z " fill="#F5F5F5" opacity="0.9372549" transform="translate(310,220)"/>
<path d="M0,0 L1,0 L1,1 L0,1 Z " fill="#000000" opacity="0.023529412" transform="translate(335,219)"/>
<path d="M0,0 L1,0 L1,1 L0,1 Z " fill="#000000" opacity="0.5764706" transform="translate(334,219)"/>
<path d="M0,0 L1,0 L1,1 L0,1 Z " fill="#525252" opacity="0.72156864" transform="translate(309,219)"/>
<path d="M0,0 L1,0 L1,1 L0,1 Z " fill="#ECECEC" opacity="0.8980392" transform="translate(308,219)"/>
<path d="M0,0 L1,0 L1,1 L0,1 Z " fill="#FFFFFF" opacity="0.41960785" transform="translate(288,219)"/>
<path d="M0,0 L1,0 L1,1 L0,1 Z " fill="#000000" opacity="0.32941177" transform="translate(333,218)"/>
<path d="M0,0 L1,0 L1,1 L0,1 Z " fill="#000000" opacity="0.94509804" transform="translate(332,218)"/>
<path d="M0,0 L1,0 L1,1 L0,1 Z " fill="#383838" opacity="0.73333335" transform="translate(307,218)"/>
<path d="M0,0 L1,0 L1,1 L0,1 Z " fill="#D3D3D3" opacity="0.85882354" transform="translate(306,218)"/>
<path d="M0,0 L1,0 L1,1 L0,1 Z " fill="#000000" opacity="0.14117648" transform="translate(332,217)"/>
<path d="M0,0 L1,0 L1,1 L0,1 Z " fill="#010101" transform="translate(306,217)"/>
<path d="M0,0 L1,0 L1,1 L0,1 Z " fill="#1B1B1B" opacity="0.8" transform="translate(305,217)"/>
<path d="M0,0 L1,0 L1,1 L0,1 Z " fill="#A8A8A8" opacity="0.8352941" transform="translate(304,217)"/>
<path d="M0,0 L1,0 L1,1 L0,1 Z " fill="#FEFEFE" transform="translate(303,217)"/>
<path d="M0,0 L1,0 L1,1 L0,1 Z " fill="#FFFFFF" opacity="0.6745098" transform="translate(288,217)"/>
<path d="M0,0 L1,0 L1,1 L0,1 Z " fill="#000000" opacity="0.02745098" transform="translate(331,216)"/>
<path d="M0,0 L1,0 L1,1 L0,1 Z " fill="#000000" opacity="0.5568628" transform="translate(330,216)"/>
<path d="M0,0 L1,0 L1,1 L0,1 Z " fill="#000000" opacity="0.99607843" transform="translate(329,216)"/>
<path d="M0,0 L1,0 L1,1 L0,1 Z " fill="#7B7B7B" opacity="0.827451" transform="translate(302,216)"/>
<path d="M0,0 L1,0 L1,1 L0,1 Z " fill="#F2F2F2" opacity="0.99607843" transform="translate(301,216)"/>
<path d="M0,0 L1,0 L1,1 L0,1 Z " fill="#000000" opacity="0.25490198" transform="translate(329,215)"/>
<path d="M0,0 L1,0 L1,1 L0,1 Z " fill="#515151" opacity="0.8392157" transform="translate(300,215)"/>
<path d="M0,0 L1,0 L1,1 L0,1 Z " fill="#DADADA" opacity="0.98039216" transform="translate(299,215)"/>
<path d="M0,0 L1,0 L1,1 L0,1 Z " fill="#FFFFFF" opacity="0.85490197" transform="translate(288,215)"/>
<path d="M0,0 L1,0 L1,1 L0,1 Z " fill="#000000" opacity="0.05882353" transform="translate(328,214)"/>
<path d="M0,0 L1,0 L1,1 L0,1 Z " fill="#000000" opacity="0.6431373" transform="translate(327,214)"/>
<path d="M0,0 L1,0 L1,1 L0,1 Z " fill="#010101" transform="translate(299,214)"/>
<path d="M0,0 L1,0 L1,1 L0,1 Z " fill="#2A2A2A" opacity="0.85490197" transform="translate(298,214)"/>
<path d="M0,0 L1,0 L1,1 L0,1 Z " fill="#ADADAD" opacity="0.91764706" transform="translate(297,214)"/>
<path d="M0,0 L1,0 L1,1 L0,1 Z " fill="#FDFDFD" transform="translate(296,214)"/>
<path d="M0,0 L1,0 L1,1 L0,1 Z " fill="#FFFFFF" opacity="0.9490196" transform="translate(288,214)"/>
<path d="M0,0 L1,0 L1,1 L0,1 Z " fill="#000000" opacity="0.3372549" transform="translate(326,213)"/>
<path d="M0,0 L1,0 L1,1 L0,1 Z " fill="#717171" opacity="0.85882354" transform="translate(295,213)"/>
<path d="M0,0 L1,0 L1,1 L0,1 Z " fill="#E8E8E8" opacity="0.99607843" transform="translate(294,213)"/>
<path d="M0,0 L1,0 L1,1 L0,1 Z " fill="#FFFFFF" opacity="0.03529412" transform="translate(287,213)"/>
<path d="M0,0 L1,0 L1,1 L0,1 Z " fill="#000000" opacity="0.101960786" transform="translate(325,212)"/>
<path d="M0,0 L1,0 L1,1 L0,1 Z " fill="#000000" opacity="0.6901961" transform="translate(324,212)"/>
<path d="M0,0 L1,0 L1,1 L0,1 Z " fill="#373737" opacity="0.8509804" transform="translate(293,212)"/>
<path d="M0,0 L1,0 L1,1 L0,1 Z " fill="#B9B9B9" opacity="0.9372549" transform="translate(292,212)"/>
<path d="M0,0 L1,0 L1,1 L0,1 Z " fill="#000000" opacity="0.3372549" transform="translate(323,211)"/>
<path d="M0,0 L1,0 L1,1 L0,1 Z " fill="#737373" opacity="0.8156863" transform="translate(290,211)"/>
<path d="M0,0 L1,0 L1,1 L0,1 Z " fill="#EDEDED" opacity="0.96862745" transform="translate(289,211)"/>
<path d="M0,0 L1,0 L1,1 L0,1 Z " fill="#FFFFFF" opacity="0.21960784" transform="translate(287,211)"/>
<path d="M0,0 L1,0 L1,1 L0,1 Z " fill="#000000" opacity="0.06666667" transform="translate(322,210)"/>
<path d="M0,0 L1,0 L1,1 L0,1 Z " fill="#000000" opacity="0.61960787" transform="translate(321,210)"/>
<path d="M0,0 L1,0 L1,1 L0,1 Z " fill="#010101" opacity="0.972549" transform="translate(289,210)"/>
<path d="M0,0 L1,0 L1,1 L0,1 Z " fill="#626262" opacity="0.3764706" transform="translate(287,210)"/>
<path d="M0,0 L1,0 L1,1 L0,1 Z " fill="#000000" opacity="0.25882354" transform="translate(320,209)"/>
<path d="M0,0 L1,0 L1,1 L0,1 Z " fill="#000000" opacity="0.8627451" transform="translate(319,209)"/>
<path d="M0,0 L1,0 L1,1 L0,1 Z " fill="#000000" opacity="0.84313726" transform="translate(286,209)"/>
<path d="M0,0 L1,0 L1,1 L0,1 Z " fill="#000000" opacity="0.08627451" transform="translate(284,209)"/>
<path d="M0,0 L1,0 L1,1 L0,1 Z " fill="#000000" opacity="0.03529412" transform="translate(319,208)"/>
<path d="M0,0 L1,0 L1,1 L0,1 Z " fill="#000000" opacity="0.5019608" transform="translate(318,208)"/>
<path d="M0,0 L1,0 L1,1 L0,1 Z " fill="#000000" opacity="0.68235296" transform="translate(283,208)"/>
<path d="M0,0 L1,0 L1,1 L0,1 Z " fill="#000000" opacity="0.011764706" transform="translate(281,208)"/>
<path d="M0,0 L1,0 L1,1 L0,1 Z " fill="#000000" opacity="0.10980392" transform="translate(317,207)"/>
<path d="M0,0 L1,0 L1,1 L0,1 Z " fill="#000000" opacity="0.6431373" transform="translate(316,207)"/>
<path d="M0,0 L1,0 L1,1 L0,1 Z " fill="#000000" opacity="0.99607843" transform="translate(315,207)"/>
<path d="M0,0 L1,0 L1,1 L0,1 Z " fill="#000000" opacity="0.8980392" transform="translate(281,207)"/>
<path d="M0,0 L1,0 L1,1 L0,1 Z " fill="#000000" opacity="0.13725491" transform="translate(279,207)"/>
<path d="M0,0 L1,0 L1,1 L0,1 Z " fill="#000000" opacity="0.21176471" transform="translate(315,206)"/>
<path d="M0,0 L1,0 L1,1 L0,1 Z " fill="#000000" opacity="0.7764706" transform="translate(314,206)"/>
<path d="M0,0 L1,0 L1,1 L0,1 Z " fill="#000000" opacity="0.99607843" transform="translate(279,206)"/>
<path d="M0,0 L1,0 L1,1 L0,1 Z " fill="#000000" opacity="0.7490196" transform="translate(278,206)"/>
<path d="M0,0 L1,0 L1,1 L0,1 Z " fill="#000000" opacity="0.03529412" transform="translate(276,206)"/>
<path d="M0,0 L1,0 L1,1 L0,1 Z " fill="#000000" opacity="0.3529412" transform="translate(313,205)"/>
<path d="M0,0 L1,0 L1,1 L0,1 Z " fill="#000000" opacity="0.8862745" transform="translate(312,205)"/>
<path d="M0,0 L1,0 L1,1 L0,1 Z " fill="#000000" opacity="0.9372549" transform="translate(276,205)"/>
<path d="M0,0 L1,0 L1,1 L0,1 Z " fill="#000000" opacity="0.19607843" transform="translate(274,205)"/>
<path d="M0,0 L1,0 L1,1 L0,1 Z " fill="#000000" opacity="0.03529412" transform="translate(312,204)"/>
<path d="M0,0 L1,0 L1,1 L0,1 Z " fill="#000000" opacity="0.49411765" transform="translate(311,204)"/>
<path d="M0,0 L1,0 L1,1 L0,1 Z " fill="#000000" opacity="0.83137256" transform="translate(273,204)"/>
<path d="M0,0 L1,0 L1,1 L0,1 Z " fill="#000000" opacity="0.19215687" transform="translate(271,204)"/>
<path d="M0,0 L1,0 L1,1 L0,1 Z " fill="#000000" opacity="0.101960786" transform="translate(310,203)"/>
<path d="M0,0 L1,0 L1,1 L0,1 Z " fill="#000000" opacity="0.63529414" transform="translate(309,203)"/>
<path d="M0,0 L1,0 L1,1 L0,1 Z " fill="#000000" opacity="0.99607843" transform="translate(308,203)"/>
<path d="M0,0 L1,0 L1,1 L0,1 Z " fill="#000000" opacity="0.5568628" transform="translate(269,203)"/>
<path d="M0,0 L1,0 L1,1 L0,1 Z " fill="#000000" opacity="0.007843138" transform="translate(267,203)"/>
<path d="M0,0 L1,0 L1,1 L0,1 Z " fill="#000000" opacity="0.20392157" transform="translate(308,202)"/>
<path d="M0,0 L1,0 L1,1 L0,1 Z " fill="#000000" opacity="0.76862746" transform="translate(307,202)"/>
<path d="M0,0 L1,0 L1,1 L0,1 Z " fill="#000000" opacity="0.60784316" transform="translate(266,202)"/>
<path d="M0,0 L1,0 L1,1 L0,1 Z " fill="#000000" opacity="0.023529412" transform="translate(264,202)"/>
<path d="M0,0 L1,0 L1,1 L0,1 Z " fill="#000000" opacity="0.31764707" transform="translate(306,201)"/>
<path d="M0,0 L1,0 L1,1 L0,1 Z " fill="#000000" opacity="0.80784315" transform="translate(305,201)"/>
<path d="M0,0 L1,0 L1,1 L0,1 Z " fill="#000000" opacity="0.654902" transform="translate(263,201)"/>
<path d="M0,0 L1,0 L1,1 L0,1 Z " fill="#000000" opacity="0.047058824" transform="translate(261,201)"/>
<path d="M0,0 L1,0 L1,1 L0,1 Z " fill="#000000" opacity="0.30588236" transform="translate(304,200)"/>
<path d="M0,0 L1,0 L1,1 L0,1 Z " fill="#000000" opacity="0.8" transform="translate(303,200)"/>
<path d="M0,0 L1,0 L1,1 L0,1 Z " fill="#000000" opacity="0.7019608" transform="translate(260,200)"/>
<path d="M0,0 L1,0 L1,1 L0,1 Z " fill="#000000" opacity="0.078431375" transform="translate(258,200)"/>
<path d="M0,0 L1,0 L1,1 L0,1 Z " fill="#000000" opacity="0.29411766" transform="translate(302,199)"/>
<path d="M0,0 L1,0 L1,1 L0,1 Z " fill="#000000" opacity="0.78431374" transform="translate(301,199)"/>
<path d="M0,0 L1,0 L1,1 L0,1 Z " fill="#000000" opacity="0.7490196" transform="translate(257,199)"/>
<path d="M0,0 L1,0 L1,1 L0,1 Z " fill="#000000" opacity="0.11764706" transform="translate(255,199)"/>
<path d="M0,0 L1,0 L1,1 L0,1 Z " fill="#000000" opacity="0.28235295" transform="translate(300,198)"/>
<path d="M0,0 L1,0 L1,1 L0,1 Z " fill="#000000" opacity="0.77254903" transform="translate(299,198)"/>
<path d="M0,0 L1,0 L1,1 L0,1 Z " fill="#000000" opacity="0.7411765" transform="translate(254,198)"/>
<path d="M0,0 L1,0 L1,1 L0,1 Z " fill="#000000" opacity="0.27058825" transform="translate(298,197)"/>
<path d="M0,0 L1,0 L1,1 L0,1 Z " fill="#000000" opacity="0.7607843" transform="translate(297,197)"/>
<path d="M0,0 L1,0 L1,1 L0,1 Z " fill="#000000" opacity="0.25490198" transform="translate(296,196)"/>
<path d="M0,0 L1,0 L1,1 L0,1 Z " fill="#000000" opacity="0.7529412" transform="translate(295,196)"/>
<path d="M0,0 L1,0 L1,1 L0,1 Z " fill="#000000" opacity="0.14509805" transform="translate(254,196)"/>
<path d="M0,0 L1,0 L1,1 L0,1 Z " fill="#000000" opacity="0.21960784" transform="translate(294,195)"/>
<path d="M0,0 L1,0 L1,1 L0,1 Z " fill="#000000" opacity="0.654902" transform="translate(293,195)"/>
<path d="M0,0 L1,0 L1,1 L0,1 Z " fill="#000000" opacity="0.9843137" transform="translate(292,195)"/>
<path d="M0,0 L1,0 L1,1 L0,1 Z " fill="#000000" opacity="0.7176471" transform="translate(255,195)"/>
<path d="M0,0 L1,0 L1,1 L0,1 Z " fill="#000000" opacity="0.52156866" transform="translate(291,194)"/>
<path d="M0,0 L1,0 L1,1 L0,1 Z " fill="#000000" opacity="0.92156863" transform="translate(290,194)"/>
<path d="M0,0 L1,0 L1,1 L0,1 Z " fill="#000000" opacity="0.39215687" transform="translate(289,193)"/>
<path d="M0,0 L1,0 L1,1 L0,1 Z " fill="#000000" opacity="0.8235294" transform="translate(288,193)"/>
<path d="M0,0 L1,0 L1,1 L0,1 Z " fill="#000000" opacity="0.003921569" transform="translate(255,193)"/>
<path d="M0,0 L1,0 L1,1 L0,1 Z " fill="#000000" opacity="0.25882354" transform="translate(287,192)"/>
<path d="M0,0 L1,0 L1,1 L0,1 Z " fill="#000000" opacity="0.69411767" transform="translate(286,192)"/>
<path d="M0,0 L1,0 L1,1 L0,1 Z " fill="#000000" opacity="0.99215686" transform="translate(285,192)"/>
<path d="M0,0 L1,0 L1,1 L0,1 Z " fill="#000000" opacity="0.3137255" transform="translate(256,192)"/>
<path d="M0,0 L1,0 L1,1 L0,1 Z " fill="#000000" opacity="0.56078434" transform="translate(284,191)"/>
<path d="M0,0 L1,0 L1,1 L0,1 Z " fill="#000000" opacity="0.94509804" transform="translate(283,191)"/>
<path d="M0,0 L1,0 L1,1 L0,1 Z " fill="#000000" opacity="0.38431373" transform="translate(282,190)"/>
<path d="M0,0 L1,0 L1,1 L0,1 Z " fill="#000000" opacity="0.7764706" transform="translate(281,190)"/>
<path d="M0,0 L1,0 L1,1 L0,1 Z " fill="#000000" opacity="0.99215686" transform="translate(258,190)"/>
<path d="M0,0 L1,0 L1,1 L0,1 Z " fill="#000000" opacity="0.19215687" transform="translate(257,190)"/>
<path d="M0,0 L1,0 L1,1 L0,1 Z " fill="#000000" opacity="0.5529412" transform="translate(279,189)"/>
<path d="M0,0 L1,0 L1,1 L0,1 Z " fill="#000000" opacity="0.91764706" transform="translate(278,189)"/>
<path d="M0,0 L1,0 L1,1 L0,1 Z " fill="#000000" opacity="0.5019608" transform="translate(258,189)"/>
<path d="M0,0 L1,0 L1,1 L0,1 Z " fill="#000000" opacity="0.32941177" transform="translate(277,188)"/>
<path d="M0,0 L1,0 L1,1 L0,1 Z " fill="#000000" opacity="0.72156864" transform="translate(276,188)"/>
<path d="M0,0 L1,0 L1,1 L0,1 Z " fill="#000000" opacity="0.99215686" transform="translate(275,188)"/>
<path d="M0,0 L1,0 L1,1 L0,1 Z " fill="#000000" opacity="0.007843138" transform="translate(258,188)"/>
<path d="M0,0 L1,0 L1,1 L0,1 Z " fill="#000000" opacity="0.49803922" transform="translate(274,187)"/>
<path d="M0,0 L1,0 L1,1 L0,1 Z " fill="#000000" opacity="0.8784314" transform="translate(273,187)"/>
<path d="M0,0 L1,0 L1,1 L0,1 Z " fill="#000000" opacity="0.8980392" transform="translate(260,187)"/>
<path d="M0,0 L1,0 L1,1 L0,1 Z " fill="#000000" opacity="0.08627451" transform="translate(259,187)"/>
<path d="M0,0 L1,0 L1,1 L0,1 Z " fill="#000000" opacity="0.003921569" transform="translate(273,186)"/>
<path d="M0,0 L1,0 L1,1 L0,1 Z " fill="#000000" opacity="0.62352943" transform="translate(271,186)"/>
<path d="M0,0 L1,0 L1,1 L0,1 Z " fill="#000000" opacity="0.94509804" transform="translate(270,186)"/>
<path d="M0,0 L1,0 L1,1 L0,1 Z " fill="#000000" opacity="0.20784314" transform="translate(260,186)"/>
<path d="M0,0 L1,0 L1,1 L0,1 Z " fill="#000000" opacity="0.3372549" transform="translate(269,185)"/>
<path d="M0,0 L1,0 L1,1 L0,1 Z " fill="#000000" opacity="0.69803923" transform="translate(268,185)"/>
<path d="M0,0 L1,0 L1,1 L0,1 Z " fill="#000000" opacity="0.98039216" transform="translate(267,185)"/>
<path d="M0,0 L1,0 L1,1 L0,1 Z " fill="#000000" opacity="0.35686275" transform="translate(261,185)"/>
<path d="M0,0 L1,0 L1,1 L0,1 Z " fill="#000000" opacity="0.4117647" transform="translate(266,184)"/>
<path d="M0,0 L1,0 L1,1 L0,1 Z " fill="#000000" opacity="0.77254903" transform="translate(265,184)"/>
<path d="M0,0 L1,0 L1,1 L0,1 Z " fill="#000000" opacity="0.5372549" transform="translate(262,184)"/>
<path d="M0,0 L1,0 L1,1 L0,1 Z " fill="#000000" opacity="0.12941177" transform="translate(264,183)"/>
<path d="M0,0 L1,0 L1,1 L0,1 Z " fill="#000000" opacity="0.007843138" transform="translate(262,183)"/>
</svg>
