<?xml version="1.0" encoding="UTF-8"?>
<!-- Generator: visioncortex VTracer 0.6.4 -->
<svg version="1.1" xmlns="http://www.w3.org/2000/svg" width="512" height="512">
<path d="M0,0 L9,0 L9,1 L0,1 Z M-5,1 L-4,1 L-4,2 L-5,2 Z M12,1 L14,1 L14,2 L12,2 Z M-8,2 L-7,2 L-7,3 L-8,3 Z M16,2 L17,2 L17,3 L16,3 Z M18,3 L19,3 L19,4 L18,4 Z M20,4 L21,4 L21,5 L20,5 Z M-22,12 L-21,12 L-21,13 L-22,13 Z M27,11 L28,11 L28,13 L29,13 L29,14 L30,14 L30,15 L31,15 L31,16 L32,16 L32,18 L33,18 L33,20 L34,20 L34,23 L35,23 L35,28 L36,28 L36,38 L35,38 L35,42 L34,42 L34,46 L33,46 L33,47 L34,47 L34,48 L32,48 L32,47 L28,47 L28,46 L20,46 L20,47 L-14,47 L-14,46 L-21,46 L-21,47 L-25,47 L-25,48 L-26,48 L-26,49 L-27,49 L-27,47 L-26,47 L-26,46 L-27,46 L-27,45 L-28,45 L-28,40 L-29,40 L-29,30 L-28,30 L-28,25 L-27,25 L-27,22 L-26,22 L-26,20 L-25,20 L-25,18 L-24,18 L-24,15 L-23,15 L-23,14 L-22,14 L-22,15 L-18,15 L-18,16 L-11,16 L-11,15 L-1,15 L-1,14 L12,14 L12,13 L20,13 L20,12 L23,12 L23,13 L26,13 L26,12 L27,12 Z M-3,45 L-3,46 L11,46 L11,45 Z M-26,50 L-25,50 L-25,51 L-26,51 Z M31,50 L32,50 L32,51 L31,51 Z M-24,54 L-23,54 L-23,55 L-24,55 Z M27,55 L28,55 L28,56 L27,56 Z M26,56 L27,56 L27,57 L26,57 Z M25,57 L26,57 L26,58 L25,58 Z M21,60 L22,60 L22,61 L21,61 Z M-15,62 L-14,62 L-14,63 L-15,63 Z M18,62 L19,62 L19,63 L18,63 Z M-13,63 L-12,63 L-12,64 L-13,64 Z M16,63 L17,63 L17,64 L16,64 Z M13,64 L14,64 L14,65 L13,65 Z M-8,65 L-6,65 L-6,66 L-8,66 Z M10,65 L11,65 L11,66 L10,66 Z M-2,66 L5,66 L5,67 L-2,67 Z " fill="#FFFFFF" transform="translate(306,203)"/>
<path d="M0,0 L34,0 L34,1 L0,1 Z M-13,1 L-11,1 L-11,2 L-12,2 L-12,3 L-13,3 Z M46,1 L48,1 L48,2 L46,2 Z M-12,4 L-11,4 L-11,5 L-12,5 Z M45,4 L46,4 L46,5 L45,5 Z M-10,8 L-9,8 L-9,9 L-10,9 Z M41,9 L42,9 L42,10 L41,10 Z M-9,10 L-8,10 L-8,11 L-9,11 Z M40,10 L41,10 L41,11 L40,11 Z M39,11 L40,11 L40,12 L39,12 Z M35,14 L36,14 L36,15 L35,15 Z M-1,16 L0,16 L0,17 L-1,17 Z M32,16 L33,16 L33,17 L32,17 Z M1,17 L2,17 L2,18 L1,18 Z M30,17 L31,17 L31,18 L30,18 Z M27,18 L28,18 L28,19 L27,19 Z M6,19 L8,19 L8,20 L6,20 Z M24,19 L25,19 L25,20 L24,20 Z M12,20 L19,20 L19,21 L12,21 Z " fill="#000000" opacity="0.89411765" transform="translate(292,249)"/>
<path d="M0,0 L8,0 L8,1 L10,1 L10,2 L11,2 L11,3 L12,3 L12,4 L13,4 L13,6 L14,6 L14,12 L13,12 L13,15 L12,15 L12,16 L11,16 L11,17 L10,17 L10,18 L8,18 L8,19 L0,19 L0,18 L-2,18 L-2,17 L-3,17 L-3,16 L-4,16 L-4,15 L-5,15 L-5,12 L-6,12 L-6,6 L-5,6 L-5,4 L-4,4 L-4,3 L-3,3 L-3,2 L-2,2 L-2,1 L0,1 Z " fill="#000000" transform="translate(322,225)"/>
<path d="M0,0 L9,0 L9,1 L0,1 Z M-5,1 L-4,1 L-4,2 L-5,2 Z M12,1 L14,1 L14,2 L12,2 Z M-8,2 L-7,2 L-7,3 L-8,3 Z M16,2 L17,2 L17,3 L16,3 Z M-10,3 L-9,3 L-9,4 L-10,4 Z M18,3 L19,3 L19,4 L18,4 Z M20,4 L21,4 L21,5 L20,5 Z M27,11 L28,11 L28,12 L27,12 Z M-22,12 L-21,12 L-21,13 L-22,13 Z M26,12 L27,12 L27,13 L26,13 Z M20,12 L23,12 L23,13 L22,13 L22,14 L12,14 L12,13 L20,13 Z M-23,14 L-22,14 L-22,15 L-18,15 L-18,16 L-24,16 L-24,15 L-23,15 Z M-1,14 L11,14 L11,15 L3,15 L3,16 L-11,16 L-11,15 L-1,15 Z " fill="#000000" opacity="0.92941177" transform="translate(306,203)"/>
<path d="M0,0 L28,0 L28,2 L27,2 L27,3 L26,3 L26,4 L4,4 L4,3 L-3,3 L-3,2 L-5,2 L-5,1 L0,1 Z " fill="#000000" transform="translate(326,323)"/>
<path d="M0,0 L34,0 L34,1 L0,1 Z M46,1 L48,1 L48,2 L46,2 Z M45,4 L46,4 L46,5 L45,5 Z M44,6 L45,6 L45,7 L44,7 Z M41,9 L42,9 L42,10 L41,10 Z M40,10 L41,10 L41,11 L40,11 Z M39,11 L40,11 L40,12 L39,12 Z M35,14 L36,14 L36,15 L35,15 Z M32,16 L33,16 L33,17 L32,17 Z " fill="#000000" opacity="0.9490196" transform="translate(292,249)"/>
<path d="M0,0 L9,0 L9,1 L0,1 Z M12,1 L14,1 L14,2 L12,2 Z M16,2 L17,2 L17,3 L16,3 Z M18,3 L19,3 L19,4 L18,4 Z M20,4 L21,4 L21,5 L20,5 Z M23,7 L24,7 L24,8 L23,8 Z M27,11 L28,11 L28,12 L27,12 Z " fill="#000000" opacity="0.67058825" transform="translate(306,203)"/>
<path d="M0,0 L1,0 L1,1 L0,1 Z M-6,0 L-3,0 L-3,1 L-4,1 L-4,2 L-14,2 L-14,1 L-6,1 Z M-27,2 L-15,2 L-15,3 L-23,3 L-23,4 L-34,4 L-34,3 L-27,3 Z " fill="#000000" transform="translate(332,215)"/>
<path d="M0,0 L1,0 L1,1 L0,1 Z M-2,2 L-1,2 L-1,3 L-2,3 Z M-3,4 L-2,4 L-2,5 L2,5 L2,6 L-4,6 L-4,5 L-3,5 Z M9,5 L12,5 L12,6 L9,6 Z " fill="#000000" opacity="0.9647059" transform="translate(286,213)"/>
<path d="M0,0 L34,0 L34,1 L0,1 Z " fill="#000000" transform="translate(292,249)"/>
<path d="M0,0 L1,0 L1,1 L0,1 Z M-3,1 L-2,1 L-2,2 L-3,2 Z M-6,2 L-5,2 L-5,3 L-6,3 Z " fill="#000000" transform="translate(322,266)"/>
<path d="M0,0 L1,0 L1,1 L0,1 Z " fill="#000000" opacity="0.039215688" transform="translate(309,250)"/>
<path d="M0,0 L2,0 L2,1 L1,1 L1,2 L0,2 Z M1,3 L2,3 L2,4 L1,4 Z M2,6 L3,6 L3,7 L2,7 Z M3,7 L4,7 L4,8 L3,8 Z " fill="#000000" opacity="0.8627451" transform="translate(279,250)"/>
<path d="M0,0 L9,0 L9,1 L0,1 Z M12,1 L14,1 L14,2 L12,2 Z " fill="#000000" transform="translate(306,203)"/>
<path d="M0,0 L2,0 L2,1 L0,1 Z M6,1 L13,1 L13,2 L6,2 Z " fill="#000000" transform="translate(298,268)"/>
<path d="M0,0 L1,0 L1,1 L0,1 Z " fill="#000000" opacity="0.7372549" transform="translate(287,211)"/>
<path d="M0,0 L1,0 L1,1 L0,1 Z M1,1 L3,1 L3,2 L1,2 Z M4,2 L5,2 L5,3 L4,3 Z " fill="#000000" opacity="0.79607844" transform="translate(322,205)"/>
<path d="M0,0 L2,0 L2,1 L0,1 Z M8,0 L9,0 L9,1 L8,1 Z M16,0 L24,0 L24,1 L16,1 Z " fill="#969696" opacity="0.8862745" transform="translate(301,248)"/>
<path d="M0,0 L12,0 L12,1 L4,1 L4,2 L-7,2 L-7,1 L0,1 Z " fill="#000000" transform="translate(305,217)"/>
<path d="M0,0 L1,0 L1,1 L0,1 Z " fill="#000000" opacity="0.5411765" transform="translate(343,327)"/>
<path d="M0,0 L5,0 L5,1 L0,1 Z M12,0 L15,0 L15,1 L12,1 Z " fill="#000000" transform="translate(283,218)"/>
<path d="M0,0 L1,0 L1,1 L0,1 Z M-1,1 L0,1 L0,2 L-1,2 Z M-4,3 L-3,3 L-3,4 L-4,4 Z " fill="#000000" opacity="0.98039216" transform="translate(328,262)"/>
<path d="M0,0 L1,0 L1,1 L0,1 Z " fill="#000000" opacity="0.9098039" transform="translate(341,322)"/>
<path d="M0,0 L1,0 L1,1 L0,1 Z " fill="#000000" opacity="0.7372549" transform="translate(313,269)"/>
<path d="M0,0 L1,0 L1,1 L0,1 Z " fill="#000000" opacity="0.14117648" transform="translate(303,250)"/>
<path d="M0,0 L1,0 L1,1 L0,1 Z " fill="#000000" opacity="0.89411765" transform="translate(297,268)"/>
<path d="M0,0 L1,0 L1,1 L0,1 Z M8,0 L10,0 L10,1 L8,1 Z " fill="#000000" opacity="0.61960787" transform="translate(330,250)"/>
<path d="M0,0 L1,0 L1,1 L0,1 Z " fill="#000000" opacity="0.4627451" transform="translate(289,217)"/>
<path d="M0,0 L1,0 L1,1 L0,1 Z M1,1 L3,1 L3,2 L1,2 Z " fill="#000000" opacity="0.78039217" transform="translate(291,265)"/>
<path d="M0,0 L2,0 L2,1 L1,1 L1,2 L0,2 Z " fill="#000000" transform="translate(279,250)"/>
<path d="M0,0 L1,0 L1,1 L0,1 Z " fill="#000000" transform="translate(333,214)"/>
<path d="M0,0 L1,0 L1,1 L0,1 Z " fill="#000000" opacity="0.13725491" transform="translate(311,204)"/>
<path d="M0,0 L1,0 L1,1 L0,1 Z " fill="#000000" opacity="0.93333334" transform="translate(339,251)"/>
<path d="M0,0 L8,0 L8,1 L0,1 Z " fill="#D8D8D8" transform="translate(317,248)"/>
<path d="M0,0 L1,0 L1,1 L0,1 Z " fill="#FFFFFF" opacity="0.33333334" transform="translate(342,237)"/>
<path d="M0,0 L11,0 L11,1 L0,1 Z " fill="#9B9B9B" transform="translate(298,218)"/>
<path d="M0,0 L1,0 L1,1 L0,1 Z M1,1 L3,1 L3,2 L1,2 Z " fill="#000000" opacity="0.8666667" transform="translate(324,206)"/>
<path d="M0,0 L1,0 L1,1 L0,1 Z " fill="#000000" opacity="0.7176471" transform="translate(350,322)"/>
<path d="M0,0 L1,0 L1,1 L0,1 Z M-3,1 L-1,1 L-1,2 L-3,2 Z " fill="#000000" opacity="0.90588236" transform="translate(319,267)"/>
<path d="M0,0 L1,0 L1,1 L0,1 Z " fill="#000000" opacity="0.27058825" transform="translate(322,250)"/>
<path d="M0,0 L1,0 L1,1 L0,1 Z " fill="#FFFFFF" opacity="0.25882354" transform="translate(276,236)"/>
<path d="M0,0 L1,0 L1,1 L0,1 Z M-5,0 L-3,0 L-3,1 L-4,1 L-4,2 L-8,2 L-8,1 L-5,1 Z " fill="#000000" transform="translate(332,215)"/>
<path d="M0,0 L1,0 L1,1 L0,1 Z " fill="#000000" opacity="0.25882354" transform="translate(310,202)"/>
<path d="M0,0 L1,0 L1,1 L0,1 Z " fill="#000000" opacity="0.18431373" transform="translate(308,270)"/>
<path d="M0,0 L1,0 L1,1 L0,1 Z " fill="#000000" opacity="0.8039216" transform="translate(290,264)"/>
<path d="M0,0 L1,0 L1,1 L0,1 Z " fill="#000000" opacity="0.88235295" transform="translate(329,261)"/>
<path d="M0,0 L2,0 L2,1 L1,1 L1,2 L0,2 L0,3 L-1,3 L-1,4 L-2,4 L-2,5 L-3,5 L-3,3 L-2,3 L-2,2 L-1,2 L-1,1 L0,1 Z " fill="#000000" transform="translate(320,226)"/>
<path d="M0,0 L1,0 L1,1 L0,1 Z " fill="#000000" transform="translate(301,204)"/>
<path d="M0,0 L1,0 L1,1 L0,1 Z " fill="#000000" opacity="0.40392157" transform="translate(337,327)"/>
<path d="M0,0 L1,0 L1,1 L0,1 Z " fill="#000000" opacity="0.9529412" transform="translate(329,326)"/>
<path d="M0,0 L1,0 L1,1 L0,1 Z " fill="#000000" opacity="0.67058825" transform="translate(333,322)"/>
<path d="M0,0 L1,0 L1,1 L0,1 Z " fill="#000000" opacity="0.21960784" transform="translate(308,268)"/>
<path d="M0,0 L1,0 L1,1 L0,1 Z M-2,1 L-1,1 L-1,2 L-2,2 Z " fill="#000000" opacity="0.972549" transform="translate(326,264)"/>
<path d="M0,0 L1,0 L1,1 L0,1 Z M-1,1 L0,1 L0,2 L-1,2 Z M-2,2 L-1,2 L-1,3 L-2,3 Z " fill="#000000" transform="translate(333,258)"/>
<path d="M0,0 L1,0 L1,1 L0,1 Z " fill="#000000" opacity="0.2784314" transform="translate(295,250)"/>
<path d="M0,0 L6,0 L6,1 L0,1 Z " fill="#5B5B5B" opacity="0.99215686" transform="translate(280,249)"/>
<path d="M0,0 L8,0 L8,1 L0,1 Z " fill="#C8C8C8" transform="translate(293,248)"/>
<path d="M0,0 L1,0 L1,1 L0,1 Z " fill="#FFFFFF" opacity="0.92941177" transform="translate(278,227)"/>
<path d="M0,0 L1,0 L1,1 L0,1 Z " fill="#FFFFFF" opacity="0.9764706" transform="translate(340,225)"/>
<path d="M0,0 L1,0 L1,1 L0,1 Z " fill="#070707" opacity="0.95686275" transform="translate(303,217)"/>
<path d="M0,0 L1,0 L1,1 L0,1 Z " fill="#000000" opacity="0.7137255" transform="translate(331,212)"/>
<path d="M0,0 L1,0 L1,1 L0,1 Z " fill="#000000" opacity="0.8666667" transform="translate(291,208)"/>
<path d="M0,0 L2,0 L2,1 L0,1 Z M3,1 L4,1 L4,2 L3,2 Z " fill="#000000" opacity="0.65882355" transform="translate(298,268)"/>
<path d="M0,0 L1,0 L1,1 L0,1 Z " fill="#000000" opacity="0.8862745" transform="translate(280,252)"/>
<path d="M0,0 L1,0 L1,1 L0,1 Z " fill="#000000" opacity="0.14901961" transform="translate(308,216)"/>
<path d="M0,0 L1,0 L1,1 L0,1 Z " fill="#000000" opacity="0.69803923" transform="translate(320,205)"/>
<path d="M0,0 L1,0 L1,1 L0,1 Z " fill="#000000" opacity="0.8666667" transform="translate(299,205)"/>
<path d="M0,0 L1,0 L1,1 L0,1 Z " fill="#000000" opacity="0.92941177" transform="translate(320,267)"/>
<path d="M0,0 L1,0 L1,1 L0,1 Z " fill="#000000" opacity="0.8039216" transform="translate(287,262)"/>
<path d="M0,0 L3,0 L3,1 L0,1 Z " fill="#020202" opacity="0.9882353" transform="translate(337,250)"/>
<path d="M0,0 L5,0 L5,1 L0,1 Z " fill="#929292" transform="translate(334,249)"/>
<path d="M0,0 L1,0 L1,6 L0,6 Z " fill="#151515" transform="translate(335,231)"/>
<path d="M0,0 L1,0 L1,1 L0,1 Z " fill="#000000" opacity="0.54509807" transform="translate(293,217)"/>
<path d="M0,0 L1,0 L1,1 L0,1 Z " fill="#000000" opacity="0.49803922" transform="translate(290,210)"/>
<path d="M0,0 L1,0 L1,1 L0,1 Z " fill="#000000" opacity="0.8156863" transform="translate(328,209)"/>
<path d="M0,0 L1,0 L1,1 L0,1 Z " fill="#000000" opacity="0.9490196" transform="translate(343,322)"/>
<path d="M0,0 L2,0 L2,1 L0,1 Z " fill="#BFBFBF" transform="translate(301,248)"/>
<path d="M0,0 L1,0 L1,1 L0,1 Z M-1,1 L0,1 L0,2 L-1,2 Z " fill="#FFFFFF" transform="translate(282,220)"/>
<path d="M0,0 L1,0 L1,1 L0,1 Z M-1,1 L0,1 L0,2 L-1,2 Z " fill="#000000" transform="translate(283,217)"/>
<path d="M0,0 L1,0 L1,1 L0,1 Z " fill="#000000" opacity="0.2901961" transform="translate(321,215)"/>
<path d="M0,0 L1,0 L1,1 L0,1 Z " fill="#000000" opacity="0.3882353" transform="translate(350,327)"/>
<path d="M0,0 L1,0 L1,1 L0,1 Z " fill="#000000" opacity="0.49803922" transform="translate(341,327)"/>
<path d="M0,0 L1,0 L1,1 L0,1 Z " fill="#000000" opacity="0.2627451" transform="translate(333,327)"/>
<path d="M0,0 L1,0 L1,1 L0,1 Z " fill="#000000" opacity="0.5176471" transform="translate(325,326)"/>
<path d="M0,0 L1,0 L1,1 L0,1 Z " fill="#000000" opacity="0.7529412" transform="translate(324,323)"/>
<path d="M0,0 L1,0 L1,1 L0,1 Z " fill="#000000" opacity="0.58431375" transform="translate(354,322)"/>
<path d="M0,0 L1,0 L1,1 L0,1 Z " fill="#000000" opacity="0.81960785" transform="translate(337,322)"/>
<path d="M0,0 L1,0 L1,1 L0,1 Z " fill="#000000" opacity="0.35686275" transform="translate(329,322)"/>
<path d="M0,0 L1,0 L1,1 L0,1 Z " fill="#000000" opacity="0.14509805" transform="translate(306,270)"/>
<path d="M0,0 L1,0 L1,1 L0,1 Z " fill="#000000" opacity="0.48235294" transform="translate(300,269)"/>
<path d="M0,0 L1,0 L1,1 L0,1 Z " fill="#000000" opacity="0.25882354" transform="translate(306,268)"/>
<path d="M0,0 L1,0 L1,1 L0,1 Z " fill="#000000" opacity="0.7019608" transform="translate(330,260)"/>
<path d="M0,0 L1,0 L1,1 L0,1 Z " fill="#000000" opacity="0.65882355" transform="translate(334,256)"/>
<path d="M0,0 L1,0 L1,1 L0,1 Z " fill="#000000" opacity="0.23529412" transform="translate(320,250)"/>
<path d="M0,0 L1,0 L1,1 L0,1 Z " fill="#000000" opacity="0.16078432" transform="translate(316,250)"/>
<path d="M0,0 L1,0 L1,1 L0,1 Z " fill="#000000" opacity="0.07058824" transform="translate(307,250)"/>
<path d="M0,0 L1,0 L1,1 L0,1 Z " fill="#000000" opacity="0.20784314" transform="translate(299,250)"/>
<path d="M0,0 L1,0 L1,1 L0,1 Z " fill="#000000" opacity="0.45490196" transform="translate(291,250)"/>
<path d="M0,0 L1,0 L1,1 L0,1 Z " fill="#000000" opacity="0.6666667" transform="translate(287,250)"/>
<path d="M0,0 L1,0 L1,1 L0,1 Z " fill="#5A5A5A" opacity="0.9843137" transform="translate(333,249)"/>
<path d="M0,0 L1,0 L1,1 L0,1 Z " fill="#1D1D1D" opacity="0.95686275" transform="translate(289,249)"/>
<path d="M0,0 L2,0 L2,1 L0,1 Z " fill="#929292" transform="translate(280,249)"/>
<path d="M0,0 L1,0 L1,1 L0,1 Z " fill="#C6C6C6" transform="translate(317,248)"/>
<path d="M0,0 L4,0 L4,1 L0,1 Z " fill="#DADADA" transform="translate(293,248)"/>
<path d="M0,0 L4,0 L4,1 L0,1 Z " fill="#868686" transform="translate(324,244)"/>
<path d="M0,0 L1,0 L1,1 L0,1 Z " fill="#FFFFFF" opacity="0.19607843" transform="translate(276,240)"/>
<path d="M0,0 L1,0 L1,1 L0,1 Z " fill="#FFFFFF" opacity="0.16862746" transform="translate(342,233)"/>
<path d="M0,0 L4,0 L4,1 L0,1 Z " fill="#8D8D8D" transform="translate(324,224)"/>
<path d="M0,0 L1,0 L1,1 L0,1 Z " fill="#FFFFFF" opacity="0.45882353" transform="translate(339,221)"/>
<path d="M0,0 L3,0 L3,1 L0,1 Z " fill="#F2F2F2" transform="translate(282,219)"/>
<path d="M0,0 L4,0 L4,1 L0,1 Z " fill="#6F6F6F" transform="translate(298,218)"/>
<path d="M0,0 L3,0 L3,1 L0,1 Z " fill="#434343" transform="translate(295,218)"/>
<path d="M0,0 L1,0 L1,1 L0,1 Z " fill="#202020" opacity="0.9882353" transform="translate(293,218)"/>
<path d="M0,0 L1,0 L1,1 L0,1 Z " fill="#FFFFFF" opacity="0.7764706" transform="translate(336,217)"/>
<path d="M0,0 L4,0 L4,1 L0,1 Z " fill="#C1C1C1" transform="translate(317,217)"/>
<path d="M0,0 L4,0 L4,1 L0,1 Z " fill="#6A6A6A" transform="translate(313,217)"/>
<path d="M0,0 L1,0 L1,1 L0,1 Z " fill="#0D0D0D" opacity="0.8" transform="translate(299,217)"/>
<path d="M0,0 L4,0 L4,1 L0,1 Z " fill="#B8B8B8" transform="translate(324,216)"/>
<path d="M0,0 L1,0 L1,1 L0,1 Z " fill="#181818" opacity="0.83137256" transform="translate(315,216)"/>
<path d="M0,0 L1,0 L1,1 L0,1 Z " fill="#010101" transform="translate(326,215)"/>
<path d="M0,0 L1,0 L1,1 L0,1 Z " fill="#000000" opacity="0.47058824" transform="translate(329,214)"/>
<path d="M0,0 L1,0 L1,1 L0,1 Z " fill="#000000" opacity="0.7176471" transform="translate(288,210)"/>
<path d="M0,0 L1,0 L1,1 L0,1 Z " fill="#000000" opacity="0.2627451" transform="translate(307,204)"/>
<path d="M0,0 L1,0 L1,1 L0,1 Z " fill="#000000" opacity="0.1882353" transform="translate(308,202)"/>
<path d="M0,0 L1,0 L1,1 L0,1 Z " fill="#000000" opacity="0.7921569" transform="translate(320,324)"/>
<path d="M0,0 L1,0 L1,1 L0,1 Z " fill="#000000" opacity="0.23529412" transform="translate(316,269)"/>
<path d="M0,0 L2,0 L2,1 L0,1 Z " fill="#000000" opacity="0.9882353" transform="translate(315,268)"/>
<path d="M0,0 L2,0 L2,1 L0,1 Z " fill="#000000" transform="translate(298,268)"/>
<path d="M0,0 L1,0 L1,1 L0,1 Z " fill="#000000" opacity="0.16862746" transform="translate(299,267)"/>
<path d="M0,0 L1,0 L1,1 L0,1 Z " fill="#000000" opacity="0.6431373" transform="translate(286,261)"/>
<path d="M0,0 L1,0 L1,1 L0,1 Z " fill="#000000" opacity="0.7176471" transform="translate(284,259)"/>
<path d="M0,0 L1,0 L1,1 L0,1 Z " fill="#000000" opacity="0.9254902" transform="translate(336,254)"/>
<path d="M0,0 L1,0 L1,2 L0,2 Z " fill="#000000" opacity="0.87058824" transform="translate(280,253)"/>
<path d="M0,0 L1,0 L1,1 L0,1 Z " fill="#000000" opacity="0.54509807" transform="translate(340,250)"/>
<path d="M0,0 L1,0 L1,1 L0,1 Z " fill="#000000" opacity="0.72156864" transform="translate(332,250)"/>
<path d="M0,0 L3,0 L3,1 L0,1 Z " fill="#E1E1E1" transform="translate(322,248)"/>
<path d="M0,0 L1,0 L1,1 L0,1 Z " fill="#FFFFFF" opacity="0.44705883" transform="translate(340,247)"/>
<path d="M0,0 L1,0 L1,1 L0,1 Z " fill="#FFFFFF" opacity="0.37254903" transform="translate(277,246)"/>
<path d="M0,0 L3,0 L3,1 L0,1 Z " fill="#B1B1B1" transform="translate(306,218)"/>
<path d="M0,0 L1,0 L1,1 L0,1 Z " fill="#000000" opacity="0.3764706" transform="translate(285,217)"/>
<path d="M0,0 L1,0 L1,1 L0,1 Z " fill="#000000" opacity="0.32156864" transform="translate(310,216)"/>
<path d="M0,0 L1,0 L1,1 L0,1 Z " fill="#020202" opacity="0.9647059" transform="translate(283,216)"/>
<path d="M0,0 L2,0 L2,1 L0,1 Z " fill="#B6B6B6" opacity="0.9019608" transform="translate(333,215)"/>
<path d="M0,0 L1,0 L1,1 L0,1 Z " fill="#050505" opacity="0.8627451" transform="translate(334,214)"/>
<path d="M0,0 L1,0 L1,1 L0,1 Z " fill="#000000" opacity="0.77254903" transform="translate(332,213)"/>
<path d="M0,0 L1,0 L1,1 L0,1 Z " fill="#000000" opacity="0.64705884" transform="translate(330,211)"/>
<path d="M0,0 L1,0 L1,1 L0,1 Z " fill="#000000" opacity="0.8509804" transform="translate(328,208)"/>
<path d="M0,0 L2,0 L2,1 L0,1 Z " fill="#000000" opacity="0.72156864" transform="translate(326,207)"/>
<path d="M0,0 L1,0 L1,1 L0,1 Z " fill="#000000" opacity="0.38039216" transform="translate(314,204)"/>
<path d="M0,0 L1,0 L1,1 L0,1 Z " fill="#000000" opacity="0.34509805" transform="translate(318,203)"/>
<path d="M0,0 L1,0 L1,1 L0,1 Z " fill="#000000" opacity="0.28235295" transform="translate(301,203)"/>
<path d="M0,0 L1,0 L1,1 L0,1 Z " fill="#000000" opacity="0.43137255" transform="translate(348,327)"/>
<path d="M0,0 L1,0 L1,1 L0,1 Z " fill="#000000" opacity="0.47843137" transform="translate(346,327)"/>
<path d="M0,0 L1,0 L1,1 L0,1 Z " fill="#000000" opacity="0.4509804" transform="translate(339,327)"/>
<path d="M0,0 L1,0 L1,1 L0,1 Z " fill="#000000" opacity="0.35686275" transform="translate(335,327)"/>
<path d="M0,0 L1,0 L1,1 L0,1 Z " fill="#000000" opacity="0.105882354" transform="translate(331,327)"/>
<path d="M0,0 L1,0 L1,1 L0,1 Z " fill="#000000" opacity="0.79607844" transform="translate(327,326)"/>
<path d="M0,0 L1,0 L1,1 L0,1 Z " fill="#000000" opacity="0.17254902" transform="translate(323,326)"/>
<path d="M0,0 L1,0 L1,1 L0,1 Z " fill="#000000" opacity="0.007843138" transform="translate(354,325)"/>
<path d="M0,0 L1,0 L1,1 L0,1 Z " fill="#000000" opacity="0.98039216" transform="translate(322,325)"/>
<path d="M0,0 L2,0 L2,1 L0,1 Z " fill="#000000" transform="translate(321,324)"/>
<path d="M0,0 L1,0 L1,1 L0,1 Z " fill="#000000" opacity="0.40392157" transform="translate(322,323)"/>
<path d="M0,0 L1,0 L1,1 L0,1 Z " fill="#000000" opacity="0.6509804" transform="translate(352,322)"/>
<path d="M0,0 L1,0 L1,1 L0,1 Z " fill="#000000" opacity="0.7882353" transform="translate(348,322)"/>
<path d="M0,0 L1,0 L1,1 L0,1 Z " fill="#000000" opacity="0.85490197" transform="translate(346,322)"/>
<path d="M0,0 L1,0 L1,1 L0,1 Z " fill="#000000" opacity="0.8666667" transform="translate(339,322)"/>
<path d="M0,0 L1,0 L1,1 L0,1 Z " fill="#000000" opacity="0.77254903" transform="translate(335,322)"/>
<path d="M0,0 L1,0 L1,1 L0,1 Z " fill="#000000" opacity="0.5137255" transform="translate(331,322)"/>
<path d="M0,0 L1,0 L1,1 L0,1 Z " fill="#000000" opacity="0.2" transform="translate(327,322)"/>
<path d="M0,0 L1,0 L1,1 L0,1 Z " fill="#000000" opacity="0.105882354" transform="translate(304,270)"/>
<path d="M0,0 L1,0 L1,1 L0,1 Z " fill="#000000" transform="translate(304,269)"/>
<path d="M0,0 L1,0 L1,1 L0,1 Z " fill="#000000" opacity="0.12941177" transform="translate(298,269)"/>
<path d="M0,0 L1,0 L1,1 L0,1 Z " fill="#000000" opacity="0.015686275" transform="translate(320,268)"/>
<path d="M0,0 L1,0 L1,1 L0,1 Z " fill="#000000" opacity="0.5647059" transform="translate(312,268)"/>
<path d="M0,0 L1,0 L1,1 L0,1 Z " fill="#000000" opacity="0.29803923" transform="translate(304,268)"/>
<path d="M0,0 L1,0 L1,1 L0,1 Z " fill="#000000" opacity="0.50980395" transform="translate(296,268)"/>
<path d="M0,0 L1,0 L1,1 L0,1 Z " fill="#000000" transform="translate(319,267)"/>
<path d="M0,0 L1,0 L1,1 L0,1 Z " fill="#000000" opacity="0.3019608" transform="translate(316,267)"/>
<path d="M0,0 L2,0 L2,1 L0,1 Z " fill="#000000" opacity="0.99215686" transform="translate(295,267)"/>
<path d="M0,0 L1,0 L1,1 L0,1 Z " fill="#000000" opacity="0.7137255" transform="translate(294,267)"/>
<path d="M0,0 L1,0 L1,1 L0,1 Z " fill="#000000" opacity="0.28235295" transform="translate(319,266)"/>
<path d="M0,0 L1,0 L1,1 L0,1 Z " fill="#000000" opacity="0.12941177" transform="translate(296,266)"/>
<path d="M0,0 L2,0 L2,1 L0,1 Z " fill="#000000" opacity="0.92941177" transform="translate(293,266)"/>
<path d="M0,0 L1,0 L1,1 L0,1 Z " fill="#000000" transform="translate(324,265)"/>
<path d="M0,0 L1,0 L1,1 L0,1 Z " fill="#000000" opacity="0.52156866" transform="translate(322,265)"/>
<path d="M0,0 L1,0 L1,1 L0,1 Z " fill="#000000" opacity="0.03529412" transform="translate(294,265)"/>
<path d="M0,0 L2,0 L2,1 L0,1 Z " fill="#000000" opacity="0.80784315" transform="translate(291,265)"/>
<path d="M0,0 L1,0 L1,1 L0,1 Z " fill="#000000" opacity="0.5882353" transform="translate(324,264)"/>
<path d="M0,0 L1,0 L1,1 L0,1 Z " fill="#000000" opacity="0.5411765" transform="translate(288,264)"/>
<path d="M0,0 L1,0 L1,1 L0,1 Z " fill="#000000" opacity="0.69411767" transform="translate(326,263)"/>
<path d="M0,0 L1,0 L1,1 L0,1 Z " fill="#000000" opacity="0.007843138" transform="translate(290,263)"/>
<path d="M0,0 L1,0 L1,1 L0,1 Z " fill="#000000" opacity="0.92941177" transform="translate(288,263)"/>
<path d="M0,0 L1,0 L1,1 L0,1 Z " fill="#000000" opacity="0.54901963" transform="translate(331,259)"/>
<path d="M0,0 L1,0 L1,1 L0,1 Z " fill="#000000" opacity="0.43137255" transform="translate(334,258)"/>
<path d="M0,0 L1,0 L1,1 L0,1 Z " fill="#000000" opacity="0.6666667" transform="translate(282,256)"/>
<path d="M0,0 L1,0 L1,1 L0,1 Z " fill="#000000" opacity="0.015686275" transform="translate(280,256)"/>
<path d="M0,0 L1,0 L1,2 L0,2 Z " fill="#000000" opacity="0.78431374" transform="translate(337,253)"/>
<path d="M0,0 L1,0 L1,1 L0,1 Z " fill="#000000" opacity="0.015686275" transform="translate(279,254)"/>
<path d="M0,0 L1,0 L1,1 L0,1 Z " fill="#000000" opacity="0.24313726" transform="translate(281,253)"/>
<path d="M0,0 L1,0 L1,1 L0,1 Z " fill="#000000" opacity="0.59607846" transform="translate(337,252)"/>
<path d="M0,0 L1,0 L1,1 L0,1 Z " fill="#000000" opacity="0.050980393" transform="translate(278,251)"/>
<path d="M0,0 L2,0 L2,1 L0,1 Z " fill="#000000" transform="translate(338,250)"/>
<path d="M0,0 L1,0 L1,1 L0,1 Z " fill="#030303" opacity="0.8901961" transform="translate(335,250)"/>
<path d="M0,0 L1,0 L1,1 L0,1 Z " fill="#000000" opacity="0.5176471" transform="translate(328,250)"/>
<path d="M0,0 L1,0 L1,1 L0,1 Z " fill="#000000" opacity="0.4117647" transform="translate(326,250)"/>
<path d="M0,0 L1,0 L1,1 L0,1 Z " fill="#000000" opacity="0.2" transform="translate(318,250)"/>
<path d="M0,0 L1,0 L1,1 L0,1 Z " fill="#000000" opacity="0.1254902" transform="translate(314,250)"/>
<path d="M0,0 L1,0 L1,1 L0,1 Z " fill="#000000" opacity="0.09019608" transform="translate(312,250)"/>
<path d="M0,0 L1,0 L1,1 L0,1 Z " fill="#000000" opacity="0.105882354" transform="translate(305,250)"/>
<path d="M0,0 L1,0 L1,1 L0,1 Z " fill="#000000" opacity="0.17254902" transform="translate(301,250)"/>
<path d="M0,0 L1,0 L1,1 L0,1 Z " fill="#000000" opacity="0.24313726" transform="translate(297,250)"/>
<path d="M0,0 L1,0 L1,1 L0,1 Z " fill="#000000" opacity="0.34901962" transform="translate(293,250)"/>
<path d="M0,0 L1,0 L1,1 L0,1 Z " fill="#000000" opacity="0.56078434" transform="translate(289,250)"/>
<path d="M0,0 L1,0 L1,1 L0,1 Z " fill="#000000" opacity="0.77254903" transform="translate(285,250)"/>
<path d="M0,0 L1,0 L1,1 L0,1 Z " fill="#040404" opacity="0.89411765" transform="translate(283,250)"/>
<path d="M0,0 L2,0 L2,1 L0,1 Z " fill="#A8A8A8" opacity="0.9490196" transform="translate(338,249)"/>
<path d="M0,0 L2,0 L2,1 L0,1 Z " fill="#787878" transform="translate(334,249)"/>
<path d="M0,0 L1,0 L1,1 L0,1 Z " fill="#393939" opacity="0.9529412" transform="translate(331,249)"/>
<path d="M0,0 L1,0 L1,1 L0,1 Z " fill="#1D1D1D" opacity="0.9490196" transform="translate(329,249)"/>
<path d="M0,0 L1,0 L1,1 L0,1 Z " fill="#070707" opacity="0.98039216" transform="translate(291,249)"/>
<path d="M0,0 L1,0 L1,1 L0,1 Z " fill="#393939" opacity="0.9607843" transform="translate(287,249)"/>
<path d="M0,0 L2,0 L2,1 L0,1 Z " fill="#777777" transform="translate(282,249)"/>
<path d="M0,0 L1,0 L1,1 L0,1 Z " fill="#ADADAD" opacity="0.99607843" transform="translate(279,249)"/>
<path d="M0,0 L2,0 L2,1 L0,1 Z " fill="#CFCFCF" transform="translate(318,248)"/>
<path d="M0,0 L1,0 L1,1 L0,1 Z " fill="#BBBBBB" opacity="0.9764706" transform="translate(315,248)"/>
<path d="M0,0 L1,0 L1,1 L0,1 Z " fill="#ADADAD" opacity="0.92941177" transform="translate(313,248)"/>
<path d="M0,0 L1,0 L1,1 L0,1 Z " fill="#A1A1A1" opacity="0.91764706" transform="translate(307,248)"/>
<path d="M0,0 L1,0 L1,1 L0,1 Z " fill="#AFAFAF" opacity="0.95686275" transform="translate(305,248)"/>
<path d="M0,0 L2,0 L2,1 L0,1 Z " fill="#D1D1D1" transform="translate(297,248)"/>
<path d="M0,0 L2,0 L2,1 L0,1 Z " fill="#E5E5E5" transform="translate(293,248)"/>
<path d="M0,0 L1,0 L1,1 L0,1 Z " fill="#FFFFFF" opacity="0.011764706" transform="translate(341,245)"/>
<path d="M0,0 L1,0 L1,1 L0,1 Z " fill="#FFFFFF" opacity="0.4745098" transform="translate(341,243)"/>
<path d="M0,0 L2,0 L2,1 L0,1 Z " fill="#FDFDFD" transform="translate(330,243)"/>
<path d="M0,0 L1,0 L1,2 L0,2 Z " fill="#E4E4E4" transform="translate(335,237)"/>
<path d="M0,0 L1,0 L1,2 L0,2 Z " fill="#C9C9C9" transform="translate(316,237)"/>
<path d="M0,0 L1,0 L1,1 L0,1 Z " fill="#FFFFFF" opacity="0.24705882" transform="translate(276,238)"/>
<path d="M0,0 L1,0 L1,1 L0,1 Z " fill="#FFFFFF" opacity="0.27450982" transform="translate(342,235)"/>
<path d="M0,0 L1,0 L1,2 L0,2 Z " fill="#FEFEFE" transform="translate(315,234)"/>
<path d="M0,0 L1,0 L1,1 L0,1 Z " fill="#FFFFFF" opacity="0.17254902" transform="translate(276,234)"/>
<path d="M0,0 L1,0 L1,2 L0,2 Z " fill="#4A4A4A" transform="translate(335,231)"/>
<path d="M0,0 L1,0 L1,2 L0,2 Z " fill="#282828" transform="translate(316,231)"/>
<path d="M0,0 L1,0 L1,1 L0,1 Z " fill="#FFFFFF" opacity="0.95686275" transform="translate(277,232)"/>
<path d="M0,0 L1,0 L1,1 L0,1 Z " fill="#FFFFFF" opacity="0.0627451" transform="translate(342,231)"/>
<path d="M0,0 L1,0 L1,1 L0,1 Z " fill="#FFFFFF" opacity="0.99607843" transform="translate(341,230)"/>
<path d="M0,0 L1,0 L1,2 L0,2 Z " fill="#070707" transform="translate(334,229)"/>
<path d="M0,0 L1,0 L1,1 L0,1 Z " fill="#FFFFFF" opacity="0.654902" transform="translate(277,230)"/>
<path d="M0,0 L1,0 L1,1 L0,1 Z " fill="#FFFFFF" opacity="0.70980394" transform="translate(341,228)"/>
<path d="M0,0 L1,0 L1,1 L0,1 Z " fill="#FFFFFF" opacity="0.21176471" transform="translate(277,228)"/>
<path d="M0,0 L1,0 L1,1 L0,1 Z " fill="#FFFFFF" opacity="0.29803923" transform="translate(341,226)"/>
<path d="M0,0 L2,0 L2,1 L0,1 Z " fill="#FDFDFD" transform="translate(330,225)"/>
<path d="M0,0 L1,0 L1,1 L0,1 Z " fill="#FFFFFF" opacity="0.30588236" transform="translate(278,225)"/>
<path d="M0,0 L1,0 L1,1 L0,1 Z " fill="#FFFFFF" opacity="0.34117648" transform="translate(340,223)"/>
<path d="M0,0 L1,0 L1,1 L0,1 Z " fill="#FFFFFF" opacity="0.43529412" transform="translate(279,223)"/>
<path d="M0,0 L1,0 L1,1 L0,1 Z " fill="#FFFFFF" opacity="0.5058824" transform="translate(280,221)"/>
<path d="M0,0 L1,0 L1,1 L0,1 Z " fill="#FFFFFF" opacity="0.85882354" transform="translate(338,220)"/>
<path d="M0,0 L2,0 L2,1 L0,1 Z " fill="#FDFDFD" transform="translate(285,219)"/>
<path d="M0,0 L1,0 L1,1 L0,1 Z " fill="#E8E8E8" transform="translate(282,219)"/>
<path d="M0,0 L2,0 L2,1 L0,1 Z " fill="#E7E7E7" transform="translate(309,218)"/>
<path d="M0,0 L2,0 L2,1 L0,1 Z " fill="#858585" transform="translate(302,218)"/>
<path d="M0,0 L2,0 L2,1 L0,1 Z " fill="#595959" transform="translate(298,218)"/>
<path d="M0,0 L1,0 L1,1 L0,1 Z " fill="#2E2E2E" transform="translate(295,218)"/>
<path d="M0,0 L1,0 L1,1 L0,1 Z " fill="#141414" opacity="0.9843137" transform="translate(291,218)"/>
<path d="M0,0 L1,0 L1,1 L0,1 Z " fill="#0A0A0A" opacity="0.9882353" transform="translate(289,218)"/>
<path d="M0,0 L1,0 L1,1 L0,1 Z " fill="#070707" opacity="0.41960785" transform="translate(281,218)"/>
<path d="M0,0 L2,0 L2,1 L0,1 Z " fill="#FBFBFB" transform="translate(321,217)"/>
<path d="M0,0 L2,0 L2,1 L0,1 Z " fill="#969696" transform="translate(317,217)"/>
<path d="M0,0 L2,0 L2,1 L0,1 Z " fill="#3E3E3E" transform="translate(313,217)"/>
<path d="M0,0 L1,0 L1,1 L0,1 Z " fill="#000000" transform="translate(305,217)"/>
<path d="M0,0 L1,0 L1,1 L0,1 Z " fill="#0C0C0C" opacity="0.8862745" transform="translate(301,217)"/>
<path d="M0,0 L1,0 L1,1 L0,1 Z " fill="#0A0A0A" opacity="0.69803923" transform="translate(297,217)"/>
<path d="M0,0 L1,0 L1,1 L0,1 Z " fill="#000000" opacity="0.5882353" transform="translate(295,217)"/>
<path d="M0,0 L1,0 L1,1 L0,1 Z " fill="#000000" opacity="0.5058824" transform="translate(291,217)"/>
<path d="M0,0 L1,0 L1,1 L0,1 Z " fill="#000000" opacity="0.41960785" transform="translate(287,217)"/>
<path d="M0,0 L2,0 L2,1 L0,1 Z " fill="#FCFCFC" transform="translate(328,216)"/>
<path d="M0,0 L2,0 L2,1 L0,1 Z " fill="#6E6E6E" transform="translate(324,216)"/>
<path d="M0,0 L1,0 L1,1 L0,1 Z " fill="#0A0A0A" opacity="0.9647059" transform="translate(317,216)"/>
<path d="M0,0 L1,0 L1,1 L0,1 Z " fill="#171717" opacity="0.6392157" transform="translate(313,216)"/>
<path d="M0,0 L1,0 L1,1 L0,1 Z " fill="#000000" opacity="0.05882353" transform="translate(306,216)"/>
<path d="M0,0 L1,0 L1,2 L0,2 Z " fill="#000000" opacity="0.8156863" transform="translate(284,215)"/>
<path d="M0,0 L1,0 L1,1 L0,1 Z " fill="#717171" transform="translate(332,215)"/>
<path d="M0,0 L1,0 L1,1 L0,1 Z " fill="#0F0F0F" opacity="0.78431374" transform="translate(324,215)"/>
<path d="M0,0 L1,0 L1,1 L0,1 Z " fill="#000000" opacity="0.09411765" transform="translate(319,215)"/>
<path d="M0,0 L1,0 L1,1 L0,1 Z " fill="#000000" opacity="0.76862746" transform="translate(331,214)"/>
<path d="M0,0 L1,0 L1,1 L0,1 Z " fill="#000000" opacity="0.1764706" transform="translate(327,214)"/>
<path d="M0,0 L1,0 L1,1 L0,1 Z " fill="#000000" opacity="0.61960787" transform="translate(284,214)"/>
<path d="M0,0 L1,0 L1,1 L0,1 Z " fill="#000000" opacity="0.75686276" transform="translate(286,212)"/>
<path d="M0,0 L1,0 L1,1 L0,1 Z " fill="#000000" opacity="0.78039217" transform="translate(291,209)"/>
<path d="M0,0 L1,0 L1,1 L0,1 Z " fill="#000000" opacity="0.50980395" transform="translate(289,209)"/>
<path d="M0,0 L1,0 L1,1 L0,1 Z " fill="#000000" opacity="0.49803922" transform="translate(326,208)"/>
<path d="M0,0 L1,0 L1,1 L0,1 Z " fill="#000000" opacity="0.050980393" transform="translate(296,207)"/>
<path d="M0,0 L1,0 L1,1 L0,1 Z " fill="#000000" opacity="0.9098039" transform="translate(294,207)"/>
<path d="M0,0 L1,0 L1,1 L0,1 Z " fill="#000000" opacity="0.61960787" transform="translate(292,207)"/>
<path d="M0,0 L1,0 L1,1 L0,1 Z " fill="#000000" opacity="0.011764706" transform="translate(327,206)"/>
<path d="M0,0 L2,0 L2,1 L0,1 Z " fill="#000000" opacity="0.8745098" transform="translate(324,206)"/>
<path d="M0,0 L1,0 L1,1 L0,1 Z " fill="#000000" opacity="0.37254903" transform="translate(322,206)"/>
<path d="M0,0 L1,0 L1,1 L0,1 Z " fill="#000000" opacity="0.1764706" transform="translate(298,206)"/>
<path d="M0,0 L1,0 L1,1 L0,1 Z " fill="#000000" opacity="0.6666667" transform="translate(294,206)"/>
<path d="M0,0 L1,0 L1,1 L0,1 Z " fill="#000000" opacity="0.011764706" transform="translate(325,205)"/>
<path d="M0,0 L1,0 L1,1 L0,1 Z " fill="#000000" transform="translate(322,205)"/>
<path d="M0,0 L1,0 L1,1 L0,1 Z " fill="#000000" opacity="0.18431373" transform="translate(318,205)"/>
<path d="M0,0 L1,0 L1,1 L0,1 Z " fill="#010101" opacity="0.015686275" transform="translate(302,205)"/>
<path d="M0,0 L1,0 L1,1 L0,1 Z " fill="#000000" transform="translate(298,205)"/>
<path d="M0,0 L1,0 L1,1 L0,1 Z " fill="#000000" opacity="0.6509804" transform="translate(296,205)"/>
<path d="M0,0 L2,0 L2,1 L0,1 Z " fill="#000000" transform="translate(318,204)"/>
<path d="M0,0 L1,0 L1,1 L0,1 Z " fill="#000000" opacity="0.9254902" transform="translate(317,204)"/>
<path d="M0,0 L1,0 L1,1 L0,1 Z " fill="#000000" opacity="0.1882353" transform="translate(309,204)"/>
<path d="M0,0 L1,0 L1,1 L0,1 Z " fill="#000000" opacity="0.4862745" transform="translate(305,204)"/>
<path d="M0,0 L1,0 L1,1 L0,1 Z " fill="#000000" opacity="0.36862746" transform="translate(298,204)"/>
<path d="M0,0 L1,0 L1,1 L0,1 Z " fill="#000000" transform="translate(306,203)"/>
<path d="M0,0 L1,0 L1,1 L0,1 Z " fill="#101010" opacity="0.85882354" transform="translate(304,203)"/>
<path d="M0,0 L1,0 L1,1 L0,1 Z " fill="#000000" opacity="0.023529412" transform="translate(314,202)"/>
<path d="M0,0 L1,0 L1,1 L0,1 Z " fill="#000000" opacity="0.101960786" transform="translate(306,202)"/>
<path d="M0,0 L1,0 L1,1 L0,1 Z " fill="#000000" opacity="0.19607843" transform="translate(352,327)"/>
<path d="M0,0 L1,0 L1,1 L0,1 Z " fill="#000000" opacity="0.3647059" transform="translate(351,327)"/>
<path d="M0,0 L1,0 L1,1 L0,1 Z " fill="#000000" opacity="0.4117647" transform="translate(349,327)"/>
<path d="M0,0 L1,0 L1,1 L0,1 Z " fill="#000000" opacity="0.45490196" transform="translate(347,327)"/>
<path d="M0,0 L1,0 L1,1 L0,1 Z " fill="#000000" opacity="0.5019608" transform="translate(345,327)"/>
<path d="M0,0 L1,0 L1,1 L0,1 Z " fill="#000000" opacity="0.5254902" transform="translate(344,327)"/>
<path d="M0,0 L1,0 L1,1 L0,1 Z " fill="#000000" opacity="0.52156866" transform="translate(342,327)"/>
<path d="M0,0 L1,0 L1,1 L0,1 Z " fill="#000000" opacity="0.4745098" transform="translate(340,327)"/>
<path d="M0,0 L1,0 L1,1 L0,1 Z " fill="#000000" opacity="0.42745098" transform="translate(338,327)"/>
<path d="M0,0 L1,0 L1,1 L0,1 Z " fill="#000000" opacity="0.38039216" transform="translate(336,327)"/>
<path d="M0,0 L1,0 L1,1 L0,1 Z " fill="#000000" opacity="0.32941177" transform="translate(334,327)"/>
<path d="M0,0 L1,0 L1,1 L0,1 Z " fill="#000000" opacity="0.18431373" transform="translate(332,327)"/>
<path d="M0,0 L1,0 L1,1 L0,1 Z " fill="#000000" opacity="0.02745098" transform="translate(330,327)"/>
<path d="M0,0 L1,0 L1,1 L0,1 Z " fill="#000000" opacity="0.11764706" transform="translate(353,326)"/>
<path d="M0,0 L1,0 L1,1 L0,1 Z " fill="#000000" opacity="0.9372549" transform="translate(352,326)"/>
<path d="M0,0 L1,0 L1,1 L0,1 Z " fill="#000000" opacity="0.8745098" transform="translate(328,326)"/>
<path d="M0,0 L1,0 L1,1 L0,1 Z " fill="#000000" opacity="0.6862745" transform="translate(326,326)"/>
<path d="M0,0 L1,0 L1,1 L0,1 Z " fill="#000000" opacity="0.34509805" transform="translate(324,326)"/>
<path d="M0,0 L1,0 L1,1 L0,1 Z " fill="#000000" opacity="0.019607844" transform="translate(322,326)"/>
<path d="M0,0 L1,0 L1,1 L0,1 Z " fill="#000000" opacity="0.75686276" transform="translate(353,325)"/>
<path d="M0,0 L1,0 L1,1 L0,1 Z " fill="#000000" opacity="0.78039217" transform="translate(321,325)"/>
<path d="M0,0 L1,0 L1,1 L0,1 Z " fill="#000000" opacity="0.38039216" transform="translate(320,325)"/>
<path d="M0,0 L1,0 L1,1 L0,1 Z " fill="#000000" opacity="0.48235294" transform="translate(354,324)"/>
<path d="M0,0 L1,0 L1,1 L0,1 Z " fill="#000000" opacity="0.03137255" transform="translate(319,324)"/>
<path d="M0,0 L1,0 L1,1 L0,1 Z " fill="#000000" opacity="0.21568628" transform="translate(355,323)"/>
<path d="M0,0 L1,0 L1,1 L0,1 Z " fill="#000000" opacity="0.9843137" transform="translate(354,323)"/>
<path d="M0,0 L1,0 L1,1 L0,1 Z " fill="#000000" opacity="0.92156863" transform="translate(325,323)"/>
<path d="M0,0 L1,0 L1,1 L0,1 Z " fill="#000000" opacity="0.5764706" transform="translate(323,323)"/>
<path d="M0,0 L1,0 L1,1 L0,1 Z " fill="#000000" opacity="0.1882353" transform="translate(321,323)"/>
<path d="M0,0 L1,0 L1,1 L0,1 Z " fill="#000000" opacity="0.4117647" transform="translate(355,322)"/>
<path d="M0,0 L1,0 L1,1 L0,1 Z " fill="#000000" opacity="0.6156863" transform="translate(353,322)"/>
<path d="M0,0 L1,0 L1,1 L0,1 Z " fill="#000000" opacity="0.6862745" transform="translate(351,322)"/>
<path d="M0,0 L1,0 L1,1 L0,1 Z " fill="#000000" opacity="0.7529412" transform="translate(349,322)"/>
<path d="M0,0 L1,0 L1,1 L0,1 Z " fill="#000000" opacity="0.8235294" transform="translate(347,322)"/>
<path d="M0,0 L1,0 L1,1 L0,1 Z " fill="#000000" opacity="0.8901961" transform="translate(345,322)"/>
<path d="M0,0 L1,0 L1,1 L0,1 Z " fill="#000000" opacity="0.9254902" transform="translate(344,322)"/>
<path d="M0,0 L1,0 L1,1 L0,1 Z " fill="#000000" opacity="0.93333334" transform="translate(342,322)"/>
<path d="M0,0 L1,0 L1,1 L0,1 Z " fill="#000000" opacity="0.8901961" transform="translate(340,322)"/>
<path d="M0,0 L1,0 L1,1 L0,1 Z " fill="#000000" opacity="0.84313726" transform="translate(338,322)"/>
<path d="M0,0 L1,0 L1,1 L0,1 Z " fill="#000000" opacity="0.79607844" transform="translate(336,322)"/>
<path d="M0,0 L1,0 L1,1 L0,1 Z " fill="#000000" opacity="0.7411765" transform="translate(334,322)"/>
<path d="M0,0 L1,0 L1,1 L0,1 Z " fill="#000000" opacity="0.5921569" transform="translate(332,322)"/>
<path d="M0,0 L1,0 L1,1 L0,1 Z " fill="#000000" opacity="0.43529412" transform="translate(330,322)"/>
<path d="M0,0 L1,0 L1,1 L0,1 Z " fill="#000000" opacity="0.2784314" transform="translate(328,322)"/>
<path d="M0,0 L1,0 L1,1 L0,1 Z " fill="#000000" opacity="0.09019608" transform="translate(326,322)"/>
<path d="M0,0 L1,0 L1,1 L0,1 Z " fill="#000000" opacity="0.03529412" transform="translate(311,270)"/>
<path d="M0,0 L1,0 L1,1 L0,1 Z " fill="#000000" opacity="0.16862746" transform="translate(310,270)"/>
<path d="M0,0 L1,0 L1,1 L0,1 Z " fill="#000000" opacity="0.20392157" transform="translate(309,270)"/>
<path d="M0,0 L1,0 L1,1 L0,1 Z " fill="#000000" opacity="0.16470589" transform="translate(307,270)"/>
<path d="M0,0 L1,0 L1,1 L0,1 Z " fill="#000000" opacity="0.1254902" transform="translate(305,270)"/>
<path d="M0,0 L1,0 L1,1 L0,1 Z " fill="#000000" opacity="0.023529412" transform="translate(303,270)"/>
<path d="M0,0 L1,0 L1,1 L0,1 Z " fill="#000000" opacity="0.007843138" transform="translate(317,269)"/>
<path d="M0,0 L1,0 L1,1 L0,1 Z " fill="#000000" opacity="0.44705883" transform="translate(315,269)"/>
<path d="M0,0 L1,0 L1,1 L0,1 Z " fill="#000000" opacity="0.5921569" transform="translate(314,269)"/>
<path d="M0,0 L1,0 L1,1 L0,1 Z " fill="#000000" opacity="0.88235295" transform="translate(312,269)"/>
<path d="M0,0 L1,0 L1,1 L0,1 Z " fill="#000000" opacity="0.99607843" transform="translate(311,269)"/>
<path d="M0,0 L1,0 L1,1 L0,1 Z " fill="#000000" opacity="0.9843137" transform="translate(303,269)"/>
<path d="M0,0 L1,0 L1,1 L0,1 Z " fill="#000000" opacity="0.8352941" transform="translate(302,269)"/>
<path d="M0,0 L1,0 L1,1 L0,1 Z " fill="#000000" opacity="0.30588236" transform="translate(299,269)"/>
<path d="M0,0 L1,0 L1,1 L0,1 Z " fill="#000000" opacity="0.003921569" transform="translate(297,269)"/>
<path d="M0,0 L1,0 L1,1 L0,1 Z " fill="#000000" opacity="0.26666668" transform="translate(319,268)"/>
<path d="M0,0 L1,0 L1,1 L0,1 Z " fill="#000000" opacity="0.5921569" transform="translate(318,268)"/>
<path d="M0,0 L1,0 L1,1 L0,1 Z " fill="#000000" transform="translate(316,268)"/>
<path d="M0,0 L1,0 L1,1 L0,1 Z " fill="#000000" opacity="0.8666667" transform="translate(314,268)"/>
<path d="M0,0 L1,0 L1,1 L0,1 Z " fill="#000000" opacity="0.7137255" transform="translate(313,268)"/>
<path d="M0,0 L1,0 L1,1 L0,1 Z " fill="#000000" opacity="0.4117647" transform="translate(311,268)"/>
<path d="M0,0 L1,0 L1,1 L0,1 Z " fill="#000000" opacity="0.25882354" transform="translate(310,268)"/>
<path d="M0,0 L1,0 L1,1 L0,1 Z " fill="#000000" opacity="0.2" transform="translate(309,268)"/>
<path d="M0,0 L1,0 L1,1 L0,1 Z " fill="#000000" opacity="0.23921569" transform="translate(307,268)"/>
<path d="M0,0 L1,0 L1,1 L0,1 Z " fill="#000000" opacity="0.2784314" transform="translate(305,268)"/>
<path d="M0,0 L1,0 L1,1 L0,1 Z " fill="#000000" opacity="0.42745098" transform="translate(303,268)"/>
<path d="M0,0 L1,0 L1,1 L0,1 Z " fill="#000000" opacity="0.6156863" transform="translate(302,268)"/>
<path d="M0,0 L1,0 L1,1 L0,1 Z " fill="#000000" opacity="0.8" transform="translate(301,268)"/>
<path d="M0,0 L1,0 L1,1 L0,1 Z " fill="#000000" opacity="0.96862745" transform="translate(300,268)"/>
<path d="M0,0 L1,0 L1,1 L0,1 Z " fill="#000000" opacity="0.11764706" transform="translate(295,268)"/>
<path d="M0,0 L1,0 L1,1 L0,1 Z " fill="#000000" opacity="0.19215687" transform="translate(322,267)"/>
<path d="M0,0 L1,0 L1,1 L0,1 Z " fill="#000000" opacity="0.6156863" transform="translate(321,267)"/>
<path d="M0,0 L1,0 L1,1 L0,1 Z " fill="#000000" opacity="0.9372549" transform="translate(318,267)"/>
<path d="M0,0 L1,0 L1,1 L0,1 Z " fill="#000000" opacity="0.6313726" transform="translate(317,267)"/>
<path d="M0,0 L1,0 L1,1 L0,1 Z " fill="#000000" opacity="0.03137255" transform="translate(315,267)"/>
<path d="M0,0 L1,0 L1,1 L0,1 Z " fill="#000000" opacity="0.011764706" transform="translate(300,267)"/>
<path d="M0,0 L1,0 L1,1 L0,1 Z " fill="#000000" opacity="0.35686275" transform="translate(298,267)"/>
<path d="M0,0 L1,0 L1,1 L0,1 Z " fill="#000000" opacity="0.7058824" transform="translate(297,267)"/>
<path d="M0,0 L1,0 L1,1 L0,1 Z " fill="#000000" opacity="0.2627451" transform="translate(293,267)"/>
<path d="M0,0 L1,0 L1,1 L0,1 Z " fill="#000000" opacity="0.24705882" transform="translate(324,266)"/>
<path d="M0,0 L1,0 L1,1 L0,1 Z " fill="#000000" opacity="0.7254902" transform="translate(323,266)"/>
<path d="M0,0 L1,0 L1,1 L0,1 Z " fill="#000000" opacity="0.93333334" transform="translate(321,266)"/>
<path d="M0,0 L1,0 L1,1 L0,1 Z " fill="#000000" opacity="0.6117647" transform="translate(320,266)"/>
<path d="M0,0 L1,0 L1,1 L0,1 Z " fill="#000000" opacity="0.019607844" transform="translate(318,266)"/>
<path d="M0,0 L1,0 L1,1 L0,1 Z " fill="#000000" opacity="0.54509807" transform="translate(295,266)"/>
<path d="M0,0 L1,0 L1,1 L0,1 Z " fill="#000000" transform="translate(293,266)"/>
<path d="M0,0 L1,0 L1,1 L0,1 Z " fill="#000000" opacity="0.2901961" transform="translate(291,266)"/>
<path d="M0,0 L1,0 L1,1 L0,1 Z " fill="#000000" opacity="0.13333334" transform="translate(326,265)"/>
<path d="M0,0 L1,0 L1,1 L0,1 Z " fill="#000000" opacity="0.68235296" transform="translate(325,265)"/>
<path d="M0,0 L1,0 L1,1 L0,1 Z " fill="#000000" opacity="0.95686275" transform="translate(323,265)"/>
<path d="M0,0 L1,0 L1,1 L0,1 Z " fill="#000000" opacity="0.05882353" transform="translate(321,265)"/>
<path d="M0,0 L1,0 L1,1 L0,1 Z " fill="#000000" opacity="0.3882353" transform="translate(293,265)"/>
<path d="M0,0 L1,0 L1,1 L0,1 Z " fill="#000000" transform="translate(291,265)"/>
<path d="M0,0 L1,0 L1,1 L0,1 Z " fill="#000000" opacity="0.7647059" transform="translate(290,265)"/>
<path d="M0,0 L1,0 L1,1 L0,1 Z " fill="#000000" opacity="0.17254902" transform="translate(289,265)"/>
<path d="M0,0 L1,0 L1,1 L0,1 Z " fill="#000000" opacity="0.011764706" transform="translate(328,264)"/>
<path d="M0,0 L1,0 L1,1 L0,1 Z " fill="#000000" opacity="0.4862745" transform="translate(327,264)"/>
<path d="M0,0 L1,0 L1,1 L0,1 Z " fill="#000000" opacity="0.98039216" transform="translate(325,264)"/>
<path d="M0,0 L1,0 L1,1 L0,1 Z " fill="#000000" opacity="0.09411765" transform="translate(323,264)"/>
<path d="M0,0 L1,0 L1,1 L0,1 Z " fill="#000000" opacity="0.24313726" transform="translate(291,264)"/>
<path d="M0,0 L1,0 L1,1 L0,1 Z " fill="#000000" opacity="0.9843137" transform="translate(289,264)"/>
<path d="M0,0 L1,0 L1,1 L0,1 Z " fill="#000000" opacity="0.03529412" transform="translate(287,264)"/>
<path d="M0,0 L1,0 L1,1 L0,1 Z " fill="#000000" opacity="0.13725491" transform="translate(329,263)"/>
<path d="M0,0 L1,0 L1,1 L0,1 Z " fill="#000000" opacity="0.7764706" transform="translate(328,263)"/>
<path d="M0,0 L1,0 L1,1 L0,1 Z " fill="#000000" transform="translate(327,263)"/>
<path d="M0,0 L1,0 L1,1 L0,1 Z " fill="#000000" opacity="0.13725491" transform="translate(325,263)"/>
<path d="M0,0 L1,0 L1,1 L0,1 Z " fill="#000000" opacity="0.40392157" transform="translate(289,263)"/>
<path d="M0,0 L1,0 L1,1 L0,1 Z " fill="#000000" opacity="0.8156863" transform="translate(287,263)"/>
<path d="M0,0 L1,0 L1,1 L0,1 Z " fill="#000000" opacity="0.12941177" transform="translate(286,263)"/>
<path d="M0,0 L1,0 L1,1 L0,1 Z " fill="#000000" opacity="0.2901961" transform="translate(330,262)"/>
<path d="M0,0 L1,0 L1,1 L0,1 Z " fill="#000000" opacity="0.94509804" transform="translate(329,262)"/>
<path d="M0,0 L1,0 L1,1 L0,1 Z " fill="#000000" opacity="0.4392157" transform="translate(327,262)"/>
<path d="M0,0 L1,0 L1,1 L0,1 Z " fill="#000000" opacity="0.12156863" transform="translate(288,262)"/>
<path d="M0,0 L1,0 L1,1 L0,1 Z " fill="#000000" opacity="0.92941177" transform="translate(286,262)"/>
<path d="M0,0 L1,0 L1,1 L0,1 Z " fill="#000000" opacity="0.2627451" transform="translate(285,262)"/>
<path d="M0,0 L1,0 L1,1 L0,1 Z " fill="#000000" opacity="0.45490196" transform="translate(331,261)"/>
<path d="M0,0 L1,0 L1,1 L0,1 Z " fill="#000000" opacity="0.99215686" transform="translate(330,261)"/>
<path d="M0,0 L1,0 L1,1 L0,1 Z " fill="#000000" opacity="0.21568628" transform="translate(328,261)"/>
<path d="M0,0 L1,0 L1,1 L0,1 Z " fill="#000000" opacity="0.03137255" transform="translate(287,261)"/>
<path d="M0,0 L1,0 L1,1 L0,1 Z " fill="#000000" opacity="0.96862745" transform="translate(285,261)"/>
<path d="M0,0 L1,0 L1,1 L0,1 Z " fill="#000000" opacity="0.24705882" transform="translate(284,261)"/>
<path d="M0,0 L1,0 L1,1 L0,1 Z " fill="#000000" opacity="0.5254902" transform="translate(332,260)"/>
<path d="M0,0 L1,0 L1,1 L0,1 Z " fill="#000000" opacity="0.07058824" transform="translate(329,260)"/>
<path d="M0,0 L1,0 L1,1 L0,1 Z " fill="#000000" opacity="0.007843138" transform="translate(286,260)"/>
<path d="M0,0 L1,0 L1,1 L0,1 Z " fill="#000000" opacity="0.65882355" transform="translate(285,260)"/>
<path d="M0,0 L1,0 L1,1 L0,1 Z " fill="#000000" opacity="0.9490196" transform="translate(284,260)"/>
<path d="M0,0 L1,0 L1,1 L0,1 Z " fill="#000000" opacity="0.2" transform="translate(283,260)"/>
<path d="M0,0 L1,0 L1,1 L0,1 Z " fill="#000000" opacity="0.47843137" transform="translate(333,259)"/>
<path d="M0,0 L1,0 L1,1 L0,1 Z " fill="#000000" opacity="0.003921569" transform="translate(330,259)"/>
<path d="M0,0 L1,0 L1,1 L0,1 Z " fill="#000000" opacity="0.019607844" transform="translate(285,259)"/>
<path d="M0,0 L1,0 L1,1 L0,1 Z " fill="#000000" opacity="0.06666667" transform="translate(282,259)"/>
<path d="M0,0 L1,0 L1,1 L0,1 Z " fill="#000000" opacity="0.5254902" transform="translate(332,258)"/>
<path d="M0,0 L1,0 L1,1 L0,1 Z " fill="#000000" opacity="0.06666667" transform="translate(284,258)"/>
<path d="M0,0 L1,0 L1,1 L0,1 Z " fill="#000000" opacity="0.9019608" transform="translate(283,258)"/>
<path d="M0,0 L1,0 L1,1 L0,1 Z " fill="#000000" opacity="0.654902" transform="translate(282,258)"/>
<path d="M0,0 L1,0 L1,1 L0,1 Z " fill="#000000" opacity="0.3882353" transform="translate(335,257)"/>
<path d="M0,0 L1,0 L1,1 L0,1 Z " fill="#000000" opacity="0.99607843" transform="translate(334,257)"/>
<path d="M0,0 L1,0 L1,1 L0,1 Z " fill="#000000" opacity="0.5411765" transform="translate(333,257)"/>
<path d="M0,0 L1,0 L1,1 L0,1 Z " fill="#000000" opacity="0.29803923" transform="translate(283,257)"/>
<path d="M0,0 L1,0 L1,1 L0,1 Z " fill="#000000" transform="translate(282,257)"/>
<path d="M0,0 L1,0 L1,1 L0,1 Z " fill="#000000" opacity="0.32941177" transform="translate(281,257)"/>
<path d="M0,0 L1,0 L1,1 L0,1 Z " fill="#000000" opacity="0.33333334" transform="translate(336,256)"/>
<path d="M0,0 L1,0 L1,1 L0,1 Z " fill="#000000" opacity="0.99215686" transform="translate(335,256)"/>
<path d="M0,0 L1,0 L1,1 L0,1 Z " fill="#000000" opacity="0.003921569" transform="translate(333,256)"/>
<path d="M0,0 L1,0 L1,1 L0,1 Z " fill="#000000" opacity="0.13725491" transform="translate(337,255)"/>
<path d="M0,0 L1,0 L1,1 L0,1 Z " fill="#000000" opacity="0.76862746" transform="translate(335,255)"/>
<path d="M0,0 L1,0 L1,1 L0,1 Z " fill="#000000" opacity="0.02745098" transform="translate(334,255)"/>
<path d="M0,0 L1,0 L1,1 L0,1 Z " fill="#000000" opacity="0.1764706" transform="translate(282,255)"/>
<path d="M0,0 L1,0 L1,1 L0,1 Z " fill="#000000" opacity="0.99607843" transform="translate(281,255)"/>
<path d="M0,0 L1,0 L1,1 L0,1 Z " fill="#000000" opacity="0.38431373" transform="translate(280,255)"/>
<path d="M0,0 L1,0 L1,1 L0,1 Z " fill="#000000" opacity="0.015686275" transform="translate(338,254)"/>
<path d="M0,0 L1,0 L1,1 L0,1 Z " fill="#000000" opacity="0.105882354" transform="translate(335,254)"/>
<path d="M0,0 L1,0 L1,1 L0,1 Z " fill="#000000" opacity="0.69411767" transform="translate(281,254)"/>
<path d="M0,0 L1,0 L1,1 L0,1 Z " fill="#000000" opacity="0.5176471" transform="translate(338,253)"/>
<path d="M0,0 L1,0 L1,1 L0,1 Z " fill="#000000" transform="translate(337,253)"/>
<path d="M0,0 L1,0 L1,1 L0,1 Z " fill="#000000" opacity="0.3019608" transform="translate(336,253)"/>
<path d="M0,0 L1,0 L1,1 L0,1 Z " fill="#000000" transform="translate(280,253)"/>
<path d="M0,0 L1,0 L1,1 L0,1 Z " fill="#000000" opacity="0.29411766" transform="translate(279,253)"/>
<path d="M0,0 L1,0 L1,1 L0,1 Z " fill="#000000" opacity="0.24313726" transform="translate(339,252)"/>
<path d="M0,0 L1,0 L1,1 L0,1 Z " fill="#000000" opacity="0.99215686" transform="translate(338,252)"/>
<path d="M0,0 L1,0 L1,1 L0,1 Z " fill="#000000" opacity="0.003921569" transform="translate(281,252)"/>
<path d="M0,0 L1,0 L1,1 L0,1 Z " fill="#000000" opacity="0.654902" transform="translate(279,252)"/>
<path d="M0,0 L1,0 L1,1 L0,1 Z " fill="#000000" opacity="0.0627451" transform="translate(340,251)"/>
<path d="M0,0 L1,0 L1,1 L0,1 Z " fill="#000000" opacity="0.9411765" transform="translate(338,251)"/>
<path d="M0,0 L1,0 L1,1 L0,1 Z " fill="#020202" opacity="0.0627451" transform="translate(337,251)"/>
<path d="M0,0 L1,0 L1,1 L0,1 Z " fill="#000000" opacity="0.5764706" transform="translate(280,251)"/>
<path d="M0,0 L1,0 L1,1 L0,1 Z " fill="#030303" opacity="0.9411765" transform="translate(336,250)"/>
<path d="M0,0 L1,0 L1,1 L0,1 Z " fill="#020202" opacity="0.8352941" transform="translate(334,250)"/>
<path d="M0,0 L1,0 L1,1 L0,1 Z " fill="#000000" opacity="0.77254903" transform="translate(333,250)"/>
<path d="M0,0 L1,0 L1,1 L0,1 Z " fill="#000000" opacity="0.67058825" transform="translate(331,250)"/>
<path d="M0,0 L1,0 L1,1 L0,1 Z " fill="#000000" opacity="0.5686275" transform="translate(329,250)"/>
<path d="M0,0 L1,0 L1,1 L0,1 Z " fill="#000000" opacity="0.4627451" transform="translate(327,250)"/>
<path d="M0,0 L1,0 L1,1 L0,1 Z " fill="#000000" opacity="0.36078432" transform="translate(325,250)"/>
<path d="M0,0 L1,0 L1,1 L0,1 Z " fill="#000000" opacity="0.3137255" transform="translate(324,250)"/>
<path d="M0,0 L1,0 L1,1 L0,1 Z " fill="#000000" opacity="0.28627452" transform="translate(323,250)"/>
<path d="M0,0 L1,0 L1,1 L0,1 Z " fill="#000000" opacity="0.2509804" transform="translate(321,250)"/>
<path d="M0,0 L1,0 L1,1 L0,1 Z " fill="#000000" opacity="0.21568628" transform="translate(319,250)"/>
<path d="M0,0 L1,0 L1,1 L0,1 Z " fill="#000000" opacity="0.18039216" transform="translate(317,250)"/>
<path d="M0,0 L1,0 L1,1 L0,1 Z " fill="#000000" opacity="0.14509805" transform="translate(315,250)"/>
<path d="M0,0 L1,0 L1,1 L0,1 Z " fill="#000000" opacity="0.10980392" transform="translate(313,250)"/>
<path d="M0,0 L1,0 L1,1 L0,1 Z " fill="#000000" opacity="0.07450981" transform="translate(311,250)"/>
<path d="M0,0 L1,0 L1,1 L0,1 Z " fill="#000000" opacity="0.05490196" transform="translate(310,250)"/>
<path d="M0,0 L1,0 L1,1 L0,1 Z " fill="#000000" opacity="0.050980393" transform="translate(308,250)"/>
<path d="M0,0 L1,0 L1,1 L0,1 Z " fill="#000000" opacity="0.08627451" transform="translate(306,250)"/>
<path d="M0,0 L1,0 L1,1 L0,1 Z " fill="#000000" opacity="0.12156863" transform="translate(304,250)"/>
<path d="M0,0 L1,0 L1,1 L0,1 Z " fill="#000000" opacity="0.15686275" transform="translate(302,250)"/>
<path d="M0,0 L1,0 L1,1 L0,1 Z " fill="#000000" opacity="0.19215687" transform="translate(300,250)"/>
<path d="M0,0 L1,0 L1,1 L0,1 Z " fill="#000000" opacity="0.22745098" transform="translate(298,250)"/>
<path d="M0,0 L1,0 L1,1 L0,1 Z " fill="#000000" opacity="0.2627451" transform="translate(296,250)"/>
<path d="M0,0 L1,0 L1,1 L0,1 Z " fill="#000000" opacity="0.3019608" transform="translate(294,250)"/>
<path d="M0,0 L1,0 L1,1 L0,1 Z " fill="#000000" opacity="0.40392157" transform="translate(292,250)"/>
<path d="M0,0 L1,0 L1,1 L0,1 Z " fill="#000000" opacity="0.50980395" transform="translate(290,250)"/>
<path d="M0,0 L1,0 L1,1 L0,1 Z " fill="#000000" opacity="0.6117647" transform="translate(288,250)"/>
<path d="M0,0 L1,0 L1,1 L0,1 Z " fill="#000000" opacity="0.7176471" transform="translate(286,250)"/>
<path d="M0,0 L1,0 L1,1 L0,1 Z " fill="#020202" opacity="0.83137256" transform="translate(284,250)"/>
<path d="M0,0 L1,0 L1,1 L0,1 Z " fill="#040404" opacity="0.94509804" transform="translate(282,250)"/>
<path d="M0,0 L1,0 L1,1 L0,1 Z " fill="#020202" opacity="0.9882353" transform="translate(281,250)"/>
<path d="M0,0 L1,0 L1,1 L0,1 Z " fill="#000000" opacity="0.3529412" transform="translate(278,250)"/>
<path d="M0,0 L1,0 L1,1 L0,1 Z " fill="#030303" opacity="0.25490198" transform="translate(340,249)"/>
<path d="M0,0 L1,0 L1,1 L0,1 Z " fill="#9E9E9E" transform="translate(338,249)"/>
<path d="M0,0 L1,0 L1,1 L0,1 Z " fill="#858585" transform="translate(336,249)"/>
<path d="M0,0 L1,0 L1,1 L0,1 Z " fill="#6A6A6A" transform="translate(334,249)"/>
<path d="M0,0 L1,0 L1,1 L0,1 Z " fill="#494949" opacity="0.9647059" transform="translate(332,249)"/>
<path d="M0,0 L1,0 L1,1 L0,1 Z " fill="#2B2B2B" opacity="0.9490196" transform="translate(330,249)"/>
<path d="M0,0 L1,0 L1,1 L0,1 Z " fill="#111111" opacity="0.9607843" transform="translate(328,249)"/>
<path d="M0,0 L1,0 L1,1 L0,1 Z " fill="#080808" opacity="0.9764706" transform="translate(327,249)"/>
<path d="M0,0 L1,0 L1,1 L0,1 Z " fill="#010101" opacity="0.99607843" transform="translate(326,249)"/>
<path d="M0,0 L1,0 L1,1 L0,1 Z " fill="#010101" transform="translate(292,249)"/>
<path d="M0,0 L1,0 L1,1 L0,1 Z " fill="#101010" opacity="0.9647059" transform="translate(290,249)"/>
<path d="M0,0 L1,0 L1,1 L0,1 Z " fill="#2A2A2A" opacity="0.9529412" transform="translate(288,249)"/>
<path d="M0,0 L1,0 L1,1 L0,1 Z " fill="#4A4A4A" opacity="0.972549" transform="translate(286,249)"/>
<path d="M0,0 L1,0 L1,1 L0,1 Z " fill="#6A6A6A" transform="translate(284,249)"/>
<path d="M0,0 L1,0 L1,1 L0,1 Z " fill="#858585" transform="translate(282,249)"/>
<path d="M0,0 L1,0 L1,1 L0,1 Z " fill="#A0A0A0" transform="translate(280,249)"/>
<path d="M0,0 L1,0 L1,1 L0,1 Z " fill="#949494" opacity="0.39215687" transform="translate(278,249)"/>
<path d="M0,0 L1,0 L1,1 L0,1 Z " fill="#FFFFFF" opacity="0.1882353" transform="translate(340,248)"/>
<path d="M0,0 L1,0 L1,1 L0,1 Z " fill="#F4F4F4" transform="translate(325,248)"/>
<path d="M0,0 L1,0 L1,1 L0,1 Z " fill="#E8E8E8" transform="translate(324,248)"/>
<path d="M0,0 L1,0 L1,1 L0,1 Z " fill="#DCDCDC" transform="translate(322,248)"/>
<path d="M0,0 L1,0 L1,1 L0,1 Z " fill="#D3D3D3" transform="translate(320,248)"/>
<path d="M0,0 L1,0 L1,1 L0,1 Z " fill="#CACACA" transform="translate(318,248)"/>
<path d="M0,0 L1,0 L1,1 L0,1 Z " fill="#C1C1C1" opacity="0.99607843" transform="translate(316,248)"/>
<path d="M0,0 L1,0 L1,1 L0,1 Z " fill="#B5B5B5" opacity="0.9529412" transform="translate(314,248)"/>
<path d="M0,0 L1,0 L1,1 L0,1 Z " fill="#A7A7A7" opacity="0.9098039" transform="translate(312,248)"/>
<path d="M0,0 L1,0 L1,1 L0,1 Z " fill="#A0A0A0" opacity="0.8901961" transform="translate(311,248)"/>
<path d="M0,0 L1,0 L1,1 L0,1 Z " fill="#999999" opacity="0.87058824" transform="translate(310,248)"/>
<path d="M0,0 L1,0 L1,1 L0,1 Z " fill="#9B9B9B" opacity="0.9019608" transform="translate(308,248)"/>
<path d="M0,0 L1,0 L1,1 L0,1 Z " fill="#A9A9A9" opacity="0.9372549" transform="translate(306,248)"/>
<path d="M0,0 L1,0 L1,1 L0,1 Z " fill="#B5B5B5" opacity="0.972549" transform="translate(304,248)"/>
<path d="M0,0 L1,0 L1,1 L0,1 Z " fill="#BBBBBB" opacity="0.99215686" transform="translate(303,248)"/>
<path d="M0,0 L1,0 L1,1 L0,1 Z " fill="#C4C4C4" transform="translate(301,248)"/>
<path d="M0,0 L1,0 L1,1 L0,1 Z " fill="#CDCDCD" transform="translate(299,248)"/>
<path d="M0,0 L1,0 L1,1 L0,1 Z " fill="#D6D6D6" transform="translate(297,248)"/>
<path d="M0,0 L1,0 L1,1 L0,1 Z " fill="#DEDEDE" transform="translate(295,248)"/>
<path d="M0,0 L1,0 L1,1 L0,1 Z " fill="#F1F1F1" transform="translate(293,248)"/>
<path d="M0,0 L1,0 L1,1 L0,1 Z " fill="#FDFDFD" transform="translate(292,248)"/>
<path d="M0,0 L1,0 L1,1 L0,1 Z " fill="#FFFFFF" opacity="0.78039217" transform="translate(278,248)"/>
<path d="M0,0 L1,0 L1,1 L0,1 Z " fill="#FFFFFF" opacity="0.13333334" transform="translate(277,247)"/>
<path d="M0,0 L1,0 L1,1 L0,1 Z " fill="#FFFFFF" opacity="0.7058824" transform="translate(340,246)"/>
<path d="M0,0 L1,0 L1,1 L0,1 Z " fill="#FFFFFF" opacity="0.94509804" transform="translate(340,245)"/>
<path d="M0,0 L1,0 L1,1 L0,1 Z " fill="#FFFFFF" opacity="0.60784316" transform="translate(277,245)"/>
<path d="M0,0 L1,0 L1,1 L0,1 Z " fill="#FFFFFF" opacity="0.21568628" transform="translate(341,244)"/>
<path d="M0,0 L1,0 L1,1 L0,1 Z " fill="#DBDBDB" transform="translate(328,244)"/>
<path d="M0,0 L1,0 L1,1 L0,1 Z " fill="#A4A4A4" transform="translate(327,244)"/>
<path d="M0,0 L1,0 L1,1 L0,1 Z " fill="#8A8A8A" transform="translate(326,244)"/>
<path d="M0,0 L1,0 L1,1 L0,1 Z " fill="#A1A1A1" transform="translate(324,244)"/>
<path d="M0,0 L1,0 L1,1 L0,1 Z " fill="#D1D1D1" transform="translate(323,244)"/>
<path d="M0,0 L1,0 L1,1 L0,1 Z " fill="#FEFEFE" transform="translate(322,244)"/>
<path d="M0,0 L1,0 L1,1 L0,1 Z " fill="#FFFFFF" opacity="0.81960785" transform="translate(277,244)"/>
<path d="M0,0 L1,0 L1,1 L0,1 Z " fill="#A3A3A3" transform="translate(330,243)"/>
<path d="M0,0 L1,0 L1,1 L0,1 Z " fill="#2B2B2B" transform="translate(329,243)"/>
<path d="M0,0 L1,0 L1,1 L0,1 Z " fill="#212121" transform="translate(322,243)"/>
<path d="M0,0 L1,0 L1,1 L0,1 Z " fill="#929292" transform="translate(321,243)"/>
<path d="M0,0 L1,0 L1,1 L0,1 Z " fill="#F9F9F9" transform="translate(320,243)"/>
<path d="M0,0 L1,0 L1,1 L0,1 Z " fill="#FFFFFF" opacity="0.93333334" transform="translate(277,243)"/>
<path d="M0,0 L1,0 L1,1 L0,1 Z " fill="#FFFFFF" opacity="0.70980394" transform="translate(341,242)"/>
<path d="M0,0 L1,0 L1,1 L0,1 Z " fill="#E4E4E4" transform="translate(332,242)"/>
<path d="M0,0 L1,0 L1,1 L0,1 Z " fill="#383838" transform="translate(331,242)"/>
<path d="M0,0 L1,0 L1,1 L0,1 Z " fill="#262626" transform="translate(320,242)"/>
<path d="M0,0 L1,0 L1,1 L0,1 Z " fill="#D5D5D5" transform="translate(319,242)"/>
<path d="M0,0 L1,0 L1,1 L0,1 Z " fill="#FFFFFF" opacity="0.02745098" transform="translate(276,242)"/>
<path d="M0,0 L1,0 L1,1 L0,1 Z " fill="#FFFFFF" opacity="0.9019608" transform="translate(341,241)"/>
<path d="M0,0 L1,0 L1,1 L0,1 Z " fill="#DADADA" transform="translate(333,241)"/>
<path d="M0,0 L1,0 L1,1 L0,1 Z " fill="#191919" transform="translate(332,241)"/>
<path d="M0,0 L1,0 L1,1 L0,1 Z " fill="#0D0D0D" transform="translate(319,241)"/>
<path d="M0,0 L1,0 L1,1 L0,1 Z " fill="#C5C5C5" transform="translate(318,241)"/>
<path d="M0,0 L1,0 L1,1 L0,1 Z " fill="#FFFFFF" opacity="0.12156863" transform="translate(276,241)"/>
<path d="M0,0 L1,0 L1,1 L0,1 Z " fill="#FFFFFF" opacity="0.09019608" transform="translate(342,240)"/>
<path d="M0,0 L1,0 L1,1 L0,1 Z " fill="#F0F0F0" transform="translate(334,240)"/>
<path d="M0,0 L1,0 L1,1 L0,1 Z " fill="#282828" transform="translate(333,240)"/>
<path d="M0,0 L1,0 L1,1 L0,1 Z " fill="#151515" transform="translate(318,240)"/>
<path d="M0,0 L1,0 L1,1 L0,1 Z " fill="#E1E1E1" transform="translate(317,240)"/>
<path d="M0,0 L1,0 L1,1 L0,1 Z " fill="#FFFFFF" opacity="0.20784314" transform="translate(342,239)"/>
<path d="M0,0 L1,0 L1,1 L0,1 Z " fill="#727272" transform="translate(334,239)"/>
<path d="M0,0 L1,0 L1,1 L0,1 Z " fill="#4F4F4F" transform="translate(317,239)"/>
<path d="M0,0 L1,0 L1,1 L0,1 Z " fill="#FFFFFF" opacity="0.22352941" transform="translate(276,239)"/>
<path d="M0,0 L1,0 L1,1 L0,1 Z " fill="#FFFFFF" opacity="0.27058825" transform="translate(342,238)"/>
<path d="M0,0 L1,0 L1,1 L0,1 Z " fill="#060606" transform="translate(334,238)"/>
<path d="M0,0 L1,0 L1,1 L0,1 Z " fill="#929292" transform="translate(335,237)"/>
<path d="M0,0 L1,0 L1,1 L0,1 Z " fill="#6F6F6F" transform="translate(316,237)"/>
<path d="M0,0 L1,0 L1,1 L0,1 Z " fill="#FFFFFF" opacity="0.27058825" transform="translate(276,237)"/>
<path d="M0,0 L1,0 L1,1 L0,1 Z " fill="#FFFFFF" opacity="0.3254902" transform="translate(342,236)"/>
<path d="M0,0 L1,0 L1,1 L0,1 Z " fill="#494949" transform="translate(335,236)"/>
<path d="M0,0 L1,0 L1,1 L0,1 Z " fill="#272727" transform="translate(316,236)"/>
<path d="M0,0 L1,0 L1,1 L0,1 Z " fill="#292929" transform="translate(335,235)"/>
<path d="M0,0 L1,0 L1,1 L0,1 Z " fill="#070707" transform="translate(316,235)"/>
<path d="M0,0 L1,0 L1,1 L0,1 Z " fill="#FFFFFF" opacity="0.21568628" transform="translate(276,235)"/>
<path d="M0,0 L1,0 L1,1 L0,1 Z " fill="#FFFFFF" opacity="0.21960784" transform="translate(342,234)"/>
<path d="M0,0 L1,0 L1,1 L0,1 Z " fill="#F5F5F5" transform="translate(315,234)"/>
<path d="M0,0 L1,0 L1,1 L0,1 Z " fill="#2A2A2A" transform="translate(335,233)"/>
<path d="M0,0 L1,0 L1,1 L0,1 Z " fill="#080808" transform="translate(316,233)"/>
<path d="M0,0 L1,0 L1,1 L0,1 Z " fill="#FEFEFE" transform="translate(315,233)"/>
<path d="M0,0 L1,0 L1,1 L0,1 Z " fill="#FFFFFF" opacity="0.08627451" transform="translate(276,233)"/>
<path d="M0,0 L1,0 L1,1 L0,1 Z " fill="#FFFFFF" opacity="0.11372549" transform="translate(342,232)"/>
<path d="M0,0 L1,0 L1,1 L0,1 Z " fill="#939393" transform="translate(335,231)"/>
<path d="M0,0 L1,0 L1,1 L0,1 Z " fill="#707070" transform="translate(316,231)"/>
<path d="M0,0 L1,0 L1,1 L0,1 Z " fill="#FFFFFF" opacity="0.827451" transform="translate(277,231)"/>
<path d="M0,0 L1,0 L1,1 L0,1 Z " fill="#FFFFFF" opacity="0.011764706" transform="translate(342,230)"/>
<path d="M0,0 L1,0 L1,1 L0,1 Z " fill="#E5E5E5" transform="translate(335,230)"/>
<path d="M0,0 L1,0 L1,1 L0,1 Z " fill="#CACACA" transform="translate(316,230)"/>
<path d="M0,0 L1,0 L1,1 L0,1 Z " fill="#FFFFFF" opacity="0.8784314" transform="translate(341,229)"/>
<path d="M0,0 L1,0 L1,1 L0,1 Z " fill="#747474" transform="translate(334,229)"/>
<path d="M0,0 L1,0 L1,1 L0,1 Z " fill="#515151" transform="translate(317,229)"/>
<path d="M0,0 L1,0 L1,1 L0,1 Z " fill="#FFFFFF" opacity="0.43137255" transform="translate(277,229)"/>
<path d="M0,0 L1,0 L1,1 L0,1 Z " fill="#F1F1F1" transform="translate(334,228)"/>
<path d="M0,0 L1,0 L1,1 L0,1 Z " fill="#2A2A2A" transform="translate(333,228)"/>
<path d="M0,0 L1,0 L1,1 L0,1 Z " fill="#171717" transform="translate(318,228)"/>
<path d="M0,0 L1,0 L1,1 L0,1 Z " fill="#E3E3E3" transform="translate(317,228)"/>
<path d="M0,0 L1,0 L1,1 L0,1 Z " fill="#FFFFFF" opacity="0.5411765" transform="translate(341,227)"/>
<path d="M0,0 L1,0 L1,1 L0,1 Z " fill="#DCDCDC" transform="translate(333,227)"/>
<path d="M0,0 L1,0 L1,1 L0,1 Z " fill="#1C1C1C" transform="translate(332,227)"/>
<path d="M0,0 L1,0 L1,1 L0,1 Z " fill="#0F0F0F" transform="translate(319,227)"/>
<path d="M0,0 L1,0 L1,1 L0,1 Z " fill="#C8C8C8" transform="translate(318,227)"/>
<path d="M0,0 L1,0 L1,1 L0,1 Z " fill="#FFFFFF" opacity="0.015686275" transform="translate(277,227)"/>
<path d="M0,0 L1,0 L1,1 L0,1 Z " fill="#E7E7E7" transform="translate(332,226)"/>
<path d="M0,0 L1,0 L1,1 L0,1 Z " fill="#3C3C3C" transform="translate(331,226)"/>
<path d="M0,0 L1,0 L1,1 L0,1 Z " fill="#2A2A2A" transform="translate(320,226)"/>
<path d="M0,0 L1,0 L1,1 L0,1 Z " fill="#D8D8D8" transform="translate(319,226)"/>
<path d="M0,0 L1,0 L1,1 L0,1 Z " fill="#FFFFFF" opacity="0.627451" transform="translate(278,226)"/>
<path d="M0,0 L1,0 L1,1 L0,1 Z " fill="#FFFFFF" opacity="0.047058824" transform="translate(341,225)"/>
<path d="M0,0 L1,0 L1,1 L0,1 Z " fill="#A7A7A7" transform="translate(330,225)"/>
<path d="M0,0 L1,0 L1,1 L0,1 Z " fill="#313131" transform="translate(329,225)"/>
<path d="M0,0 L1,0 L1,1 L0,1 Z " fill="#262626" transform="translate(322,225)"/>
<path d="M0,0 L1,0 L1,1 L0,1 Z " fill="#969696" transform="translate(321,225)"/>
<path d="M0,0 L1,0 L1,1 L0,1 Z " fill="#FAFAFA" transform="translate(320,225)"/>
<path d="M0,0 L1,0 L1,1 L0,1 Z " fill="#FFFFFF" opacity="0.7372549" transform="translate(340,224)"/>
<path d="M0,0 L1,0 L1,1 L0,1 Z " fill="#E0E0E0" transform="translate(328,224)"/>
<path d="M0,0 L1,0 L1,1 L0,1 Z " fill="#AAAAAA" transform="translate(327,224)"/>
<path d="M0,0 L1,0 L1,1 L0,1 Z " fill="#909090" transform="translate(326,224)"/>
<path d="M0,0 L1,0 L1,1 L0,1 Z " fill="#A6A6A6" transform="translate(324,224)"/>
<path d="M0,0 L1,0 L1,1 L0,1 Z " fill="#D7D7D7" transform="translate(323,224)"/>
<path d="M0,0 L1,0 L1,1 L0,1 Z " fill="#FFFFFF" opacity="0.8784314" transform="translate(279,224)"/>
<path d="M0,0 L1,0 L1,1 L0,1 Z " fill="#FFFFFF" opacity="0.015686275" transform="translate(278,224)"/>
<path d="M0,0 L1,0 L1,1 L0,1 Z " fill="#FFFFFF" opacity="0.019607844" transform="translate(340,222)"/>
<path d="M0,0 L1,0 L1,1 L0,1 Z " fill="#FFFFFF" opacity="0.90588236" transform="translate(339,222)"/>
<path d="M0,0 L1,0 L1,1 L0,1 Z " fill="#FFFFFF" opacity="0.9254902" transform="translate(280,222)"/>
<path d="M0,0 L1,0 L1,1 L0,1 Z " fill="#FFFFFF" opacity="0.043137256" transform="translate(279,222)"/>
<path d="M0,0 L1,0 L1,1 L0,1 Z " fill="#FFFFFF" opacity="0.023529412" transform="translate(339,220)"/>
<path d="M0,0 L1,0 L1,1 L0,1 Z " fill="#FFFFFF" opacity="0.9607843" transform="translate(281,220)"/>
<path d="M0,0 L1,0 L1,1 L0,1 Z " fill="#FFFFFF" opacity="0.078431375" transform="translate(280,220)"/>
<path d="M0,0 L1,0 L1,1 L0,1 Z " fill="#FFFFFF" opacity="0.29411766" transform="translate(338,219)"/>
<path d="M0,0 L1,0 L1,1 L0,1 Z " fill="#F8F8F8" transform="translate(285,219)"/>
<path d="M0,0 L1,0 L1,1 L0,1 Z " fill="#EDEDED" transform="translate(283,219)"/>
<path d="M0,0 L1,0 L1,1 L0,1 Z " fill="#E5E5E5" opacity="0.5254902" transform="translate(281,219)"/>
<path d="M0,0 L1,0 L1,1 L0,1 Z " fill="#FFFFFF" opacity="0.5647059" transform="translate(337,218)"/>
<path d="M0,0 L1,0 L1,1 L0,1 Z " fill="#FBFBFB" transform="translate(311,218)"/>
<path d="M0,0 L1,0 L1,1 L0,1 Z " fill="#D1D1D1" transform="translate(309,218)"/>
<path d="M0,0 L1,0 L1,1 L0,1 Z " fill="#BDBDBD" transform="translate(308,218)"/>
<path d="M0,0 L1,0 L1,1 L0,1 Z " fill="#A6A6A6" transform="translate(306,218)"/>
<path d="M0,0 L1,0 L1,1 L0,1 Z " fill="#909090" transform="translate(304,218)"/>
<path d="M0,0 L1,0 L1,1 L0,1 Z " fill="#7A7A7A" transform="translate(302,218)"/>
<path d="M0,0 L1,0 L1,1 L0,1 Z " fill="#646464" transform="translate(300,218)"/>
<path d="M0,0 L1,0 L1,1 L0,1 Z " fill="#4E4E4E" transform="translate(298,218)"/>
<path d="M0,0 L1,0 L1,1 L0,1 Z " fill="#383838" transform="translate(296,218)"/>
<path d="M0,0 L1,0 L1,1 L0,1 Z " fill="#262626" opacity="0.99215686" transform="translate(294,218)"/>
<path d="M0,0 L1,0 L1,1 L0,1 Z " fill="#1A1A1A" opacity="0.9843137" transform="translate(292,218)"/>
<path d="M0,0 L1,0 L1,1 L0,1 Z " fill="#0F0F0F" opacity="0.9843137" transform="translate(290,218)"/>
<path d="M0,0 L1,0 L1,1 L0,1 Z " fill="#060606" opacity="0.99215686" transform="translate(288,218)"/>
<path d="M0,0 L1,0 L1,1 L0,1 Z " fill="#030303" transform="translate(287,218)"/>
<path d="M0,0 L1,0 L1,1 L0,1 Z " fill="#FFFFFF" opacity="0.019607844" transform="translate(337,217)"/>
<path d="M0,0 L1,0 L1,1 L0,1 Z " fill="#DBDBDB" transform="translate(321,217)"/>
<path d="M0,0 L1,0 L1,1 L0,1 Z " fill="#ABABAB" transform="translate(319,217)"/>
<path d="M0,0 L1,0 L1,1 L0,1 Z " fill="#808080" transform="translate(317,217)"/>
<path d="M0,0 L1,0 L1,1 L0,1 Z " fill="#545454" transform="translate(315,217)"/>
<path d="M0,0 L1,0 L1,1 L0,1 Z " fill="#292929" transform="translate(313,217)"/>
<path d="M0,0 L1,0 L1,1 L0,1 Z " fill="#131313" transform="translate(312,217)"/>
<path d="M0,0 L1,0 L1,1 L0,1 Z " fill="#010101" transform="translate(311,217)"/>
<path d="M0,0 L1,0 L1,1 L0,1 Z " fill="#030303" opacity="0.9843137" transform="translate(304,217)"/>
<path d="M0,0 L1,0 L1,1 L0,1 Z " fill="#090909" opacity="0.92156863" transform="translate(302,217)"/>
<path d="M0,0 L1,0 L1,1 L0,1 Z " fill="#0D0D0D" opacity="0.84313726" transform="translate(300,217)"/>
<path d="M0,0 L1,0 L1,1 L0,1 Z " fill="#0D0D0D" opacity="0.7529412" transform="translate(298,217)"/>
<path d="M0,0 L1,0 L1,1 L0,1 Z " fill="#060606" opacity="0.6431373" transform="translate(296,217)"/>
<path d="M0,0 L1,0 L1,1 L0,1 Z " fill="#000000" opacity="0.5686275" transform="translate(294,217)"/>
<path d="M0,0 L1,0 L1,1 L0,1 Z " fill="#000000" opacity="0.5254902" transform="translate(292,217)"/>
<path d="M0,0 L1,0 L1,1 L0,1 Z " fill="#000000" opacity="0.48235294" transform="translate(290,217)"/>
<path d="M0,0 L1,0 L1,1 L0,1 Z " fill="#000000" opacity="0.4392157" transform="translate(288,217)"/>
<path d="M0,0 L1,0 L1,1 L0,1 Z " fill="#000000" opacity="0.4" transform="translate(286,217)"/>
<path d="M0,0 L1,0 L1,1 L0,1 Z " fill="#000000" opacity="0.5372549" transform="translate(284,217)"/>
<path d="M0,0 L1,0 L1,1 L0,1 Z " fill="#020202" opacity="0.9529412" transform="translate(282,217)"/>
<path d="M0,0 L1,0 L1,1 L0,1 Z " fill="#020202" opacity="0.03137255" transform="translate(281,217)"/>
<path d="M0,0 L1,0 L1,1 L0,1 Z " fill="#FFFFFF" opacity="0.09019608" transform="translate(336,216)"/>
<path d="M0,0 L1,0 L1,1 L0,1 Z " fill="#FFFFFF" opacity="0.8509804" transform="translate(335,216)"/>
<path d="M0,0 L1,0 L1,1 L0,1 Z " fill="#DDDDDD" transform="translate(328,216)"/>
<path d="M0,0 L1,0 L1,1 L0,1 Z " fill="#939393" transform="translate(326,216)"/>
<path d="M0,0 L1,0 L1,1 L0,1 Z " fill="#4A4A4A" transform="translate(324,216)"/>
<path d="M0,0 L1,0 L1,1 L0,1 Z " fill="#252525" transform="translate(323,216)"/>
<path d="M0,0 L1,0 L1,1 L0,1 Z " fill="#040404" transform="translate(322,216)"/>
<path d="M0,0 L1,0 L1,1 L0,1 Z " fill="#010101" transform="translate(318,216)"/>
<path d="M0,0 L1,0 L1,1 L0,1 Z " fill="#121212" opacity="0.90588236" transform="translate(316,216)"/>
<path d="M0,0 L1,0 L1,1 L0,1 Z " fill="#1A1A1A" opacity="0.74509805" transform="translate(314,216)"/>
<path d="M0,0 L1,0 L1,1 L0,1 Z " fill="#090909" opacity="0.5137255" transform="translate(312,216)"/>
<path d="M0,0 L1,0 L1,1 L0,1 Z " fill="#000000" opacity="0.40784314" transform="translate(311,216)"/>
<path d="M0,0 L1,0 L1,1 L0,1 Z " fill="#000000" opacity="0.23529412" transform="translate(309,216)"/>
<path d="M0,0 L1,0 L1,1 L0,1 Z " fill="#000000" opacity="0.101960786" transform="translate(307,216)"/>
<path d="M0,0 L1,0 L1,1 L0,1 Z " fill="#000000" opacity="0.011764706" transform="translate(305,216)"/>
<path d="M0,0 L1,0 L1,1 L0,1 Z " fill="#000000" opacity="0.019607844" transform="translate(285,216)"/>
<path d="M0,0 L1,0 L1,1 L0,1 Z " fill="#000000" opacity="0.15686275" transform="translate(282,216)"/>
<path d="M0,0 L1,0 L1,1 L0,1 Z " fill="#AAAAAA" opacity="0.15294118" transform="translate(335,215)"/>
<path d="M0,0 L1,0 L1,1 L0,1 Z " fill="#959595" transform="translate(333,215)"/>
<path d="M0,0 L1,0 L1,1 L0,1 Z " fill="#4A4A4A" opacity="0.99215686" transform="translate(331,215)"/>
<path d="M0,0 L1,0 L1,1 L0,1 Z " fill="#222222" opacity="0.98039216" transform="translate(330,215)"/>
<path d="M0,0 L1,0 L1,1 L0,1 Z " fill="#040404" opacity="0.99607843" transform="translate(329,215)"/>
<path d="M0,0 L1,0 L1,1 L0,1 Z " fill="#090909" opacity="0.92156863" transform="translate(325,215)"/>
<path d="M0,0 L1,0 L1,1 L0,1 Z " fill="#0B0B0B" opacity="0.6156863" transform="translate(323,215)"/>
<path d="M0,0 L1,0 L1,1 L0,1 Z " fill="#000000" opacity="0.44313726" transform="translate(322,215)"/>
<path d="M0,0 L1,0 L1,1 L0,1 Z " fill="#000000" opacity="0.18039216" transform="translate(320,215)"/>
<path d="M0,0 L1,0 L1,1 L0,1 Z " fill="#000000" opacity="0.011764706" transform="translate(318,215)"/>
<path d="M0,0 L1,0 L1,1 L0,1 Z " fill="#000000" opacity="0.5137255" transform="translate(285,215)"/>
<path d="M0,0 L1,0 L1,1 L0,1 Z " fill="#000000" transform="translate(284,215)"/>
<path d="M0,0 L1,0 L1,1 L0,1 Z " fill="#020202" opacity="0.36862746" transform="translate(283,215)"/>
<path d="M0,0 L1,0 L1,1 L0,1 Z " fill="#000000" opacity="0.09411765" transform="translate(335,214)"/>
<path d="M0,0 L1,0 L1,1 L0,1 Z " fill="#010101" opacity="0.9843137" transform="translate(332,214)"/>
<path d="M0,0 L1,0 L1,1 L0,1 Z " fill="#000000" opacity="0.61960787" transform="translate(330,214)"/>
<path d="M0,0 L1,0 L1,1 L0,1 Z " fill="#000000" opacity="0.3254902" transform="translate(328,214)"/>
<path d="M0,0 L1,0 L1,1 L0,1 Z " fill="#000000" opacity="0.03137255" transform="translate(326,214)"/>
<path d="M0,0 L1,0 L1,1 L0,1 Z " fill="#000000" opacity="0.27058825" transform="translate(286,214)"/>
<path d="M0,0 L1,0 L1,1 L0,1 Z " fill="#000000" opacity="0.9843137" transform="translate(285,214)"/>
<path d="M0,0 L1,0 L1,1 L0,1 Z " fill="#000000" opacity="0.10980392" transform="translate(334,213)"/>
<path d="M0,0 L1,0 L1,1 L0,1 Z " fill="#000000" opacity="0.9254902" transform="translate(333,213)"/>
<path d="M0,0 L1,0 L1,1 L0,1 Z " fill="#000000" opacity="0.039215688" transform="translate(331,213)"/>
<path d="M0,0 L1,0 L1,1 L0,1 Z " fill="#000000" opacity="0.25882354" transform="translate(287,213)"/>
<path d="M0,0 L1,0 L1,1 L0,1 Z " fill="#000000" opacity="0.7764706" transform="translate(285,213)"/>
<path d="M0,0 L1,0 L1,1 L0,1 Z " fill="#000000" opacity="0.039215688" transform="translate(284,213)"/>
<path d="M0,0 L1,0 L1,1 L0,1 Z " fill="#000000" opacity="0.16078432" transform="translate(333,212)"/>
<path d="M0,0 L1,0 L1,1 L0,1 Z " fill="#000000" opacity="0.92941177" transform="translate(332,212)"/>
<path d="M0,0 L1,0 L1,1 L0,1 Z " fill="#000000" opacity="0.019607844" transform="translate(330,212)"/>
<path d="M0,0 L1,0 L1,1 L0,1 Z " fill="#000000" opacity="0.24705882" transform="translate(288,212)"/>
<path d="M0,0 L1,0 L1,1 L0,1 Z " fill="#000000" opacity="0.9607843" transform="translate(287,212)"/>
<path d="M0,0 L1,0 L1,1 L0,1 Z " fill="#000000" opacity="0.047058824" transform="translate(285,212)"/>
<path d="M0,0 L1,0 L1,1 L0,1 Z " fill="#000000" opacity="0.21960784" transform="translate(332,211)"/>
<path d="M0,0 L1,0 L1,1 L0,1 Z " fill="#000000" opacity="0.9607843" transform="translate(331,211)"/>
<path d="M0,0 L1,0 L1,1 L0,1 Z " fill="#000000" opacity="0.003921569" transform="translate(329,211)"/>
<path d="M0,0 L1,0 L1,1 L0,1 Z " fill="#000000" opacity="0.2509804" transform="translate(289,211)"/>
<path d="M0,0 L1,0 L1,1 L0,1 Z " fill="#000000" opacity="0.95686275" transform="translate(288,211)"/>
<path d="M0,0 L1,0 L1,1 L0,1 Z " fill="#000000" opacity="0.039215688" transform="translate(286,211)"/>
<path d="M0,0 L1,0 L1,1 L0,1 Z " fill="#000000" opacity="0.2901961" transform="translate(331,210)"/>
<path d="M0,0 L1,0 L1,1 L0,1 Z " fill="#000000" opacity="0.9843137" transform="translate(330,210)"/>
<path d="M0,0 L1,0 L1,1 L0,1 Z " fill="#000000" opacity="0.039215688" transform="translate(328,210)"/>
<path d="M0,0 L1,0 L1,1 L0,1 Z " fill="#000000" opacity="0.011764706" transform="translate(291,210)"/>
<path d="M0,0 L1,0 L1,1 L0,1 Z " fill="#000000" opacity="0.9843137" transform="translate(289,210)"/>
<path d="M0,0 L1,0 L1,1 L0,1 Z " fill="#000000" opacity="0.03137255" transform="translate(287,210)"/>
<path d="M0,0 L1,0 L1,1 L0,1 Z " fill="#000000" opacity="0.28235295" transform="translate(330,209)"/>
<path d="M0,0 L1,0 L1,1 L0,1 Z " fill="#000000" opacity="0.9411765" transform="translate(329,209)"/>
<path d="M0,0 L1,0 L1,1 L0,1 Z " fill="#000000" opacity="0.14901961" transform="translate(327,209)"/>
<path d="M0,0 L1,0 L1,1 L0,1 Z " fill="#000000" opacity="0.13725491" transform="translate(292,209)"/>
<path d="M0,0 L1,0 L1,1 L0,1 Z " fill="#000000" opacity="0.9882353" transform="translate(290,209)"/>
<path d="M0,0 L1,0 L1,1 L0,1 Z " fill="#000000" opacity="0.015686275" transform="translate(288,209)"/>
<path d="M0,0 L1,0 L1,1 L0,1 Z " fill="#000000" opacity="0.15294118" transform="translate(329,208)"/>
<path d="M0,0 L1,0 L1,1 L0,1 Z " fill="#000000" opacity="0.972549" transform="translate(327,208)"/>
<path d="M0,0 L1,0 L1,1 L0,1 Z " fill="#000000" opacity="0.02745098" transform="translate(325,208)"/>
<path d="M0,0 L1,0 L1,1 L0,1 Z " fill="#000000" opacity="0.03529412" transform="translate(294,208)"/>
<path d="M0,0 L1,0 L1,1 L0,1 Z " fill="#000000" opacity="0.4392157" transform="translate(293,208)"/>
<path d="M0,0 L1,0 L1,1 L0,1 Z " fill="#000000" opacity="0.9529412" transform="translate(292,208)"/>
<path d="M0,0 L1,0 L1,1 L0,1 Z " fill="#000000" opacity="0.22745098" transform="translate(290,208)"/>
<path d="M0,0 L1,0 L1,1 L0,1 Z " fill="#000000" opacity="0.0627451" transform="translate(328,207)"/>
<path d="M0,0 L1,0 L1,1 L0,1 Z " fill="#000000" transform="translate(326,207)"/>
<path d="M0,0 L1,0 L1,1 L0,1 Z " fill="#000000" opacity="0.3137255" transform="translate(324,207)"/>
<path d="M0,0 L1,0 L1,1 L0,1 Z " fill="#000000" opacity="0.4627451" transform="translate(295,207)"/>
<path d="M0,0 L1,0 L1,1 L0,1 Z " fill="#000000" opacity="0.99607843" transform="translate(293,207)"/>
<path d="M0,0 L1,0 L1,1 L0,1 Z " fill="#000000" opacity="0.050980393" transform="translate(291,207)"/>
<path d="M0,0 L1,0 L1,1 L0,1 Z " fill="#000000" opacity="0.43137255" transform="translate(326,206)"/>
<path d="M0,0 L1,0 L1,1 L0,1 Z " fill="#000000" transform="translate(324,206)"/>
<path d="M0,0 L1,0 L1,1 L0,1 Z " fill="#000000" opacity="0.03137255" transform="translate(321,206)"/>
<path d="M0,0 L1,0 L1,1 L0,1 Z " fill="#000000" opacity="0.5176471" transform="translate(297,206)"/>
<path d="M0,0 L1,0 L1,1 L0,1 Z " fill="#000000" opacity="0.99215686" transform="translate(295,206)"/>
<path d="M0,0 L1,0 L1,1 L0,1 Z " fill="#000000" opacity="0.1764706" transform="translate(293,206)"/>
<path d="M0,0 L1,0 L1,1 L0,1 Z " fill="#000000" opacity="0.34117648" transform="translate(324,205)"/>
<path d="M0,0 L1,0 L1,1 L0,1 Z " fill="#000000" opacity="0.7921569" transform="translate(323,205)"/>
<path d="M0,0 L1,0 L1,1 L0,1 Z " fill="#000000" opacity="0.94509804" transform="translate(321,205)"/>
<path d="M0,0 L1,0 L1,1 L0,1 Z " fill="#000000" opacity="0.44313726" transform="translate(319,205)"/>
<path d="M0,0 L1,0 L1,1 L0,1 Z " fill="#000000" opacity="0.003921569" transform="translate(317,205)"/>
<path d="M0,0 L1,0 L1,1 L0,1 Z " fill="#000000" opacity="0.23529412" transform="translate(301,205)"/>
<path d="M0,0 L1,0 L1,1 L0,1 Z " fill="#000000" opacity="0.5529412" transform="translate(300,205)"/>
<path d="M0,0 L1,0 L1,1 L0,1 Z " fill="#000000" opacity="0.9882353" transform="translate(297,205)"/>
<path d="M0,0 L1,0 L1,1 L0,1 Z " fill="#000000" opacity="0.16470589" transform="translate(295,205)"/>
<path d="M0,0 L1,0 L1,1 L0,1 Z " fill="#000000" opacity="0.23921569" transform="translate(322,204)"/>
<path d="M0,0 L1,0 L1,1 L0,1 Z " fill="#000000" opacity="0.5882353" transform="translate(321,204)"/>
<path d="M0,0 L1,0 L1,1 L0,1 Z " fill="#000000" opacity="0.84313726" transform="translate(320,204)"/>
<path d="M0,0 L1,0 L1,1 L0,1 Z " fill="#000000" opacity="0.6745098" transform="translate(316,204)"/>
<path d="M0,0 L1,0 L1,1 L0,1 Z " fill="#000000" opacity="0.46666667" transform="translate(315,204)"/>
<path d="M0,0 L1,0 L1,1 L0,1 Z " fill="#000000" opacity="0.29803923" transform="translate(313,204)"/>
<path d="M0,0 L1,0 L1,1 L0,1 Z " fill="#000000" opacity="0.21568628" transform="translate(312,204)"/>
<path d="M0,0 L1,0 L1,1 L0,1 Z " fill="#000000" opacity="0.14901961" transform="translate(310,204)"/>
<path d="M0,0 L1,0 L1,1 L0,1 Z " fill="#000000" opacity="0.22352941" transform="translate(308,204)"/>
<path d="M0,0 L1,0 L1,1 L0,1 Z " fill="#000000" opacity="0.3254902" transform="translate(306,204)"/>
<path d="M0,0 L1,0 L1,1 L0,1 Z " fill="#000000" opacity="0.654902" transform="translate(304,204)"/>
<path d="M0,0 L1,0 L1,1 L0,1 Z " fill="#010101" opacity="0.827451" transform="translate(303,204)"/>
<path d="M0,0 L1,0 L1,1 L0,1 Z " fill="#010101" opacity="0.98039216" transform="translate(302,204)"/>
<path d="M0,0 L1,0 L1,1 L0,1 Z " fill="#010101" opacity="0.9607843" transform="translate(300,204)"/>
<path d="M0,0 L1,0 L1,1 L0,1 Z " fill="#010101" opacity="0.68235296" transform="translate(299,204)"/>
<path d="M0,0 L1,0 L1,1 L0,1 Z " fill="#000000" opacity="0.07058824" transform="translate(297,204)"/>
<path d="M0,0 L1,0 L1,1 L0,1 Z " fill="#000000" opacity="0.09411765" transform="translate(319,203)"/>
<path d="M0,0 L1,0 L1,1 L0,1 Z " fill="#000000" opacity="0.6" transform="translate(317,203)"/>
<path d="M0,0 L1,0 L1,1 L0,1 Z " fill="#000000" opacity="0.8392157" transform="translate(316,203)"/>
<path d="M0,0 L1,0 L1,1 L0,1 Z " fill="#010101" opacity="0.9490196" transform="translate(315,203)"/>
<path d="M0,0 L1,0 L1,1 L0,1 Z " fill="#030303" opacity="0.972549" transform="translate(305,203)"/>
<path d="M0,0 L1,0 L1,1 L0,1 Z " fill="#181818" opacity="0.7058824" transform="translate(303,203)"/>
<path d="M0,0 L1,0 L1,1 L0,1 Z " fill="#060606" opacity="0.49019608" transform="translate(302,203)"/>
<path d="M0,0 L1,0 L1,1 L0,1 Z " fill="#000000" opacity="0.03137255" transform="translate(300,203)"/>
<path d="M0,0 L1,0 L1,1 L0,1 Z " fill="#000000" opacity="0.105882354" transform="translate(313,202)"/>
<path d="M0,0 L1,0 L1,1 L0,1 Z " fill="#000000" opacity="0.18431373" transform="translate(312,202)"/>
<path d="M0,0 L1,0 L1,1 L0,1 Z " fill="#000000" opacity="0.2627451" transform="translate(311,202)"/>
<path d="M0,0 L1,0 L1,1 L0,1 Z " fill="#000000" opacity="0.22352941" transform="translate(309,202)"/>
<path d="M0,0 L1,0 L1,1 L0,1 Z " fill="#000000" opacity="0.14901961" transform="translate(307,202)"/>
<path d="M0,0 L1,0 L1,1 L0,1 Z " fill="#000000" opacity="0.003921569" transform="translate(305,202)"/>
</svg>
