<?xml version="1.0" encoding="UTF-8"?>
<!-- Generator: visioncortex VTracer 0.6.4 -->
<svg version="1.1" xmlns="http://www.w3.org/2000/svg" width="512" height="512">
<path d="M0,0 L8,0 L8,1 L10,1 L10,2 L11,2 L11,3 L12,3 L12,4 L13,4 L13,6 L14,6 L14,12 L13,12 L13,14 L12,14 L12,16 L11,16 L11,17 L13,17 L13,18 L14,18 L14,20 L15,20 L15,21 L16,21 L16,23 L17,23 L17,24 L18,24 L18,26 L19,26 L19,27 L20,27 L20,29 L21,29 L21,30 L22,30 L22,32 L23,32 L23,33 L24,33 L24,35 L25,35 L25,36 L26,36 L26,38 L27,38 L27,39 L28,39 L28,40 L29,40 L29,42 L30,42 L30,43 L31,43 L31,45 L32,45 L32,46 L33,46 L33,48 L34,48 L34,49 L35,49 L35,51 L36,51 L36,52 L37,52 L37,54 L38,54 L38,55 L39,55 L39,57 L40,57 L40,58 L41,58 L41,60 L42,60 L42,61 L43,61 L43,62 L44,62 L44,64 L45,64 L45,65 L46,65 L46,67 L47,67 L47,68 L48,68 L48,70 L49,70 L49,71 L50,71 L50,73 L51,73 L51,74 L55,74 L55,73 L61,73 L61,72 L66,72 L66,73 L68,73 L68,74 L69,74 L69,78 L68,78 L68,79 L67,79 L67,80 L66,80 L66,81 L65,81 L65,82 L64,82 L64,83 L63,83 L63,84 L62,84 L62,85 L60,85 L60,86 L59,86 L59,87 L57,87 L57,88 L55,88 L55,89 L53,89 L53,90 L51,90 L51,91 L49,91 L49,92 L47,92 L47,93 L44,93 L44,94 L40,94 L40,95 L36,95 L36,96 L28,96 L28,95 L26,95 L26,93 L25,93 L25,92 L26,92 L26,90 L27,90 L27,89 L28,89 L28,88 L29,88 L29,87 L30,87 L30,86 L31,86 L31,85 L32,85 L32,84 L33,84 L33,83 L35,83 L35,82 L36,82 L36,81 L35,81 L35,79 L34,79 L34,77 L33,77 L33,75 L32,75 L32,73 L31,73 L31,71 L30,71 L30,69 L29,69 L29,67 L28,67 L28,65 L27,65 L27,63 L26,63 L26,61 L25,61 L25,59 L24,59 L24,57 L23,57 L23,55 L22,55 L22,53 L21,53 L21,51 L20,51 L20,49 L19,49 L19,47 L18,47 L18,45 L17,45 L17,43 L16,43 L16,41 L15,41 L15,39 L14,39 L14,37 L13,37 L13,35 L12,35 L12,33 L11,33 L11,31 L10,31 L10,29 L9,29 L9,27 L8,27 L8,25 L7,25 L7,23 L6,23 L6,21 L5,21 L5,19 L0,19 L0,18 L-2,18 L-2,17 L-3,17 L-3,16 L-4,16 L-4,15 L-5,15 L-5,14 L-6,14 L-6,12 L-7,12 L-7,7 L-6,7 L-6,5 L-5,5 L-5,3 L-4,3 L-4,2 L-2,2 L-2,1 L0,1 Z " fill="#646464" transform="translate(167,80)"/>
<path d="M0,0 L5,0 L5,1 L7,1 L7,2 L8,2 L8,6 L7,6 L7,7 L6,7 L6,8 L5,8 L5,9 L4,9 L4,10 L3,10 L3,11 L2,11 L2,12 L1,12 L1,13 L-1,13 L-1,14 L-2,14 L-2,15 L-4,15 L-4,16 L-6,16 L-6,17 L-8,17 L-8,18 L-10,18 L-10,19 L-12,19 L-12,20 L-14,20 L-14,21 L-17,21 L-17,22 L-21,22 L-21,23 L-25,23 L-25,24 L-33,24 L-33,23 L-35,23 L-35,21 L-36,21 L-36,20 L-35,20 L-35,18 L-34,18 L-34,17 L-33,17 L-33,16 L-32,16 L-32,15 L-31,15 L-31,14 L-30,14 L-30,13 L-29,13 L-29,12 L-28,12 L-28,11 L-25,11 L-25,13 L-24,13 L-24,15 L-22,15 L-22,14 L-20,14 L-20,13 L-18,13 L-18,12 L-16,12 L-16,11 L-14,11 L-14,10 L-12,10 L-12,9 L-10,9 L-10,8 L-8,8 L-8,7 L-6,7 L-6,5 L-7,5 L-7,4 L-8,4 L-8,3 L-9,3 L-9,2 L-6,2 L-6,1 L0,1 Z " fill="#787878" transform="translate(228,152)"/>
<path d="M0,0 L8,0 L8,1 L10,1 L10,2 L11,2 L11,3 L12,3 L12,4 L13,4 L13,6 L14,6 L14,12 L13,12 L13,14 L12,14 L12,16 L11,16 L11,17 L10,17 L10,18 L9,18 L9,19 L0,19 L0,18 L-2,18 L-2,17 L-3,17 L-3,16 L-4,16 L-4,15 L-5,15 L-5,14 L-6,14 L-6,12 L-7,12 L-7,7 L-6,7 L-6,5 L-5,5 L-5,3 L-4,3 L-4,2 L-2,2 L-2,1 L0,1 Z " fill="#640909" transform="translate(167,80)"/>
<path d="M0,0 L1,0 L1,1 L0,1 Z M-1,1 L0,1 L0,2 L-1,2 Z M-2,2 L-1,2 L-1,3 L-2,3 Z M-3,3 L-2,3 L-2,4 L-3,4 Z M-4,4 L-3,4 L-3,5 L-4,5 Z M-5,5 L-4,5 L-4,6 L-5,6 Z M-6,6 L-5,6 L-5,7 L-6,7 Z M-7,7 L-6,7 L-6,8 L-7,8 Z " fill="#787878" transform="translate(200,163)"/>
<path d="M0,0 L1,0 L1,1 L0,1 Z " fill="#640A0A" opacity="0.7882353" transform="translate(171,79)"/>
<path d="M0,0 L1,0 L1,1 L0,1 Z " fill="#797979" opacity="0.3882353" transform="translate(198,176)"/>
<path d="M0,0 L1,0 L1,1 L0,1 Z M-1,1 L0,1 L0,2 L-1,2 Z " fill="#640909" transform="translate(163,82)"/>
<path d="M0,0 L1,0 L1,1 L0,1 Z " fill="#640909" opacity="0.64705884" transform="translate(181,89)"/>
<path d="M0,0 L1,0 L1,1 L0,1 Z " fill="#787878" opacity="0.83137256" transform="translate(198,164)"/>
<path d="M0,0 L1,0 L1,1 L0,1 Z " fill="#787878" opacity="0.1254902" transform="translate(231,151)"/>
<path d="M0,0 L1,0 L1,1 L0,1 Z " fill="#656565" opacity="0.9137255" transform="translate(213,146)"/>
<path d="M0,0 L1,0 L1,1 L0,1 Z " fill="#646464" opacity="0.92156863" transform="translate(198,124)"/>
<path d="M0,0 L1,0 L1,1 L0,1 Z " fill="#646464" opacity="0.92941177" transform="translate(183,102)"/>
<path d="M0,0 L1,0 L1,1 L0,1 Z " fill="#660B0B" opacity="0.3529412" transform="translate(159,89)"/>
<path d="M0,0 L1,0 L1,1 L0,1 Z " fill="#650909" opacity="0.53333336" transform="translate(169,99)"/>
<path d="M0,0 L1,0 L1,1 L0,1 Z " fill="#797979" opacity="0.45490196" transform="translate(192,170)"/>
<path d="M0,0 L1,0 L1,1 L0,1 Z " fill="#646464" opacity="0.9843137" transform="translate(200,157)"/>
<path d="M0,0 L1,0 L1,1 L0,1 Z " fill="#787878" opacity="0.5921569" transform="translate(220,153)"/>
<path d="M0,0 L1,0 L1,1 L0,1 Z " fill="#646464" opacity="0.9764706" transform="translate(198,153)"/>
<path d="M0,0 L1,0 L1,1 L0,1 Z " fill="#787878" opacity="0.7019608" transform="translate(225,152)"/>
<path d="M0,0 L1,0 L1,1 L0,1 Z " fill="#656565" opacity="0.39607844" transform="translate(217,151)"/>
<path d="M0,0 L1,0 L1,1 L0,1 Z " fill="#646464" opacity="0.96862745" transform="translate(196,149)"/>
<path d="M0,0 L1,0 L1,1 L0,1 Z " fill="#646464" opacity="0.95686275" transform="translate(194,145)"/>
<path d="M0,0 L1,0 L1,1 L0,1 Z " fill="#656565" opacity="0.89411765" transform="translate(211,143)"/>
<path d="M0,0 L1,0 L1,1 L0,1 Z " fill="#646464" opacity="0.8666667" transform="translate(209,140)"/>
<path d="M0,0 L1,0 L1,1 L0,1 Z " fill="#646464" opacity="0.8352941" transform="translate(207,137)"/>
<path d="M0,0 L1,0 L1,1 L0,1 Z " fill="#656565" opacity="0.8039216" transform="translate(205,134)"/>
<path d="M0,0 L1,0 L1,1 L0,1 Z " fill="#656565" opacity="0.45490196" transform="translate(204,132)"/>
<path d="M0,0 L1,0 L1,1 L0,1 Z " fill="#666666" opacity="0.4117647" transform="translate(202,129)"/>
<path d="M0,0 L1,0 L1,1 L0,1 Z " fill="#646464" opacity="0.8980392" transform="translate(196,121)"/>
<path d="M0,0 L1,0 L1,1 L0,1 Z " fill="#656565" opacity="0.8745098" transform="translate(194,118)"/>
<path d="M0,0 L1,0 L1,1 L0,1 Z " fill="#646464" opacity="0.84313726" transform="translate(192,115)"/>
<path d="M0,0 L1,0 L1,1 L0,1 Z " fill="#646464" opacity="0.8117647" transform="translate(190,112)"/>
<path d="M0,0 L1,0 L1,1 L0,1 Z " fill="#646464" opacity="0.7764706" transform="translate(188,109)"/>
<path d="M0,0 L1,0 L1,1 L0,1 Z " fill="#656565" opacity="0.42352942" transform="translate(187,107)"/>
<path d="M0,0 L1,0 L1,1 L0,1 Z " fill="#646464" opacity="0.90588236" transform="translate(181,99)"/>
<path d="M0,0 L3,0 L3,1 L0,1 Z " fill="#646363" transform="translate(172,99)"/>
<path d="M0,0 L1,0 L1,1 L0,1 Z " fill="#650A0A" opacity="0.39607844" transform="translate(165,98)"/>
<path d="M0,0 L1,0 L1,1 L0,1 Z " fill="#640909" opacity="0.9607843" transform="translate(164,81)"/>
<path d="M0,0 L1,0 L1,1 L0,1 Z " fill="#640909" opacity="0.7607843" transform="translate(169,79)"/>
<path d="M0,0 L1,0 L1,1 L0,1 Z " fill="#787878" opacity="0.972549" transform="translate(195,167)"/>
<path d="M0,0 L1,0 L1,1 L0,1 Z " fill="#787878" opacity="0.91764706" transform="translate(201,162)"/>
<path d="M0,0 L2,0 L2,2 L1,2 L1,1 L0,1 Z " fill="#787878" transform="translate(219,154)"/>
<path d="M0,0 L1,0 L1,1 L0,1 Z " fill="#797979" opacity="0.08235294" transform="translate(228,151)"/>
<path d="M0,0 L1,0 L1,1 L0,1 Z " fill="#640909" opacity="0.95686275" transform="translate(162,95)"/>
<path d="M0,0 L1,0 L1,1 L0,1 Z " fill="#650909" opacity="0.73333335" transform="translate(178,82)"/>
<path d="M0,0 L1,0 L1,1 L0,1 Z " fill="#7B7B7B" opacity="0.24313726" transform="translate(196,176)"/>
<path d="M0,0 L1,0 L1,1 L0,1 Z " fill="#787878" opacity="0.039215688" transform="translate(207,175)"/>
<path d="M0,0 L1,0 L1,1 L0,1 Z " fill="#797979" opacity="0.52156866" transform="translate(205,175)"/>
<path d="M0,0 L1,0 L1,1 L0,1 Z " fill="#787878" opacity="0.7921569" transform="translate(194,175)"/>
<path d="M0,0 L1,0 L1,1 L0,1 Z " fill="#7C7C7C" opacity="0.14509805" transform="translate(210,174)"/>
<path d="M0,0 L1,0 L1,1 L0,1 Z " fill="#787878" opacity="0.14117648" transform="translate(213,173)"/>
<path d="M0,0 L1,0 L1,1 L0,1 Z " fill="#787878" opacity="0.003921569" transform="translate(191,173)"/>
<path d="M0,0 L1,0 L1,1 L0,1 Z " fill="#787878" opacity="0.019607844" transform="translate(216,172)"/>
<path d="M0,0 L1,0 L1,1 L0,1 Z " fill="#7A7A7A" opacity="0.09803922" transform="translate(218,171)"/>
<path d="M0,0 L1,0 L1,1 L0,1 Z " fill="#797979" opacity="0.8117647" transform="translate(193,169)"/>
<path d="M0,0 L1,0 L1,1 L0,1 Z " fill="#787878" opacity="0.047058824" transform="translate(224,168)"/>
<path d="M0,0 L1,0 L1,1 L0,1 Z " fill="#787878" opacity="0.003921569" transform="translate(226,167)"/>
<path d="M0,0 L2,0 L2,1 L0,1 Z " fill="#696969" transform="translate(204,166)"/>
<path d="M0,0 L1,0 L1,1 L0,1 Z " fill="#787878" opacity="0.003921569" transform="translate(229,165)"/>
<path d="M0,0 L1,0 L1,1 L0,1 Z " fill="#787878" opacity="0.92156863" transform="translate(197,165)"/>
<path d="M0,0 L1,0 L1,1 L0,1 Z " fill="#787878" opacity="0.62352943" transform="translate(199,163)"/>
<path d="M0,0 L1,0 L1,1 L0,1 Z " fill="#787878" opacity="0.011764706" transform="translate(236,158)"/>
<path d="M0,0 L1,0 L1,2 L0,2 Z " fill="#676767" transform="translate(221,157)"/>
<path d="M0,0 L1,0 L1,1 L0,1 Z " fill="#797979" opacity="0.7294118" transform="translate(236,154)"/>
<path d="M0,0 L1,0 L1,1 L0,1 Z " fill="#656565" opacity="0.76862746" transform="translate(218,153)"/>
<path d="M0,0 L1,0 L1,1 L0,1 Z " fill="#787878" opacity="0.1254902" transform="translate(235,152)"/>
<path d="M0,0 L1,0 L1,1 L0,1 Z " fill="#787878" opacity="0.99607843" transform="translate(227,152)"/>
<path d="M0,0 L1,0 L1,1 L0,1 Z " fill="#787878" opacity="0.34901962" transform="translate(223,152)"/>
<path d="M0,0 L1,0 L1,1 L0,1 Z " fill="#646464" opacity="0.7176471" transform="translate(216,150)"/>
<path d="M0,0 L1,0 L1,1 L0,1 Z " fill="#666666" opacity="0.3529412" transform="translate(215,148)"/>
<path d="M0,0 L1,0 L1,1 L0,1 Z " fill="#646464" opacity="0.07450981" transform="translate(192,143)"/>
<path d="M0,0 L1,0 L1,1 L0,1 Z " fill="#656565" opacity="0.06666667" transform="translate(191,141)"/>
<path d="M0,0 L1,0 L1,1 L0,1 Z " fill="#656565" opacity="0.0627451" transform="translate(190,139)"/>
<path d="M0,0 L1,0 L1,1 L0,1 Z " fill="#656565" opacity="0.05882353" transform="translate(189,137)"/>
<path d="M0,0 L1,0 L1,1 L0,1 Z " fill="#656565" opacity="0.050980393" transform="translate(188,135)"/>
<path d="M0,0 L1,0 L1,1 L0,1 Z " fill="#656565" opacity="0.047058824" transform="translate(187,133)"/>
<path d="M0,0 L1,0 L1,1 L0,1 Z " fill="#646464" opacity="0.76862746" transform="translate(203,131)"/>
<path d="M0,0 L1,0 L1,1 L0,1 Z " fill="#646464" opacity="0.043137256" transform="translate(186,131)"/>
<path d="M0,0 L1,0 L1,1 L0,1 Z " fill="#646464" opacity="0.039215688" transform="translate(185,129)"/>
<path d="M0,0 L1,0 L1,1 L0,1 Z " fill="#646464" opacity="0.7294118" transform="translate(201,128)"/>
<path d="M0,0 L1,0 L1,1 L0,1 Z " fill="#646464" opacity="0.03529412" transform="translate(184,127)"/>
<path d="M0,0 L1,0 L1,1 L0,1 Z " fill="#656565" opacity="0.3647059" transform="translate(200,126)"/>
<path d="M0,0 L1,0 L1,1 L0,1 Z " fill="#646464" opacity="0.03137255" transform="translate(183,125)"/>
<path d="M0,0 L1,0 L1,1 L0,1 Z " fill="#646464" opacity="0.02745098" transform="translate(182,123)"/>
<path d="M0,0 L1,0 L1,1 L0,1 Z " fill="#656565" opacity="0.023529412" transform="translate(181,121)"/>
<path d="M0,0 L1,0 L1,1 L0,1 Z " fill="#656565" opacity="0.019607844" transform="translate(180,119)"/>
<path d="M0,0 L1,0 L1,1 L0,1 Z " fill="#666666" opacity="0.015686275" transform="translate(179,117)"/>
<path d="M0,0 L1,0 L1,1 L0,1 Z " fill="#646464" opacity="0.015686275" transform="translate(178,115)"/>
<path d="M0,0 L1,0 L1,1 L0,1 Z " fill="#666666" opacity="0.011764706" transform="translate(177,113)"/>
<path d="M0,0 L1,0 L1,1 L0,1 Z " fill="#646464" opacity="0.011764706" transform="translate(176,111)"/>
<path d="M0,0 L1,0 L1,1 L0,1 Z " fill="#646464" opacity="0.007843138" transform="translate(175,109)"/>
<path d="M0,0 L1,0 L1,1 L0,1 Z " fill="#656565" opacity="0.007843138" transform="translate(174,107)"/>
<path d="M0,0 L1,0 L1,1 L0,1 Z " fill="#646464" opacity="0.7411765" transform="translate(186,106)"/>
<path d="M0,0 L1,0 L1,1 L0,1 Z " fill="#656565" opacity="0.003921569" transform="translate(173,105)"/>
<path d="M0,0 L1,0 L1,1 L0,1 Z " fill="#646464" opacity="0.38039216" transform="translate(185,104)"/>
<path d="M0,0 L1,0 L1,1 L0,1 Z " fill="#656565" opacity="0.003921569" transform="translate(172,103)"/>
<path d="M0,0 L1,0 L1,1 L0,1 Z " fill="#656565" opacity="0.003921569" transform="translate(171,101)"/>
<path d="M0,0 L1,0 L1,1 L0,1 Z " fill="#653B3B" transform="translate(172,99)"/>
<path d="M0,0 L1,0 L1,1 L0,1 Z " fill="#6A0C0C" opacity="0.16078432" transform="translate(167,99)"/>
<path d="M0,0 L1,0 L1,1 L0,1 Z " fill="#646464" opacity="0.6117647" transform="translate(180,97)"/>
<path d="M0,0 L1,0 L1,1 L0,1 Z " fill="#640909" opacity="0.84705883" transform="translate(164,97)"/>
<path d="M0,0 L1,0 L1,1 L0,1 Z " fill="#640909" opacity="0.019607844" transform="translate(160,94)"/>
<path d="M0,0 L1,0 L1,1 L0,1 Z " fill="#650B0B" opacity="0.45490196" transform="translate(181,87)"/>
<path d="M0,0 L1,0 L1,1 L0,1 Z " fill="#650B0B" opacity="0.16862746" transform="translate(159,87)"/>
<path d="M0,0 L1,0 L1,1 L0,1 Z " fill="#650909" opacity="0.8235294" transform="translate(180,85)"/>
<path d="M0,0 L1,0 L1,1 L0,1 Z " fill="#640909" opacity="0.5294118" transform="translate(160,85)"/>
<path d="M0,0 L1,0 L1,1 L0,1 Z " fill="#640909" opacity="0.627451" transform="translate(165,80)"/>
<path d="M0,0 L1,0 L1,1 L0,1 Z " fill="#670A0A" opacity="0.003921569" transform="translate(175,79)"/>
<path d="M0,0 L1,0 L1,1 L0,1 Z " fill="#660A0A" opacity="0.39215687" transform="translate(167,79)"/>
<path d="M0,0 L1,0 L1,1 L0,1 Z " fill="#787878" opacity="0.05490196" transform="translate(202,176)"/>
<path d="M0,0 L1,0 L1,1 L0,1 Z " fill="#797979" opacity="0.21568628" transform="translate(201,176)"/>
<path d="M0,0 L1,0 L1,1 L0,1 Z " fill="#797979" opacity="0.2901961" transform="translate(200,176)"/>
<path d="M0,0 L1,0 L1,1 L0,1 Z " fill="#7A7A7A" opacity="0.3372549" transform="translate(199,176)"/>
<path d="M0,0 L1,0 L1,1 L0,1 Z " fill="#7A7A7A" opacity="0.3529412" transform="translate(197,176)"/>
<path d="M0,0 L1,0 L1,1 L0,1 Z " fill="#7B7B7B" opacity="0.12156863" transform="translate(195,176)"/>
<path d="M0,0 L1,0 L1,1 L0,1 Z " fill="#787878" opacity="0.26666668" transform="translate(206,175)"/>
<path d="M0,0 L1,0 L1,1 L0,1 Z " fill="#787878" opacity="0.7254902" transform="translate(204,175)"/>
<path d="M0,0 L1,0 L1,1 L0,1 Z " fill="#787878" opacity="0.8901961" transform="translate(203,175)"/>
<path d="M0,0 L1,0 L1,1 L0,1 Z " fill="#7A7A7A" opacity="0.36862746" transform="translate(193,175)"/>
<path d="M0,0 L1,0 L1,1 L0,1 Z " fill="#797979" opacity="0.47843137" transform="translate(209,174)"/>
<path d="M0,0 L1,0 L1,1 L0,1 Z " fill="#787878" opacity="0.7607843" transform="translate(208,174)"/>
<path d="M0,0 L1,0 L1,1 L0,1 Z " fill="#787878" opacity="0.98039216" transform="translate(207,174)"/>
<path d="M0,0 L1,0 L1,1 L0,1 Z " fill="#797979" opacity="0.4627451" transform="translate(192,174)"/>
<path d="M0,0 L1,0 L1,1 L0,1 Z " fill="#797979" opacity="0.47843137" transform="translate(212,173)"/>
<path d="M0,0 L1,0 L1,1 L0,1 Z " fill="#787878" opacity="0.8156863" transform="translate(211,173)"/>
<path d="M0,0 L1,0 L1,1 L0,1 Z " fill="#787878" opacity="0.94509804" transform="translate(192,173)"/>
<path d="M0,0 L1,0 L1,1 L0,1 Z " fill="#797979" opacity="0.32941177" transform="translate(215,172)"/>
<path d="M0,0 L1,0 L1,1 L0,1 Z " fill="#787878" opacity="0.7411765" transform="translate(214,172)"/>
<path d="M0,0 L1,0 L1,1 L0,1 Z " fill="#787878" opacity="0.06666667" transform="translate(191,172)"/>
<path d="M0,0 L1,0 L1,1 L0,1 Z " fill="#787878" opacity="0.50980395" transform="translate(217,171)"/>
<path d="M0,0 L1,0 L1,1 L0,1 Z " fill="#787878" opacity="0.9019608" transform="translate(216,171)"/>
<path d="M0,0 L1,0 L1,1 L0,1 Z " fill="#787878" opacity="0.8235294" transform="translate(192,171)"/>
<path d="M0,0 L1,0 L1,1 L0,1 Z " fill="#808080" opacity="0.10980392" transform="translate(220,170)"/>
<path d="M0,0 L1,0 L1,1 L0,1 Z " fill="#787878" opacity="0.57254905" transform="translate(219,170)"/>
<path d="M0,0 L1,0 L1,1 L0,1 Z " fill="#787878" opacity="0.972549" transform="translate(218,170)"/>
<path d="M0,0 L1,0 L1,1 L0,1 Z " fill="#808080" opacity="0.11764706" transform="translate(222,169)"/>
<path d="M0,0 L1,0 L1,1 L0,1 Z " fill="#797979" opacity="0.5882353" transform="translate(221,169)"/>
<path d="M0,0 L1,0 L1,1 L0,1 Z " fill="#787878" opacity="0.9764706" transform="translate(220,169)"/>
<path d="M0,0 L1,0 L1,1 L0,1 Z " fill="#797979" opacity="0.019607844" transform="translate(192,169)"/>
<path d="M0,0 L1,0 L1,1 L0,1 Z " fill="#787878" opacity="0.5176471" transform="translate(223,168)"/>
<path d="M0,0 L1,0 L1,1 L0,1 Z " fill="#787878" opacity="0.972549" transform="translate(222,168)"/>
<path d="M0,0 L1,0 L1,1 L0,1 Z " fill="#787878" opacity="0.9607843" transform="translate(194,168)"/>
<path d="M0,0 L1,0 L1,1 L0,1 Z " fill="#7D7D7D" opacity="0.18431373" transform="translate(193,168)"/>
<path d="M0,0 L1,0 L1,1 L0,1 Z " fill="#787878" opacity="0.35686275" transform="translate(225,167)"/>
<path d="M0,0 L1,0 L1,1 L0,1 Z " fill="#787878" opacity="0.8980392" transform="translate(224,167)"/>
<path d="M0,0 L1,0 L1,1 L0,1 Z " fill="#7A7A7A" opacity="0.2627451" transform="translate(194,167)"/>
<path d="M0,0 L1,0 L1,1 L0,1 Z " fill="#7C7C7C" opacity="0.13725491" transform="translate(227,166)"/>
<path d="M0,0 L1,0 L1,1 L0,1 Z " fill="#787878" opacity="0.7647059" transform="translate(226,166)"/>
<path d="M0,0 L1,0 L1,1 L0,1 Z " fill="#797979" transform="translate(207,166)"/>
<path d="M0,0 L1,0 L1,1 L0,1 Z " fill="#737373" transform="translate(206,166)"/>
<path d="M0,0 L1,0 L1,1 L0,1 Z " fill="#6B6B6B" transform="translate(204,166)"/>
<path d="M0,0 L1,0 L1,1 L0,1 Z " fill="#787878" opacity="0.98039216" transform="translate(196,166)"/>
<path d="M0,0 L1,0 L1,1 L0,1 Z " fill="#797979" opacity="0.29803923" transform="translate(195,166)"/>
<path d="M0,0 L1,0 L1,1 L0,1 Z " fill="#797979" opacity="0.40392157" transform="translate(228,165)"/>
<path d="M0,0 L1,0 L1,1 L0,1 Z " fill="#787878" opacity="0.95686275" transform="translate(227,165)"/>
<path d="M0,0 L1,0 L1,1 L0,1 Z " fill="#797979" transform="translate(209,165)"/>
<path d="M0,0 L1,0 L1,1 L0,1 Z " fill="#737373" transform="translate(208,165)"/>
<path d="M0,0 L1,0 L1,1 L0,1 Z " fill="#6A6A6A" transform="translate(207,165)"/>
<path d="M0,0 L1,0 L1,1 L0,1 Z " fill="#656565" transform="translate(204,165)"/>
<path d="M0,0 L1,0 L1,1 L0,1 Z " fill="#767676" transform="translate(203,165)"/>
<path d="M0,0 L1,0 L1,1 L0,1 Z " fill="#7B7B7B" opacity="0.24313726" transform="translate(196,165)"/>
<path d="M0,0 L1,0 L1,1 L0,1 Z " fill="#808080" opacity="0.078431375" transform="translate(230,164)"/>
<path d="M0,0 L1,0 L1,1 L0,1 Z " fill="#787878" opacity="0.7176471" transform="translate(229,164)"/>
<path d="M0,0 L1,0 L1,1 L0,1 Z " fill="#797979" transform="translate(211,164)"/>
<path d="M0,0 L1,0 L1,1 L0,1 Z " fill="#727272" transform="translate(210,164)"/>
<path d="M0,0 L1,0 L1,1 L0,1 Z " fill="#696969" transform="translate(209,164)"/>
<path d="M0,0 L1,0 L1,1 L0,1 Z " fill="#6C6C6C" transform="translate(203,164)"/>
<path d="M0,0 L1,0 L1,1 L0,1 Z " fill="#7C7C7C" opacity="0.12941177" transform="translate(197,164)"/>
<path d="M0,0 L1,0 L1,1 L0,1 Z " fill="#7A7A7A" opacity="0.17254902" transform="translate(231,163)"/>
<path d="M0,0 L1,0 L1,1 L0,1 Z " fill="#787878" opacity="0.8745098" transform="translate(230,163)"/>
<path d="M0,0 L1,0 L1,1 L0,1 Z " fill="#737373" transform="translate(212,163)"/>
<path d="M0,0 L1,0 L1,1 L0,1 Z " fill="#686868" transform="translate(211,163)"/>
<path d="M0,0 L1,0 L1,1 L0,1 Z " fill="#767676" transform="translate(202,163)"/>
<path d="M0,0 L1,0 L1,1 L0,1 Z " fill="#787878" opacity="0.050980393" transform="translate(198,163)"/>
<path d="M0,0 L1,0 L1,1 L0,1 Z " fill="#7B7B7B" opacity="0.3019608" transform="translate(232,162)"/>
<path d="M0,0 L1,0 L1,1 L0,1 Z " fill="#787878" opacity="0.9529412" transform="translate(231,162)"/>
<path d="M0,0 L1,0 L1,1 L0,1 Z " fill="#797979" transform="translate(215,162)"/>
<path d="M0,0 L1,0 L1,1 L0,1 Z " fill="#727272" transform="translate(214,162)"/>
<path d="M0,0 L1,0 L1,1 L0,1 Z " fill="#686868" transform="translate(213,162)"/>
<path d="M0,0 L1,0 L1,1 L0,1 Z " fill="#6C6C6C" transform="translate(202,162)"/>
<path d="M0,0 L1,0 L1,1 L0,1 Z " fill="#797979" opacity="0.3137255" transform="translate(200,162)"/>
<path d="M0,0 L1,0 L1,1 L0,1 Z " fill="#797979" opacity="0.32156864" transform="translate(233,161)"/>
<path d="M0,0 L1,0 L1,1 L0,1 Z " fill="#787878" opacity="0.99215686" transform="translate(232,161)"/>
<path d="M0,0 L1,0 L1,1 L0,1 Z " fill="#717171" transform="translate(216,161)"/>
<path d="M0,0 L1,0 L1,1 L0,1 Z " fill="#676767" transform="translate(215,161)"/>
<path d="M0,0 L1,0 L1,1 L0,1 Z " fill="#646464" opacity="0.99607843" transform="translate(202,161)"/>
<path d="M0,0 L1,0 L1,1 L0,1 Z " fill="#717171" opacity="0.21176471" transform="translate(201,161)"/>
<path d="M0,0 L1,0 L1,1 L0,1 Z " fill="#7A7A7A" opacity="0.2784314" transform="translate(234,160)"/>
<path d="M0,0 L1,0 L1,1 L0,1 Z " fill="#787878" opacity="0.98039216" transform="translate(233,160)"/>
<path d="M0,0 L1,0 L1,1 L0,1 Z " fill="#717171" transform="translate(218,160)"/>
<path d="M0,0 L1,0 L1,1 L0,1 Z " fill="#676767" transform="translate(217,160)"/>
<path d="M0,0 L1,0 L1,1 L0,1 Z " fill="#656565" opacity="0.6156863" transform="translate(201,160)"/>
<path d="M0,0 L1,0 L1,1 L0,1 Z " fill="#7C7C7C" opacity="0.15294118" transform="translate(235,159)"/>
<path d="M0,0 L1,0 L1,1 L0,1 Z " fill="#787878" opacity="0.9647059" transform="translate(234,159)"/>
<path d="M0,0 L1,0 L1,1 L0,1 Z " fill="#707070" transform="translate(220,159)"/>
<path d="M0,0 L1,0 L1,1 L0,1 Z " fill="#676767" transform="translate(219,159)"/>
<path d="M0,0 L1,0 L1,1 L0,1 Z " fill="#646464" opacity="0.9843137" transform="translate(201,159)"/>
<path d="M0,0 L1,0 L1,1 L0,1 Z " fill="#646464" opacity="0.12941177" transform="translate(200,159)"/>
<path d="M0,0 L1,0 L1,1 L0,1 Z " fill="#787878" opacity="0.7764706" transform="translate(235,158)"/>
<path d="M0,0 L1,0 L1,1 L0,1 Z " fill="#646464" opacity="0.60784316" transform="translate(200,158)"/>
<path d="M0,0 L1,0 L1,1 L0,1 Z " fill="#787878" opacity="0.3764706" transform="translate(236,157)"/>
<path d="M0,0 L1,0 L1,1 L0,1 Z " fill="#6F6F6F" transform="translate(221,157)"/>
<path d="M0,0 L1,0 L1,1 L0,1 Z " fill="#6B6B6B" opacity="0.12156863" transform="translate(199,157)"/>
<path d="M0,0 L1,0 L1,1 L0,1 Z " fill="#787878" opacity="0.70980394" transform="translate(236,156)"/>
<path d="M0,0 L1,0 L1,1 L0,1 Z " fill="#686868" transform="translate(220,156)"/>
<path d="M0,0 L1,0 L1,1 L0,1 Z " fill="#656565" opacity="0.59607846" transform="translate(199,156)"/>
<path d="M0,0 L1,0 L1,1 L0,1 Z " fill="#787878" opacity="0.8901961" transform="translate(236,155)"/>
<path d="M0,0 L1,0 L1,1 L0,1 Z " fill="#767676" transform="translate(220,155)"/>
<path d="M0,0 L1,0 L1,1 L0,1 Z " fill="#656565" transform="translate(219,155)"/>
<path d="M0,0 L1,0 L1,1 L0,1 Z " fill="#646464" opacity="0.98039216" transform="translate(199,155)"/>
<path d="M0,0 L1,0 L1,1 L0,1 Z " fill="#696969" opacity="0.11372549" transform="translate(198,155)"/>
<path d="M0,0 L1,0 L1,1 L0,1 Z " fill="#707070" transform="translate(219,154)"/>
<path d="M0,0 L1,0 L1,1 L0,1 Z " fill="#656565" opacity="0.58431375" transform="translate(198,154)"/>
<path d="M0,0 L1,0 L1,1 L0,1 Z " fill="#797979" opacity="0.23137255" transform="translate(236,153)"/>
<path d="M0,0 L1,0 L1,1 L0,1 Z " fill="#787878" opacity="0.95686275" transform="translate(235,153)"/>
<path d="M0,0 L1,0 L1,1 L0,1 Z " fill="#787878" opacity="0.84705883" transform="translate(221,153)"/>
<path d="M0,0 L1,0 L1,1 L0,1 Z " fill="#797979" opacity="0.32941177" transform="translate(219,153)"/>
<path d="M0,0 L1,0 L1,1 L0,1 Z " fill="#686868" opacity="0.105882354" transform="translate(197,153)"/>
<path d="M0,0 L1,0 L1,1 L0,1 Z " fill="#787878" opacity="0.5176471" transform="translate(234,152)"/>
<path d="M0,0 L1,0 L1,1 L0,1 Z " fill="#797979" opacity="0.87058824" transform="translate(233,152)"/>
<path d="M0,0 L1,0 L1,1 L0,1 Z " fill="#787878" opacity="0.8666667" transform="translate(226,152)"/>
<path d="M0,0 L1,0 L1,1 L0,1 Z " fill="#797979" opacity="0.5372549" transform="translate(224,152)"/>
<path d="M0,0 L1,0 L1,1 L0,1 Z " fill="#7A7A7A" opacity="0.09803922" transform="translate(222,152)"/>
<path d="M0,0 L1,0 L1,1 L0,1 Z " fill="#696969" opacity="0.13333334" transform="translate(218,152)"/>
<path d="M0,0 L1,0 L1,1 L0,1 Z " fill="#646464" opacity="0.9529412" transform="translate(217,152)"/>
<path d="M0,0 L1,0 L1,1 L0,1 Z " fill="#656565" opacity="0.57254905" transform="translate(197,152)"/>
<path d="M0,0 L1,0 L1,1 L0,1 Z " fill="#787878" opacity="0.023529412" transform="translate(232,151)"/>
<path d="M0,0 L1,0 L1,1 L0,1 Z " fill="#7D7D7D" opacity="0.18431373" transform="translate(230,151)"/>
<path d="M0,0 L1,0 L1,1 L0,1 Z " fill="#787878" opacity="0.13333334" transform="translate(229,151)"/>
<path d="M0,0 L1,0 L1,1 L0,1 Z " fill="#797979" opacity="0.023529412" transform="translate(227,151)"/>
<path d="M0,0 L1,0 L1,1 L0,1 Z " fill="#646464" opacity="0.972549" transform="translate(197,151)"/>
<path d="M0,0 L1,0 L1,1 L0,1 Z " fill="#666666" opacity="0.09803922" transform="translate(196,151)"/>
<path d="M0,0 L1,0 L1,1 L0,1 Z " fill="#646464" opacity="0.003921569" transform="translate(217,150)"/>
<path d="M0,0 L1,0 L1,1 L0,1 Z " fill="#646464" opacity="0.56078434" transform="translate(196,150)"/>
<path d="M0,0 L1,0 L1,1 L0,1 Z " fill="#686868" opacity="0.105882354" transform="translate(216,149)"/>
<path d="M0,0 L1,0 L1,1 L0,1 Z " fill="#646464" opacity="0.9372549" transform="translate(215,149)"/>
<path d="M0,0 L1,0 L1,1 L0,1 Z " fill="#6A6A6A" opacity="0.09411765" transform="translate(195,149)"/>
<path d="M0,0 L1,0 L1,1 L0,1 Z " fill="#646464" opacity="0.54901963" transform="translate(195,148)"/>
<path d="M0,0 L1,0 L1,1 L0,1 Z " fill="#656565" opacity="0.003921569" transform="translate(215,147)"/>
<path d="M0,0 L1,0 L1,1 L0,1 Z " fill="#656565" opacity="0.6745098" transform="translate(214,147)"/>
<path d="M0,0 L1,0 L1,1 L0,1 Z " fill="#646464" opacity="0.9607843" transform="translate(195,147)"/>
<path d="M0,0 L1,0 L1,1 L0,1 Z " fill="#686868" opacity="0.08627451" transform="translate(194,147)"/>
<path d="M0,0 L1,0 L1,1 L0,1 Z " fill="#6D6D6D" opacity="0.08235294" transform="translate(214,146)"/>
<path d="M0,0 L1,0 L1,1 L0,1 Z " fill="#646464" opacity="0.5411765" transform="translate(194,146)"/>
<path d="M0,0 L1,0 L1,1 L0,1 Z " fill="#666666" opacity="0.3137255" transform="translate(213,145)"/>
<path d="M0,0 L1,0 L1,1 L0,1 Z " fill="#666666" opacity="0.078431375" transform="translate(193,145)"/>
<path d="M0,0 L1,0 L1,1 L0,1 Z " fill="#646464" opacity="0.6313726" transform="translate(212,144)"/>
<path d="M0,0 L1,0 L1,1 L0,1 Z " fill="#646464" opacity="0.5294118" transform="translate(193,144)"/>
<path d="M0,0 L1,0 L1,1 L0,1 Z " fill="#656565" opacity="0.0627451" transform="translate(212,143)"/>
<path d="M0,0 L1,0 L1,1 L0,1 Z " fill="#646464" opacity="0.9529412" transform="translate(193,143)"/>
<path d="M0,0 L1,0 L1,1 L0,1 Z " fill="#666666" opacity="0.27450982" transform="translate(211,142)"/>
<path d="M0,0 L1,0 L1,1 L0,1 Z " fill="#646464" opacity="0.5176471" transform="translate(192,142)"/>
<path d="M0,0 L1,0 L1,1 L0,1 Z " fill="#656565" opacity="0.58431375" transform="translate(210,141)"/>
<path d="M0,0 L1,0 L1,1 L0,1 Z " fill="#646464" opacity="0.9490196" transform="translate(192,141)"/>
<path d="M0,0 L1,0 L1,1 L0,1 Z " fill="#646464" opacity="0.047058824" transform="translate(210,140)"/>
<path d="M0,0 L1,0 L1,1 L0,1 Z " fill="#656565" opacity="0.5058824" transform="translate(191,140)"/>
<path d="M0,0 L1,0 L1,1 L0,1 Z " fill="#666666" opacity="0.23529412" transform="translate(209,139)"/>
<path d="M0,0 L1,0 L1,1 L0,1 Z " fill="#646464" opacity="0.99607843" transform="translate(208,139)"/>
<path d="M0,0 L1,0 L1,1 L0,1 Z " fill="#646464" opacity="0.9411765" transform="translate(191,139)"/>
<path d="M0,0 L1,0 L1,1 L0,1 Z " fill="#646464" opacity="0.5411765" transform="translate(208,138)"/>
<path d="M0,0 L1,0 L1,1 L0,1 Z " fill="#656565" opacity="0.49411765" transform="translate(190,138)"/>
<path d="M0,0 L1,0 L1,1 L0,1 Z " fill="#646464" opacity="0.03137255" transform="translate(208,137)"/>
<path d="M0,0 L1,0 L1,1 L0,1 Z " fill="#646464" opacity="0.9372549" transform="translate(190,137)"/>
<path d="M0,0 L1,0 L1,1 L0,1 Z " fill="#646464" opacity="0.2" transform="translate(207,136)"/>
<path d="M0,0 L1,0 L1,1 L0,1 Z " fill="#646464" opacity="0.9882353" transform="translate(206,136)"/>
<path d="M0,0 L1,0 L1,1 L0,1 Z " fill="#656565" opacity="0.4862745" transform="translate(189,136)"/>
<path d="M0,0 L1,0 L1,1 L0,1 Z " fill="#646464" opacity="0.49803922" transform="translate(206,135)"/>
<path d="M0,0 L1,0 L1,1 L0,1 Z " fill="#646464" opacity="0.92941177" transform="translate(189,135)"/>
<path d="M0,0 L1,0 L1,1 L0,1 Z " fill="#656565" opacity="0.019607844" transform="translate(206,134)"/>
<path d="M0,0 L1,0 L1,1 L0,1 Z " fill="#656565" opacity="0.4745098" transform="translate(188,134)"/>
<path d="M0,0 L1,0 L1,1 L0,1 Z " fill="#656565" opacity="0.16862746" transform="translate(205,133)"/>
<path d="M0,0 L1,0 L1,1 L0,1 Z " fill="#646464" opacity="0.9764706" transform="translate(204,133)"/>
<path d="M0,0 L1,0 L1,1 L0,1 Z " fill="#646464" opacity="0.9254902" transform="translate(188,133)"/>
<path d="M0,0 L1,0 L1,1 L0,1 Z " fill="#656565" opacity="0.4627451" transform="translate(187,132)"/>
<path d="M0,0 L1,0 L1,1 L0,1 Z " fill="#646464" opacity="0.011764706" transform="translate(204,131)"/>
<path d="M0,0 L1,0 L1,1 L0,1 Z " fill="#646464" opacity="0.91764706" transform="translate(187,131)"/>
<path d="M0,0 L1,0 L1,1 L0,1 Z " fill="#6A6A6A" opacity="0.14117648" transform="translate(203,130)"/>
<path d="M0,0 L1,0 L1,1 L0,1 Z " fill="#646464" opacity="0.9607843" transform="translate(202,130)"/>
<path d="M0,0 L1,0 L1,1 L0,1 Z " fill="#646464" opacity="0.4509804" transform="translate(186,130)"/>
<path d="M0,0 L1,0 L1,1 L0,1 Z " fill="#646464" opacity="0.9098039" transform="translate(186,129)"/>
<path d="M0,0 L1,0 L1,1 L0,1 Z " fill="#646464" opacity="0.003921569" transform="translate(202,128)"/>
<path d="M0,0 L1,0 L1,1 L0,1 Z " fill="#646464" opacity="0.4392157" transform="translate(185,128)"/>
<path d="M0,0 L1,0 L1,1 L0,1 Z " fill="#696969" opacity="0.11372549" transform="translate(201,127)"/>
<path d="M0,0 L1,0 L1,1 L0,1 Z " fill="#646464" opacity="0.9411765" transform="translate(200,127)"/>
<path d="M0,0 L1,0 L1,1 L0,1 Z " fill="#646464" opacity="0.9019608" transform="translate(185,127)"/>
<path d="M0,0 L1,0 L1,1 L0,1 Z " fill="#646464" opacity="0.42745098" transform="translate(184,126)"/>
<path d="M0,0 L1,0 L1,1 L0,1 Z " fill="#646464" opacity="0.003921569" transform="translate(200,125)"/>
<path d="M0,0 L1,0 L1,1 L0,1 Z " fill="#646464" opacity="0.6901961" transform="translate(199,125)"/>
<path d="M0,0 L1,0 L1,1 L0,1 Z " fill="#656565" opacity="0.89411765" transform="translate(184,125)"/>
<path d="M0,0 L1,0 L1,1 L0,1 Z " fill="#646464" opacity="0.09019608" transform="translate(199,124)"/>
<path d="M0,0 L1,0 L1,1 L0,1 Z " fill="#646464" opacity="0.41960785" transform="translate(183,124)"/>
<path d="M0,0 L1,0 L1,1 L0,1 Z " fill="#656565" opacity="0.3254902" transform="translate(198,123)"/>
<path d="M0,0 L1,0 L1,1 L0,1 Z " fill="#646464" opacity="0.8901961" transform="translate(183,123)"/>
<path d="M0,0 L1,0 L1,1 L0,1 Z " fill="#656565" opacity="0.6431373" transform="translate(197,122)"/>
<path d="M0,0 L1,0 L1,1 L0,1 Z " fill="#646464" opacity="0.40784314" transform="translate(182,122)"/>
<path d="M0,0 L1,0 L1,1 L0,1 Z " fill="#646464" opacity="0.06666667" transform="translate(197,121)"/>
<path d="M0,0 L1,0 L1,1 L0,1 Z " fill="#646464" opacity="0.88235295" transform="translate(182,121)"/>
<path d="M0,0 L1,0 L1,1 L0,1 Z " fill="#676767" opacity="0.28235295" transform="translate(196,120)"/>
<path d="M0,0 L1,0 L1,1 L0,1 Z " fill="#656565" opacity="0.39607844" transform="translate(181,120)"/>
<path d="M0,0 L1,0 L1,1 L0,1 Z " fill="#646464" opacity="0.6" transform="translate(195,119)"/>
<path d="M0,0 L1,0 L1,1 L0,1 Z " fill="#656565" opacity="0.8745098" transform="translate(181,119)"/>
<path d="M0,0 L1,0 L1,1 L0,1 Z " fill="#656565" opacity="0.050980393" transform="translate(195,118)"/>
<path d="M0,0 L1,0 L1,1 L0,1 Z " fill="#656565" opacity="0.38431373" transform="translate(180,118)"/>
<path d="M0,0 L1,0 L1,1 L0,1 Z " fill="#656565" opacity="0.24705882" transform="translate(194,117)"/>
<path d="M0,0 L1,0 L1,1 L0,1 Z " fill="#646464" opacity="0.99607843" transform="translate(193,117)"/>
<path d="M0,0 L1,0 L1,1 L0,1 Z " fill="#646464" opacity="0.8666667" transform="translate(180,117)"/>
<path d="M0,0 L1,0 L1,1 L0,1 Z " fill="#656565" opacity="0.5529412" transform="translate(193,116)"/>
<path d="M0,0 L1,0 L1,1 L0,1 Z " fill="#666666" opacity="0.37254903" transform="translate(179,116)"/>
<path d="M0,0 L1,0 L1,1 L0,1 Z " fill="#646464" opacity="0.03529412" transform="translate(193,115)"/>
<path d="M0,0 L1,0 L1,1 L0,1 Z " fill="#646464" opacity="0.85490197" transform="translate(179,115)"/>
<path d="M0,0 L1,0 L1,1 L0,1 Z " fill="#686868" opacity="0.21176471" transform="translate(192,114)"/>
<path d="M0,0 L1,0 L1,1 L0,1 Z " fill="#646464" opacity="0.9882353" transform="translate(191,114)"/>
<path d="M0,0 L1,0 L1,1 L0,1 Z " fill="#646464" opacity="0.36078432" transform="translate(178,114)"/>
<path d="M0,0 L1,0 L1,1 L0,1 Z " fill="#646464" opacity="0.50980395" transform="translate(191,113)"/>
<path d="M0,0 L1,0 L1,1 L0,1 Z " fill="#646464" opacity="0.84705883" transform="translate(178,113)"/>
<path d="M0,0 L1,0 L1,1 L0,1 Z " fill="#646464" opacity="0.023529412" transform="translate(191,112)"/>
<path d="M0,0 L1,0 L1,1 L0,1 Z " fill="#666666" opacity="0.3529412" transform="translate(177,112)"/>
<path d="M0,0 L1,0 L1,1 L0,1 Z " fill="#666666" opacity="0.1764706" transform="translate(190,111)"/>
<path d="M0,0 L1,0 L1,1 L0,1 Z " fill="#646464" opacity="0.9764706" transform="translate(189,111)"/>
<path d="M0,0 L1,0 L1,1 L0,1 Z " fill="#646464" opacity="0.8392157" transform="translate(177,111)"/>
<path d="M0,0 L1,0 L1,1 L0,1 Z " fill="#656565" opacity="0.46666667" transform="translate(189,110)"/>
<path d="M0,0 L1,0 L1,1 L0,1 Z " fill="#646464" opacity="0.34117648" transform="translate(176,110)"/>
<path d="M0,0 L1,0 L1,1 L0,1 Z " fill="#646464" opacity="0.011764706" transform="translate(189,109)"/>
<path d="M0,0 L1,0 L1,1 L0,1 Z " fill="#646464" opacity="0.83137256" transform="translate(176,109)"/>
<path d="M0,0 L1,0 L1,1 L0,1 Z " fill="#656565" opacity="0.14901961" transform="translate(188,108)"/>
<path d="M0,0 L1,0 L1,1 L0,1 Z " fill="#646464" opacity="0.9647059" transform="translate(187,108)"/>
<path d="M0,0 L1,0 L1,1 L0,1 Z " fill="#646464" opacity="0.32941177" transform="translate(175,108)"/>
<path d="M0,0 L1,0 L1,1 L0,1 Z " fill="#646464" opacity="0.81960785" transform="translate(175,107)"/>
<path d="M0,0 L1,0 L1,1 L0,1 Z " fill="#646464" opacity="0.007843138" transform="translate(187,106)"/>
<path d="M0,0 L1,0 L1,1 L0,1 Z " fill="#656565" opacity="0.31764707" transform="translate(174,106)"/>
<path d="M0,0 L1,0 L1,1 L0,1 Z " fill="#6B6B6B" opacity="0.12156863" transform="translate(186,105)"/>
<path d="M0,0 L1,0 L1,1 L0,1 Z " fill="#646464" opacity="0.9490196" transform="translate(185,105)"/>
<path d="M0,0 L1,0 L1,1 L0,1 Z " fill="#646464" opacity="0.8117647" transform="translate(174,105)"/>
<path d="M0,0 L1,0 L1,1 L0,1 Z " fill="#656565" opacity="0.30588236" transform="translate(173,104)"/>
<path d="M0,0 L1,0 L1,1 L0,1 Z " fill="#646464" opacity="0.003921569" transform="translate(185,103)"/>
<path d="M0,0 L1,0 L1,1 L0,1 Z " fill="#646464" opacity="0.7019608" transform="translate(184,103)"/>
<path d="M0,0 L1,0 L1,1 L0,1 Z " fill="#646464" opacity="0.8" transform="translate(173,103)"/>
<path d="M0,0 L1,0 L1,1 L0,1 Z " fill="#6A6A6A" opacity="0.09411765" transform="translate(184,102)"/>
<path d="M0,0 L1,0 L1,1 L0,1 Z " fill="#656565" opacity="0.29803923" transform="translate(172,102)"/>
<path d="M0,0 L1,0 L1,1 L0,1 Z " fill="#646464" opacity="0.34117648" transform="translate(183,101)"/>
<path d="M0,0 L1,0 L1,1 L0,1 Z " fill="#646464" opacity="0.7921569" transform="translate(172,101)"/>
<path d="M0,0 L1,0 L1,1 L0,1 Z " fill="#656565" opacity="0.654902" transform="translate(182,100)"/>
<path d="M0,0 L1,0 L1,1 L0,1 Z " fill="#646464" transform="translate(172,100)"/>
<path d="M0,0 L1,0 L1,1 L0,1 Z " fill="#656565" opacity="0.28627452" transform="translate(171,100)"/>
<path d="M0,0 L1,0 L1,1 L0,1 Z " fill="#646464" opacity="0.07450981" transform="translate(182,99)"/>
<path d="M0,0 L1,0 L1,1 L0,1 Z " fill="#644E4E" transform="translate(173,99)"/>
<path d="M0,0 L1,0 L1,1 L0,1 Z " fill="#642B2B" opacity="0.8901961" transform="translate(171,99)"/>
<path d="M0,0 L1,0 L1,1 L0,1 Z " fill="#640909" opacity="0.61960787" transform="translate(170,99)"/>
<path d="M0,0 L1,0 L1,1 L0,1 Z " fill="#640909" opacity="0.41960785" transform="translate(168,99)"/>
<path d="M0,0 L1,0 L1,1 L0,1 Z " fill="#640909" opacity="0.003921569" transform="translate(166,99)"/>
<path d="M0,0 L1,0 L1,1 L0,1 Z " fill="#666666" opacity="0.29411766" transform="translate(181,98)"/>
<path d="M0,0 L1,0 L1,1 L0,1 Z " fill="#655D5D" transform="translate(176,98)"/>
<path d="M0,0 L1,0 L1,1 L0,1 Z " fill="#643232" transform="translate(175,98)"/>
<path d="M0,0 L1,0 L1,1 L0,1 Z " fill="#650F0F" transform="translate(174,98)"/>
<path d="M0,0 L1,0 L1,1 L0,1 Z " fill="#640909" opacity="0.8627451" transform="translate(166,98)"/>
<path d="M0,0 L1,0 L1,1 L0,1 Z " fill="#640909" opacity="0.023529412" transform="translate(164,98)"/>
<path d="M0,0 L1,0 L1,1 L0,1 Z " fill="#654545" transform="translate(177,97)"/>
<path d="M0,0 L1,0 L1,1 L0,1 Z " fill="#650E0E" transform="translate(176,97)"/>
<path d="M0,0 L1,0 L1,1 L0,1 Z " fill="#660B0B" opacity="0.1764706" transform="translate(163,97)"/>
<path d="M0,0 L1,0 L1,1 L0,1 Z " fill="#646464" opacity="0.05490196" transform="translate(180,96)"/>
<path d="M0,0 L1,0 L1,1 L0,1 Z " fill="#646464" opacity="0.88235295" transform="translate(179,96)"/>
<path d="M0,0 L1,0 L1,1 L0,1 Z " fill="#653333" opacity="0.98039216" transform="translate(178,96)"/>
<path d="M0,0 L1,0 L1,1 L0,1 Z " fill="#640909" opacity="0.9647059" transform="translate(163,96)"/>
<path d="M0,0 L1,0 L1,1 L0,1 Z " fill="#670A0A" opacity="0.28235295" transform="translate(162,96)"/>
<path d="M0,0 L1,0 L1,1 L0,1 Z " fill="#671818" opacity="0.5254902" transform="translate(179,95)"/>
<path d="M0,0 L1,0 L1,1 L0,1 Z " fill="#640A0A" opacity="0.2" transform="translate(161,95)"/>
<path d="M0,0 L1,0 L1,1 L0,1 Z " fill="#6A0C0C" opacity="0.16078432" transform="translate(180,94)"/>
<path d="M0,0 L1,0 L1,1 L0,1 Z " fill="#640909" opacity="0.9843137" transform="translate(179,94)"/>
<path d="M0,0 L1,0 L1,1 L0,1 Z " fill="#640909" opacity="0.8392157" transform="translate(161,94)"/>
<path d="M0,0 L1,0 L1,1 L0,1 Z " fill="#640909" opacity="0.7176471" transform="translate(180,93)"/>
<path d="M0,0 L1,0 L1,1 L0,1 Z " fill="#640909" opacity="0.42745098" transform="translate(160,93)"/>
<path d="M0,0 L1,0 L1,1 L0,1 Z " fill="#680909" opacity="0.105882354" transform="translate(181,92)"/>
<path d="M0,0 L1,0 L1,1 L0,1 Z " fill="#640909" opacity="0.99607843" transform="translate(180,92)"/>
<path d="M0,0 L1,0 L1,1 L0,1 Z " fill="#640909" opacity="0.8117647" transform="translate(160,92)"/>
<path d="M0,0 L1,0 L1,1 L0,1 Z " fill="#640909" opacity="0.40784314" transform="translate(181,91)"/>
<path d="M0,0 L1,0 L1,1 L0,1 Z " fill="#6B1010" opacity="0.12156863" transform="translate(159,91)"/>
<path d="M0,0 L1,0 L1,1 L0,1 Z " fill="#640909" opacity="0.54901963" transform="translate(181,90)"/>
<path d="M0,0 L1,0 L1,1 L0,1 Z " fill="#670B0B" opacity="0.2627451" transform="translate(159,90)"/>
<path d="M0,0 L1,0 L1,1 L0,1 Z " fill="#650A0A" opacity="0.5764706" transform="translate(181,88)"/>
<path d="M0,0 L1,0 L1,1 L0,1 Z " fill="#650A0A" opacity="0.28627452" transform="translate(159,88)"/>
<path d="M0,0 L1,0 L1,1 L0,1 Z " fill="#650B0B" opacity="0.16862746" transform="translate(181,86)"/>
<path d="M0,0 L1,0 L1,1 L0,1 Z " fill="#640909" opacity="0.88235295" transform="translate(160,86)"/>
<path d="M0,0 L1,0 L1,1 L0,1 Z " fill="#640909" opacity="0.003921569" transform="translate(159,86)"/>
<path d="M0,0 L1,0 L1,1 L0,1 Z " fill="#640A0A" opacity="0.2784314" transform="translate(180,84)"/>
<path d="M0,0 L1,0 L1,1 L0,1 Z " fill="#640909" opacity="0.9254902" transform="translate(161,84)"/>
<path d="M0,0 L1,0 L1,1 L0,1 Z " fill="#640909" opacity="0.07058824" transform="translate(160,84)"/>
<path d="M0,0 L1,0 L1,1 L0,1 Z " fill="#640909" opacity="0.627451" transform="translate(179,83)"/>
<path d="M0,0 L1,0 L1,1 L0,1 Z " fill="#640B0B" opacity="0.34901962" transform="translate(161,83)"/>
<path d="M0,0 L1,0 L1,1 L0,1 Z " fill="#650909" opacity="0.023529412" transform="translate(179,82)"/>
<path d="M0,0 L1,0 L1,1 L0,1 Z " fill="#650A0A" opacity="0.4627451" transform="translate(162,82)"/>
<path d="M0,0 L1,0 L1,1 L0,1 Z " fill="#640A0A" opacity="0.02745098" transform="translate(178,81)"/>
<path d="M0,0 L1,0 L1,1 L0,1 Z " fill="#640A0A" opacity="0.5882353" transform="translate(177,81)"/>
<path d="M0,0 L1,0 L1,1 L0,1 Z " fill="#640B0B" opacity="0.36078432" transform="translate(163,81)"/>
<path d="M0,0 L1,0 L1,1 L0,1 Z " fill="#650B0B" opacity="0.26666668" transform="translate(176,80)"/>
<path d="M0,0 L1,0 L1,1 L0,1 Z " fill="#640909" opacity="0.7764706" transform="translate(175,80)"/>
<path d="M0,0 L1,0 L1,1 L0,1 Z " fill="#640909" opacity="0.9882353" transform="translate(166,80)"/>
<path d="M0,0 L1,0 L1,1 L0,1 Z " fill="#660E0E" opacity="0.13725491" transform="translate(164,80)"/>
<path d="M0,0 L1,0 L1,1 L0,1 Z " fill="#670A0A" opacity="0.18431373" transform="translate(174,79)"/>
<path d="M0,0 L1,0 L1,1 L0,1 Z " fill="#640A0A" opacity="0.47843137" transform="translate(173,79)"/>
<path d="M0,0 L1,0 L1,1 L0,1 Z " fill="#650A0A" opacity="0.69411767" transform="translate(172,79)"/>
<path d="M0,0 L1,0 L1,1 L0,1 Z " fill="#640909" opacity="0.8392157" transform="translate(170,79)"/>
<path d="M0,0 L1,0 L1,1 L0,1 Z " fill="#640909" opacity="0.6509804" transform="translate(168,79)"/>
<path d="M0,0 L1,0 L1,1 L0,1 Z " fill="#6C0909" opacity="0.101960786" transform="translate(166,79)"/>
</svg>
