<?xml version="1.0" encoding="UTF-8"?>
<!-- Generator: visioncortex VTracer 0.6.4 -->
<svg version="1.1" xmlns="http://www.w3.org/2000/svg" width="512" height="512">
<path d="M0,0 L30,0 L30,1 L37,1 L37,2 L41,2 L41,3 L46,3 L46,4 L49,4 L49,5 L52,5 L52,6 L55,6 L55,7 L58,7 L58,8 L60,8 L60,9 L63,9 L63,10 L65,10 L65,11 L67,11 L67,12 L69,12 L69,13 L71,13 L71,14 L73,14 L73,15 L75,15 L75,16 L76,16 L76,17 L78,17 L78,18 L79,18 L79,19 L81,19 L81,20 L82,20 L82,21 L84,21 L84,22 L85,22 L85,23 L87,23 L87,24 L88,24 L88,25 L89,25 L89,26 L90,26 L90,27 L92,27 L92,28 L93,28 L93,29 L94,29 L94,30 L95,30 L95,31 L96,31 L96,32 L97,32 L97,33 L98,33 L98,34 L99,34 L99,35 L100,35 L100,36 L101,36 L101,37 L102,37 L102,38 L103,38 L103,39 L104,39 L104,40 L105,40 L105,41 L106,41 L106,42 L107,42 L107,44 L108,44 L108,45 L109,45 L109,46 L110,46 L110,47 L111,47 L111,49 L112,49 L112,50 L113,50 L113,52 L114,52 L114,53 L115,53 L115,55 L116,55 L116,56 L117,56 L117,58 L118,58 L118,60 L119,60 L119,61 L120,61 L120,63 L121,63 L121,65 L122,65 L122,67 L123,67 L123,69 L124,69 L124,71 L125,71 L125,74 L126,74 L126,76 L127,76 L127,79 L128,79 L128,82 L129,82 L129,85 L130,85 L130,89 L131,89 L131,93 L132,93 L132,97 L133,97 L133,104 L134,104 L134,134 L133,134 L133,140 L132,140 L132,145 L131,145 L131,149 L130,149 L130,153 L129,153 L129,156 L128,156 L128,159 L127,159 L127,162 L126,162 L126,164 L125,164 L125,167 L124,167 L124,169 L123,169 L123,171 L122,171 L122,173 L121,173 L121,175 L120,175 L120,177 L119,177 L119,178 L118,178 L118,180 L117,180 L117,182 L116,182 L116,183 L115,183 L115,185 L114,185 L114,186 L113,186 L113,188 L112,188 L112,189 L111,189 L111,191 L110,191 L110,192 L109,192 L109,193 L108,193 L108,194 L107,194 L107,196 L106,196 L106,197 L105,197 L105,198 L104,198 L104,199 L103,199 L103,200 L102,200 L102,201 L101,201 L101,202 L100,202 L100,203 L99,203 L99,204 L98,204 L98,205 L97,205 L97,206 L96,206 L96,207 L95,207 L95,208 L94,208 L94,209 L93,209 L93,210 L92,210 L92,211 L90,211 L90,212 L89,212 L89,213 L88,213 L88,214 L87,214 L87,215 L85,215 L85,216 L84,216 L84,217 L82,217 L82,218 L81,218 L81,219 L79,219 L79,220 L78,220 L78,221 L76,221 L76,222 L74,222 L74,223 L73,223 L73,224 L71,224 L71,225 L69,225 L69,226 L67,226 L67,227 L65,227 L65,228 L63,228 L63,229 L60,229 L60,230 L58,230 L58,231 L55,231 L55,232 L52,232 L52,233 L49,233 L49,234 L45,234 L45,235 L41,235 L41,236 L36,236 L36,237 L30,237 L30,238 L0,238 L0,237 L-7,237 L-7,236 L-11,236 L-11,235 L-15,235 L-15,234 L-19,234 L-19,233 L-22,233 L-22,232 L-25,232 L-25,231 L-28,231 L-28,230 L-30,230 L-30,229 L-33,229 L-33,228 L-35,228 L-35,227 L-37,227 L-37,226 L-39,226 L-39,225 L-41,225 L-41,224 L-43,224 L-43,223 L-44,223 L-44,222 L-46,222 L-46,221 L-48,221 L-48,220 L-49,220 L-49,219 L-51,219 L-51,218 L-52,218 L-52,217 L-54,217 L-54,216 L-55,216 L-55,215 L-57,215 L-57,214 L-58,214 L-58,213 L-59,213 L-59,212 L-60,212 L-60,211 L-62,211 L-62,210 L-63,210 L-63,209 L-64,209 L-64,208 L-65,208 L-65,207 L-66,207 L-66,206 L-67,206 L-67,205 L-68,205 L-68,204 L-69,204 L-69,203 L-70,203 L-70,202 L-71,202 L-71,201 L-72,201 L-72,200 L-73,200 L-73,199 L-74,199 L-74,198 L-75,198 L-75,197 L-76,197 L-76,196 L-77,196 L-77,194 L-78,194 L-78,193 L-79,193 L-79,192 L-80,192 L-80,191 L-81,191 L-81,189 L-82,189 L-82,188 L-83,188 L-83,186 L-84,186 L-84,185 L-85,185 L-85,183 L-86,183 L-86,182 L-87,182 L-87,180 L-88,180 L-88,179 L-89,179 L-89,177 L-90,177 L-90,175 L-91,175 L-91,173 L-92,173 L-92,171 L-93,171 L-93,169 L-94,169 L-94,167 L-95,167 L-95,164 L-96,164 L-96,162 L-97,162 L-97,159 L-98,159 L-98,156 L-99,156 L-99,153 L-100,153 L-100,150 L-101,150 L-101,145 L-102,145 L-102,141 L-103,141 L-103,134 L-104,134 L-104,104 L-103,104 L-103,97 L-102,97 L-102,93 L-101,93 L-101,88 L-100,88 L-100,85 L-99,85 L-99,82 L-98,82 L-98,79 L-97,79 L-97,76 L-96,76 L-96,74 L-95,74 L-95,71 L-94,71 L-94,69 L-93,69 L-93,67 L-92,67 L-92,65 L-91,65 L-91,63 L-90,63 L-90,61 L-89,61 L-89,59 L-88,59 L-88,58 L-87,58 L-87,56 L-86,56 L-86,55 L-85,55 L-85,53 L-84,53 L-84,52 L-83,52 L-83,50 L-82,50 L-82,49 L-81,49 L-81,47 L-80,47 L-80,46 L-79,46 L-79,45 L-78,45 L-78,44 L-77,44 L-77,42 L-76,42 L-76,41 L-75,41 L-75,40 L-74,40 L-74,39 L-73,39 L-73,38 L-72,38 L-72,37 L-71,37 L-71,36 L-70,36 L-70,35 L-69,35 L-69,34 L-68,34 L-68,33 L-67,33 L-67,32 L-66,32 L-66,31 L-65,31 L-65,30 L-64,30 L-64,29 L-63,29 L-63,28 L-62,28 L-62,27 L-60,27 L-60,26 L-59,26 L-59,25 L-58,25 L-58,24 L-57,24 L-57,23 L-55,23 L-55,22 L-54,22 L-54,21 L-52,21 L-52,20 L-51,20 L-51,19 L-49,19 L-49,18 L-48,18 L-48,17 L-46,17 L-46,16 L-45,16 L-45,15 L-43,15 L-43,14 L-41,14 L-41,13 L-39,13 L-39,12 L-37,12 L-37,11 L-35,11 L-35,10 L-33,10 L-33,9 L-30,9 L-30,8 L-28,8 L-28,7 L-25,7 L-25,6 L-22,6 L-22,5 L-19,5 L-19,4 L-16,4 L-16,3 L-11,3 L-11,2 L-7,2 L-7,1 L0,1 Z " fill="#666666" transform="translate(241,137)"/>
<path d="M0,0 L1,0 L1,1 L0,1 Z M-8,6 L-7,6 L-7,7 L-8,7 Z M-25,23 L-24,23 L-24,24 L-25,24 Z M-31,31 L-30,31 L-30,32 L-31,32 Z M171,39 L172,39 L172,40 L171,40 Z M183,68 L184,68 L184,69 L183,69 Z M185,120 L186,120 L186,121 L185,121 Z M183,129 L184,129 L184,130 L183,130 Z M171,158 L172,158 L172,159 L171,159 Z M8,202 L9,202 L9,203 L8,203 Z M127,202 L128,202 L128,203 L127,203 Z M37,214 L38,214 L38,215 L37,215 Z M98,214 L99,214 L99,215 L98,215 Z M89,216 L90,216 L90,217 L89,217 Z " fill="#666666" opacity="0.99607843" transform="translate(188,157)"/>
<path d="M0,0 L1,0 L1,1 L0,1 Z M-1,1 L0,1 L0,2 L-1,2 Z M-2,2 L-1,2 L-1,3 L-2,3 Z M-3,3 L-2,3 L-2,4 L-3,4 Z M-4,4 L-3,4 L-3,5 L-4,5 Z M-5,5 L-4,5 L-4,6 L-5,6 Z M-6,6 L-5,6 L-5,7 L-6,7 Z M-7,7 L-6,7 L-6,8 L-7,8 Z M-8,8 L-7,8 L-7,9 L-8,9 Z M-9,9 L-8,9 L-8,10 L-9,10 Z M-10,10 L-9,10 L-9,11 L-10,11 Z M-11,11 L-10,11 L-10,12 L-11,12 Z M-12,12 L-11,12 L-11,13 L-12,13 Z M-13,13 L-12,13 L-12,14 L-13,14 Z M-14,14 L-13,14 L-13,15 L-14,15 Z M-15,15 L-14,15 L-14,16 L-15,16 Z " fill="#666666" transform="translate(179,164)"/>
<path d="M0,0 L1,0 L1,1 L0,1 Z " fill="#666666" opacity="0.99215686" transform="translate(255,375)"/>
<path d="M0,0 L1,0 L1,1 L0,1 Z " fill="#666666" opacity="0.99215686" transform="translate(375,255)"/>
<path d="M0,0 L1,0 L1,1 L0,1 Z " fill="#666666" opacity="0.99215686" transform="translate(136,255)"/>
<path d="M0,0 L1,0 L1,1 L0,1 Z " fill="#666666" opacity="0.99215686" transform="translate(255,136)"/>
<path d="M0,0 L1,0 L1,1 L0,1 Z " fill="#666666" opacity="0.8235294" transform="translate(176,166)"/>
<path d="M0,0 L1,0 L1,1 L0,1 Z " fill="#666666" opacity="0.6666667" transform="translate(247,375)"/>
<path d="M0,0 L1,0 L1,1 L0,1 Z " fill="#666666" opacity="0.92941177" transform="translate(221,370)"/>
<path d="M0,0 L1,0 L1,1 L0,1 Z " fill="#666666" opacity="0.6666667" transform="translate(375,247)"/>
<path d="M0,0 L1,0 L1,1 L0,1 Z " fill="#666666" opacity="0.6784314" transform="translate(136,247)"/>
<path d="M0,0 L1,0 L1,1 L0,1 Z " fill="#666666" opacity="0.92941177" transform="translate(370,221)"/>
<path d="M0,0 L1,0 L1,1 L0,1 Z " fill="#666666" opacity="0.9411765" transform="translate(141,221)"/>
<path d="M0,0 L1,0 L1,1 L0,1 Z " fill="#666666" opacity="0.93333334" transform="translate(181,162)"/>
<path d="M0,0 L1,0 L1,1 L0,1 Z " fill="#666666" opacity="0.9411765" transform="translate(221,141)"/>
<path d="M0,0 L1,0 L1,1 L0,1 Z " fill="#666666" opacity="0.6784314" transform="translate(247,136)"/>
<path d="M0,0 L1,0 L1,1 L0,1 Z " fill="#676767" opacity="0.34901962" transform="translate(268,375)"/>
<path d="M0,0 L1,0 L1,1 L0,1 Z " fill="#676767" opacity="0.34901962" transform="translate(375,268)"/>
<path d="M0,0 L1,0 L1,1 L0,1 Z " fill="#666666" opacity="0.36078432" transform="translate(136,268)"/>
<path d="M0,0 L1,0 L1,1 L0,1 Z " fill="#666666" opacity="0.36078432" transform="translate(268,136)"/>
<path d="M0,0 L1,0 L1,1 L0,1 Z " fill="#666666" opacity="0.9490196" transform="translate(215,368)"/>
<path d="M0,0 L1,0 L1,1 L0,1 Z " fill="#676767" opacity="0.70980394" transform="translate(177,346)"/>
<path d="M0,0 L1,0 L1,1 L0,1 Z " fill="#666666" opacity="0.99215686" transform="translate(163,331)"/>
<path d="M0,0 L1,0 L1,1 L0,1 Z " fill="#666666" opacity="0.9490196" transform="translate(368,215)"/>
<path d="M0,0 L1,0 L1,1 L0,1 Z " fill="#666666" opacity="0.95686275" transform="translate(143,215)"/>
<path d="M0,0 L1,0 L1,1 L0,1 Z " fill="#676767" opacity="0.70980394" transform="translate(346,177)"/>
<path d="M0,0 L1,0 L1,1 L0,1 Z " fill="#666666" opacity="0.7254902" transform="translate(165,177)"/>
<path d="M0,0 L1,0 L1,1 L0,1 Z " fill="#666666" opacity="0.91764706" transform="translate(174,168)"/>
<path d="M0,0 L1,0 L1,1 L0,1 Z " fill="#666666" opacity="0.99215686" transform="translate(331,163)"/>
<path d="M0,0 L1,0 L1,1 L0,1 Z " fill="#666666" opacity="0.95686275" transform="translate(215,143)"/>
<path d="M0,0 L1,0 L1,1 L0,1 Z " fill="#666666" opacity="0.85882354" transform="translate(261,375)"/>
<path d="M0,0 L1,0 L1,1 L0,1 Z " fill="#666666" opacity="0.85882354" transform="translate(375,261)"/>
<path d="M0,0 L1,0 L1,1 L0,1 Z " fill="#666666" opacity="0.87058824" transform="translate(136,261)"/>
<path d="M0,0 L1,0 L1,1 L0,1 Z " fill="#666666" opacity="0.87058824" transform="translate(261,136)"/>
<path d="M0,0 L1,0 L1,1 L0,1 Z " fill="#676767" opacity="0.8862745" transform="translate(251,375)"/>
<path d="M0,0 L1,0 L1,1 L0,1 Z " fill="#676767" opacity="0.34901962" transform="translate(243,375)"/>
<path d="M0,0 L1,0 L1,1 L0,1 Z " fill="#666666" opacity="0.043137256" transform="translate(277,374)"/>
<path d="M0,0 L1,0 L1,1 L0,1 Z " fill="#666666" opacity="0.5764706" transform="translate(237,374)"/>
<path d="M0,0 L1,0 L1,1 L0,1 Z " fill="#666666" opacity="0.68235296" transform="translate(232,373)"/>
<path d="M0,0 L1,0 L1,1 L0,1 Z " fill="#666666" opacity="0.79607844" transform="translate(228,372)"/>
<path d="M0,0 L1,0 L1,1 L0,1 Z " fill="#666666" opacity="0.34117648" transform="translate(198,361)"/>
<path d="M0,0 L1,0 L1,1 L0,1 Z " fill="#666666" opacity="0.4509804" transform="translate(193,358)"/>
<path d="M0,0 L1,0 L1,1 L0,1 Z " fill="#676767" opacity="0.5254902" transform="translate(190,356)"/>
<path d="M0,0 L1,0 L1,1 L0,1 Z M1,1 L2,1 L2,2 L1,2 Z " fill="#666666" opacity="0.23529412" transform="translate(170,340)"/>
<path d="M0,0 L1,0 L1,1 L0,1 Z " fill="#666666" opacity="0.99215686" transform="translate(157,323)"/>
<path d="M0,0 L1,0 L1,1 L0,1 Z " fill="#666666" opacity="0.9882353" transform="translate(155,320)"/>
<path d="M0,0 L1,0 L1,1 L0,1 Z " fill="#666666" opacity="0.95686275" transform="translate(153,317)"/>
<path d="M0,0 L1,0 L1,1 L0,1 Z " fill="#686868" opacity="0.043137256" transform="translate(374,277)"/>
<path d="M0,0 L1,0 L1,1 L0,1 Z " fill="#696969" opacity="0.05490196" transform="translate(137,277)"/>
<path d="M0,0 L1,0 L1,1 L0,1 Z " fill="#676767" opacity="0.8862745" transform="translate(375,251)"/>
<path d="M0,0 L1,0 L1,1 L0,1 Z " fill="#666666" opacity="0.89411765" transform="translate(136,251)"/>
<path d="M0,0 L1,0 L1,1 L0,1 Z " fill="#676767" opacity="0.34901962" transform="translate(375,243)"/>
<path d="M0,0 L1,0 L1,1 L0,1 Z " fill="#666666" opacity="0.36078432" transform="translate(136,243)"/>
<path d="M0,0 L1,0 L1,1 L0,1 Z " fill="#666666" opacity="0.5764706" transform="translate(374,237)"/>
<path d="M0,0 L1,0 L1,1 L0,1 Z " fill="#666666" opacity="0.5882353" transform="translate(137,237)"/>
<path d="M0,0 L1,0 L1,1 L0,1 Z " fill="#666666" opacity="0.68235296" transform="translate(373,232)"/>
<path d="M0,0 L1,0 L1,1 L0,1 Z " fill="#666666" opacity="0.69411767" transform="translate(138,232)"/>
<path d="M0,0 L1,0 L1,1 L0,1 Z " fill="#666666" opacity="0.79607844" transform="translate(372,228)"/>
<path d="M0,0 L1,0 L1,1 L0,1 Z " fill="#666666" opacity="0.8117647" transform="translate(139,228)"/>
<path d="M0,0 L1,0 L1,1 L0,1 Z " fill="#666666" opacity="0.34117648" transform="translate(361,198)"/>
<path d="M0,0 L1,0 L1,1 L0,1 Z " fill="#686868" opacity="0.35686275" transform="translate(150,198)"/>
<path d="M0,0 L1,0 L1,1 L0,1 Z " fill="#666666" opacity="0.4509804" transform="translate(358,193)"/>
<path d="M0,0 L1,0 L1,1 L0,1 Z " fill="#666666" opacity="0.47058824" transform="translate(153,193)"/>
<path d="M0,0 L1,0 L1,1 L0,1 Z " fill="#676767" opacity="0.5254902" transform="translate(356,190)"/>
<path d="M0,0 L1,0 L1,1 L0,1 Z " fill="#676767" opacity="0.54509807" transform="translate(155,190)"/>
<path d="M0,0 L1,0 L1,1 L0,1 Z " fill="#666666" opacity="0.79607844" transform="translate(158,186)"/>
<path d="M0,0 L1,0 L1,1 L0,1 Z " fill="#676767" opacity="0.6313726" transform="translate(160,183)"/>
<path d="M0,0 L1,0 L1,1 L0,1 Z M1,1 L2,1 L2,2 L1,2 Z " fill="#666666" opacity="0.23529412" transform="translate(340,170)"/>
<path d="M0,0 L1,0 L1,1 L0,1 Z " fill="#676767" opacity="0.6039216" transform="translate(178,164)"/>
<path d="M0,0 L1,0 L1,1 L0,1 Z " fill="#676767" opacity="0.6313726" transform="translate(183,160)"/>
<path d="M0,0 L1,0 L1,1 L0,1 Z " fill="#666666" opacity="0.79607844" transform="translate(186,158)"/>
<path d="M0,0 L1,0 L1,1 L0,1 Z " fill="#666666" opacity="0.99215686" transform="translate(323,157)"/>
<path d="M0,0 L1,0 L1,1 L0,1 Z " fill="#676767" opacity="0.8666667" transform="translate(189,156)"/>
<path d="M0,0 L1,0 L1,1 L0,1 Z " fill="#666666" opacity="0.9882353" transform="translate(320,155)"/>
<path d="M0,0 L1,0 L1,1 L0,1 Z " fill="#666666" opacity="0.8156863" transform="translate(192,154)"/>
<path d="M0,0 L1,0 L1,1 L0,1 Z " fill="#666666" opacity="0.95686275" transform="translate(317,153)"/>
<path d="M0,0 L1,0 L1,1 L0,1 Z " fill="#666666" opacity="0.78431374" transform="translate(197,151)"/>
<path d="M0,0 L1,0 L1,1 L0,1 Z " fill="#666666" opacity="0.8117647" transform="translate(224,140)"/>
<path d="M0,0 L1,0 L1,1 L0,1 Z " fill="#666666" opacity="0.8117647" transform="translate(228,139)"/>
<path d="M0,0 L1,0 L1,1 L0,1 Z " fill="#666666" opacity="0.69411767" transform="translate(232,138)"/>
<path d="M0,0 L1,0 L1,1 L0,1 Z " fill="#696969" opacity="0.05490196" transform="translate(277,137)"/>
<path d="M0,0 L1,0 L1,1 L0,1 Z " fill="#666666" opacity="0.5882353" transform="translate(237,137)"/>
<path d="M0,0 L1,0 L1,1 L0,1 Z " fill="#666666" opacity="0.89411765" transform="translate(251,136)"/>
<path d="M0,0 L1,0 L1,1 L0,1 Z " fill="#666666" opacity="0.36078432" transform="translate(243,136)"/>
<path d="M0,0 L1,0 L1,1 L0,1 Z " fill="#6A6A6A" opacity="0.09411765" transform="translate(270,375)"/>
<path d="M0,0 L1,0 L1,1 L0,1 Z " fill="#666666" opacity="0.9372549" transform="translate(258,375)"/>
<path d="M0,0 L1,0 L1,1 L0,1 Z " fill="#676767" opacity="0.32941177" transform="translate(285,372)"/>
<path d="M0,0 L1,0 L1,1 L0,1 Z " fill="#666666" opacity="0.21568628" transform="translate(289,371)"/>
<path d="M0,0 L1,0 L1,1 L0,1 Z " fill="#676767" opacity="0.3019608" transform="translate(295,369)"/>
<path d="M0,0 L1,0 L1,1 L0,1 Z " fill="#666666" opacity="0.9529412" transform="translate(185,352)"/>
<path d="M0,0 L1,0 L1,1 L0,1 Z " fill="#676767" opacity="0.9254902" transform="translate(181,349)"/>
<path d="M0,0 L1,0 L1,1 L0,1 Z " fill="#676767" opacity="0.8862745" transform="translate(175,344)"/>
<path d="M0,0 L1,0 L1,1 L0,1 Z " fill="#666666" opacity="0.92941177" transform="translate(173,342)"/>
<path d="M0,0 L1,0 L1,1 L0,1 Z " fill="#666666" opacity="0.9098039" transform="translate(168,337)"/>
<path d="M0,0 L1,0 L1,1 L0,1 Z " fill="#676767" opacity="0.80784315" transform="translate(166,335)"/>
<path d="M0,0 L1,0 L1,1 L0,1 Z " fill="#666666" opacity="0.79607844" transform="translate(161,329)"/>
<path d="M0,0 L1,0 L1,1 L0,1 Z " fill="#666666" opacity="0.9529412" transform="translate(159,326)"/>
<path d="M0,0 L1,0 L1,1 L0,1 Z " fill="#676767" opacity="0.3019608" transform="translate(369,295)"/>
<path d="M0,0 L1,0 L1,1 L0,1 Z " fill="#676767" opacity="0.32156864" transform="translate(142,295)"/>
<path d="M0,0 L1,0 L1,1 L0,1 Z " fill="#666666" opacity="0.21568628" transform="translate(371,289)"/>
<path d="M0,0 L1,0 L1,1 L0,1 Z " fill="#666666" opacity="0.23529412" transform="translate(140,289)"/>
<path d="M0,0 L1,0 L1,1 L0,1 Z " fill="#676767" opacity="0.32941177" transform="translate(372,285)"/>
<path d="M0,0 L1,0 L1,1 L0,1 Z " fill="#686868" opacity="0.34509805" transform="translate(139,285)"/>
<path d="M0,0 L1,0 L1,1 L0,1 Z " fill="#6A6A6A" opacity="0.09411765" transform="translate(375,270)"/>
<path d="M0,0 L1,0 L1,1 L0,1 Z " fill="#686868" opacity="0.105882354" transform="translate(136,270)"/>
<path d="M0,0 L1,0 L1,1 L0,1 Z " fill="#666666" opacity="0.9372549" transform="translate(375,258)"/>
<path d="M0,0 L1,0 L1,1 L0,1 Z " fill="#666666" opacity="0.9529412" transform="translate(352,185)"/>
<path d="M0,0 L1,0 L1,1 L0,1 Z " fill="#676767" opacity="0.9254902" transform="translate(349,181)"/>
<path d="M0,0 L1,0 L1,1 L0,1 Z " fill="#666666" opacity="0.93333334" transform="translate(162,181)"/>
<path d="M0,0 L1,0 L1,1 L0,1 Z " fill="#676767" opacity="0.8862745" transform="translate(344,175)"/>
<path d="M0,0 L1,0 L1,1 L0,1 Z " fill="#666666" opacity="0.89411765" transform="translate(167,175)"/>
<path d="M0,0 L1,0 L1,1 L0,1 Z " fill="#666666" opacity="0.92941177" transform="translate(342,173)"/>
<path d="M0,0 L1,0 L1,1 L0,1 Z " fill="#666666" opacity="0.93333334" transform="translate(169,173)"/>
<path d="M0,0 L1,0 L1,1 L0,1 Z " fill="#666666" opacity="0.9098039" transform="translate(337,168)"/>
<path d="M0,0 L1,0 L1,1 L0,1 Z " fill="#676767" opacity="0.80784315" transform="translate(335,166)"/>
<path d="M0,0 L1,0 L1,1 L0,1 Z " fill="#666666" opacity="0.79607844" transform="translate(329,161)"/>
<path d="M0,0 L1,0 L1,1 L0,1 Z " fill="#666666" opacity="0.9529412" transform="translate(326,159)"/>
<path d="M0,0 L1,0 L1,1 L0,1 Z " fill="#676767" opacity="0.32156864" transform="translate(295,142)"/>
<path d="M0,0 L1,0 L1,1 L0,1 Z " fill="#666666" opacity="0.23529412" transform="translate(289,140)"/>
<path d="M0,0 L1,0 L1,1 L0,1 Z " fill="#686868" opacity="0.34509805" transform="translate(285,139)"/>
<path d="M0,0 L1,0 L1,1 L0,1 Z " fill="#686868" opacity="0.105882354" transform="translate(270,136)"/>
<path d="M0,0 L1,0 L1,1 L0,1 Z " fill="#676767" opacity="0.5137255" transform="translate(266,375)"/>
<path d="M0,0 L1,0 L1,1 L0,1 Z " fill="#666666" opacity="0.6666667" transform="translate(264,375)"/>
<path d="M0,0 L1,0 L1,1 L0,1 Z " fill="#666666" opacity="0.9372549" transform="translate(253,375)"/>
<path d="M0,0 L1,0 L1,1 L0,1 Z " fill="#666666" opacity="0.81960785" transform="translate(249,375)"/>
<path d="M0,0 L1,0 L1,1 L0,1 Z " fill="#676767" opacity="0.5137255" transform="translate(245,375)"/>
<path d="M0,0 L1,0 L1,1 L0,1 Z " fill="#6A6A6A" opacity="0.09411765" transform="translate(241,375)"/>
<path d="M0,0 L1,0 L1,1 L0,1 Z " fill="#666666" opacity="0.39215687" transform="translate(275,374)"/>
<path d="M0,0 L1,0 L1,1 L0,1 Z " fill="#666666" opacity="0.7137255" transform="translate(273,374)"/>
<path d="M0,0 L1,0 L1,1 L0,1 Z " fill="#666666" opacity="0.84313726" transform="translate(239,374)"/>
<path d="M0,0 L1,0 L1,1 L0,1 Z " fill="#666666" opacity="0.21568628" transform="translate(235,374)"/>
<path d="M0,0 L1,0 L1,1 L0,1 Z " fill="#676767" opacity="0.039215688" transform="translate(282,373)"/>
<path d="M0,0 L1,0 L1,1 L0,1 Z " fill="#676767" opacity="0.4862745" transform="translate(280,373)"/>
<path d="M0,0 L1,0 L1,1 L0,1 Z " fill="#666666" opacity="0.25490198" transform="translate(230,373)"/>
<path d="M0,0 L1,0 L1,1 L0,1 Z " fill="#676767" opacity="0.32941177" transform="translate(226,372)"/>
<path d="M0,0 L1,0 L1,1 L0,1 Z " fill="#666666" opacity="0.7921569" transform="translate(224,371)"/>
<path d="M0,0 L1,0 L1,1 L0,1 Z " fill="#696969" opacity="0.21960784" transform="translate(222,371)"/>
<path d="M0,0 L1,0 L1,1 L0,1 Z " fill="#666666" opacity="0.03529412" transform="translate(293,370)"/>
<path d="M0,0 L1,0 L1,1 L0,1 Z " fill="#686868" opacity="0.3254902" transform="translate(219,370)"/>
<path d="M0,0 L1,0 L1,1 L0,1 Z " fill="#666666" opacity="0.95686275" transform="translate(218,369)"/>
<path d="M0,0 L1,0 L1,1 L0,1 Z " fill="#676767" opacity="0.30980393" transform="translate(216,369)"/>
<path d="M0,0 L1,0 L1,1 L0,1 Z " fill="#666666" opacity="0.003921569" transform="translate(299,368)"/>
<path d="M0,0 L1,0 L1,1 L0,1 Z " fill="#696969" opacity="0.22745098" transform="translate(213,368)"/>
<path d="M0,0 L1,0 L1,1 L0,1 Z " fill="#666666" opacity="0.07058824" transform="translate(301,367)"/>
<path d="M0,0 L1,0 L1,1 L0,1 Z " fill="#666666" opacity="0.4392157" transform="translate(211,367)"/>
<path d="M0,0 L1,0 L1,1 L0,1 Z " fill="#676767" opacity="0.6509804" transform="translate(209,366)"/>
<path d="M0,0 L1,0 L1,1 L0,1 Z " fill="#666666" opacity="0.007843138" transform="translate(306,365)"/>
<path d="M0,0 L1,0 L1,1 L0,1 Z " fill="#696969" opacity="0.30588236" transform="translate(206,365)"/>
<path d="M0,0 L1,0 L1,1 L0,1 Z " fill="#676767" opacity="0.02745098" transform="translate(308,364)"/>
<path d="M0,0 L1,0 L1,1 L0,1 Z " fill="#666666" opacity="0.4" transform="translate(204,364)"/>
<path d="M0,0 L1,0 L1,1 L0,1 Z " fill="#676767" opacity="0.019607844" transform="translate(310,363)"/>
<path d="M0,0 L1,0 L1,1 L0,1 Z " fill="#676767" opacity="0.40784314" transform="translate(202,363)"/>
<path d="M0,0 L1,0 L1,1 L0,1 Z " fill="#666666" opacity="0.015686275" transform="translate(312,362)"/>
<path d="M0,0 L1,0 L1,1 L0,1 Z " fill="#686868" opacity="0.38431373" transform="translate(200,362)"/>
<path d="M0,0 L1,0 L1,1 L0,1 Z " fill="#666666" opacity="0.003921569" transform="translate(314,361)"/>
<path d="M0,0 L1,0 L1,1 L0,1 Z " fill="#676767" opacity="0.76862746" transform="translate(197,360)"/>
<path d="M0,0 L1,0 L1,1 L0,1 Z " fill="#666666" opacity="0.61960787" transform="translate(195,359)"/>
<path d="M0,0 L1,0 L1,1 L0,1 Z " fill="#666666" opacity="0.011764706" transform="translate(319,358)"/>
<path d="M0,0 L1,0 L1,1 L0,1 Z " fill="#666666" opacity="0.8" transform="translate(192,357)"/>
<path d="M0,0 L1,0 L1,1 L0,1 Z " fill="#676767" opacity="0.03137255" transform="translate(322,356)"/>
<path d="M0,0 L1,0 L1,1 L0,1 Z " fill="#666666" opacity="0.85882354" transform="translate(189,355)"/>
<path d="M0,0 L1,0 L1,1 L0,1 Z " fill="#676767" opacity="0.015686275" transform="translate(325,354)"/>
<path d="M0,0 L1,0 L1,1 L0,1 Z " fill="#676767" opacity="0.5058824" transform="translate(187,354)"/>
<path d="M0,0 L1,0 L1,1 L0,1 Z " fill="#676767" opacity="0.6117647" transform="translate(183,351)"/>
<path d="M0,0 L1,0 L1,1 L0,1 Z M-1,1 L0,1 L0,2 L-1,2 Z " fill="#696969" opacity="0.22745098" transform="translate(341,340)"/>
<path d="M0,0 L1,0 L1,1 L0,1 Z " fill="#676767" opacity="0.94509804" transform="translate(170,339)"/>
<path d="M0,0 L1,0 L1,1 L0,1 Z " fill="#666666" opacity="0.015686275" transform="translate(354,325)"/>
<path d="M0,0 L1,0 L1,1 L0,1 Z " fill="#676767" opacity="0.03137255" transform="translate(356,322)"/>
<path d="M0,0 L1,0 L1,1 L0,1 Z " fill="#666666" opacity="0.011764706" transform="translate(358,319)"/>
<path d="M0,0 L1,0 L1,1 L0,1 Z " fill="#676767" opacity="0.003921569" transform="translate(361,314)"/>
<path d="M0,0 L1,0 L1,1 L0,1 Z " fill="#686868" opacity="0.003921569" transform="translate(150,314)"/>
<path d="M0,0 L1,0 L1,1 L0,1 Z " fill="#666666" opacity="0.015686275" transform="translate(362,312)"/>
<path d="M0,0 L1,0 L1,1 L0,1 Z " fill="#666666" opacity="0.019607844" transform="translate(149,312)"/>
<path d="M0,0 L1,0 L1,1 L0,1 Z " fill="#676767" opacity="0.019607844" transform="translate(363,310)"/>
<path d="M0,0 L1,0 L1,1 L0,1 Z " fill="#666666" opacity="0.02745098" transform="translate(148,310)"/>
<path d="M0,0 L1,0 L1,1 L0,1 Z " fill="#676767" opacity="0.02745098" transform="translate(364,308)"/>
<path d="M0,0 L1,0 L1,1 L0,1 Z " fill="#666666" opacity="0.03529412" transform="translate(147,308)"/>
<path d="M0,0 L1,0 L1,1 L0,1 Z " fill="#686868" opacity="0.007843138" transform="translate(365,306)"/>
<path d="M0,0 L1,0 L1,1 L0,1 Z " fill="#666666" opacity="0.011764706" transform="translate(146,306)"/>
<path d="M0,0 L1,0 L1,1 L0,1 Z " fill="#676767" opacity="0.07058824" transform="translate(367,301)"/>
<path d="M0,0 L1,0 L1,1 L0,1 Z " fill="#666666" opacity="0.078431375" transform="translate(144,301)"/>
<path d="M0,0 L1,0 L1,1 L0,1 Z " fill="#696969" opacity="0.003921569" transform="translate(368,299)"/>
<path d="M0,0 L1,0 L1,1 L0,1 Z " fill="#686868" opacity="0.003921569" transform="translate(143,299)"/>
<path d="M0,0 L1,0 L1,1 L0,1 Z " fill="#686868" opacity="0.03529412" transform="translate(370,293)"/>
<path d="M0,0 L1,0 L1,1 L0,1 Z " fill="#686868" opacity="0.043137256" transform="translate(141,293)"/>
<path d="M0,0 L1,0 L1,1 L0,1 Z " fill="#686868" opacity="0.039215688" transform="translate(373,282)"/>
<path d="M0,0 L1,0 L1,1 L0,1 Z " fill="#696969" opacity="0.050980393" transform="translate(138,282)"/>
<path d="M0,0 L1,0 L1,1 L0,1 Z " fill="#676767" opacity="0.4862745" transform="translate(373,280)"/>
<path d="M0,0 L1,0 L1,1 L0,1 Z " fill="#666666" opacity="0.49803922" transform="translate(138,280)"/>
<path d="M0,0 L1,0 L1,1 L0,1 Z " fill="#666666" opacity="0.39215687" transform="translate(374,275)"/>
<path d="M0,0 L1,0 L1,1 L0,1 Z " fill="#676767" opacity="0.40784314" transform="translate(137,275)"/>
<path d="M0,0 L1,0 L1,1 L0,1 Z " fill="#666666" opacity="0.7137255" transform="translate(374,273)"/>
<path d="M0,0 L1,0 L1,1 L0,1 Z " fill="#676767" opacity="0.7294118" transform="translate(137,273)"/>
<path d="M0,0 L1,0 L1,1 L0,1 Z " fill="#676767" opacity="0.5137255" transform="translate(375,266)"/>
<path d="M0,0 L1,0 L1,1 L0,1 Z " fill="#676767" opacity="0.5254902" transform="translate(136,266)"/>
<path d="M0,0 L1,0 L1,1 L0,1 Z " fill="#666666" opacity="0.6666667" transform="translate(375,264)"/>
<path d="M0,0 L1,0 L1,1 L0,1 Z " fill="#666666" opacity="0.6784314" transform="translate(136,264)"/>
<path d="M0,0 L1,0 L1,1 L0,1 Z " fill="#666666" opacity="0.92156863" transform="translate(136,259)"/>
<path d="M0,0 L1,0 L1,1 L0,1 Z " fill="#666666" opacity="0.9372549" transform="translate(375,253)"/>
<path d="M0,0 L1,0 L1,1 L0,1 Z " fill="#676767" opacity="0.94509804" transform="translate(136,253)"/>
<path d="M0,0 L1,0 L1,1 L0,1 Z " fill="#666666" opacity="0.81960785" transform="translate(375,249)"/>
<path d="M0,0 L1,0 L1,1 L0,1 Z " fill="#666666" opacity="0.83137256" transform="translate(136,249)"/>
<path d="M0,0 L1,0 L1,1 L0,1 Z " fill="#676767" opacity="0.5137255" transform="translate(375,245)"/>
<path d="M0,0 L1,0 L1,1 L0,1 Z " fill="#676767" opacity="0.5254902" transform="translate(136,245)"/>
<path d="M0,0 L1,0 L1,1 L0,1 Z " fill="#6A6A6A" opacity="0.09411765" transform="translate(375,241)"/>
<path d="M0,0 L1,0 L1,1 L0,1 Z " fill="#686868" opacity="0.105882354" transform="translate(136,241)"/>
<path d="M0,0 L1,0 L1,1 L0,1 Z " fill="#666666" opacity="0.84313726" transform="translate(374,239)"/>
<path d="M0,0 L1,0 L1,1 L0,1 Z " fill="#666666" opacity="0.85882354" transform="translate(137,239)"/>
<path d="M0,0 L1,0 L1,1 L0,1 Z " fill="#666666" opacity="0.21568628" transform="translate(374,235)"/>
<path d="M0,0 L1,0 L1,1 L0,1 Z " fill="#686868" opacity="0.23137255" transform="translate(137,235)"/>
<path d="M0,0 L1,0 L1,1 L0,1 Z " fill="#666666" opacity="0.25490198" transform="translate(373,230)"/>
<path d="M0,0 L1,0 L1,1 L0,1 Z " fill="#676767" opacity="0.27058825" transform="translate(138,230)"/>
<path d="M0,0 L1,0 L1,1 L0,1 Z " fill="#676767" opacity="0.32941177" transform="translate(372,226)"/>
<path d="M0,0 L1,0 L1,1 L0,1 Z " fill="#676767" opacity="0.34901962" transform="translate(139,226)"/>
<path d="M0,0 L1,0 L1,1 L0,1 Z " fill="#666666" opacity="0.7921569" transform="translate(371,224)"/>
<path d="M0,0 L1,0 L1,1 L0,1 Z " fill="#666666" opacity="0.8117647" transform="translate(140,224)"/>
<path d="M0,0 L1,0 L1,1 L0,1 Z " fill="#696969" opacity="0.21960784" transform="translate(371,222)"/>
<path d="M0,0 L1,0 L1,1 L0,1 Z " fill="#686868" opacity="0.23921569" transform="translate(140,222)"/>
<path d="M0,0 L1,0 L1,1 L0,1 Z " fill="#686868" opacity="0.3254902" transform="translate(370,219)"/>
<path d="M0,0 L1,0 L1,1 L0,1 Z " fill="#686868" opacity="0.34509805" transform="translate(141,219)"/>
<path d="M0,0 L1,0 L1,1 L0,1 Z " fill="#666666" opacity="0.95686275" transform="translate(369,218)"/>
<path d="M0,0 L1,0 L1,1 L0,1 Z " fill="#676767" opacity="0.9647059" transform="translate(142,218)"/>
<path d="M0,0 L1,0 L1,1 L0,1 Z " fill="#676767" opacity="0.30980393" transform="translate(369,216)"/>
<path d="M0,0 L1,0 L1,1 L0,1 Z " fill="#676767" opacity="0.32941177" transform="translate(142,216)"/>
<path d="M0,0 L1,0 L1,1 L0,1 Z " fill="#696969" opacity="0.22745098" transform="translate(368,213)"/>
<path d="M0,0 L1,0 L1,1 L0,1 Z " fill="#676767" opacity="0.24313726" transform="translate(143,213)"/>
<path d="M0,0 L1,0 L1,1 L0,1 Z " fill="#666666" opacity="0.4392157" transform="translate(367,211)"/>
<path d="M0,0 L1,0 L1,1 L0,1 Z " fill="#676767" opacity="0.45490196" transform="translate(144,211)"/>
<path d="M0,0 L1,0 L1,1 L0,1 Z " fill="#676767" opacity="0.6509804" transform="translate(366,209)"/>
<path d="M0,0 L1,0 L1,1 L0,1 Z " fill="#676767" opacity="0.6627451" transform="translate(145,209)"/>
<path d="M0,0 L1,0 L1,1 L0,1 Z " fill="#696969" opacity="0.30588236" transform="translate(365,206)"/>
<path d="M0,0 L1,0 L1,1 L0,1 Z " fill="#676767" opacity="0.32156864" transform="translate(146,206)"/>
<path d="M0,0 L1,0 L1,1 L0,1 Z " fill="#666666" opacity="0.4" transform="translate(364,204)"/>
<path d="M0,0 L1,0 L1,1 L0,1 Z " fill="#686868" opacity="0.42352942" transform="translate(147,204)"/>
<path d="M0,0 L1,0 L1,1 L0,1 Z " fill="#676767" opacity="0.40784314" transform="translate(363,202)"/>
<path d="M0,0 L1,0 L1,1 L0,1 Z " fill="#666666" opacity="0.43137255" transform="translate(148,202)"/>
<path d="M0,0 L1,0 L1,1 L0,1 Z " fill="#686868" opacity="0.38431373" transform="translate(362,200)"/>
<path d="M0,0 L1,0 L1,1 L0,1 Z " fill="#686868" opacity="0.40392157" transform="translate(149,200)"/>
<path d="M0,0 L1,0 L1,1 L0,1 Z " fill="#676767" opacity="0.76862746" transform="translate(360,197)"/>
<path d="M0,0 L1,0 L1,1 L0,1 Z " fill="#666666" opacity="0.78431374" transform="translate(151,197)"/>
<path d="M0,0 L1,0 L1,1 L0,1 Z " fill="#666666" opacity="0.61960787" transform="translate(359,195)"/>
<path d="M0,0 L1,0 L1,1 L0,1 Z " fill="#666666" opacity="0.6392157" transform="translate(152,195)"/>
<path d="M0,0 L1,0 L1,1 L0,1 Z " fill="#666666" opacity="0.8" transform="translate(357,192)"/>
<path d="M0,0 L1,0 L1,1 L0,1 Z " fill="#666666" opacity="0.8156863" transform="translate(154,192)"/>
<path d="M0,0 L1,0 L1,1 L0,1 Z " fill="#666666" opacity="0.85882354" transform="translate(355,189)"/>
<path d="M0,0 L1,0 L1,1 L0,1 Z " fill="#676767" opacity="0.8666667" transform="translate(156,189)"/>
<path d="M0,0 L1,0 L1,1 L0,1 Z " fill="#676767" opacity="0.5058824" transform="translate(354,187)"/>
<path d="M0,0 L1,0 L1,1 L0,1 Z " fill="#676767" opacity="0.6117647" transform="translate(351,183)"/>
<path d="M0,0 L1,0 L1,1 L0,1 Z " fill="#676767" opacity="0.46666667" transform="translate(163,179)"/>
<path d="M0,0 L1,0 L1,1 L0,1 Z " fill="#676767" opacity="0.94509804" transform="translate(339,170)"/>
<path d="M0,0 L1,0 L1,1 L0,1 Z M-1,1 L0,1 L0,2 L-1,2 Z " fill="#676767" opacity="0.24313726" transform="translate(171,170)"/>
<path d="M0,0 L1,0 L1,1 L0,1 Z " fill="#666666" opacity="0.93333334" transform="translate(173,169)"/>
<path d="M0,0 L1,0 L1,1 L0,1 Z " fill="#666666" opacity="0.89411765" transform="translate(175,167)"/>
<path d="M0,0 L1,0 L1,1 L0,1 Z " fill="#666666" opacity="0.7254902" transform="translate(177,165)"/>
<path d="M0,0 L1,0 L1,1 L0,1 Z " fill="#676767" opacity="0.46666667" transform="translate(179,163)"/>
<path d="M0,0 L1,0 L1,1 L0,1 Z " fill="#666666" opacity="0.8117647" transform="translate(182,161)"/>
<path d="M0,0 L1,0 L1,1 L0,1 Z " fill="#666666" opacity="0.39215687" transform="translate(184,159)"/>
<path d="M0,0 L1,0 L1,1 L0,1 Z " fill="#666666" opacity="0.52156866" transform="translate(187,157)"/>
<path d="M0,0 L1,0 L1,1 L0,1 Z " fill="#676767" opacity="0.54509807" transform="translate(190,155)"/>
<path d="M0,0 L1,0 L1,1 L0,1 Z " fill="#666666" opacity="0.47058824" transform="translate(193,153)"/>
<path d="M0,0 L1,0 L1,1 L0,1 Z " fill="#666666" opacity="0.6392157" transform="translate(195,152)"/>
<path d="M0,0 L1,0 L1,1 L0,1 Z " fill="#686868" opacity="0.003921569" transform="translate(314,150)"/>
<path d="M0,0 L1,0 L1,1 L0,1 Z " fill="#686868" opacity="0.35686275" transform="translate(198,150)"/>
<path d="M0,0 L1,0 L1,1 L0,1 Z " fill="#666666" opacity="0.019607844" transform="translate(312,149)"/>
<path d="M0,0 L1,0 L1,1 L0,1 Z " fill="#686868" opacity="0.40392157" transform="translate(200,149)"/>
<path d="M0,0 L1,0 L1,1 L0,1 Z " fill="#666666" opacity="0.02745098" transform="translate(310,148)"/>
<path d="M0,0 L1,0 L1,1 L0,1 Z " fill="#666666" opacity="0.43137255" transform="translate(202,148)"/>
<path d="M0,0 L1,0 L1,1 L0,1 Z " fill="#666666" opacity="0.03529412" transform="translate(308,147)"/>
<path d="M0,0 L1,0 L1,1 L0,1 Z " fill="#686868" opacity="0.42352942" transform="translate(204,147)"/>
<path d="M0,0 L1,0 L1,1 L0,1 Z " fill="#666666" opacity="0.011764706" transform="translate(306,146)"/>
<path d="M0,0 L1,0 L1,1 L0,1 Z " fill="#676767" opacity="0.32156864" transform="translate(206,146)"/>
<path d="M0,0 L1,0 L1,1 L0,1 Z " fill="#676767" opacity="0.6627451" transform="translate(209,145)"/>
<path d="M0,0 L1,0 L1,1 L0,1 Z " fill="#666666" opacity="0.078431375" transform="translate(301,144)"/>
<path d="M0,0 L1,0 L1,1 L0,1 Z " fill="#676767" opacity="0.45490196" transform="translate(211,144)"/>
<path d="M0,0 L1,0 L1,1 L0,1 Z " fill="#686868" opacity="0.003921569" transform="translate(299,143)"/>
<path d="M0,0 L1,0 L1,1 L0,1 Z " fill="#676767" opacity="0.24313726" transform="translate(213,143)"/>
<path d="M0,0 L1,0 L1,1 L0,1 Z " fill="#676767" opacity="0.9647059" transform="translate(218,142)"/>
<path d="M0,0 L1,0 L1,1 L0,1 Z " fill="#676767" opacity="0.32941177" transform="translate(216,142)"/>
<path d="M0,0 L1,0 L1,1 L0,1 Z " fill="#686868" opacity="0.043137256" transform="translate(293,141)"/>
<path d="M0,0 L1,0 L1,1 L0,1 Z " fill="#686868" opacity="0.34509805" transform="translate(219,141)"/>
<path d="M0,0 L1,0 L1,1 L0,1 Z " fill="#686868" opacity="0.23921569" transform="translate(222,140)"/>
<path d="M0,0 L1,0 L1,1 L0,1 Z " fill="#676767" opacity="0.34901962" transform="translate(226,139)"/>
<path d="M0,0 L1,0 L1,1 L0,1 Z " fill="#696969" opacity="0.050980393" transform="translate(282,138)"/>
<path d="M0,0 L1,0 L1,1 L0,1 Z " fill="#666666" opacity="0.49803922" transform="translate(280,138)"/>
<path d="M0,0 L1,0 L1,1 L0,1 Z " fill="#676767" opacity="0.27058825" transform="translate(230,138)"/>
<path d="M0,0 L1,0 L1,1 L0,1 Z " fill="#676767" opacity="0.40784314" transform="translate(275,137)"/>
<path d="M0,0 L1,0 L1,1 L0,1 Z " fill="#676767" opacity="0.7294118" transform="translate(273,137)"/>
<path d="M0,0 L1,0 L1,1 L0,1 Z " fill="#666666" opacity="0.85882354" transform="translate(239,137)"/>
<path d="M0,0 L1,0 L1,1 L0,1 Z " fill="#686868" opacity="0.23137255" transform="translate(235,137)"/>
<path d="M0,0 L1,0 L1,1 L0,1 Z " fill="#676767" opacity="0.5254902" transform="translate(266,136)"/>
<path d="M0,0 L1,0 L1,1 L0,1 Z " fill="#666666" opacity="0.6784314" transform="translate(264,136)"/>
<path d="M0,0 L1,0 L1,1 L0,1 Z " fill="#666666" opacity="0.92156863" transform="translate(259,136)"/>
<path d="M0,0 L1,0 L1,1 L0,1 Z " fill="#676767" opacity="0.94509804" transform="translate(253,136)"/>
<path d="M0,0 L1,0 L1,1 L0,1 Z " fill="#666666" opacity="0.83137256" transform="translate(249,136)"/>
<path d="M0,0 L1,0 L1,1 L0,1 Z " fill="#676767" opacity="0.5254902" transform="translate(245,136)"/>
<path d="M0,0 L1,0 L1,1 L0,1 Z " fill="#686868" opacity="0.105882354" transform="translate(241,136)"/>
<path d="M0,0 L1,0 L1,1 L0,1 Z " fill="#676767" opacity="0.003921569" transform="translate(271,375)"/>
<path d="M0,0 L1,0 L1,1 L0,1 Z " fill="#696969" opacity="0.21960784" transform="translate(269,375)"/>
<path d="M0,0 L1,0 L1,1 L0,1 Z " fill="#666666" opacity="0.4392157" transform="translate(267,375)"/>
<path d="M0,0 L1,0 L1,1 L0,1 Z " fill="#666666" opacity="0.5882353" transform="translate(265,375)"/>
<path d="M0,0 L1,0 L1,1 L0,1 Z " fill="#666666" opacity="0.7411765" transform="translate(263,375)"/>
<path d="M0,0 L1,0 L1,1 L0,1 Z " fill="#666666" opacity="0.81960785" transform="translate(262,375)"/>
<path d="M0,0 L1,0 L1,1 L0,1 Z " fill="#676767" opacity="0.8862745" transform="translate(260,375)"/>
<path d="M0,0 L1,0 L1,1 L0,1 Z " fill="#666666" opacity="0.9137255" transform="translate(259,375)"/>
<path d="M0,0 L1,0 L1,1 L0,1 Z " fill="#676767" opacity="0.9647059" transform="translate(257,375)"/>
<path d="M0,0 L1,0 L1,1 L0,1 Z " fill="#666666" opacity="0.99215686" transform="translate(256,375)"/>
<path d="M0,0 L1,0 L1,1 L0,1 Z " fill="#676767" opacity="0.9647059" transform="translate(254,375)"/>
<path d="M0,0 L1,0 L1,1 L0,1 Z " fill="#666666" opacity="0.9137255" transform="translate(252,375)"/>
<path d="M0,0 L1,0 L1,1 L0,1 Z " fill="#666666" opacity="0.85882354" transform="translate(250,375)"/>
<path d="M0,0 L1,0 L1,1 L0,1 Z " fill="#666666" opacity="0.7411765" transform="translate(248,375)"/>
<path d="M0,0 L1,0 L1,1 L0,1 Z " fill="#676767" opacity="0.5921569" transform="translate(246,375)"/>
<path d="M0,0 L1,0 L1,1 L0,1 Z " fill="#666666" opacity="0.4392157" transform="translate(244,375)"/>
<path d="M0,0 L1,0 L1,1 L0,1 Z " fill="#676767" opacity="0.22352941" transform="translate(242,375)"/>
<path d="M0,0 L1,0 L1,1 L0,1 Z " fill="#666666" opacity="0.003921569" transform="translate(240,375)"/>
<path d="M0,0 L1,0 L1,1 L0,1 Z " fill="#686868" opacity="0.21176471" transform="translate(276,374)"/>
<path d="M0,0 L1,0 L1,1 L0,1 Z " fill="#676767" opacity="0.57254905" transform="translate(274,374)"/>
<path d="M0,0 L1,0 L1,1 L0,1 Z " fill="#666666" opacity="0.8392157" transform="translate(272,374)"/>
<path d="M0,0 L1,0 L1,1 L0,1 Z " fill="#676767" opacity="0.9647059" transform="translate(271,374)"/>
<path d="M0,0 L1,0 L1,1 L0,1 Z " fill="#666666" opacity="0.96862745" transform="translate(240,374)"/>
<path d="M0,0 L1,0 L1,1 L0,1 Z " fill="#666666" opacity="0.7137255" transform="translate(238,374)"/>
<path d="M0,0 L1,0 L1,1 L0,1 Z " fill="#676767" opacity="0.39607844" transform="translate(236,374)"/>
<path d="M0,0 L1,0 L1,1 L0,1 Z " fill="#666666" opacity="0.047058824" transform="translate(234,374)"/>
<path d="M0,0 L1,0 L1,1 L0,1 Z " fill="#686868" opacity="0.2509804" transform="translate(281,373)"/>
<path d="M0,0 L1,0 L1,1 L0,1 Z " fill="#666666" opacity="0.68235296" transform="translate(279,373)"/>
<path d="M0,0 L1,0 L1,1 L0,1 Z " fill="#666666" opacity="0.85882354" transform="translate(278,373)"/>
<path d="M0,0 L1,0 L1,1 L0,1 Z " fill="#666666" opacity="0.8627451" transform="translate(233,373)"/>
<path d="M0,0 L1,0 L1,1 L0,1 Z " fill="#676767" opacity="0.4862745" transform="translate(231,373)"/>
<path d="M0,0 L1,0 L1,1 L0,1 Z " fill="#666666" opacity="0.043137256" transform="translate(229,373)"/>
<path d="M0,0 L1,0 L1,1 L0,1 Z " fill="#666666" opacity="0.078431375" transform="translate(286,372)"/>
<path d="M0,0 L1,0 L1,1 L0,1 Z " fill="#666666" opacity="0.56078434" transform="translate(284,372)"/>
<path d="M0,0 L1,0 L1,1 L0,1 Z " fill="#666666" opacity="0.7921569" transform="translate(283,372)"/>
<path d="M0,0 L1,0 L1,1 L0,1 Z " fill="#676767" opacity="0.9843137" transform="translate(282,372)"/>
<path d="M0,0 L1,0 L1,1 L0,1 Z " fill="#666666" opacity="0.9882353" transform="translate(229,372)"/>
<path d="M0,0 L1,0 L1,1 L0,1 Z " fill="#666666" opacity="0.56078434" transform="translate(227,372)"/>
<path d="M0,0 L1,0 L1,1 L0,1 Z " fill="#6D6D6D" opacity="0.08235294" transform="translate(225,372)"/>
<path d="M0,0 L1,0 L1,1 L0,1 Z " fill="#676767" opacity="0.011764706" transform="translate(290,371)"/>
<path d="M0,0 L1,0 L1,1 L0,1 Z " fill="#666666" opacity="0.5019608" transform="translate(288,371)"/>
<path d="M0,0 L1,0 L1,1 L0,1 Z " fill="#666666" opacity="0.78431374" transform="translate(287,371)"/>
<path d="M0,0 L1,0 L1,1 L0,1 Z " fill="#676767" opacity="0.5058824" transform="translate(223,371)"/>
<path d="M0,0 L1,0 L1,1 L0,1 Z " fill="#666666" opacity="0.011764706" transform="translate(221,371)"/>
<path d="M0,0 L1,0 L1,1 L0,1 Z " fill="#686868" opacity="0.31764707" transform="translate(292,370)"/>
<path d="M0,0 L1,0 L1,1 L0,1 Z " fill="#666666" opacity="0.64705884" transform="translate(291,370)"/>
<path d="M0,0 L1,0 L1,1 L0,1 Z " fill="#676767" opacity="0.9254902" transform="translate(290,370)"/>
<path d="M0,0 L1,0 L1,1 L0,1 Z " fill="#666666" opacity="0.654902" transform="translate(220,370)"/>
<path d="M0,0 L1,0 L1,1 L0,1 Z " fill="#666666" opacity="0.03529412" transform="translate(218,370)"/>
<path d="M0,0 L1,0 L1,1 L0,1 Z " fill="#666666" opacity="0.02745098" transform="translate(296,369)"/>
<path d="M0,0 L1,0 L1,1 L0,1 Z " fill="#676767" opacity="0.6431373" transform="translate(294,369)"/>
<path d="M0,0 L1,0 L1,1 L0,1 Z " fill="#666666" opacity="0.9529412" transform="translate(293,369)"/>
<path d="M0,0 L1,0 L1,1 L0,1 Z " fill="#676767" opacity="0.6509804" transform="translate(217,369)"/>
<path d="M0,0 L1,0 L1,1 L0,1 Z " fill="#666666" opacity="0.03137255" transform="translate(215,369)"/>
<path d="M0,0 L1,0 L1,1 L0,1 Z " fill="#696969" opacity="0.21960784" transform="translate(298,368)"/>
<path d="M0,0 L1,0 L1,1 L0,1 Z " fill="#666666" opacity="0.6156863" transform="translate(297,368)"/>
<path d="M0,0 L1,0 L1,1 L0,1 Z " fill="#666666" opacity="0.9411765" transform="translate(296,368)"/>
<path d="M0,0 L1,0 L1,1 L0,1 Z " fill="#676767" opacity="0.62352943" transform="translate(214,368)"/>
<path d="M0,0 L1,0 L1,1 L0,1 Z " fill="#666666" opacity="0.003921569" transform="translate(212,368)"/>
<path d="M0,0 L1,0 L1,1 L0,1 Z " fill="#676767" opacity="0.43529412" transform="translate(300,367)"/>
<path d="M0,0 L1,0 L1,1 L0,1 Z " fill="#666666" opacity="0.83137256" transform="translate(299,367)"/>
<path d="M0,0 L1,0 L1,1 L0,1 Z " fill="#666666" opacity="0.8352941" transform="translate(212,367)"/>
<path d="M0,0 L1,0 L1,1 L0,1 Z " fill="#666666" opacity="0.07450981" transform="translate(210,367)"/>
<path d="M0,0 L1,0 L1,1 L0,1 Z " fill="#6A6A6A" opacity="0.20784314" transform="translate(303,366)"/>
<path d="M0,0 L1,0 L1,1 L0,1 Z " fill="#666666" opacity="0.64705884" transform="translate(302,366)"/>
<path d="M0,0 L1,0 L1,1 L0,1 Z " fill="#666666" opacity="0.972549" transform="translate(301,366)"/>
<path d="M0,0 L1,0 L1,1 L0,1 Z " fill="#666666" opacity="0.9764706" transform="translate(210,366)"/>
<path d="M0,0 L1,0 L1,1 L0,1 Z " fill="#686868" opacity="0.21176471" transform="translate(208,366)"/>
<path d="M0,0 L1,0 L1,1 L0,1 Z " fill="#686868" opacity="0.29803923" transform="translate(305,365)"/>
<path d="M0,0 L1,0 L1,1 L0,1 Z " fill="#666666" opacity="0.7529412" transform="translate(304,365)"/>
<path d="M0,0 L1,0 L1,1 L0,1 Z " fill="#666666" opacity="0.75686276" transform="translate(207,365)"/>
<path d="M0,0 L1,0 L1,1 L0,1 Z " fill="#666666" opacity="0.007843138" transform="translate(205,365)"/>
<path d="M0,0 L1,0 L1,1 L0,1 Z " fill="#676767" opacity="0.3882353" transform="translate(307,364)"/>
<path d="M0,0 L1,0 L1,1 L0,1 Z " fill="#666666" opacity="0.84313726" transform="translate(306,364)"/>
<path d="M0,0 L1,0 L1,1 L0,1 Z " fill="#666666" opacity="0.8509804" transform="translate(205,364)"/>
<path d="M0,0 L1,0 L1,1 L0,1 Z " fill="#666666" opacity="0.03137255" transform="translate(203,364)"/>
<path d="M0,0 L1,0 L1,1 L0,1 Z " fill="#676767" opacity="0.39607844" transform="translate(309,363)"/>
<path d="M0,0 L1,0 L1,1 L0,1 Z " fill="#676767" opacity="0.8862745" transform="translate(308,363)"/>
<path d="M0,0 L1,0 L1,1 L0,1 Z " fill="#666666" opacity="0.89411765" transform="translate(203,363)"/>
<path d="M0,0 L1,0 L1,1 L0,1 Z " fill="#666666" opacity="0.023529412" transform="translate(201,363)"/>
<path d="M0,0 L1,0 L1,1 L0,1 Z " fill="#666666" opacity="0.37254903" transform="translate(311,362)"/>
<path d="M0,0 L1,0 L1,1 L0,1 Z " fill="#676767" opacity="0.8666667" transform="translate(310,362)"/>
<path d="M0,0 L1,0 L1,1 L0,1 Z " fill="#666666" opacity="0.8784314" transform="translate(201,362)"/>
<path d="M0,0 L1,0 L1,1 L0,1 Z " fill="#666666" opacity="0.015686275" transform="translate(199,362)"/>
<path d="M0,0 L1,0 L1,1 L0,1 Z " fill="#676767" opacity="0.32941177" transform="translate(313,361)"/>
<path d="M0,0 L1,0 L1,1 L0,1 Z " fill="#666666" opacity="0.8509804" transform="translate(312,361)"/>
<path d="M0,0 L1,0 L1,1 L0,1 Z " fill="#666666" opacity="0.85882354" transform="translate(199,361)"/>
<path d="M0,0 L1,0 L1,1 L0,1 Z " fill="#676767" opacity="0.003921569" transform="translate(197,361)"/>
<path d="M0,0 L1,0 L1,1 L0,1 Z " fill="#6A6A6A" opacity="0.1882353" transform="translate(315,360)"/>
<path d="M0,0 L1,0 L1,1 L0,1 Z " fill="#666666" opacity="0.75686276" transform="translate(314,360)"/>
<path d="M0,0 L1,0 L1,1 L0,1 Z " fill="#696969" opacity="0.2" transform="translate(196,360)"/>
<path d="M0,0 L1,0 L1,1 L0,1 Z " fill="#686868" opacity="0.08627451" transform="translate(317,359)"/>
<path d="M0,0 L1,0 L1,1 L0,1 Z " fill="#676767" opacity="0.6039216" transform="translate(316,359)"/>
<path d="M0,0 L1,0 L1,1 L0,1 Z " fill="#666666" opacity="0.09803922" transform="translate(194,359)"/>
<path d="M0,0 L1,0 L1,1 L0,1 Z " fill="#666666" opacity="0.43137255" transform="translate(318,358)"/>
<path d="M0,0 L1,0 L1,1 L0,1 Z " fill="#676767" opacity="0.94509804" transform="translate(317,358)"/>
<path d="M0,0 L1,0 L1,1 L0,1 Z " fill="#666666" opacity="0.9529412" transform="translate(194,358)"/>
<path d="M0,0 L1,0 L1,1 L0,1 Z " fill="#666666" opacity="0.015686275" transform="translate(192,358)"/>
<path d="M0,0 L1,0 L1,1 L0,1 Z " fill="#666666" opacity="0.1764706" transform="translate(320,357)"/>
<path d="M0,0 L1,0 L1,1 L0,1 Z " fill="#666666" opacity="0.78431374" transform="translate(319,357)"/>
<path d="M0,0 L1,0 L1,1 L0,1 Z " fill="#6A6A6A" opacity="0.1882353" transform="translate(191,357)"/>
<path d="M0,0 L1,0 L1,1 L0,1 Z " fill="#676767" opacity="0.5137255" transform="translate(321,356)"/>
<path d="M0,0 L1,0 L1,1 L0,1 Z " fill="#676767" opacity="0.9843137" transform="translate(320,356)"/>
<path d="M0,0 L1,0 L1,1 L0,1 Z " fill="#666666" opacity="0.9882353" transform="translate(191,356)"/>
<path d="M0,0 L1,0 L1,1 L0,1 Z " fill="#666666" opacity="0.03529412" transform="translate(189,356)"/>
<path d="M0,0 L1,0 L1,1 L0,1 Z " fill="#696969" opacity="0.21960784" transform="translate(323,355)"/>
<path d="M0,0 L1,0 L1,1 L0,1 Z " fill="#676767" opacity="0.84705883" transform="translate(322,355)"/>
<path d="M0,0 L1,0 L1,1 L0,1 Z " fill="#686868" opacity="0.23137255" transform="translate(188,355)"/>
<path d="M0,0 L1,0 L1,1 L0,1 Z " fill="#666666" opacity="0.49019608" transform="translate(324,354)"/>
<path d="M0,0 L1,0 L1,1 L0,1 Z " fill="#666666" opacity="0.9882353" transform="translate(323,354)"/>
<path d="M0,0 L1,0 L1,1 L0,1 Z " fill="#666666" opacity="0.99215686" transform="translate(188,354)"/>
<path d="M0,0 L1,0 L1,1 L0,1 Z " fill="#666666" opacity="0.019607844" transform="translate(186,354)"/>
<path d="M0,0 L1,0 L1,1 L0,1 Z " fill="#686868" opacity="0.1254902" transform="translate(326,353)"/>
<path d="M0,0 L1,0 L1,1 L0,1 Z " fill="#676767" opacity="0.76862746" transform="translate(325,353)"/>
<path d="M0,0 L1,0 L1,1 L0,1 Z " fill="#666666" opacity="0.78431374" transform="translate(186,353)"/>
<path d="M0,0 L1,0 L1,1 L0,1 Z " fill="#666666" opacity="0.13725491" transform="translate(185,353)"/>
<path d="M0,0 L1,0 L1,1 L0,1 Z " fill="#666666" opacity="0.3529412" transform="translate(327,352)"/>
<path d="M0,0 L1,0 L1,1 L0,1 Z " fill="#676767" opacity="0.94509804" transform="translate(326,352)"/>
<path d="M0,0 L1,0 L1,1 L0,1 Z " fill="#666666" opacity="0.37254903" transform="translate(184,352)"/>
<path d="M0,0 L1,0 L1,1 L0,1 Z " fill="#666666" opacity="0.02745098" transform="translate(329,351)"/>
<path d="M0,0 L1,0 L1,1 L0,1 Z " fill="#676767" opacity="0.5921569" transform="translate(328,351)"/>
<path d="M0,0 L1,0 L1,1 L0,1 Z " fill="#666666" opacity="0.03137255" transform="translate(182,351)"/>
<path d="M0,0 L1,0 L1,1 L0,1 Z " fill="#6D6D6D" opacity="0.10980392" transform="translate(330,350)"/>
<path d="M0,0 L1,0 L1,1 L0,1 Z " fill="#666666" opacity="0.78431374" transform="translate(329,350)"/>
<path d="M0,0 L1,0 L1,1 L0,1 Z " fill="#666666" opacity="0.79607844" transform="translate(182,350)"/>
<path d="M0,0 L1,0 L1,1 L0,1 Z " fill="#666666" opacity="0.11764706" transform="translate(181,350)"/>
<path d="M0,0 L1,0 L1,1 L0,1 Z " fill="#686868" opacity="0.2509804" transform="translate(331,349)"/>
<path d="M0,0 L1,0 L1,1 L0,1 Z " fill="#666666" opacity="0.91764706" transform="translate(330,349)"/>
<path d="M0,0 L1,0 L1,1 L0,1 Z " fill="#696969" opacity="0.26666668" transform="translate(180,349)"/>
<path d="M0,0 L1,0 L1,1 L0,1 Z " fill="#666666" opacity="0.43137255" transform="translate(332,348)"/>
<path d="M0,0 L1,0 L1,1 L0,1 Z " fill="#666666" opacity="0.9882353" transform="translate(331,348)"/>
<path d="M0,0 L1,0 L1,1 L0,1 Z " fill="#666666" opacity="0.99215686" transform="translate(180,348)"/>
<path d="M0,0 L1,0 L1,1 L0,1 Z " fill="#666666" opacity="0.4509804" transform="translate(179,348)"/>
<path d="M0,0 L1,0 L1,1 L0,1 Z " fill="#666666" opacity="0.003921569" transform="translate(178,348)"/>
<path d="M0,0 L1,0 L1,1 L0,1 Z " fill="#666666" opacity="0.011764706" transform="translate(334,347)"/>
<path d="M0,0 L1,0 L1,1 L0,1 Z " fill="#666666" opacity="0.5686275" transform="translate(333,347)"/>
<path d="M0,0 L1,0 L1,1 L0,1 Z " fill="#666666" opacity="0.5882353" transform="translate(178,347)"/>
<path d="M0,0 L1,0 L1,1 L0,1 Z " fill="#676767" opacity="0.015686275" transform="translate(177,347)"/>
<path d="M0,0 L1,0 L1,1 L0,1 Z " fill="#666666" opacity="0.043137256" transform="translate(335,346)"/>
<path d="M0,0 L1,0 L1,1 L0,1 Z " fill="#666666" opacity="0.69411767" transform="translate(334,346)"/>
<path d="M0,0 L1,0 L1,1 L0,1 Z " fill="#666666" opacity="0.050980393" transform="translate(176,346)"/>
<path d="M0,0 L1,0 L1,1 L0,1 Z " fill="#6A6A6A" opacity="0.09411765" transform="translate(336,345)"/>
<path d="M0,0 L1,0 L1,1 L0,1 Z " fill="#666666" opacity="0.79607844" transform="translate(335,345)"/>
<path d="M0,0 L1,0 L1,1 L0,1 Z " fill="#666666" opacity="0.8117647" transform="translate(176,345)"/>
<path d="M0,0 L1,0 L1,1 L0,1 Z " fill="#6C6C6C" opacity="0.101960786" transform="translate(175,345)"/>
<path d="M0,0 L1,0 L1,1 L0,1 Z " fill="#666666" opacity="0.13725491" transform="translate(337,344)"/>
<path d="M0,0 L1,0 L1,1 L0,1 Z " fill="#666666" opacity="0.8745098" transform="translate(336,344)"/>
<path d="M0,0 L1,0 L1,1 L0,1 Z " fill="#6B6B6B" opacity="0.14901961" transform="translate(174,344)"/>
<path d="M0,0 L1,0 L1,1 L0,1 Z " fill="#676767" opacity="0.16470589" transform="translate(338,343)"/>
<path d="M0,0 L1,0 L1,1 L0,1 Z " fill="#666666" opacity="0.9019608" transform="translate(337,343)"/>
<path d="M0,0 L1,0 L1,1 L0,1 Z " fill="#666666" opacity="0.9098039" transform="translate(174,343)"/>
<path d="M0,0 L1,0 L1,1 L0,1 Z " fill="#686868" opacity="0.17254902" transform="translate(173,343)"/>
<path d="M0,0 L1,0 L1,1 L0,1 Z " fill="#686868" opacity="0.19215687" transform="translate(339,342)"/>
<path d="M0,0 L1,0 L1,1 L0,1 Z " fill="#666666" opacity="0.92156863" transform="translate(338,342)"/>
<path d="M0,0 L1,0 L1,1 L0,1 Z " fill="#676767" opacity="0.20392157" transform="translate(172,342)"/>
<path d="M0,0 L1,0 L1,1 L0,1 Z " fill="#666666" opacity="0.9411765" transform="translate(339,341)"/>
<path d="M0,0 L1,0 L1,1 L0,1 Z " fill="#676767" opacity="0.94509804" transform="translate(172,341)"/>
<path d="M0,0 L1,0 L1,1 L0,1 Z " fill="#666666" opacity="0.95686275" transform="translate(340,340)"/>
<path d="M0,0 L1,0 L1,1 L0,1 Z " fill="#666666" opacity="0.9607843" transform="translate(171,340)"/>
<path d="M0,0 L1,0 L1,1 L0,1 Z " fill="#686868" opacity="0.19215687" transform="translate(342,339)"/>
<path d="M0,0 L1,0 L1,1 L0,1 Z " fill="#666666" opacity="0.9411765" transform="translate(341,339)"/>
<path d="M0,0 L1,0 L1,1 L0,1 Z " fill="#696969" opacity="0.2" transform="translate(169,339)"/>
<path d="M0,0 L1,0 L1,1 L0,1 Z " fill="#676767" opacity="0.16470589" transform="translate(343,338)"/>
<path d="M0,0 L1,0 L1,1 L0,1 Z " fill="#666666" opacity="0.92156863" transform="translate(342,338)"/>
<path d="M0,0 L1,0 L1,1 L0,1 Z " fill="#666666" opacity="0.92941177" transform="translate(169,338)"/>
<path d="M0,0 L1,0 L1,1 L0,1 Z " fill="#686868" opacity="0.17254902" transform="translate(168,338)"/>
<path d="M0,0 L1,0 L1,1 L0,1 Z " fill="#666666" opacity="0.13725491" transform="translate(344,337)"/>
<path d="M0,0 L1,0 L1,1 L0,1 Z " fill="#666666" opacity="0.9019608" transform="translate(343,337)"/>
<path d="M0,0 L1,0 L1,1 L0,1 Z " fill="#676767" opacity="0.14509805" transform="translate(167,337)"/>
<path d="M0,0 L1,0 L1,1 L0,1 Z " fill="#6A6A6A" opacity="0.09411765" transform="translate(345,336)"/>
<path d="M0,0 L1,0 L1,1 L0,1 Z " fill="#666666" opacity="0.8745098" transform="translate(344,336)"/>
<path d="M0,0 L1,0 L1,1 L0,1 Z " fill="#676767" opacity="0.8862745" transform="translate(167,336)"/>
<path d="M0,0 L1,0 L1,1 L0,1 Z " fill="#6C6C6C" opacity="0.101960786" transform="translate(166,336)"/>
<path d="M0,0 L1,0 L1,1 L0,1 Z " fill="#666666" opacity="0.043137256" transform="translate(346,335)"/>
<path d="M0,0 L1,0 L1,1 L0,1 Z " fill="#666666" opacity="0.79607844" transform="translate(345,335)"/>
<path d="M0,0 L1,0 L1,1 L0,1 Z " fill="#676767" opacity="0.047058824" transform="translate(165,335)"/>
<path d="M0,0 L1,0 L1,1 L0,1 Z " fill="#666666" opacity="0.011764706" transform="translate(347,334)"/>
<path d="M0,0 L1,0 L1,1 L0,1 Z " fill="#666666" opacity="0.69411767" transform="translate(346,334)"/>
<path d="M0,0 L1,0 L1,1 L0,1 Z " fill="#676767" opacity="0.70980394" transform="translate(165,334)"/>
<path d="M0,0 L1,0 L1,1 L0,1 Z " fill="#666666" opacity="0.015686275" transform="translate(164,334)"/>
<path d="M0,0 L1,0 L1,1 L0,1 Z " fill="#666666" opacity="0.5686275" transform="translate(347,333)"/>
<path d="M0,0 L1,0 L1,1 L0,1 Z " fill="#666666" opacity="0.5882353" transform="translate(164,333)"/>
<path d="M0,0 L1,0 L1,1 L0,1 Z " fill="#666666" opacity="0.003921569" transform="translate(163,333)"/>
<path d="M0,0 L1,0 L1,1 L0,1 Z " fill="#666666" opacity="0.43137255" transform="translate(348,332)"/>
<path d="M0,0 L1,0 L1,1 L0,1 Z " fill="#666666" opacity="0.4509804" transform="translate(163,332)"/>
<path d="M0,0 L1,0 L1,1 L0,1 Z " fill="#686868" opacity="0.2509804" transform="translate(349,331)"/>
<path d="M0,0 L1,0 L1,1 L0,1 Z " fill="#666666" opacity="0.9882353" transform="translate(348,331)"/>
<path d="M0,0 L1,0 L1,1 L0,1 Z " fill="#696969" opacity="0.26666668" transform="translate(162,331)"/>
<path d="M0,0 L1,0 L1,1 L0,1 Z " fill="#6D6D6D" opacity="0.10980392" transform="translate(350,330)"/>
<path d="M0,0 L1,0 L1,1 L0,1 Z " fill="#666666" opacity="0.91764706" transform="translate(349,330)"/>
<path d="M0,0 L1,0 L1,1 L0,1 Z " fill="#676767" opacity="0.9254902" transform="translate(162,330)"/>
<path d="M0,0 L1,0 L1,1 L0,1 Z " fill="#666666" opacity="0.11764706" transform="translate(161,330)"/>
<path d="M0,0 L1,0 L1,1 L0,1 Z " fill="#676767" opacity="0.02745098" transform="translate(351,329)"/>
<path d="M0,0 L1,0 L1,1 L0,1 Z " fill="#666666" opacity="0.78431374" transform="translate(350,329)"/>
<path d="M0,0 L1,0 L1,1 L0,1 Z " fill="#676767" opacity="0.03137255" transform="translate(160,329)"/>
<path d="M0,0 L1,0 L1,1 L0,1 Z " fill="#676767" opacity="0.5921569" transform="translate(351,328)"/>
<path d="M0,0 L1,0 L1,1 L0,1 Z " fill="#676767" opacity="0.6117647" transform="translate(160,328)"/>
<path d="M0,0 L1,0 L1,1 L0,1 Z " fill="#666666" opacity="0.3529412" transform="translate(352,327)"/>
<path d="M0,0 L1,0 L1,1 L0,1 Z " fill="#676767" opacity="0.36862746" transform="translate(159,327)"/>
<path d="M0,0 L1,0 L1,1 L0,1 Z " fill="#686868" opacity="0.1254902" transform="translate(353,326)"/>
<path d="M0,0 L1,0 L1,1 L0,1 Z " fill="#676767" opacity="0.94509804" transform="translate(352,326)"/>
<path d="M0,0 L1,0 L1,1 L0,1 Z " fill="#666666" opacity="0.13725491" transform="translate(158,326)"/>
<path d="M0,0 L1,0 L1,1 L0,1 Z " fill="#676767" opacity="0.76862746" transform="translate(353,325)"/>
<path d="M0,0 L1,0 L1,1 L0,1 Z " fill="#666666" opacity="0.78039217" transform="translate(158,325)"/>
<path d="M0,0 L1,0 L1,1 L0,1 Z " fill="#676767" opacity="0.015686275" transform="translate(157,325)"/>
<path d="M0,0 L1,0 L1,1 L0,1 Z " fill="#666666" opacity="0.49019608" transform="translate(354,324)"/>
<path d="M0,0 L1,0 L1,1 L0,1 Z " fill="#676767" opacity="0.5058824" transform="translate(157,324)"/>
<path d="M0,0 L1,0 L1,1 L0,1 Z " fill="#696969" opacity="0.21960784" transform="translate(355,323)"/>
<path d="M0,0 L1,0 L1,1 L0,1 Z " fill="#666666" opacity="0.9882353" transform="translate(354,323)"/>
<path d="M0,0 L1,0 L1,1 L0,1 Z " fill="#686868" opacity="0.23137255" transform="translate(156,323)"/>
<path d="M0,0 L1,0 L1,1 L0,1 Z " fill="#676767" opacity="0.84705883" transform="translate(355,322)"/>
<path d="M0,0 L1,0 L1,1 L0,1 Z " fill="#666666" opacity="0.85882354" transform="translate(156,322)"/>
<path d="M0,0 L1,0 L1,1 L0,1 Z " fill="#666666" opacity="0.03529412" transform="translate(155,322)"/>
<path d="M0,0 L1,0 L1,1 L0,1 Z " fill="#676767" opacity="0.5137255" transform="translate(356,321)"/>
<path d="M0,0 L1,0 L1,1 L0,1 Z " fill="#666666" opacity="0.5294118" transform="translate(155,321)"/>
<path d="M0,0 L1,0 L1,1 L0,1 Z " fill="#666666" opacity="0.1764706" transform="translate(357,320)"/>
<path d="M0,0 L1,0 L1,1 L0,1 Z " fill="#676767" opacity="0.9843137" transform="translate(356,320)"/>
<path d="M0,0 L1,0 L1,1 L0,1 Z " fill="#6A6A6A" opacity="0.1882353" transform="translate(154,320)"/>
<path d="M0,0 L1,0 L1,1 L0,1 Z " fill="#666666" opacity="0.78431374" transform="translate(357,319)"/>
<path d="M0,0 L1,0 L1,1 L0,1 Z " fill="#666666" opacity="0.8039216" transform="translate(154,319)"/>
<path d="M0,0 L1,0 L1,1 L0,1 Z " fill="#676767" opacity="0.015686275" transform="translate(153,319)"/>
<path d="M0,0 L1,0 L1,1 L0,1 Z " fill="#666666" opacity="0.43137255" transform="translate(358,318)"/>
<path d="M0,0 L1,0 L1,1 L0,1 Z " fill="#676767" opacity="0.45490196" transform="translate(153,318)"/>
<path d="M0,0 L1,0 L1,1 L0,1 Z " fill="#686868" opacity="0.08627451" transform="translate(359,317)"/>
<path d="M0,0 L1,0 L1,1 L0,1 Z " fill="#676767" opacity="0.94509804" transform="translate(358,317)"/>
<path d="M0,0 L1,0 L1,1 L0,1 Z " fill="#666666" opacity="0.09803922" transform="translate(152,317)"/>
<path d="M0,0 L1,0 L1,1 L0,1 Z " fill="#676767" opacity="0.6039216" transform="translate(359,316)"/>
<path d="M0,0 L1,0 L1,1 L0,1 Z " fill="#666666" opacity="0.627451" transform="translate(152,316)"/>
<path d="M0,0 L1,0 L1,1 L0,1 Z " fill="#6A6A6A" opacity="0.1882353" transform="translate(360,315)"/>
<path d="M0,0 L1,0 L1,1 L0,1 Z " fill="#676767" opacity="0.20392157" transform="translate(151,315)"/>
<path d="M0,0 L1,0 L1,1 L0,1 Z " fill="#666666" opacity="0.75686276" transform="translate(360,314)"/>
<path d="M0,0 L1,0 L1,1 L0,1 Z " fill="#666666" opacity="0.77254903" transform="translate(151,314)"/>
<path d="M0,0 L1,0 L1,1 L0,1 Z " fill="#676767" opacity="0.32941177" transform="translate(361,313)"/>
<path d="M0,0 L1,0 L1,1 L0,1 Z " fill="#686868" opacity="0.34509805" transform="translate(150,313)"/>
<path d="M0,0 L1,0 L1,1 L0,1 Z " fill="#666666" opacity="0.8509804" transform="translate(361,312)"/>
<path d="M0,0 L1,0 L1,1 L0,1 Z " fill="#666666" opacity="0.8627451" transform="translate(150,312)"/>
<path d="M0,0 L1,0 L1,1 L0,1 Z " fill="#666666" opacity="0.37254903" transform="translate(362,311)"/>
<path d="M0,0 L1,0 L1,1 L0,1 Z " fill="#666666" opacity="0.39215687" transform="translate(149,311)"/>
<path d="M0,0 L1,0 L1,1 L0,1 Z " fill="#676767" opacity="0.8666667" transform="translate(362,310)"/>
<path d="M0,0 L1,0 L1,1 L0,1 Z " fill="#666666" opacity="0.88235295" transform="translate(149,310)"/>
<path d="M0,0 L1,0 L1,1 L0,1 Z " fill="#676767" opacity="0.39607844" transform="translate(363,309)"/>
<path d="M0,0 L1,0 L1,1 L0,1 Z " fill="#666666" opacity="0.41960785" transform="translate(148,309)"/>
<path d="M0,0 L1,0 L1,1 L0,1 Z " fill="#676767" opacity="0.8862745" transform="translate(363,308)"/>
<path d="M0,0 L1,0 L1,1 L0,1 Z " fill="#666666" opacity="0.8980392" transform="translate(148,308)"/>
<path d="M0,0 L1,0 L1,1 L0,1 Z " fill="#676767" opacity="0.3882353" transform="translate(364,307)"/>
<path d="M0,0 L1,0 L1,1 L0,1 Z " fill="#666666" opacity="0.4117647" transform="translate(147,307)"/>
<path d="M0,0 L1,0 L1,1 L0,1 Z " fill="#666666" opacity="0.84313726" transform="translate(364,306)"/>
<path d="M0,0 L1,0 L1,1 L0,1 Z " fill="#666666" opacity="0.85882354" transform="translate(147,306)"/>
<path d="M0,0 L1,0 L1,1 L0,1 Z " fill="#686868" opacity="0.29803923" transform="translate(365,305)"/>
<path d="M0,0 L1,0 L1,1 L0,1 Z " fill="#666666" opacity="0.3137255" transform="translate(146,305)"/>
<path d="M0,0 L1,0 L1,1 L0,1 Z " fill="#666666" opacity="0.7529412" transform="translate(365,304)"/>
<path d="M0,0 L1,0 L1,1 L0,1 Z " fill="#676767" opacity="0.76862746" transform="translate(146,304)"/>
<path d="M0,0 L1,0 L1,1 L0,1 Z " fill="#6A6A6A" opacity="0.20784314" transform="translate(366,303)"/>
<path d="M0,0 L1,0 L1,1 L0,1 Z " fill="#666666" opacity="0.21568628" transform="translate(145,303)"/>
<path d="M0,0 L1,0 L1,1 L0,1 Z " fill="#666666" opacity="0.64705884" transform="translate(366,302)"/>
<path d="M0,0 L1,0 L1,1 L0,1 Z " fill="#666666" opacity="0.65882355" transform="translate(145,302)"/>
<path d="M0,0 L1,0 L1,1 L0,1 Z " fill="#666666" opacity="0.972549" transform="translate(366,301)"/>
<path d="M0,0 L1,0 L1,1 L0,1 Z " fill="#666666" opacity="0.9764706" transform="translate(145,301)"/>
<path d="M0,0 L1,0 L1,1 L0,1 Z " fill="#676767" opacity="0.43529412" transform="translate(367,300)"/>
<path d="M0,0 L1,0 L1,1 L0,1 Z " fill="#666666" opacity="0.4509804" transform="translate(144,300)"/>
<path d="M0,0 L1,0 L1,1 L0,1 Z " fill="#666666" opacity="0.83137256" transform="translate(367,299)"/>
<path d="M0,0 L1,0 L1,1 L0,1 Z " fill="#666666" opacity="0.84313726" transform="translate(144,299)"/>
<path d="M0,0 L1,0 L1,1 L0,1 Z " fill="#696969" opacity="0.21960784" transform="translate(368,298)"/>
<path d="M0,0 L1,0 L1,1 L0,1 Z " fill="#686868" opacity="0.23921569" transform="translate(143,298)"/>
<path d="M0,0 L1,0 L1,1 L0,1 Z " fill="#666666" opacity="0.6156863" transform="translate(368,297)"/>
<path d="M0,0 L1,0 L1,1 L0,1 Z " fill="#676767" opacity="0.6313726" transform="translate(143,297)"/>
<path d="M0,0 L1,0 L1,1 L0,1 Z " fill="#676767" opacity="0.02745098" transform="translate(369,296)"/>
<path d="M0,0 L1,0 L1,1 L0,1 Z " fill="#666666" opacity="0.9411765" transform="translate(368,296)"/>
<path d="M0,0 L1,0 L1,1 L0,1 Z " fill="#666666" opacity="0.9529412" transform="translate(143,296)"/>
<path d="M0,0 L1,0 L1,1 L0,1 Z " fill="#676767" opacity="0.03529412" transform="translate(142,296)"/>
<path d="M0,0 L1,0 L1,1 L0,1 Z " fill="#676767" opacity="0.6431373" transform="translate(369,294)"/>
<path d="M0,0 L1,0 L1,1 L0,1 Z " fill="#676767" opacity="0.6627451" transform="translate(142,294)"/>
<path d="M0,0 L1,0 L1,1 L0,1 Z " fill="#666666" opacity="0.9529412" transform="translate(369,293)"/>
<path d="M0,0 L1,0 L1,1 L0,1 Z " fill="#666666" opacity="0.9607843" transform="translate(142,293)"/>
<path d="M0,0 L1,0 L1,1 L0,1 Z " fill="#686868" opacity="0.31764707" transform="translate(370,292)"/>
<path d="M0,0 L1,0 L1,1 L0,1 Z " fill="#686868" opacity="0.3372549" transform="translate(141,292)"/>
<path d="M0,0 L1,0 L1,1 L0,1 Z " fill="#666666" opacity="0.64705884" transform="translate(370,291)"/>
<path d="M0,0 L1,0 L1,1 L0,1 Z " fill="#666666" opacity="0.6666667" transform="translate(141,291)"/>
<path d="M0,0 L1,0 L1,1 L0,1 Z " fill="#666666" opacity="0.011764706" transform="translate(371,290)"/>
<path d="M0,0 L1,0 L1,1 L0,1 Z " fill="#676767" opacity="0.9254902" transform="translate(370,290)"/>
<path d="M0,0 L1,0 L1,1 L0,1 Z " fill="#666666" opacity="0.9411765" transform="translate(141,290)"/>
<path d="M0,0 L1,0 L1,1 L0,1 Z " fill="#666666" opacity="0.015686275" transform="translate(140,290)"/>
<path d="M0,0 L1,0 L1,1 L0,1 Z " fill="#666666" opacity="0.5019608" transform="translate(371,288)"/>
<path d="M0,0 L1,0 L1,1 L0,1 Z " fill="#666666" opacity="0.52156866" transform="translate(140,288)"/>
<path d="M0,0 L1,0 L1,1 L0,1 Z " fill="#666666" opacity="0.78431374" transform="translate(371,287)"/>
<path d="M0,0 L1,0 L1,1 L0,1 Z " fill="#666666" opacity="0.8039216" transform="translate(140,287)"/>
<path d="M0,0 L1,0 L1,1 L0,1 Z " fill="#666666" opacity="0.078431375" transform="translate(372,286)"/>
<path d="M0,0 L1,0 L1,1 L0,1 Z " fill="#6F6F6F" opacity="0.09019608" transform="translate(139,286)"/>
<path d="M0,0 L1,0 L1,1 L0,1 Z " fill="#666666" opacity="0.56078434" transform="translate(372,284)"/>
<path d="M0,0 L1,0 L1,1 L0,1 Z " fill="#666666" opacity="0.5764706" transform="translate(139,284)"/>
<path d="M0,0 L1,0 L1,1 L0,1 Z " fill="#666666" opacity="0.7921569" transform="translate(372,283)"/>
<path d="M0,0 L1,0 L1,1 L0,1 Z " fill="#676767" opacity="0.80784315" transform="translate(139,283)"/>
<path d="M0,0 L1,0 L1,1 L0,1 Z " fill="#676767" opacity="0.9843137" transform="translate(372,282)"/>
<path d="M0,0 L1,0 L1,1 L0,1 Z " fill="#666666" opacity="0.99215686" transform="translate(139,282)"/>
<path d="M0,0 L1,0 L1,1 L0,1 Z " fill="#686868" opacity="0.2509804" transform="translate(373,281)"/>
<path d="M0,0 L1,0 L1,1 L0,1 Z " fill="#696969" opacity="0.26666668" transform="translate(138,281)"/>
<path d="M0,0 L1,0 L1,1 L0,1 Z " fill="#666666" opacity="0.68235296" transform="translate(373,279)"/>
<path d="M0,0 L1,0 L1,1 L0,1 Z " fill="#666666" opacity="0.69411767" transform="translate(138,279)"/>
<path d="M0,0 L1,0 L1,1 L0,1 Z " fill="#666666" opacity="0.85882354" transform="translate(373,278)"/>
<path d="M0,0 L1,0 L1,1 L0,1 Z " fill="#666666" opacity="0.87058824" transform="translate(138,278)"/>
<path d="M0,0 L1,0 L1,1 L0,1 Z " fill="#686868" opacity="0.21176471" transform="translate(374,276)"/>
<path d="M0,0 L1,0 L1,1 L0,1 Z " fill="#696969" opacity="0.22745098" transform="translate(137,276)"/>
<path d="M0,0 L1,0 L1,1 L0,1 Z " fill="#676767" opacity="0.57254905" transform="translate(374,274)"/>
<path d="M0,0 L1,0 L1,1 L0,1 Z " fill="#676767" opacity="0.58431375" transform="translate(137,274)"/>
<path d="M0,0 L1,0 L1,1 L0,1 Z " fill="#666666" opacity="0.8392157" transform="translate(374,272)"/>
<path d="M0,0 L1,0 L1,1 L0,1 Z " fill="#666666" opacity="0.85490197" transform="translate(137,272)"/>
<path d="M0,0 L1,0 L1,1 L0,1 Z " fill="#6A6A6A" opacity="0.003921569" transform="translate(375,271)"/>
<path d="M0,0 L1,0 L1,1 L0,1 Z " fill="#676767" opacity="0.9647059" transform="translate(374,271)"/>
<path d="M0,0 L1,0 L1,1 L0,1 Z " fill="#666666" opacity="0.9764706" transform="translate(137,271)"/>
<path d="M0,0 L1,0 L1,1 L0,1 Z " fill="#686868" opacity="0.007843138" transform="translate(136,271)"/>
<path d="M0,0 L1,0 L1,1 L0,1 Z " fill="#696969" opacity="0.21960784" transform="translate(375,269)"/>
<path d="M0,0 L1,0 L1,1 L0,1 Z " fill="#666666" opacity="0.23529412" transform="translate(136,269)"/>
<path d="M0,0 L1,0 L1,1 L0,1 Z " fill="#666666" opacity="0.4392157" transform="translate(375,267)"/>
<path d="M0,0 L1,0 L1,1 L0,1 Z " fill="#666666" opacity="0.4509804" transform="translate(136,267)"/>
<path d="M0,0 L1,0 L1,1 L0,1 Z " fill="#666666" opacity="0.5882353" transform="translate(375,265)"/>
<path d="M0,0 L1,0 L1,1 L0,1 Z " fill="#666666" opacity="0.6" transform="translate(136,265)"/>
<path d="M0,0 L1,0 L1,1 L0,1 Z " fill="#666666" opacity="0.7411765" transform="translate(375,263)"/>
<path d="M0,0 L1,0 L1,1 L0,1 Z " fill="#666666" opacity="0.7529412" transform="translate(136,263)"/>
<path d="M0,0 L1,0 L1,1 L0,1 Z " fill="#666666" opacity="0.81960785" transform="translate(375,262)"/>
<path d="M0,0 L1,0 L1,1 L0,1 Z " fill="#676767" opacity="0.827451" transform="translate(136,262)"/>
<path d="M0,0 L1,0 L1,1 L0,1 Z " fill="#676767" opacity="0.8862745" transform="translate(375,260)"/>
<path d="M0,0 L1,0 L1,1 L0,1 Z " fill="#666666" opacity="0.89411765" transform="translate(136,260)"/>
<path d="M0,0 L1,0 L1,1 L0,1 Z " fill="#666666" opacity="0.9137255" transform="translate(375,259)"/>
<path d="M0,0 L1,0 L1,1 L0,1 Z " fill="#676767" opacity="0.94509804" transform="translate(136,258)"/>
<path d="M0,0 L1,0 L1,1 L0,1 Z " fill="#676767" opacity="0.9647059" transform="translate(375,257)"/>
<path d="M0,0 L1,0 L1,1 L0,1 Z " fill="#666666" opacity="0.96862745" transform="translate(136,257)"/>
<path d="M0,0 L1,0 L1,1 L0,1 Z " fill="#666666" opacity="0.99215686" transform="translate(375,256)"/>
<path d="M0,0 L1,0 L1,1 L0,1 Z " fill="#666666" opacity="0.99215686" transform="translate(136,256)"/>
<path d="M0,0 L1,0 L1,1 L0,1 Z " fill="#676767" opacity="0.9647059" transform="translate(375,254)"/>
<path d="M0,0 L1,0 L1,1 L0,1 Z " fill="#666666" opacity="0.96862745" transform="translate(136,254)"/>
<path d="M0,0 L1,0 L1,1 L0,1 Z " fill="#666666" opacity="0.9137255" transform="translate(375,252)"/>
<path d="M0,0 L1,0 L1,1 L0,1 Z " fill="#666666" opacity="0.92156863" transform="translate(136,252)"/>
<path d="M0,0 L1,0 L1,1 L0,1 Z " fill="#666666" opacity="0.85882354" transform="translate(375,250)"/>
<path d="M0,0 L1,0 L1,1 L0,1 Z " fill="#666666" opacity="0.87058824" transform="translate(136,250)"/>
<path d="M0,0 L1,0 L1,1 L0,1 Z " fill="#666666" opacity="0.7411765" transform="translate(375,248)"/>
<path d="M0,0 L1,0 L1,1 L0,1 Z " fill="#666666" opacity="0.7529412" transform="translate(136,248)"/>
<path d="M0,0 L1,0 L1,1 L0,1 Z " fill="#676767" opacity="0.5921569" transform="translate(375,246)"/>
<path d="M0,0 L1,0 L1,1 L0,1 Z " fill="#676767" opacity="0.6039216" transform="translate(136,246)"/>
<path d="M0,0 L1,0 L1,1 L0,1 Z " fill="#666666" opacity="0.4392157" transform="translate(375,244)"/>
<path d="M0,0 L1,0 L1,1 L0,1 Z " fill="#666666" opacity="0.4509804" transform="translate(136,244)"/>
<path d="M0,0 L1,0 L1,1 L0,1 Z " fill="#676767" opacity="0.22352941" transform="translate(375,242)"/>
<path d="M0,0 L1,0 L1,1 L0,1 Z " fill="#666666" opacity="0.23529412" transform="translate(136,242)"/>
<path d="M0,0 L1,0 L1,1 L0,1 Z " fill="#666666" opacity="0.003921569" transform="translate(375,240)"/>
<path d="M0,0 L1,0 L1,1 L0,1 Z " fill="#666666" opacity="0.96862745" transform="translate(374,240)"/>
<path d="M0,0 L1,0 L1,1 L0,1 Z " fill="#666666" opacity="0.9764706" transform="translate(137,240)"/>
<path d="M0,0 L1,0 L1,1 L0,1 Z " fill="#666666" opacity="0.007843138" transform="translate(136,240)"/>
<path d="M0,0 L1,0 L1,1 L0,1 Z " fill="#666666" opacity="0.7137255" transform="translate(374,238)"/>
<path d="M0,0 L1,0 L1,1 L0,1 Z " fill="#676767" opacity="0.7294118" transform="translate(137,238)"/>
<path d="M0,0 L1,0 L1,1 L0,1 Z " fill="#676767" opacity="0.39607844" transform="translate(374,236)"/>
<path d="M0,0 L1,0 L1,1 L0,1 Z " fill="#666666" opacity="0.4117647" transform="translate(137,236)"/>
<path d="M0,0 L1,0 L1,1 L0,1 Z " fill="#666666" opacity="0.047058824" transform="translate(374,234)"/>
<path d="M0,0 L1,0 L1,1 L0,1 Z " fill="#666666" opacity="0.05490196" transform="translate(137,234)"/>
<path d="M0,0 L1,0 L1,1 L0,1 Z " fill="#666666" opacity="0.8627451" transform="translate(373,233)"/>
<path d="M0,0 L1,0 L1,1 L0,1 Z " fill="#666666" opacity="0.8745098" transform="translate(138,233)"/>
<path d="M0,0 L1,0 L1,1 L0,1 Z " fill="#676767" opacity="0.4862745" transform="translate(373,231)"/>
<path d="M0,0 L1,0 L1,1 L0,1 Z " fill="#666666" opacity="0.49803922" transform="translate(138,231)"/>
<path d="M0,0 L1,0 L1,1 L0,1 Z " fill="#666666" opacity="0.043137256" transform="translate(373,229)"/>
<path d="M0,0 L1,0 L1,1 L0,1 Z " fill="#666666" opacity="0.9882353" transform="translate(372,229)"/>
<path d="M0,0 L1,0 L1,1 L0,1 Z " fill="#666666" opacity="0.99215686" transform="translate(139,229)"/>
<path d="M0,0 L1,0 L1,1 L0,1 Z " fill="#666666" opacity="0.050980393" transform="translate(138,229)"/>
<path d="M0,0 L1,0 L1,1 L0,1 Z " fill="#666666" opacity="0.56078434" transform="translate(372,227)"/>
<path d="M0,0 L1,0 L1,1 L0,1 Z " fill="#666666" opacity="0.5803922" transform="translate(139,227)"/>
<path d="M0,0 L1,0 L1,1 L0,1 Z " fill="#6D6D6D" opacity="0.08235294" transform="translate(372,225)"/>
<path d="M0,0 L1,0 L1,1 L0,1 Z " fill="#6A6A6A" opacity="0.09411765" transform="translate(139,225)"/>
<path d="M0,0 L1,0 L1,1 L0,1 Z " fill="#676767" opacity="0.5058824" transform="translate(371,223)"/>
<path d="M0,0 L1,0 L1,1 L0,1 Z " fill="#676767" opacity="0.5254902" transform="translate(140,223)"/>
<path d="M0,0 L1,0 L1,1 L0,1 Z " fill="#666666" opacity="0.011764706" transform="translate(371,221)"/>
<path d="M0,0 L1,0 L1,1 L0,1 Z " fill="#666666" opacity="0.015686275" transform="translate(140,221)"/>
<path d="M0,0 L1,0 L1,1 L0,1 Z " fill="#666666" opacity="0.654902" transform="translate(370,220)"/>
<path d="M0,0 L1,0 L1,1 L0,1 Z " fill="#676767" opacity="0.67058825" transform="translate(141,220)"/>
<path d="M0,0 L1,0 L1,1 L0,1 Z " fill="#666666" opacity="0.03529412" transform="translate(370,218)"/>
<path d="M0,0 L1,0 L1,1 L0,1 Z " fill="#676767" opacity="0.047058824" transform="translate(141,218)"/>
<path d="M0,0 L1,0 L1,1 L0,1 Z " fill="#676767" opacity="0.6509804" transform="translate(369,217)"/>
<path d="M0,0 L1,0 L1,1 L0,1 Z " fill="#676767" opacity="0.67058825" transform="translate(142,217)"/>
<path d="M0,0 L1,0 L1,1 L0,1 Z " fill="#666666" opacity="0.03137255" transform="translate(369,215)"/>
<path d="M0,0 L1,0 L1,1 L0,1 Z " fill="#666666" opacity="0.039215688" transform="translate(142,215)"/>
<path d="M0,0 L1,0 L1,1 L0,1 Z " fill="#676767" opacity="0.62352943" transform="translate(368,214)"/>
<path d="M0,0 L1,0 L1,1 L0,1 Z " fill="#666666" opacity="0.6392157" transform="translate(143,214)"/>
<path d="M0,0 L1,0 L1,1 L0,1 Z " fill="#666666" opacity="0.003921569" transform="translate(368,212)"/>
<path d="M0,0 L1,0 L1,1 L0,1 Z " fill="#666666" opacity="0.8352941" transform="translate(367,212)"/>
<path d="M0,0 L1,0 L1,1 L0,1 Z " fill="#676767" opacity="0.84705883" transform="translate(144,212)"/>
<path d="M0,0 L1,0 L1,1 L0,1 Z " fill="#676767" opacity="0.003921569" transform="translate(143,212)"/>
<path d="M0,0 L1,0 L1,1 L0,1 Z " fill="#666666" opacity="0.07450981" transform="translate(367,210)"/>
<path d="M0,0 L1,0 L1,1 L0,1 Z " fill="#666666" opacity="0.9764706" transform="translate(366,210)"/>
<path d="M0,0 L1,0 L1,1 L0,1 Z " fill="#666666" opacity="0.98039216" transform="translate(145,210)"/>
<path d="M0,0 L1,0 L1,1 L0,1 Z " fill="#6D6D6D" opacity="0.08235294" transform="translate(144,210)"/>
<path d="M0,0 L1,0 L1,1 L0,1 Z " fill="#686868" opacity="0.21176471" transform="translate(366,208)"/>
<path d="M0,0 L1,0 L1,1 L0,1 Z " fill="#696969" opacity="0.22745098" transform="translate(145,208)"/>
<path d="M0,0 L1,0 L1,1 L0,1 Z " fill="#666666" opacity="0.75686276" transform="translate(365,207)"/>
<path d="M0,0 L1,0 L1,1 L0,1 Z " fill="#666666" opacity="0.7764706" transform="translate(146,207)"/>
<path d="M0,0 L1,0 L1,1 L0,1 Z " fill="#666666" opacity="0.007843138" transform="translate(365,205)"/>
<path d="M0,0 L1,0 L1,1 L0,1 Z " fill="#666666" opacity="0.8509804" transform="translate(364,205)"/>
<path d="M0,0 L1,0 L1,1 L0,1 Z " fill="#666666" opacity="0.8627451" transform="translate(147,205)"/>
<path d="M0,0 L1,0 L1,1 L0,1 Z " fill="#666666" opacity="0.011764706" transform="translate(146,205)"/>
<path d="M0,0 L1,0 L1,1 L0,1 Z " fill="#666666" opacity="0.03137255" transform="translate(364,203)"/>
<path d="M0,0 L1,0 L1,1 L0,1 Z " fill="#666666" opacity="0.89411765" transform="translate(363,203)"/>
<path d="M0,0 L1,0 L1,1 L0,1 Z " fill="#676767" opacity="0.90588236" transform="translate(148,203)"/>
<path d="M0,0 L1,0 L1,1 L0,1 Z " fill="#676767" opacity="0.039215688" transform="translate(147,203)"/>
<path d="M0,0 L1,0 L1,1 L0,1 Z " fill="#666666" opacity="0.023529412" transform="translate(363,201)"/>
<path d="M0,0 L1,0 L1,1 L0,1 Z " fill="#666666" opacity="0.8784314" transform="translate(362,201)"/>
<path d="M0,0 L1,0 L1,1 L0,1 Z " fill="#666666" opacity="0.8901961" transform="translate(149,201)"/>
<path d="M0,0 L1,0 L1,1 L0,1 Z " fill="#666666" opacity="0.03137255" transform="translate(148,201)"/>
<path d="M0,0 L1,0 L1,1 L0,1 Z " fill="#666666" opacity="0.015686275" transform="translate(362,199)"/>
<path d="M0,0 L1,0 L1,1 L0,1 Z " fill="#666666" opacity="0.85882354" transform="translate(361,199)"/>
<path d="M0,0 L1,0 L1,1 L0,1 Z " fill="#666666" opacity="0.8745098" transform="translate(150,199)"/>
<path d="M0,0 L1,0 L1,1 L0,1 Z " fill="#666666" opacity="0.023529412" transform="translate(149,199)"/>
<path d="M0,0 L1,0 L1,1 L0,1 Z " fill="#676767" opacity="0.003921569" transform="translate(361,197)"/>
<path d="M0,0 L1,0 L1,1 L0,1 Z " fill="#666666" opacity="0.007843138" transform="translate(150,197)"/>
<path d="M0,0 L1,0 L1,1 L0,1 Z " fill="#696969" opacity="0.2" transform="translate(360,196)"/>
<path d="M0,0 L1,0 L1,1 L0,1 Z " fill="#666666" opacity="0.21568628" transform="translate(151,196)"/>
<path d="M0,0 L1,0 L1,1 L0,1 Z " fill="#666666" opacity="0.09803922" transform="translate(359,194)"/>
<path d="M0,0 L1,0 L1,1 L0,1 Z " fill="#666666" opacity="0.9529412" transform="translate(358,194)"/>
<path d="M0,0 L1,0 L1,1 L0,1 Z " fill="#666666" opacity="0.9607843" transform="translate(153,194)"/>
<path d="M0,0 L1,0 L1,1 L0,1 Z " fill="#686868" opacity="0.105882354" transform="translate(152,194)"/>
<path d="M0,0 L1,0 L1,1 L0,1 Z " fill="#666666" opacity="0.015686275" transform="translate(358,192)"/>
<path d="M0,0 L1,0 L1,1 L0,1 Z " fill="#666666" opacity="0.019607844" transform="translate(153,192)"/>
<path d="M0,0 L1,0 L1,1 L0,1 Z " fill="#6A6A6A" opacity="0.1882353" transform="translate(357,191)"/>
<path d="M0,0 L1,0 L1,1 L0,1 Z " fill="#666666" opacity="0.9882353" transform="translate(356,191)"/>
<path d="M0,0 L1,0 L1,1 L0,1 Z " fill="#666666" opacity="0.99215686" transform="translate(155,191)"/>
<path d="M0,0 L1,0 L1,1 L0,1 Z " fill="#676767" opacity="0.20392157" transform="translate(154,191)"/>
<path d="M0,0 L1,0 L1,1 L0,1 Z " fill="#666666" opacity="0.03529412" transform="translate(356,189)"/>
<path d="M0,0 L1,0 L1,1 L0,1 Z " fill="#676767" opacity="0.039215688" transform="translate(155,189)"/>
<path d="M0,0 L1,0 L1,1 L0,1 Z " fill="#686868" opacity="0.23137255" transform="translate(355,188)"/>
<path d="M0,0 L1,0 L1,1 L0,1 Z " fill="#666666" opacity="0.99215686" transform="translate(354,188)"/>
<path d="M0,0 L1,0 L1,1 L0,1 Z " fill="#676767" opacity="0.24313726" transform="translate(156,188)"/>
<path d="M0,0 L1,0 L1,1 L0,1 Z " fill="#666666" opacity="0.52156866" transform="translate(157,187)"/>
<path d="M0,0 L1,0 L1,1 L0,1 Z " fill="#666666" opacity="0.019607844" transform="translate(354,186)"/>
<path d="M0,0 L1,0 L1,1 L0,1 Z " fill="#666666" opacity="0.78431374" transform="translate(353,186)"/>
<path d="M0,0 L1,0 L1,1 L0,1 Z " fill="#666666" opacity="0.019607844" transform="translate(157,186)"/>
<path d="M0,0 L1,0 L1,1 L0,1 Z " fill="#666666" opacity="0.13725491" transform="translate(353,185)"/>
<path d="M0,0 L1,0 L1,1 L0,1 Z " fill="#666666" opacity="0.9607843" transform="translate(159,185)"/>
<path d="M0,0 L1,0 L1,1 L0,1 Z " fill="#6B6B6B" opacity="0.14901961" transform="translate(158,185)"/>
<path d="M0,0 L1,0 L1,1 L0,1 Z " fill="#666666" opacity="0.37254903" transform="translate(352,184)"/>
<path d="M0,0 L1,0 L1,1 L0,1 Z " fill="#666666" opacity="0.39215687" transform="translate(159,184)"/>
<path d="M0,0 L1,0 L1,1 L0,1 Z " fill="#676767" opacity="0.003921569" transform="translate(159,183)"/>
<path d="M0,0 L1,0 L1,1 L0,1 Z " fill="#666666" opacity="0.03137255" transform="translate(351,182)"/>
<path d="M0,0 L1,0 L1,1 L0,1 Z " fill="#666666" opacity="0.79607844" transform="translate(350,182)"/>
<path d="M0,0 L1,0 L1,1 L0,1 Z " fill="#666666" opacity="0.8117647" transform="translate(161,182)"/>
<path d="M0,0 L1,0 L1,1 L0,1 Z " fill="#666666" opacity="0.03529412" transform="translate(160,182)"/>
<path d="M0,0 L1,0 L1,1 L0,1 Z " fill="#666666" opacity="0.11764706" transform="translate(350,181)"/>
<path d="M0,0 L1,0 L1,1 L0,1 Z " fill="#6C6C6C" opacity="0.12941177" transform="translate(161,181)"/>
<path d="M0,0 L1,0 L1,1 L0,1 Z " fill="#696969" opacity="0.26666668" transform="translate(349,180)"/>
<path d="M0,0 L1,0 L1,1 L0,1 Z " fill="#666666" opacity="0.99215686" transform="translate(348,180)"/>
<path d="M0,0 L1,0 L1,1 L0,1 Z " fill="#686868" opacity="0.2784314" transform="translate(162,180)"/>
<path d="M0,0 L1,0 L1,1 L0,1 Z " fill="#666666" opacity="0.4509804" transform="translate(348,179)"/>
<path d="M0,0 L1,0 L1,1 L0,1 Z " fill="#666666" opacity="0.003921569" transform="translate(348,178)"/>
<path d="M0,0 L1,0 L1,1 L0,1 Z " fill="#666666" opacity="0.5882353" transform="translate(347,178)"/>
<path d="M0,0 L1,0 L1,1 L0,1 Z " fill="#676767" opacity="0.6039216" transform="translate(164,178)"/>
<path d="M0,0 L1,0 L1,1 L0,1 Z " fill="#676767" opacity="0.003921569" transform="translate(163,178)"/>
<path d="M0,0 L1,0 L1,1 L0,1 Z " fill="#676767" opacity="0.015686275" transform="translate(347,177)"/>
<path d="M0,0 L1,0 L1,1 L0,1 Z " fill="#666666" opacity="0.019607844" transform="translate(164,177)"/>
<path d="M0,0 L1,0 L1,1 L0,1 Z " fill="#666666" opacity="0.050980393" transform="translate(346,176)"/>
<path d="M0,0 L1,0 L1,1 L0,1 Z " fill="#666666" opacity="0.8117647" transform="translate(345,176)"/>
<path d="M0,0 L1,0 L1,1 L0,1 Z " fill="#666666" opacity="0.8235294" transform="translate(166,176)"/>
<path d="M0,0 L1,0 L1,1 L0,1 Z " fill="#666666" opacity="0.05490196" transform="translate(165,176)"/>
<path d="M0,0 L1,0 L1,1 L0,1 Z " fill="#6C6C6C" opacity="0.101960786" transform="translate(345,175)"/>
<path d="M0,0 L1,0 L1,1 L0,1 Z " fill="#696969" opacity="0.11372549" transform="translate(166,175)"/>
<path d="M0,0 L1,0 L1,1 L0,1 Z " fill="#6B6B6B" opacity="0.14901961" transform="translate(344,174)"/>
<path d="M0,0 L1,0 L1,1 L0,1 Z " fill="#666666" opacity="0.9098039" transform="translate(343,174)"/>
<path d="M0,0 L1,0 L1,1 L0,1 Z " fill="#666666" opacity="0.91764706" transform="translate(168,174)"/>
<path d="M0,0 L1,0 L1,1 L0,1 Z " fill="#666666" opacity="0.15686275" transform="translate(167,174)"/>
<path d="M0,0 L1,0 L1,1 L0,1 Z " fill="#686868" opacity="0.17254902" transform="translate(343,173)"/>
<path d="M0,0 L1,0 L1,1 L0,1 Z " fill="#696969" opacity="0.18039216" transform="translate(168,173)"/>
<path d="M0,0 L1,0 L1,1 L0,1 Z " fill="#676767" opacity="0.20392157" transform="translate(342,172)"/>
<path d="M0,0 L1,0 L1,1 L0,1 Z " fill="#676767" opacity="0.94509804" transform="translate(341,172)"/>
<path d="M0,0 L1,0 L1,1 L0,1 Z " fill="#666666" opacity="0.9490196" transform="translate(170,172)"/>
<path d="M0,0 L1,0 L1,1 L0,1 Z " fill="#686868" opacity="0.21176471" transform="translate(169,172)"/>
<path d="M0,0 L1,0 L1,1 L0,1 Z " fill="#666666" opacity="0.9607843" transform="translate(340,171)"/>
<path d="M0,0 L1,0 L1,1 L0,1 Z " fill="#676767" opacity="0.9647059" transform="translate(171,171)"/>
<path d="M0,0 L1,0 L1,1 L0,1 Z " fill="#666666" opacity="0.9490196" transform="translate(172,170)"/>
<path d="M0,0 L1,0 L1,1 L0,1 Z " fill="#696969" opacity="0.2" transform="translate(339,169)"/>
<path d="M0,0 L1,0 L1,1 L0,1 Z " fill="#666666" opacity="0.92941177" transform="translate(338,169)"/>
<path d="M0,0 L1,0 L1,1 L0,1 Z " fill="#686868" opacity="0.21176471" transform="translate(172,169)"/>
<path d="M0,0 L1,0 L1,1 L0,1 Z " fill="#686868" opacity="0.17254902" transform="translate(338,168)"/>
<path d="M0,0 L1,0 L1,1 L0,1 Z " fill="#696969" opacity="0.18039216" transform="translate(173,168)"/>
<path d="M0,0 L1,0 L1,1 L0,1 Z " fill="#676767" opacity="0.14509805" transform="translate(337,167)"/>
<path d="M0,0 L1,0 L1,1 L0,1 Z " fill="#676767" opacity="0.8862745" transform="translate(336,167)"/>
<path d="M0,0 L1,0 L1,1 L0,1 Z " fill="#666666" opacity="0.15686275" transform="translate(174,167)"/>
<path d="M0,0 L1,0 L1,1 L0,1 Z " fill="#6C6C6C" opacity="0.101960786" transform="translate(336,166)"/>
<path d="M0,0 L1,0 L1,1 L0,1 Z " fill="#696969" opacity="0.11372549" transform="translate(175,166)"/>
<path d="M0,0 L1,0 L1,1 L0,1 Z " fill="#676767" opacity="0.047058824" transform="translate(335,165)"/>
<path d="M0,0 L1,0 L1,1 L0,1 Z " fill="#676767" opacity="0.70980394" transform="translate(334,165)"/>
<path d="M0,0 L1,0 L1,1 L0,1 Z " fill="#666666" opacity="0.05490196" transform="translate(176,165)"/>
<path d="M0,0 L1,0 L1,1 L0,1 Z " fill="#666666" opacity="0.015686275" transform="translate(334,164)"/>
<path d="M0,0 L1,0 L1,1 L0,1 Z " fill="#666666" opacity="0.5882353" transform="translate(333,164)"/>
<path d="M0,0 L1,0 L1,1 L0,1 Z " fill="#676767" opacity="0.019607844" transform="translate(177,164)"/>
<path d="M0,0 L1,0 L1,1 L0,1 Z " fill="#666666" opacity="0.003921569" transform="translate(333,163)"/>
<path d="M0,0 L1,0 L1,1 L0,1 Z " fill="#666666" opacity="0.4509804" transform="translate(332,163)"/>
<path d="M0,0 L1,0 L1,1 L0,1 Z " fill="#676767" opacity="0.003921569" transform="translate(178,163)"/>
<path d="M0,0 L1,0 L1,1 L0,1 Z " fill="#696969" opacity="0.26666668" transform="translate(331,162)"/>
<path d="M0,0 L1,0 L1,1 L0,1 Z " fill="#676767" opacity="0.9254902" transform="translate(330,162)"/>
<path d="M0,0 L1,0 L1,1 L0,1 Z " fill="#686868" opacity="0.2784314" transform="translate(180,162)"/>
<path d="M0,0 L1,0 L1,1 L0,1 Z " fill="#666666" opacity="0.11764706" transform="translate(330,161)"/>
<path d="M0,0 L1,0 L1,1 L0,1 Z " fill="#6C6C6C" opacity="0.12941177" transform="translate(181,161)"/>
<path d="M0,0 L1,0 L1,1 L0,1 Z " fill="#676767" opacity="0.03137255" transform="translate(329,160)"/>
<path d="M0,0 L1,0 L1,1 L0,1 Z " fill="#676767" opacity="0.6117647" transform="translate(328,160)"/>
<path d="M0,0 L1,0 L1,1 L0,1 Z " fill="#676767" opacity="0.03529412" transform="translate(182,160)"/>
<path d="M0,0 L1,0 L1,1 L0,1 Z " fill="#676767" opacity="0.36862746" transform="translate(327,159)"/>
<path d="M0,0 L1,0 L1,1 L0,1 Z " fill="#666666" opacity="0.9607843" transform="translate(185,159)"/>
<path d="M0,0 L1,0 L1,1 L0,1 Z " fill="#666666" opacity="0.003921569" transform="translate(183,159)"/>
<path d="M0,0 L1,0 L1,1 L0,1 Z " fill="#666666" opacity="0.13725491" transform="translate(326,158)"/>
<path d="M0,0 L1,0 L1,1 L0,1 Z " fill="#666666" opacity="0.78039217" transform="translate(325,158)"/>
<path d="M0,0 L1,0 L1,1 L0,1 Z " fill="#6B6B6B" opacity="0.14901961" transform="translate(185,158)"/>
<path d="M0,0 L1,0 L1,1 L0,1 Z " fill="#676767" opacity="0.015686275" transform="translate(325,157)"/>
<path d="M0,0 L1,0 L1,1 L0,1 Z " fill="#676767" opacity="0.5058824" transform="translate(324,157)"/>
<path d="M0,0 L1,0 L1,1 L0,1 Z " fill="#666666" opacity="0.019607844" transform="translate(186,157)"/>
<path d="M0,0 L1,0 L1,1 L0,1 Z " fill="#686868" opacity="0.23137255" transform="translate(323,156)"/>
<path d="M0,0 L1,0 L1,1 L0,1 Z " fill="#666666" opacity="0.85882354" transform="translate(322,156)"/>
<path d="M0,0 L1,0 L1,1 L0,1 Z " fill="#676767" opacity="0.24313726" transform="translate(188,156)"/>
<path d="M0,0 L1,0 L1,1 L0,1 Z " fill="#666666" opacity="0.03529412" transform="translate(322,155)"/>
<path d="M0,0 L1,0 L1,1 L0,1 Z " fill="#666666" opacity="0.5294118" transform="translate(321,155)"/>
<path d="M0,0 L1,0 L1,1 L0,1 Z " fill="#666666" opacity="0.99215686" transform="translate(191,155)"/>
<path d="M0,0 L1,0 L1,1 L0,1 Z " fill="#676767" opacity="0.039215688" transform="translate(189,155)"/>
<path d="M0,0 L1,0 L1,1 L0,1 Z " fill="#6A6A6A" opacity="0.1882353" transform="translate(320,154)"/>
<path d="M0,0 L1,0 L1,1 L0,1 Z " fill="#666666" opacity="0.8039216" transform="translate(319,154)"/>
<path d="M0,0 L1,0 L1,1 L0,1 Z " fill="#676767" opacity="0.20392157" transform="translate(191,154)"/>
<path d="M0,0 L1,0 L1,1 L0,1 Z " fill="#676767" opacity="0.015686275" transform="translate(319,153)"/>
<path d="M0,0 L1,0 L1,1 L0,1 Z " fill="#676767" opacity="0.45490196" transform="translate(318,153)"/>
<path d="M0,0 L1,0 L1,1 L0,1 Z " fill="#666666" opacity="0.9607843" transform="translate(194,153)"/>
<path d="M0,0 L1,0 L1,1 L0,1 Z " fill="#666666" opacity="0.019607844" transform="translate(192,153)"/>
<path d="M0,0 L1,0 L1,1 L0,1 Z " fill="#666666" opacity="0.09803922" transform="translate(317,152)"/>
<path d="M0,0 L1,0 L1,1 L0,1 Z " fill="#666666" opacity="0.627451" transform="translate(316,152)"/>
<path d="M0,0 L1,0 L1,1 L0,1 Z " fill="#686868" opacity="0.105882354" transform="translate(194,152)"/>
<path d="M0,0 L1,0 L1,1 L0,1 Z " fill="#676767" opacity="0.20392157" transform="translate(315,151)"/>
<path d="M0,0 L1,0 L1,1 L0,1 Z " fill="#666666" opacity="0.77254903" transform="translate(314,151)"/>
<path d="M0,0 L1,0 L1,1 L0,1 Z " fill="#666666" opacity="0.21568628" transform="translate(196,151)"/>
<path d="M0,0 L1,0 L1,1 L0,1 Z " fill="#686868" opacity="0.34509805" transform="translate(313,150)"/>
<path d="M0,0 L1,0 L1,1 L0,1 Z " fill="#666666" opacity="0.8627451" transform="translate(312,150)"/>
<path d="M0,0 L1,0 L1,1 L0,1 Z " fill="#666666" opacity="0.8745098" transform="translate(199,150)"/>
<path d="M0,0 L1,0 L1,1 L0,1 Z " fill="#686868" opacity="0.007843138" transform="translate(197,150)"/>
<path d="M0,0 L1,0 L1,1 L0,1 Z " fill="#666666" opacity="0.39215687" transform="translate(311,149)"/>
<path d="M0,0 L1,0 L1,1 L0,1 Z " fill="#666666" opacity="0.88235295" transform="translate(310,149)"/>
<path d="M0,0 L1,0 L1,1 L0,1 Z " fill="#666666" opacity="0.8901961" transform="translate(201,149)"/>
<path d="M0,0 L1,0 L1,1 L0,1 Z " fill="#686868" opacity="0.023529412" transform="translate(199,149)"/>
<path d="M0,0 L1,0 L1,1 L0,1 Z " fill="#666666" opacity="0.41960785" transform="translate(309,148)"/>
<path d="M0,0 L1,0 L1,1 L0,1 Z " fill="#666666" opacity="0.8980392" transform="translate(308,148)"/>
<path d="M0,0 L1,0 L1,1 L0,1 Z " fill="#676767" opacity="0.90588236" transform="translate(203,148)"/>
<path d="M0,0 L1,0 L1,1 L0,1 Z " fill="#666666" opacity="0.03137255" transform="translate(201,148)"/>
<path d="M0,0 L1,0 L1,1 L0,1 Z " fill="#666666" opacity="0.4117647" transform="translate(307,147)"/>
<path d="M0,0 L1,0 L1,1 L0,1 Z " fill="#666666" opacity="0.85882354" transform="translate(306,147)"/>
<path d="M0,0 L1,0 L1,1 L0,1 Z " fill="#666666" opacity="0.8627451" transform="translate(205,147)"/>
<path d="M0,0 L1,0 L1,1 L0,1 Z " fill="#686868" opacity="0.039215688" transform="translate(203,147)"/>
<path d="M0,0 L1,0 L1,1 L0,1 Z " fill="#666666" opacity="0.3137255" transform="translate(305,146)"/>
<path d="M0,0 L1,0 L1,1 L0,1 Z " fill="#676767" opacity="0.76862746" transform="translate(304,146)"/>
<path d="M0,0 L1,0 L1,1 L0,1 Z " fill="#666666" opacity="0.7764706" transform="translate(207,146)"/>
<path d="M0,0 L1,0 L1,1 L0,1 Z " fill="#676767" opacity="0.011764706" transform="translate(205,146)"/>
<path d="M0,0 L1,0 L1,1 L0,1 Z " fill="#666666" opacity="0.21568628" transform="translate(303,145)"/>
<path d="M0,0 L1,0 L1,1 L0,1 Z " fill="#666666" opacity="0.65882355" transform="translate(302,145)"/>
<path d="M0,0 L1,0 L1,1 L0,1 Z " fill="#666666" opacity="0.9764706" transform="translate(301,145)"/>
<path d="M0,0 L1,0 L1,1 L0,1 Z " fill="#666666" opacity="0.98039216" transform="translate(210,145)"/>
<path d="M0,0 L1,0 L1,1 L0,1 Z " fill="#696969" opacity="0.22745098" transform="translate(208,145)"/>
<path d="M0,0 L1,0 L1,1 L0,1 Z " fill="#666666" opacity="0.4509804" transform="translate(300,144)"/>
<path d="M0,0 L1,0 L1,1 L0,1 Z " fill="#666666" opacity="0.84313726" transform="translate(299,144)"/>
<path d="M0,0 L1,0 L1,1 L0,1 Z " fill="#676767" opacity="0.84705883" transform="translate(212,144)"/>
<path d="M0,0 L1,0 L1,1 L0,1 Z " fill="#6D6D6D" opacity="0.08235294" transform="translate(210,144)"/>
<path d="M0,0 L1,0 L1,1 L0,1 Z " fill="#686868" opacity="0.23921569" transform="translate(298,143)"/>
<path d="M0,0 L1,0 L1,1 L0,1 Z " fill="#676767" opacity="0.6313726" transform="translate(297,143)"/>
<path d="M0,0 L1,0 L1,1 L0,1 Z " fill="#666666" opacity="0.9529412" transform="translate(296,143)"/>
<path d="M0,0 L1,0 L1,1 L0,1 Z " fill="#666666" opacity="0.6392157" transform="translate(214,143)"/>
<path d="M0,0 L1,0 L1,1 L0,1 Z " fill="#676767" opacity="0.003921569" transform="translate(212,143)"/>
<path d="M0,0 L1,0 L1,1 L0,1 Z " fill="#676767" opacity="0.03529412" transform="translate(296,142)"/>
<path d="M0,0 L1,0 L1,1 L0,1 Z " fill="#676767" opacity="0.6627451" transform="translate(294,142)"/>
<path d="M0,0 L1,0 L1,1 L0,1 Z " fill="#666666" opacity="0.9607843" transform="translate(293,142)"/>
<path d="M0,0 L1,0 L1,1 L0,1 Z " fill="#676767" opacity="0.67058825" transform="translate(217,142)"/>
<path d="M0,0 L1,0 L1,1 L0,1 Z " fill="#676767" opacity="0.039215688" transform="translate(215,142)"/>
<path d="M0,0 L1,0 L1,1 L0,1 Z " fill="#686868" opacity="0.3372549" transform="translate(292,141)"/>
<path d="M0,0 L1,0 L1,1 L0,1 Z " fill="#666666" opacity="0.6666667" transform="translate(291,141)"/>
<path d="M0,0 L1,0 L1,1 L0,1 Z " fill="#666666" opacity="0.9411765" transform="translate(290,141)"/>
<path d="M0,0 L1,0 L1,1 L0,1 Z " fill="#676767" opacity="0.67058825" transform="translate(220,141)"/>
<path d="M0,0 L1,0 L1,1 L0,1 Z " fill="#686868" opacity="0.047058824" transform="translate(218,141)"/>
<path d="M0,0 L1,0 L1,1 L0,1 Z " fill="#666666" opacity="0.015686275" transform="translate(290,140)"/>
<path d="M0,0 L1,0 L1,1 L0,1 Z " fill="#666666" opacity="0.52156866" transform="translate(288,140)"/>
<path d="M0,0 L1,0 L1,1 L0,1 Z " fill="#666666" opacity="0.8039216" transform="translate(287,140)"/>
<path d="M0,0 L1,0 L1,1 L0,1 Z " fill="#676767" opacity="0.5254902" transform="translate(223,140)"/>
<path d="M0,0 L1,0 L1,1 L0,1 Z " fill="#686868" opacity="0.015686275" transform="translate(221,140)"/>
<path d="M0,0 L1,0 L1,1 L0,1 Z " fill="#6F6F6F" opacity="0.09019608" transform="translate(286,139)"/>
<path d="M0,0 L1,0 L1,1 L0,1 Z " fill="#666666" opacity="0.5764706" transform="translate(284,139)"/>
<path d="M0,0 L1,0 L1,1 L0,1 Z " fill="#676767" opacity="0.80784315" transform="translate(283,139)"/>
<path d="M0,0 L1,0 L1,1 L0,1 Z " fill="#666666" opacity="0.99215686" transform="translate(282,139)"/>
<path d="M0,0 L1,0 L1,1 L0,1 Z " fill="#666666" opacity="0.99215686" transform="translate(229,139)"/>
<path d="M0,0 L1,0 L1,1 L0,1 Z " fill="#666666" opacity="0.5803922" transform="translate(227,139)"/>
<path d="M0,0 L1,0 L1,1 L0,1 Z " fill="#6A6A6A" opacity="0.09411765" transform="translate(225,139)"/>
<path d="M0,0 L1,0 L1,1 L0,1 Z " fill="#696969" opacity="0.26666668" transform="translate(281,138)"/>
<path d="M0,0 L1,0 L1,1 L0,1 Z " fill="#666666" opacity="0.69411767" transform="translate(279,138)"/>
<path d="M0,0 L1,0 L1,1 L0,1 Z " fill="#666666" opacity="0.87058824" transform="translate(278,138)"/>
<path d="M0,0 L1,0 L1,1 L0,1 Z " fill="#666666" opacity="0.8745098" transform="translate(233,138)"/>
<path d="M0,0 L1,0 L1,1 L0,1 Z " fill="#666666" opacity="0.49803922" transform="translate(231,138)"/>
<path d="M0,0 L1,0 L1,1 L0,1 Z " fill="#676767" opacity="0.050980393" transform="translate(229,138)"/>
<path d="M0,0 L1,0 L1,1 L0,1 Z " fill="#696969" opacity="0.22745098" transform="translate(276,137)"/>
<path d="M0,0 L1,0 L1,1 L0,1 Z " fill="#676767" opacity="0.58431375" transform="translate(274,137)"/>
<path d="M0,0 L1,0 L1,1 L0,1 Z " fill="#666666" opacity="0.85490197" transform="translate(272,137)"/>
<path d="M0,0 L1,0 L1,1 L0,1 Z " fill="#666666" opacity="0.9764706" transform="translate(271,137)"/>
<path d="M0,0 L1,0 L1,1 L0,1 Z " fill="#666666" opacity="0.9764706" transform="translate(240,137)"/>
<path d="M0,0 L1,0 L1,1 L0,1 Z " fill="#676767" opacity="0.7294118" transform="translate(238,137)"/>
<path d="M0,0 L1,0 L1,1 L0,1 Z " fill="#666666" opacity="0.4117647" transform="translate(236,137)"/>
<path d="M0,0 L1,0 L1,1 L0,1 Z " fill="#686868" opacity="0.05490196" transform="translate(234,137)"/>
<path d="M0,0 L1,0 L1,1 L0,1 Z " fill="#686868" opacity="0.007843138" transform="translate(271,136)"/>
<path d="M0,0 L1,0 L1,1 L0,1 Z " fill="#666666" opacity="0.23529412" transform="translate(269,136)"/>
<path d="M0,0 L1,0 L1,1 L0,1 Z " fill="#666666" opacity="0.4509804" transform="translate(267,136)"/>
<path d="M0,0 L1,0 L1,1 L0,1 Z " fill="#666666" opacity="0.6" transform="translate(265,136)"/>
<path d="M0,0 L1,0 L1,1 L0,1 Z " fill="#666666" opacity="0.7529412" transform="translate(263,136)"/>
<path d="M0,0 L1,0 L1,1 L0,1 Z " fill="#676767" opacity="0.827451" transform="translate(262,136)"/>
<path d="M0,0 L1,0 L1,1 L0,1 Z " fill="#666666" opacity="0.89411765" transform="translate(260,136)"/>
<path d="M0,0 L1,0 L1,1 L0,1 Z " fill="#676767" opacity="0.94509804" transform="translate(258,136)"/>
<path d="M0,0 L1,0 L1,1 L0,1 Z " fill="#666666" opacity="0.96862745" transform="translate(257,136)"/>
<path d="M0,0 L1,0 L1,1 L0,1 Z " fill="#666666" opacity="0.99215686" transform="translate(256,136)"/>
<path d="M0,0 L1,0 L1,1 L0,1 Z " fill="#666666" opacity="0.96862745" transform="translate(254,136)"/>
<path d="M0,0 L1,0 L1,1 L0,1 Z " fill="#666666" opacity="0.92156863" transform="translate(252,136)"/>
<path d="M0,0 L1,0 L1,1 L0,1 Z " fill="#666666" opacity="0.87058824" transform="translate(250,136)"/>
<path d="M0,0 L1,0 L1,1 L0,1 Z " fill="#666666" opacity="0.7529412" transform="translate(248,136)"/>
<path d="M0,0 L1,0 L1,1 L0,1 Z " fill="#676767" opacity="0.6039216" transform="translate(246,136)"/>
<path d="M0,0 L1,0 L1,1 L0,1 Z " fill="#666666" opacity="0.4509804" transform="translate(244,136)"/>
<path d="M0,0 L1,0 L1,1 L0,1 Z " fill="#666666" opacity="0.23529412" transform="translate(242,136)"/>
<path d="M0,0 L1,0 L1,1 L0,1 Z " fill="#686868" opacity="0.007843138" transform="translate(240,136)"/>
</svg>
