<?xml version="1.0" encoding="UTF-8"?>
<!-- Generator: visioncortex VTracer 0.6.4 -->
<svg version="1.1" xmlns="http://www.w3.org/2000/svg" width="512" height="512">
<path d="M0,0 L2,0 L2,1 L16,1 L16,2 L23,2 L23,3 L27,3 L27,4 L32,4 L32,5 L35,5 L35,6 L38,6 L38,7 L41,7 L41,8 L44,8 L44,9 L46,9 L46,10 L49,10 L49,11 L51,11 L51,12 L53,12 L53,13 L55,13 L55,14 L57,14 L57,15 L59,15 L59,16 L61,16 L61,17 L62,17 L62,18 L64,18 L64,19 L65,19 L65,20 L67,20 L67,21 L68,21 L68,22 L70,22 L70,23 L71,23 L71,24 L73,24 L73,25 L74,25 L74,26 L75,26 L75,27 L76,27 L76,28 L78,28 L78,29 L79,29 L79,30 L80,30 L80,31 L81,31 L81,32 L82,32 L82,33 L83,33 L83,34 L84,34 L84,35 L85,35 L85,36 L86,36 L86,37 L87,37 L87,38 L88,38 L88,39 L89,39 L89,40 L90,40 L90,41 L91,41 L91,42 L92,42 L92,43 L93,43 L93,45 L94,45 L94,46 L95,46 L95,47 L96,47 L96,48 L97,48 L97,50 L98,50 L98,51 L99,51 L99,53 L100,53 L100,54 L101,54 L101,56 L102,56 L102,57 L103,57 L103,59 L104,59 L104,60 L105,60 L105,62 L106,62 L106,64 L107,64 L107,66 L108,66 L108,68 L109,68 L109,70 L110,70 L110,72 L111,72 L111,75 L112,75 L112,77 L113,77 L113,80 L114,80 L114,83 L115,83 L115,86 L116,86 L116,89 L117,89 L117,94 L118,94 L118,98 L119,98 L119,105 L120,105 L120,135 L119,135 L119,141 L118,141 L118,146 L117,146 L117,150 L116,150 L116,154 L115,154 L115,157 L114,157 L114,160 L113,160 L113,163 L112,163 L112,165 L111,165 L111,168 L110,168 L110,170 L109,170 L109,172 L108,172 L108,174 L107,174 L107,176 L106,176 L106,178 L105,178 L105,179 L104,179 L104,181 L103,181 L103,183 L102,183 L102,184 L101,184 L101,186 L100,186 L100,187 L99,187 L99,189 L98,189 L98,190 L97,190 L97,192 L96,192 L96,193 L95,193 L95,194 L94,194 L94,195 L93,195 L93,197 L92,197 L92,198 L91,198 L91,199 L90,199 L90,200 L89,200 L89,201 L88,201 L88,202 L87,202 L87,203 L86,203 L86,204 L85,204 L85,205 L84,205 L84,206 L83,206 L83,207 L82,207 L82,208 L81,208 L81,209 L80,209 L80,210 L79,210 L79,211 L78,211 L78,212 L76,212 L76,213 L75,213 L75,214 L74,214 L74,215 L73,215 L73,216 L71,216 L71,217 L70,217 L70,218 L68,218 L68,219 L67,219 L67,220 L65,220 L65,221 L64,221 L64,222 L62,222 L62,223 L60,223 L60,224 L59,224 L59,225 L57,225 L57,226 L55,226 L55,227 L53,227 L53,228 L51,228 L51,229 L49,229 L49,230 L46,230 L46,231 L44,231 L44,232 L41,232 L41,233 L38,233 L38,234 L35,234 L35,235 L31,235 L31,236 L27,236 L27,237 L22,237 L22,238 L16,238 L16,239 L-14,239 L-14,238 L-20,238 L-20,237 L-25,237 L-25,236 L-29,236 L-29,235 L-33,235 L-33,234 L-36,234 L-36,233 L-39,233 L-39,232 L-42,232 L-42,231 L-44,231 L-44,230 L-47,230 L-47,229 L-49,229 L-49,228 L-51,228 L-51,227 L-53,227 L-53,226 L-55,226 L-55,225 L-57,225 L-57,224 L-58,224 L-58,223 L-60,223 L-60,222 L-62,222 L-62,221 L-63,221 L-63,220 L-65,220 L-65,219 L-66,219 L-66,218 L-68,218 L-68,217 L-69,217 L-69,216 L-71,216 L-71,215 L-72,215 L-72,214 L-73,214 L-73,213 L-74,213 L-74,212 L-76,212 L-76,211 L-77,211 L-77,210 L-78,210 L-78,209 L-79,209 L-79,208 L-80,208 L-80,207 L-81,207 L-81,206 L-82,206 L-82,205 L-83,205 L-83,204 L-84,204 L-84,203 L-85,203 L-85,202 L-86,202 L-86,201 L-87,201 L-87,200 L-88,200 L-88,199 L-89,199 L-89,198 L-90,198 L-90,197 L-91,197 L-91,195 L-92,195 L-92,194 L-93,194 L-93,193 L-94,193 L-94,192 L-95,192 L-95,190 L-96,190 L-96,189 L-97,189 L-97,187 L-98,187 L-98,186 L-99,186 L-99,184 L-100,184 L-100,183 L-101,183 L-101,181 L-102,181 L-102,179 L-103,179 L-103,178 L-104,178 L-104,176 L-105,176 L-105,174 L-106,174 L-106,172 L-107,172 L-107,170 L-108,170 L-108,168 L-109,168 L-109,165 L-110,165 L-110,163 L-111,163 L-111,160 L-112,160 L-112,157 L-113,157 L-113,154 L-114,154 L-114,151 L-115,151 L-115,146 L-116,146 L-116,142 L-117,142 L-117,135 L-118,135 L-118,105 L-117,105 L-117,98 L-116,98 L-116,94 L-115,94 L-115,89 L-114,89 L-114,86 L-113,86 L-113,83 L-112,83 L-112,80 L-111,80 L-111,77 L-110,77 L-110,75 L-109,75 L-109,72 L-108,72 L-108,70 L-107,70 L-107,68 L-106,68 L-106,66 L-105,66 L-105,64 L-104,64 L-104,62 L-103,62 L-103,60 L-102,60 L-102,59 L-101,59 L-101,57 L-100,57 L-100,56 L-99,56 L-99,54 L-98,54 L-98,53 L-97,53 L-97,51 L-96,51 L-96,50 L-95,50 L-95,48 L-94,48 L-94,47 L-93,47 L-93,46 L-92,46 L-92,45 L-91,45 L-91,43 L-90,43 L-90,42 L-89,42 L-89,41 L-88,41 L-88,40 L-87,40 L-87,39 L-86,39 L-86,38 L-85,38 L-85,37 L-84,37 L-84,36 L-83,36 L-83,35 L-82,35 L-82,34 L-81,34 L-81,33 L-80,33 L-80,32 L-79,32 L-79,31 L-78,31 L-78,30 L-77,30 L-77,29 L-76,29 L-76,28 L-74,28 L-74,27 L-73,27 L-73,26 L-72,26 L-72,25 L-71,25 L-71,24 L-69,24 L-69,23 L-68,23 L-68,22 L-66,22 L-66,21 L-65,21 L-65,20 L-63,20 L-63,19 L-62,19 L-62,18 L-60,18 L-60,17 L-59,17 L-59,16 L-57,16 L-57,15 L-55,15 L-55,14 L-53,14 L-53,13 L-51,13 L-51,12 L-49,12 L-49,11 L-47,11 L-47,10 L-44,10 L-44,9 L-42,9 L-42,8 L-39,8 L-39,7 L-36,7 L-36,6 L-33,6 L-33,5 L-30,5 L-30,4 L-25,4 L-25,3 L-21,3 L-21,2 L-14,2 L-14,1 L0,1 Z " fill="#AC86C2" transform="translate(255,136)"/>
<path d="M0,0 L1,0 L1,1 L0,1 Z M53,0 L54,0 L54,1 L53,1 Z M-38,16 L-37,16 L-37,17 L-38,17 Z M-41,18 L-40,18 L-40,19 L-41,19 Z M94,18 L95,18 L95,19 L94,19 Z M-49,24 L-48,24 L-48,25 L-49,25 Z M102,24 L103,24 L103,25 L102,25 Z M-66,41 L-65,41 L-65,42 L-66,42 Z M-72,49 L-71,49 L-71,50 L-72,50 Z M-93,116 L-92,116 L-92,117 L-93,117 Z M144,138 L145,138 L145,139 L144,139 Z M142,147 L143,147 L143,148 L142,148 Z M-77,176 L-76,176 L-76,177 L-77,177 Z M-33,220 L-32,220 L-32,221 L-33,221 Z " fill="#AC86C2" opacity="0.99607843" transform="translate(229,139)"/>
<path d="M0,0 L1,0 L1,1 L0,1 Z M-1,1 L0,1 L0,2 L-1,2 Z M-2,2 L-1,2 L-1,3 L-2,3 Z M-3,3 L-2,3 L-2,4 L-3,4 Z M-4,4 L-3,4 L-3,5 L-4,5 Z M-5,5 L-4,5 L-4,6 L-5,6 Z M-6,6 L-5,6 L-5,7 L-6,7 Z M-7,7 L-6,7 L-6,8 L-7,8 Z M-8,8 L-7,8 L-7,9 L-8,9 Z M-9,9 L-8,9 L-8,10 L-9,10 Z M-10,10 L-9,10 L-9,11 L-10,11 Z M-11,11 L-10,11 L-10,12 L-11,12 Z M-12,12 L-11,12 L-11,13 L-12,13 Z M-13,13 L-12,13 L-12,14 L-13,14 Z M-14,14 L-13,14 L-13,15 L-14,15 Z M-15,15 L-14,15 L-14,16 L-15,16 Z " fill="#AC86C2" transform="translate(179,164)"/>
<path d="M0,0 L1,0 L1,1 L0,1 Z " fill="#AC86C2" opacity="0.972549" transform="translate(255,375)"/>
<path d="M0,0 L1,0 L1,1 L0,1 Z " fill="#AC86C2" opacity="0.99215686" transform="translate(375,255)"/>
<path d="M0,0 L1,0 L1,1 L0,1 Z " fill="#AC86C2" opacity="0.83137256" transform="translate(176,166)"/>
<path d="M0,0 L1,0 L1,1 L0,1 Z " fill="#AC86C2" opacity="0.6509804" transform="translate(247,375)"/>
<path d="M0,0 L1,0 L1,1 L0,1 Z " fill="#AC86C2" opacity="0.91764706" transform="translate(221,370)"/>
<path d="M0,0 L1,0 L1,1 L0,1 Z " fill="#AD86C2" opacity="0.6666667" transform="translate(375,247)"/>
<path d="M0,0 L1,0 L1,1 L0,1 Z " fill="#AD86C3" opacity="0.6784314" transform="translate(136,247)"/>
<path d="M0,0 L1,0 L1,1 L0,1 Z " fill="#AC86C2" opacity="0.93333334" transform="translate(370,221)"/>
<path d="M0,0 L1,0 L1,1 L0,1 Z " fill="#AC86C2" opacity="0.94509804" transform="translate(141,221)"/>
<path d="M0,0 L1,0 L1,1 L0,1 Z " fill="#AC86C2" opacity="0.9372549" transform="translate(181,162)"/>
<path d="M0,0 L1,0 L1,1 L0,1 Z " fill="#AC86C2" opacity="0.9529412" transform="translate(221,141)"/>
<path d="M0,0 L1,0 L1,1 L0,1 Z " fill="#AC86C3" opacity="0.69411767" transform="translate(247,136)"/>
<path d="M0,0 L1,0 L1,1 L0,1 Z " fill="#AE87C3" opacity="0.33333334" transform="translate(268,375)"/>
<path d="M0,0 L1,0 L1,1 L0,1 Z " fill="#AD88C2" opacity="0.3764706" transform="translate(268,136)"/>
<path d="M0,0 L1,0 L1,1 L0,1 Z " fill="#AC86C2" opacity="0.9372549" transform="translate(215,368)"/>
<path d="M0,0 L1,0 L1,1 L0,1 Z " fill="#AD86C2" opacity="0.7019608" transform="translate(177,346)"/>
<path d="M0,0 L1,0 L1,1 L0,1 Z " fill="#AC86C2" opacity="0.99215686" transform="translate(163,331)"/>
<path d="M0,0 L1,0 L1,1 L0,1 Z " fill="#AC86C2" opacity="0.9490196" transform="translate(368,215)"/>
<path d="M0,0 L1,0 L1,1 L0,1 Z " fill="#AC86C2" opacity="0.9607843" transform="translate(143,215)"/>
<path d="M0,0 L1,0 L1,1 L0,1 Z " fill="#AD87C2" opacity="0.7137255" transform="translate(346,177)"/>
<path d="M0,0 L1,0 L1,1 L0,1 Z " fill="#AC86C2" opacity="0.7294118" transform="translate(165,177)"/>
<path d="M0,0 L1,0 L1,1 L0,1 Z " fill="#AC87C2" opacity="0.92156863" transform="translate(174,168)"/>
<path d="M0,0 L1,0 L1,1 L0,1 Z " fill="#AC86C2" opacity="0.9843137" transform="translate(210,145)"/>
<path d="M0,0 L1,0 L1,1 L0,1 Z " fill="#AC86C2" opacity="0.9647059" transform="translate(215,143)"/>
<path d="M0,0 L1,0 L1,1 L0,1 Z " fill="#AC86C2" opacity="0.84313726" transform="translate(261,375)"/>
<path d="M0,0 L1,0 L1,1 L0,1 Z " fill="#AC87C3" opacity="0.34901962" transform="translate(375,268)"/>
<path d="M0,0 L1,0 L1,1 L0,1 Z " fill="#AE87C2" opacity="0.35686275" transform="translate(136,268)"/>
<path d="M0,0 L1,0 L1,1 L0,1 Z " fill="#AC86C2" opacity="0.8862745" transform="translate(261,136)"/>
<path d="M0,0 L1,0 L1,1 L0,1 Z " fill="#AC86C2" opacity="0.87058824" transform="translate(251,375)"/>
<path d="M0,0 L1,0 L1,1 L0,1 Z " fill="#AE87C3" opacity="0.33333334" transform="translate(243,375)"/>
<path d="M0,0 L1,0 L1,1 L0,1 Z " fill="#AC86C2" opacity="0.03529412" transform="translate(277,374)"/>
<path d="M0,0 L1,0 L1,1 L0,1 Z " fill="#AD86C3" opacity="0.56078434" transform="translate(237,374)"/>
<path d="M0,0 L1,0 L1,1 L0,1 Z " fill="#AD86C2" opacity="0.6666667" transform="translate(232,373)"/>
<path d="M0,0 L1,0 L1,1 L0,1 Z " fill="#AC87C2" opacity="0.78039217" transform="translate(228,372)"/>
<path d="M0,0 L1,0 L1,1 L0,1 Z " fill="#AD86C3" opacity="0.32941177" transform="translate(198,361)"/>
<path d="M0,0 L1,0 L1,1 L0,1 Z " fill="#AD86C2" opacity="0.4392157" transform="translate(193,358)"/>
<path d="M0,0 L1,0 L1,1 L0,1 Z " fill="#AD86C3" opacity="0.5137255" transform="translate(190,356)"/>
<path d="M0,0 L1,0 L1,1 L0,1 Z M1,1 L2,1 L2,2 L1,2 Z " fill="#AC88C2" opacity="0.22745098" transform="translate(170,340)"/>
<path d="M0,0 L1,0 L1,1 L0,1 Z " fill="#AC86C2" opacity="0.99215686" transform="translate(157,323)"/>
<path d="M0,0 L1,0 L1,1 L0,1 Z " fill="#AC86C2" opacity="0.9882353" transform="translate(155,320)"/>
<path d="M0,0 L1,0 L1,1 L0,1 Z " fill="#AC86C2" opacity="0.9529412" transform="translate(153,317)"/>
<path d="M0,0 L1,0 L1,1 L0,1 Z " fill="#AF89C2" opacity="0.043137256" transform="translate(374,277)"/>
<path d="M0,0 L1,0 L1,1 L0,1 Z " fill="#AC88C2" opacity="0.050980393" transform="translate(137,277)"/>
<path d="M0,0 L1,0 L1,1 L0,1 Z " fill="#AD86C3" opacity="0.5137255" transform="translate(375,266)"/>
<path d="M0,0 L1,0 L1,1 L0,1 Z " fill="#AD87C2" opacity="0.5254902" transform="translate(136,266)"/>
<path d="M0,0 L1,0 L1,1 L0,1 Z " fill="#AC86C2" opacity="0.8862745" transform="translate(375,260)"/>
<path d="M0,0 L1,0 L1,1 L0,1 Z " fill="#AC86C2" opacity="0.89411765" transform="translate(136,260)"/>
<path d="M0,0 L1,0 L1,1 L0,1 Z " fill="#AC86C2" opacity="0.8862745" transform="translate(375,251)"/>
<path d="M0,0 L1,0 L1,1 L0,1 Z " fill="#AC86C2" opacity="0.89411765" transform="translate(136,251)"/>
<path d="M0,0 L1,0 L1,1 L0,1 Z " fill="#AD88C4" opacity="0.3529412" transform="translate(375,243)"/>
<path d="M0,0 L1,0 L1,1 L0,1 Z " fill="#AC88C2" opacity="0.36078432" transform="translate(136,243)"/>
<path d="M0,0 L1,0 L1,1 L0,1 Z " fill="#AC86C3" opacity="0.5764706" transform="translate(374,237)"/>
<path d="M0,0 L1,0 L1,1 L0,1 Z " fill="#AC87C2" opacity="0.5921569" transform="translate(137,237)"/>
<path d="M0,0 L1,0 L1,1 L0,1 Z " fill="#AC86C2" opacity="0.6862745" transform="translate(373,232)"/>
<path d="M0,0 L1,0 L1,1 L0,1 Z " fill="#AC87C2" opacity="0.69803923" transform="translate(138,232)"/>
<path d="M0,0 L1,0 L1,1 L0,1 Z " fill="#AD86C2" opacity="0.8" transform="translate(372,228)"/>
<path d="M0,0 L1,0 L1,1 L0,1 Z " fill="#AC86C2" opacity="0.8156863" transform="translate(139,228)"/>
<path d="M0,0 L1,0 L1,1 L0,1 Z " fill="#AE88C2" opacity="0.34509805" transform="translate(361,198)"/>
<path d="M0,0 L1,0 L1,1 L0,1 Z " fill="#AC88C2" opacity="0.36078432" transform="translate(150,198)"/>
<path d="M0,0 L1,0 L1,1 L0,1 Z " fill="#AC86C2" opacity="0.45490196" transform="translate(358,193)"/>
<path d="M0,0 L1,0 L1,1 L0,1 Z " fill="#AD87C2" opacity="0.4745098" transform="translate(153,193)"/>
<path d="M0,0 L1,0 L1,1 L0,1 Z " fill="#AD87C3" opacity="0.53333336" transform="translate(356,190)"/>
<path d="M0,0 L1,0 L1,1 L0,1 Z " fill="#AC86C2" opacity="0.87058824" transform="translate(156,189)"/>
<path d="M0,0 L1,0 L1,1 L0,1 Z " fill="#AD87C2" opacity="0.7882353" transform="translate(353,186)"/>
<path d="M0,0 L1,0 L1,1 L0,1 Z " fill="#AD86C2" opacity="0.8" transform="translate(158,186)"/>
<path d="M0,0 L1,0 L1,1 L0,1 Z " fill="#AD86C2" opacity="0.61960787" transform="translate(351,183)"/>
<path d="M0,0 L1,0 L1,1 L0,1 Z " fill="#AC86C2" opacity="0.63529414" transform="translate(160,183)"/>
<path d="M0,0 L1,0 L1,1 L0,1 Z M1,1 L2,1 L2,2 L1,2 Z " fill="#AD88C2" opacity="0.24313726" transform="translate(340,170)"/>
<path d="M0,0 L1,0 L1,1 L0,1 Z " fill="#AC87C2" opacity="0.6156863" transform="translate(178,164)"/>
<path d="M0,0 L1,0 L1,1 L0,1 Z " fill="#AD86C3" opacity="0.003921569" transform="translate(333,163)"/>
<path d="M0,0 L1,0 L1,1 L0,1 Z " fill="#AD86C3" opacity="0.6431373" transform="translate(183,160)"/>
<path d="M0,0 L1,0 L1,1 L0,1 Z " fill="#AC86C3" opacity="0.80784315" transform="translate(186,158)"/>
<path d="M0,0 L1,0 L1,1 L0,1 Z " fill="#AC86C2" opacity="0.8784314" transform="translate(189,156)"/>
<path d="M0,0 L1,0 L1,1 L0,1 Z " fill="#AC86C2" opacity="0.99215686" transform="translate(320,155)"/>
<path d="M0,0 L1,0 L1,1 L0,1 Z " fill="#AC86C2" opacity="0.827451" transform="translate(192,154)"/>
<path d="M0,0 L1,0 L1,1 L0,1 Z " fill="#AC86C2" opacity="0.9607843" transform="translate(317,153)"/>
<path d="M0,0 L1,0 L1,1 L0,1 Z " fill="#AC86C2" opacity="0.79607844" transform="translate(197,151)"/>
<path d="M0,0 L1,0 L1,1 L0,1 Z " fill="#AC86C2" opacity="0.827451" transform="translate(224,140)"/>
<path d="M0,0 L1,0 L1,1 L0,1 Z " fill="#AC86C2" opacity="0.827451" transform="translate(228,139)"/>
<path d="M0,0 L1,0 L1,1 L0,1 Z " fill="#AC86C3" opacity="0.70980394" transform="translate(232,138)"/>
<path d="M0,0 L1,0 L1,1 L0,1 Z " fill="#AC86C2" opacity="0.6039216" transform="translate(237,137)"/>
<path d="M0,0 L1,0 L1,1 L0,1 Z " fill="#AC86C2" opacity="0.9098039" transform="translate(251,136)"/>
<path d="M0,0 L1,0 L1,1 L0,1 Z " fill="#AD88C2" opacity="0.3764706" transform="translate(243,136)"/>
<path d="M0,0 L1,0 L1,1 L0,1 Z " fill="#AC86C3" opacity="0.3137255" transform="translate(285,372)"/>
<path d="M0,0 L1,0 L1,1 L0,1 Z " fill="#AF87C3" opacity="0.2" transform="translate(289,371)"/>
<path d="M0,0 L1,0 L1,1 L0,1 Z " fill="#AC88C4" opacity="0.3019608" transform="translate(292,370)"/>
<path d="M0,0 L1,0 L1,1 L0,1 Z " fill="#AF88C4" opacity="0.28627452" transform="translate(295,369)"/>
<path d="M0,0 L1,0 L1,1 L0,1 Z " fill="#AC86C2" opacity="0.9490196" transform="translate(185,352)"/>
<path d="M0,0 L1,0 L1,1 L0,1 Z " fill="#AC86C2" opacity="0.91764706" transform="translate(181,349)"/>
<path d="M0,0 L1,0 L1,1 L0,1 Z " fill="#AC86C2" opacity="0.8784314" transform="translate(175,344)"/>
<path d="M0,0 L1,0 L1,1 L0,1 Z " fill="#AC86C2" opacity="0.9254902" transform="translate(173,342)"/>
<path d="M0,0 L1,0 L1,1 L0,1 Z " fill="#AC86C3" opacity="0.90588236" transform="translate(168,337)"/>
<path d="M0,0 L1,0 L1,1 L0,1 Z " fill="#AC86C2" opacity="0.8039216" transform="translate(166,335)"/>
<path d="M0,0 L1,0 L1,1 L0,1 Z " fill="#AC86C3" opacity="0.7921569" transform="translate(161,329)"/>
<path d="M0,0 L1,0 L1,1 L0,1 Z " fill="#AC86C2" opacity="0.9490196" transform="translate(159,326)"/>
<path d="M0,0 L1,0 L1,1 L0,1 Z " fill="#AC88C4" opacity="0.3019608" transform="translate(369,295)"/>
<path d="M0,0 L1,0 L1,1 L0,1 Z " fill="#AD87C3" opacity="0.31764707" transform="translate(370,292)"/>
<path d="M0,0 L1,0 L1,1 L0,1 Z " fill="#AF89C2" opacity="0.21176471" transform="translate(371,289)"/>
<path d="M0,0 L1,0 L1,1 L0,1 Z " fill="#AD86C3" opacity="0.23137255" transform="translate(140,289)"/>
<path d="M0,0 L1,0 L1,1 L0,1 Z " fill="#AC87C2" opacity="0.3254902" transform="translate(372,285)"/>
<path d="M0,0 L1,0 L1,1 L0,1 Z " fill="#AE88C2" opacity="0.34509805" transform="translate(139,285)"/>
<path d="M0,0 L1,0 L1,1 L0,1 Z " fill="#AC86C2" opacity="0.9254902" transform="translate(349,181)"/>
<path d="M0,0 L1,0 L1,1 L0,1 Z " fill="#AC86C2" opacity="0.93333334" transform="translate(162,181)"/>
<path d="M0,0 L1,0 L1,1 L0,1 Z " fill="#AC86C3" opacity="0.8901961" transform="translate(344,175)"/>
<path d="M0,0 L1,0 L1,1 L0,1 Z " fill="#AC86C2" opacity="0.8980392" transform="translate(167,175)"/>
<path d="M0,0 L1,0 L1,1 L0,1 Z " fill="#AC86C2" opacity="0.93333334" transform="translate(342,173)"/>
<path d="M0,0 L1,0 L1,1 L0,1 Z " fill="#AC86C2" opacity="0.9372549" transform="translate(169,173)"/>
<path d="M0,0 L1,0 L1,1 L0,1 Z " fill="#AC86C2" opacity="0.9137255" transform="translate(337,168)"/>
<path d="M0,0 L1,0 L1,1 L0,1 Z " fill="#AC86C2" opacity="0.8156863" transform="translate(335,166)"/>
<path d="M0,0 L1,0 L1,1 L0,1 Z " fill="#AC86C2" opacity="0.8039216" transform="translate(329,161)"/>
<path d="M0,0 L1,0 L1,1 L0,1 Z " fill="#AC86C3" opacity="0.7921569" transform="translate(325,158)"/>
<path d="M0,0 L1,0 L1,1 L0,1 Z " fill="#AC88C4" opacity="0.2509804" transform="translate(289,140)"/>
<path d="M0,0 L1,0 L1,1 L0,1 Z " fill="#AC88C2" opacity="0.36078432" transform="translate(285,139)"/>
<path d="M0,0 L1,0 L1,1 L0,1 Z " fill="#AD88C2" opacity="0.24313726" transform="translate(276,137)"/>
<path d="M0,0 L1,0 L1,1 L0,1 Z " fill="#AD8CC6" opacity="0.12156863" transform="translate(270,136)"/>
<path d="M0,0 L1,0 L1,1 L0,1 Z " fill="#AC86C2" opacity="0.003921569" transform="translate(271,375)"/>
<path d="M0,0 L1,0 L1,1 L0,1 Z " fill="#AD87C3" opacity="0.49803922" transform="translate(266,375)"/>
<path d="M0,0 L1,0 L1,1 L0,1 Z " fill="#AC86C2" opacity="0.6509804" transform="translate(264,375)"/>
<path d="M0,0 L1,0 L1,1 L0,1 Z " fill="#AC86C2" opacity="0.8980392" transform="translate(259,375)"/>
<path d="M0,0 L1,0 L1,1 L0,1 Z " fill="#AC87C2" opacity="0.92156863" transform="translate(253,375)"/>
<path d="M0,0 L1,0 L1,1 L0,1 Z " fill="#AC86C2" opacity="0.8039216" transform="translate(249,375)"/>
<path d="M0,0 L1,0 L1,1 L0,1 Z " fill="#AD87C3" opacity="0.49803922" transform="translate(245,375)"/>
<path d="M0,0 L1,0 L1,1 L0,1 Z " fill="#B38CCC" opacity="0.078431375" transform="translate(241,375)"/>
<path d="M0,0 L1,0 L1,1 L0,1 Z " fill="#AD88C2" opacity="0.3764706" transform="translate(275,374)"/>
<path d="M0,0 L1,0 L1,1 L0,1 Z " fill="#AC87C2" opacity="0.69803923" transform="translate(273,374)"/>
<path d="M0,0 L1,0 L1,1 L0,1 Z " fill="#AC86C2" opacity="0.827451" transform="translate(239,374)"/>
<path d="M0,0 L1,0 L1,1 L0,1 Z " fill="#AF87C3" opacity="0.2" transform="translate(235,374)"/>
<path d="M0,0 L1,0 L1,1 L0,1 Z " fill="#AC86C2" opacity="0.03137255" transform="translate(282,373)"/>
<path d="M0,0 L1,0 L1,1 L0,1 Z " fill="#AC86C2" opacity="0.47058824" transform="translate(280,373)"/>
<path d="M0,0 L1,0 L1,1 L0,1 Z " fill="#AC86C2" opacity="0.99215686" transform="translate(234,373)"/>
<path d="M0,0 L1,0 L1,1 L0,1 Z " fill="#AC86C5" opacity="0.23921569" transform="translate(230,373)"/>
<path d="M0,0 L1,0 L1,1 L0,1 Z " fill="#AC86C3" opacity="0.3137255" transform="translate(226,372)"/>
<path d="M0,0 L1,0 L1,1 L0,1 Z " fill="#AD86C3" opacity="0.7764706" transform="translate(224,371)"/>
<path d="M0,0 L1,0 L1,1 L0,1 Z " fill="#AC89C4" opacity="0.20392157" transform="translate(222,371)"/>
<path d="M0,0 L1,0 L1,1 L0,1 Z " fill="#AE88C2" opacity="0.30980393" transform="translate(219,370)"/>
<path d="M0,0 L1,0 L1,1 L0,1 Z " fill="#AC86C2" opacity="0.9490196" transform="translate(218,369)"/>
<path d="M0,0 L1,0 L1,1 L0,1 Z " fill="#AE88C2" opacity="0.29411766" transform="translate(216,369)"/>
<path d="M0,0 L1,0 L1,1 L0,1 Z " fill="#AC86C2" opacity="0.003921569" transform="translate(299,368)"/>
<path d="M0,0 L1,0 L1,1 L0,1 Z " fill="#AF89C2" opacity="0.21176471" transform="translate(213,368)"/>
<path d="M0,0 L1,0 L1,1 L0,1 Z " fill="#AC86C2" opacity="0.0627451" transform="translate(301,367)"/>
<path d="M0,0 L1,0 L1,1 L0,1 Z " fill="#AD87C2" opacity="0.42352942" transform="translate(211,367)"/>
<path d="M0,0 L1,0 L1,1 L0,1 Z " fill="#AC86C2" opacity="0.63529414" transform="translate(209,366)"/>
<path d="M0,0 L1,0 L1,1 L0,1 Z " fill="#AC86C2" opacity="0.003921569" transform="translate(306,365)"/>
<path d="M0,0 L1,0 L1,1 L0,1 Z " fill="#AC86C5" opacity="0.2901961" transform="translate(206,365)"/>
<path d="M0,0 L1,0 L1,1 L0,1 Z " fill="#AC86C2" opacity="0.023529412" transform="translate(308,364)"/>
<path d="M0,0 L1,0 L1,1 L0,1 Z " fill="#AD86C4" opacity="0.3882353" transform="translate(204,364)"/>
<path d="M0,0 L1,0 L1,1 L0,1 Z " fill="#AD86C2" opacity="0.015686275" transform="translate(310,363)"/>
<path d="M0,0 L1,0 L1,1 L0,1 Z " fill="#AC86C3" opacity="0.39607844" transform="translate(202,363)"/>
<path d="M0,0 L1,0 L1,1 L0,1 Z " fill="#AC87C2" opacity="0.011764706" transform="translate(312,362)"/>
<path d="M0,0 L1,0 L1,1 L0,1 Z " fill="#AC86C2" opacity="0.37254903" transform="translate(200,362)"/>
<path d="M0,0 L1,0 L1,1 L0,1 Z " fill="#AC86C2" opacity="0.003921569" transform="translate(314,361)"/>
<path d="M0,0 L1,0 L1,1 L0,1 Z " fill="#AC87C2" opacity="0.75686276" transform="translate(197,360)"/>
<path d="M0,0 L1,0 L1,1 L0,1 Z " fill="#AD87C2" opacity="0.60784316" transform="translate(195,359)"/>
<path d="M0,0 L1,0 L1,1 L0,1 Z " fill="#AD86C3" opacity="0.007843138" transform="translate(319,358)"/>
<path d="M0,0 L1,0 L1,1 L0,1 Z " fill="#AD87C2" opacity="0.7882353" transform="translate(192,357)"/>
<path d="M0,0 L1,0 L1,1 L0,1 Z " fill="#AC87C2" opacity="0.02745098" transform="translate(322,356)"/>
<path d="M0,0 L1,0 L1,1 L0,1 Z " fill="#AC86C2" opacity="0.8509804" transform="translate(189,355)"/>
<path d="M0,0 L1,0 L1,1 L0,1 Z " fill="#AC87C2" opacity="0.011764706" transform="translate(325,354)"/>
<path d="M0,0 L1,0 L1,1 L0,1 Z " fill="#AC86C3" opacity="0.49411765" transform="translate(187,354)"/>
<path d="M0,0 L1,0 L1,1 L0,1 Z " fill="#AC87C2" opacity="0.6" transform="translate(183,351)"/>
<path d="M0,0 L1,0 L1,1 L0,1 Z " fill="#AC86C2" opacity="0.94509804" transform="translate(170,339)"/>
<path d="M0,0 L1,0 L1,1 L0,1 Z " fill="#AD86C2" opacity="0.011764706" transform="translate(354,325)"/>
<path d="M0,0 L1,0 L1,1 L0,1 Z " fill="#AC86C2" opacity="0.02745098" transform="translate(356,322)"/>
<path d="M0,0 L1,0 L1,1 L0,1 Z " fill="#AD88C2" opacity="0.011764706" transform="translate(358,319)"/>
<path d="M0,0 L1,0 L1,1 L0,1 Z " fill="#AC87C2" opacity="0.003921569" transform="translate(361,314)"/>
<path d="M0,0 L1,0 L1,1 L0,1 Z " fill="#AD87C2" opacity="0.003921569" transform="translate(150,314)"/>
<path d="M0,0 L1,0 L1,1 L0,1 Z " fill="#AE88C4" opacity="0.015686275" transform="translate(362,312)"/>
<path d="M0,0 L1,0 L1,1 L0,1 Z " fill="#AD86C4" opacity="0.019607844" transform="translate(149,312)"/>
<path d="M0,0 L1,0 L1,1 L0,1 Z " fill="#AE87C2" opacity="0.019607844" transform="translate(363,310)"/>
<path d="M0,0 L1,0 L1,1 L0,1 Z " fill="#AD87C3" opacity="0.023529412" transform="translate(148,310)"/>
<path d="M0,0 L1,0 L1,1 L0,1 Z " fill="#AC87C3" opacity="0.02745098" transform="translate(364,308)"/>
<path d="M0,0 L1,0 L1,1 L0,1 Z " fill="#AC87C2" opacity="0.03137255" transform="translate(147,308)"/>
<path d="M0,0 L1,0 L1,1 L0,1 Z " fill="#AE88C2" opacity="0.007843138" transform="translate(365,306)"/>
<path d="M0,0 L1,0 L1,1 L0,1 Z " fill="#AE88C2" opacity="0.007843138" transform="translate(146,306)"/>
<path d="M0,0 L1,0 L1,1 L0,1 Z " fill="#AC86C3" opacity="0.07058824" transform="translate(367,301)"/>
<path d="M0,0 L1,0 L1,1 L0,1 Z " fill="#B38CCC" opacity="0.078431375" transform="translate(144,301)"/>
<path d="M0,0 L1,0 L1,1 L0,1 Z " fill="#AC86C3" opacity="0.003921569" transform="translate(368,299)"/>
<path d="M0,0 L1,0 L1,1 L0,1 Z " fill="#AE88C4" opacity="0.003921569" transform="translate(143,299)"/>
<path d="M0,0 L1,0 L1,1 L0,1 Z " fill="#AE86C4" opacity="0.03529412" transform="translate(142,296)"/>
<path d="M0,0 L1,0 L1,1 L0,1 Z " fill="#AC88C4" opacity="0.043137256" transform="translate(141,293)"/>
<path d="M0,0 L1,0 L1,1 L0,1 Z " fill="#AC88C4" opacity="0.039215688" transform="translate(373,282)"/>
<path d="M0,0 L1,0 L1,1 L0,1 Z " fill="#AF89C2" opacity="0.047058824" transform="translate(138,282)"/>
<path d="M0,0 L1,0 L1,1 L0,1 Z " fill="#AC87C3" opacity="0.48235294" transform="translate(373,280)"/>
<path d="M0,0 L1,0 L1,1 L0,1 Z " fill="#AC86C3" opacity="0.49411765" transform="translate(138,280)"/>
<path d="M0,0 L1,0 L1,1 L0,1 Z " fill="#AE87C2" opacity="0.39215687" transform="translate(374,275)"/>
<path d="M0,0 L1,0 L1,1 L0,1 Z " fill="#AD86C4" opacity="0.40392157" transform="translate(137,275)"/>
<path d="M0,0 L1,0 L1,1 L0,1 Z " fill="#AC86C3" opacity="0.70980394" transform="translate(374,273)"/>
<path d="M0,0 L1,0 L1,1 L0,1 Z " fill="#AC86C3" opacity="0.7254902" transform="translate(137,273)"/>
<path d="M0,0 L1,0 L1,1 L0,1 Z " fill="#B290C8" opacity="0.003921569" transform="translate(375,271)"/>
<path d="M0,0 L1,0 L1,1 L0,1 Z " fill="#B48EC7" opacity="0.007843138" transform="translate(136,271)"/>
<path d="M0,0 L1,0 L1,1 L0,1 Z " fill="#AC86C3" opacity="0.6627451" transform="translate(375,264)"/>
<path d="M0,0 L1,0 L1,1 L0,1 Z " fill="#AC87C2" opacity="0.6745098" transform="translate(136,264)"/>
<path d="M0,0 L1,0 L1,1 L0,1 Z " fill="#AC86C2" opacity="0.9372549" transform="translate(375,258)"/>
<path d="M0,0 L1,0 L1,1 L0,1 Z " fill="#AC86C2" opacity="0.94509804" transform="translate(136,258)"/>
<path d="M0,0 L1,0 L1,1 L0,1 Z " fill="#AC86C2" opacity="0.9372549" transform="translate(375,253)"/>
<path d="M0,0 L1,0 L1,1 L0,1 Z " fill="#AC86C2" opacity="0.94509804" transform="translate(136,253)"/>
<path d="M0,0 L1,0 L1,1 L0,1 Z " fill="#AC86C2" opacity="0.81960785" transform="translate(375,249)"/>
<path d="M0,0 L1,0 L1,1 L0,1 Z " fill="#AC86C2" opacity="0.83137256" transform="translate(136,249)"/>
<path d="M0,0 L1,0 L1,1 L0,1 Z " fill="#AD86C3" opacity="0.5137255" transform="translate(375,245)"/>
<path d="M0,0 L1,0 L1,1 L0,1 Z " fill="#AD87C2" opacity="0.5254902" transform="translate(136,245)"/>
<path d="M0,0 L1,0 L1,1 L0,1 Z " fill="#AE8FC2" opacity="0.09803922" transform="translate(375,241)"/>
<path d="M0,0 L1,0 L1,1 L0,1 Z " fill="#AD89C9" opacity="0.10980392" transform="translate(136,241)"/>
<path d="M0,0 L1,0 L1,1 L0,1 Z " fill="#AC86C2" opacity="0.84313726" transform="translate(374,239)"/>
<path d="M0,0 L1,0 L1,1 L0,1 Z " fill="#AD86C2" opacity="0.85882354" transform="translate(137,239)"/>
<path d="M0,0 L1,0 L1,1 L0,1 Z " fill="#AD89C4" opacity="0.21960784" transform="translate(374,235)"/>
<path d="M0,0 L1,0 L1,1 L0,1 Z " fill="#AD86C3" opacity="0.23137255" transform="translate(137,235)"/>
<path d="M0,0 L1,0 L1,1 L0,1 Z " fill="#AE87C5" opacity="0.25882354" transform="translate(373,230)"/>
<path d="M0,0 L1,0 L1,1 L0,1 Z " fill="#AF87C5" opacity="0.27450982" transform="translate(138,230)"/>
<path d="M0,0 L1,0 L1,1 L0,1 Z " fill="#AE87C3" opacity="0.33333334" transform="translate(372,226)"/>
<path d="M0,0 L1,0 L1,1 L0,1 Z " fill="#AD88C4" opacity="0.3529412" transform="translate(139,226)"/>
<path d="M0,0 L1,0 L1,1 L0,1 Z " fill="#AC86C2" opacity="0.79607844" transform="translate(371,224)"/>
<path d="M0,0 L1,0 L1,1 L0,1 Z " fill="#AC86C2" opacity="0.8156863" transform="translate(140,224)"/>
<path d="M0,0 L1,0 L1,1 L0,1 Z " fill="#AF86C5" opacity="0.22352941" transform="translate(371,222)"/>
<path d="M0,0 L1,0 L1,1 L0,1 Z " fill="#AD88C2" opacity="0.24313726" transform="translate(140,222)"/>
<path d="M0,0 L1,0 L1,1 L0,1 Z " fill="#AD86C3" opacity="0.32941177" transform="translate(370,219)"/>
<path d="M0,0 L1,0 L1,1 L0,1 Z " fill="#AC87C3" opacity="0.34901962" transform="translate(141,219)"/>
<path d="M0,0 L1,0 L1,1 L0,1 Z " fill="#AC86C2" opacity="0.95686275" transform="translate(369,218)"/>
<path d="M0,0 L1,0 L1,1 L0,1 Z " fill="#AC86C2" opacity="0.96862745" transform="translate(142,218)"/>
<path d="M0,0 L1,0 L1,1 L0,1 Z " fill="#AC86C3" opacity="0.3137255" transform="translate(369,216)"/>
<path d="M0,0 L1,0 L1,1 L0,1 Z " fill="#AE87C3" opacity="0.33333334" transform="translate(142,216)"/>
<path d="M0,0 L1,0 L1,1 L0,1 Z " fill="#AD86C3" opacity="0.23137255" transform="translate(368,213)"/>
<path d="M0,0 L1,0 L1,1 L0,1 Z " fill="#AE86C3" opacity="0.24705882" transform="translate(143,213)"/>
<path d="M0,0 L1,0 L1,1 L0,1 Z " fill="#AC87C2" opacity="0.44313726" transform="translate(367,211)"/>
<path d="M0,0 L1,0 L1,1 L0,1 Z " fill="#AC87C2" opacity="0.45882353" transform="translate(144,211)"/>
<path d="M0,0 L1,0 L1,1 L0,1 Z " fill="#AD86C2" opacity="0.654902" transform="translate(366,209)"/>
<path d="M0,0 L1,0 L1,1 L0,1 Z " fill="#AD86C2" opacity="0.6666667" transform="translate(145,209)"/>
<path d="M0,0 L1,0 L1,1 L0,1 Z " fill="#AD86C4" opacity="0.30588236" transform="translate(365,206)"/>
<path d="M0,0 L1,0 L1,1 L0,1 Z " fill="#AC87C2" opacity="0.3254902" transform="translate(146,206)"/>
<path d="M0,0 L1,0 L1,1 L0,1 Z " fill="#AD87C3" opacity="0.4" transform="translate(364,204)"/>
<path d="M0,0 L1,0 L1,1 L0,1 Z " fill="#AD87C2" opacity="0.42352942" transform="translate(147,204)"/>
<path d="M0,0 L1,0 L1,1 L0,1 Z " fill="#AD86C3" opacity="0.4117647" transform="translate(363,202)"/>
<path d="M0,0 L1,0 L1,1 L0,1 Z " fill="#AC88C4" opacity="0.43529412" transform="translate(148,202)"/>
<path d="M0,0 L1,0 L1,1 L0,1 Z " fill="#AD86C4" opacity="0.3882353" transform="translate(362,200)"/>
<path d="M0,0 L1,0 L1,1 L0,1 Z " fill="#AC87C2" opacity="0.40784314" transform="translate(149,200)"/>
<path d="M0,0 L1,0 L1,1 L0,1 Z " fill="#AC87C2" opacity="0.77254903" transform="translate(360,197)"/>
<path d="M0,0 L1,0 L1,1 L0,1 Z " fill="#AD87C2" opacity="0.7882353" transform="translate(151,197)"/>
<path d="M0,0 L1,0 L1,1 L0,1 Z " fill="#AC87C2" opacity="0.62352943" transform="translate(359,195)"/>
<path d="M0,0 L1,0 L1,1 L0,1 Z " fill="#AD86C3" opacity="0.6431373" transform="translate(152,195)"/>
<path d="M0,0 L1,0 L1,1 L0,1 Z " fill="#AC86C2" opacity="0.8039216" transform="translate(357,192)"/>
<path d="M0,0 L1,0 L1,1 L0,1 Z " fill="#AC86C2" opacity="0.81960785" transform="translate(154,192)"/>
<path d="M0,0 L1,0 L1,1 L0,1 Z " fill="#AD86C2" opacity="0.85882354" transform="translate(355,189)"/>
<path d="M0,0 L1,0 L1,1 L0,1 Z " fill="#AD87C2" opacity="0.4745098" transform="translate(163,179)"/>
<path d="M0,0 L1,0 L1,1 L0,1 Z " fill="#AC86C2" opacity="0.9490196" transform="translate(339,170)"/>
<path d="M0,0 L1,0 L1,1 L0,1 Z M-1,1 L0,1 L0,2 L-1,2 Z " fill="#AC88C4" opacity="0.2509804" transform="translate(171,170)"/>
<path d="M0,0 L1,0 L1,1 L0,1 Z " fill="#AC86C2" opacity="0.9372549" transform="translate(173,169)"/>
<path d="M0,0 L1,0 L1,1 L0,1 Z " fill="#AC86C2" opacity="0.8980392" transform="translate(175,167)"/>
<path d="M0,0 L1,0 L1,1 L0,1 Z " fill="#AC86C2" opacity="0.73333335" transform="translate(177,165)"/>
<path d="M0,0 L1,0 L1,1 L0,1 Z " fill="#AC86C3" opacity="0.47843137" transform="translate(179,163)"/>
<path d="M0,0 L1,0 L1,1 L0,1 Z " fill="#AC86C2" opacity="0.81960785" transform="translate(182,161)"/>
<path d="M0,0 L1,0 L1,1 L0,1 Z " fill="#AD86C4" opacity="0.003921569" transform="translate(328,159)"/>
<path d="M0,0 L1,0 L1,1 L0,1 Z " fill="#AC87C2" opacity="0.40784314" transform="translate(184,159)"/>
<path d="M0,0 L1,0 L1,1 L0,1 Z " fill="#AD86C2" opacity="0.5372549" transform="translate(187,157)"/>
<path d="M0,0 L1,0 L1,1 L0,1 Z " fill="#AD86C3" opacity="0.56078434" transform="translate(190,155)"/>
<path d="M0,0 L1,0 L1,1 L0,1 Z " fill="#AD86C2" opacity="0.4862745" transform="translate(193,153)"/>
<path d="M0,0 L1,0 L1,1 L0,1 Z " fill="#AD86C2" opacity="0.654902" transform="translate(195,152)"/>
<path d="M0,0 L1,0 L1,1 L0,1 Z " fill="#AC88C2" opacity="0.007843138" transform="translate(314,150)"/>
<path d="M0,0 L1,0 L1,1 L0,1 Z " fill="#AC86C2" opacity="0.37254903" transform="translate(198,150)"/>
<path d="M0,0 L1,0 L1,1 L0,1 Z " fill="#AC87C2" opacity="0.023529412" transform="translate(312,149)"/>
<path d="M0,0 L1,0 L1,1 L0,1 Z " fill="#AC88C4" opacity="0.41960785" transform="translate(200,149)"/>
<path d="M0,0 L1,0 L1,1 L0,1 Z " fill="#AC88C4" opacity="0.03137255" transform="translate(310,148)"/>
<path d="M0,0 L1,0 L1,1 L0,1 Z " fill="#AC86C3" opacity="0.44705883" transform="translate(202,148)"/>
<path d="M0,0 L1,0 L1,1 L0,1 Z " fill="#AD88C2" opacity="0.039215688" transform="translate(308,147)"/>
<path d="M0,0 L1,0 L1,1 L0,1 Z " fill="#AD86C2" opacity="0.4392157" transform="translate(204,147)"/>
<path d="M0,0 L1,0 L1,1 L0,1 Z " fill="#AD86C3" opacity="0.011764706" transform="translate(306,146)"/>
<path d="M0,0 L1,0 L1,1 L0,1 Z " fill="#AC88C4" opacity="0.3372549" transform="translate(206,146)"/>
<path d="M0,0 L1,0 L1,1 L0,1 Z " fill="#AE88C4" opacity="0.003921569" transform="translate(304,145)"/>
<path d="M0,0 L1,0 L1,1 L0,1 Z " fill="#AC86C5" opacity="0.23921569" transform="translate(208,145)"/>
<path d="M0,0 L1,0 L1,1 L0,1 Z " fill="#B290C8" opacity="0.09019608" transform="translate(301,144)"/>
<path d="M0,0 L1,0 L1,1 L0,1 Z " fill="#AC86C2" opacity="0.47058824" transform="translate(211,144)"/>
<path d="M0,0 L1,0 L1,1 L0,1 Z " fill="#AD89C4" opacity="0.003921569" transform="translate(299,143)"/>
<path d="M0,0 L1,0 L1,1 L0,1 Z " fill="#AE87C5" opacity="0.25882354" transform="translate(213,143)"/>
<path d="M0,0 L1,0 L1,1 L0,1 Z " fill="#AC88C4" opacity="0.043137256" transform="translate(296,142)"/>
<path d="M0,0 L1,0 L1,1 L0,1 Z " fill="#AC86C2" opacity="0.972549" transform="translate(218,142)"/>
<path d="M0,0 L1,0 L1,1 L0,1 Z " fill="#AE88C2" opacity="0.34509805" transform="translate(216,142)"/>
<path d="M0,0 L1,0 L1,1 L0,1 Z " fill="#AD88C4" opacity="0.050980393" transform="translate(293,141)"/>
<path d="M0,0 L1,0 L1,1 L0,1 Z " fill="#AC88C2" opacity="0.36078432" transform="translate(219,141)"/>
<path d="M0,0 L1,0 L1,1 L0,1 Z " fill="#AD89C4" opacity="0.25490198" transform="translate(222,140)"/>
<path d="M0,0 L1,0 L1,1 L0,1 Z " fill="#AD86C3" opacity="0.3647059" transform="translate(226,139)"/>
<path d="M0,0 L1,0 L1,1 L0,1 Z " fill="#AE87C3" opacity="0.05882353" transform="translate(282,138)"/>
<path d="M0,0 L1,0 L1,1 L0,1 Z " fill="#AD86C3" opacity="0.5137255" transform="translate(280,138)"/>
<path d="M0,0 L1,0 L1,1 L0,1 Z " fill="#AF88C4" opacity="0.28627452" transform="translate(230,138)"/>
<path d="M0,0 L1,0 L1,1 L0,1 Z " fill="#AC87C2" opacity="0.6" transform="translate(274,137)"/>
<path d="M0,0 L1,0 L1,1 L0,1 Z " fill="#AC86C2" opacity="0.8745098" transform="translate(239,137)"/>
<path d="M0,0 L1,0 L1,1 L0,1 Z " fill="#AE86C3" opacity="0.24705882" transform="translate(235,137)"/>
<path d="M0,0 L1,0 L1,1 L0,1 Z " fill="#AC87C2" opacity="0.5411765" transform="translate(266,136)"/>
<path d="M0,0 L1,0 L1,1 L0,1 Z " fill="#AC86C3" opacity="0.69411767" transform="translate(264,136)"/>
<path d="M0,0 L1,0 L1,1 L0,1 Z " fill="#AC86C2" opacity="0.9372549" transform="translate(259,136)"/>
<path d="M0,0 L1,0 L1,1 L0,1 Z " fill="#AC86C2" opacity="0.9607843" transform="translate(253,136)"/>
<path d="M0,0 L1,0 L1,1 L0,1 Z " fill="#AD87C2" opacity="0.84705883" transform="translate(249,136)"/>
<path d="M0,0 L1,0 L1,1 L0,1 Z " fill="#AC87C2" opacity="0.5411765" transform="translate(245,136)"/>
<path d="M0,0 L1,0 L1,1 L0,1 Z " fill="#AD8CC6" opacity="0.12156863" transform="translate(241,136)"/>
<path d="M0,0 L2,0 L2,1 L0,1 Z " fill="#AC86C2" opacity="0.007843138" transform="translate(255,135)"/>
<path d="M0,0 L1,0 L1,1 L0,1 Z " fill="#B38CCC" opacity="0.078431375" transform="translate(270,375)"/>
<path d="M0,0 L1,0 L1,1 L0,1 Z " fill="#AC89C4" opacity="0.20392157" transform="translate(269,375)"/>
<path d="M0,0 L1,0 L1,1 L0,1 Z " fill="#AD87C2" opacity="0.42352942" transform="translate(267,375)"/>
<path d="M0,0 L1,0 L1,1 L0,1 Z " fill="#AD87C2" opacity="0.57254905" transform="translate(265,375)"/>
<path d="M0,0 L1,0 L1,1 L0,1 Z " fill="#AC86C3" opacity="0.7254902" transform="translate(263,375)"/>
<path d="M0,0 L1,0 L1,1 L0,1 Z " fill="#AC86C2" opacity="0.8039216" transform="translate(262,375)"/>
<path d="M0,0 L1,0 L1,1 L0,1 Z " fill="#AC86C2" opacity="0.87058824" transform="translate(260,375)"/>
<path d="M0,0 L1,0 L1,1 L0,1 Z " fill="#AC87C2" opacity="0.92156863" transform="translate(258,375)"/>
<path d="M0,0 L1,0 L1,1 L0,1 Z " fill="#AC86C2" opacity="0.9490196" transform="translate(257,375)"/>
<path d="M0,0 L1,0 L1,1 L0,1 Z " fill="#AC86C2" opacity="0.9764706" transform="translate(256,375)"/>
<path d="M0,0 L1,0 L1,1 L0,1 Z " fill="#AC86C2" opacity="0.9490196" transform="translate(254,375)"/>
<path d="M0,0 L1,0 L1,1 L0,1 Z " fill="#AC86C2" opacity="0.8980392" transform="translate(252,375)"/>
<path d="M0,0 L1,0 L1,1 L0,1 Z " fill="#AC86C2" opacity="0.84313726" transform="translate(250,375)"/>
<path d="M0,0 L1,0 L1,1 L0,1 Z " fill="#AC86C3" opacity="0.7254902" transform="translate(248,375)"/>
<path d="M0,0 L1,0 L1,1 L0,1 Z " fill="#AC86C3" opacity="0.5764706" transform="translate(246,375)"/>
<path d="M0,0 L1,0 L1,1 L0,1 Z " fill="#AD87C2" opacity="0.42352942" transform="translate(244,375)"/>
<path d="M0,0 L1,0 L1,1 L0,1 Z " fill="#AD87C6" opacity="0.20784314" transform="translate(242,375)"/>
<path d="M0,0 L1,0 L1,1 L0,1 Z " fill="#AC86C2" opacity="0.003921569" transform="translate(240,375)"/>
<path d="M0,0 L1,0 L1,1 L0,1 Z " fill="#AE8AC2" opacity="0.19607843" transform="translate(276,374)"/>
<path d="M0,0 L1,0 L1,1 L0,1 Z " fill="#AD87C2" opacity="0.5568628" transform="translate(274,374)"/>
<path d="M0,0 L1,0 L1,1 L0,1 Z " fill="#AD86C3" opacity="0.8235294" transform="translate(272,374)"/>
<path d="M0,0 L1,0 L1,1 L0,1 Z " fill="#AC86C2" opacity="0.9529412" transform="translate(271,374)"/>
<path d="M0,0 L1,0 L1,1 L0,1 Z " fill="#AC86C2" opacity="0.95686275" transform="translate(240,374)"/>
<path d="M0,0 L1,0 L1,1 L0,1 Z " fill="#AC87C2" opacity="0.69803923" transform="translate(238,374)"/>
<path d="M0,0 L1,0 L1,1 L0,1 Z " fill="#AE86C3" opacity="0.38039216" transform="translate(236,374)"/>
<path d="M0,0 L1,0 L1,1 L0,1 Z " fill="#AC86C2" opacity="0.03529412" transform="translate(234,374)"/>
<path d="M0,0 L1,0 L1,1 L0,1 Z " fill="#AE88C4" opacity="0.23529412" transform="translate(281,373)"/>
<path d="M0,0 L1,0 L1,1 L0,1 Z " fill="#AD86C2" opacity="0.6666667" transform="translate(279,373)"/>
<path d="M0,0 L1,0 L1,1 L0,1 Z " fill="#AC86C2" opacity="0.84313726" transform="translate(278,373)"/>
<path d="M0,0 L1,0 L1,1 L0,1 Z " fill="#AC86C2" opacity="0.99215686" transform="translate(277,373)"/>
<path d="M0,0 L1,0 L1,1 L0,1 Z " fill="#AD87C2" opacity="0.84705883" transform="translate(233,373)"/>
<path d="M0,0 L1,0 L1,1 L0,1 Z " fill="#AC86C2" opacity="0.47058824" transform="translate(231,373)"/>
<path d="M0,0 L1,0 L1,1 L0,1 Z " fill="#AC86C2" opacity="0.03529412" transform="translate(229,373)"/>
<path d="M0,0 L1,0 L1,1 L0,1 Z " fill="#AC86C2" opacity="0.06666667" transform="translate(286,372)"/>
<path d="M0,0 L1,0 L1,1 L0,1 Z " fill="#AD86C3" opacity="0.54509807" transform="translate(284,372)"/>
<path d="M0,0 L1,0 L1,1 L0,1 Z " fill="#AD86C3" opacity="0.7764706" transform="translate(283,372)"/>
<path d="M0,0 L1,0 L1,1 L0,1 Z " fill="#AC86C2" opacity="0.98039216" transform="translate(282,372)"/>
<path d="M0,0 L1,0 L1,1 L0,1 Z " fill="#AC86C2" opacity="0.98039216" transform="translate(229,372)"/>
<path d="M0,0 L1,0 L1,1 L0,1 Z " fill="#AD86C3" opacity="0.54509807" transform="translate(227,372)"/>
<path d="M0,0 L1,0 L1,1 L0,1 Z " fill="#AC86C2" opacity="0.07058824" transform="translate(225,372)"/>
<path d="M0,0 L1,0 L1,1 L0,1 Z " fill="#AC86C2" opacity="0.007843138" transform="translate(290,371)"/>
<path d="M0,0 L1,0 L1,1 L0,1 Z " fill="#AD86C2" opacity="0.4862745" transform="translate(288,371)"/>
<path d="M0,0 L1,0 L1,1 L0,1 Z " fill="#AC86C2" opacity="0.76862746" transform="translate(287,371)"/>
<path d="M0,0 L1,0 L1,1 L0,1 Z " fill="#AC86C2" opacity="0.99215686" transform="translate(286,371)"/>
<path d="M0,0 L1,0 L1,1 L0,1 Z " fill="#AC86C2" opacity="0.99215686" transform="translate(225,371)"/>
<path d="M0,0 L1,0 L1,1 L0,1 Z " fill="#AC87C2" opacity="0.49019608" transform="translate(223,371)"/>
<path d="M0,0 L1,0 L1,1 L0,1 Z " fill="#AC86C2" opacity="0.007843138" transform="translate(221,371)"/>
<path d="M0,0 L1,0 L1,1 L0,1 Z " fill="#AC86C2" opacity="0.02745098" transform="translate(293,370)"/>
<path d="M0,0 L1,0 L1,1 L0,1 Z " fill="#AD87C3" opacity="0.6313726" transform="translate(291,370)"/>
<path d="M0,0 L1,0 L1,1 L0,1 Z " fill="#AC86C2" opacity="0.9137255" transform="translate(290,370)"/>
<path d="M0,0 L1,0 L1,1 L0,1 Z " fill="#AC87C2" opacity="0.6392157" transform="translate(220,370)"/>
<path d="M0,0 L1,0 L1,1 L0,1 Z " fill="#AC86C2" opacity="0.03137255" transform="translate(218,370)"/>
<path d="M0,0 L1,0 L1,1 L0,1 Z " fill="#AC86C2" opacity="0.023529412" transform="translate(296,369)"/>
<path d="M0,0 L1,0 L1,1 L0,1 Z " fill="#AC86C3" opacity="0.627451" transform="translate(294,369)"/>
<path d="M0,0 L1,0 L1,1 L0,1 Z " fill="#AC86C2" opacity="0.9411765" transform="translate(293,369)"/>
<path d="M0,0 L1,0 L1,1 L0,1 Z " fill="#AC86C2" opacity="0.63529414" transform="translate(217,369)"/>
<path d="M0,0 L1,0 L1,1 L0,1 Z " fill="#AC86C2" opacity="0.023529412" transform="translate(215,369)"/>
<path d="M0,0 L1,0 L1,1 L0,1 Z " fill="#AC89C4" opacity="0.20392157" transform="translate(298,368)"/>
<path d="M0,0 L1,0 L1,1 L0,1 Z " fill="#AC87C2" opacity="0.6" transform="translate(297,368)"/>
<path d="M0,0 L1,0 L1,1 L0,1 Z " fill="#AC86C2" opacity="0.93333334" transform="translate(296,368)"/>
<path d="M0,0 L1,0 L1,1 L0,1 Z " fill="#AD87C2" opacity="0.60784316" transform="translate(214,368)"/>
<path d="M0,0 L1,0 L1,1 L0,1 Z " fill="#AC86C2" opacity="0.003921569" transform="translate(212,368)"/>
<path d="M0,0 L1,0 L1,1 L0,1 Z " fill="#AC88C4" opacity="0.41960785" transform="translate(300,367)"/>
<path d="M0,0 L1,0 L1,1 L0,1 Z " fill="#AC86C2" opacity="0.8156863" transform="translate(299,367)"/>
<path d="M0,0 L1,0 L1,1 L0,1 Z " fill="#AC86C2" opacity="0.81960785" transform="translate(212,367)"/>
<path d="M0,0 L1,0 L1,1 L0,1 Z " fill="#AC86C2" opacity="0.06666667" transform="translate(210,367)"/>
<path d="M0,0 L1,0 L1,1 L0,1 Z " fill="#AC87C6" opacity="0.19215687" transform="translate(303,366)"/>
<path d="M0,0 L1,0 L1,1 L0,1 Z " fill="#AD87C3" opacity="0.6313726" transform="translate(302,366)"/>
<path d="M0,0 L1,0 L1,1 L0,1 Z " fill="#AC86C2" opacity="0.96862745" transform="translate(301,366)"/>
<path d="M0,0 L1,0 L1,1 L0,1 Z " fill="#AC86C2" opacity="0.96862745" transform="translate(210,366)"/>
<path d="M0,0 L1,0 L1,1 L0,1 Z " fill="#AE8AC2" opacity="0.19607843" transform="translate(208,366)"/>
<path d="M0,0 L1,0 L1,1 L0,1 Z " fill="#AE87C3" opacity="0.28235295" transform="translate(305,365)"/>
<path d="M0,0 L1,0 L1,1 L0,1 Z " fill="#AC86C2" opacity="0.7372549" transform="translate(304,365)"/>
<path d="M0,0 L1,0 L1,1 L0,1 Z " fill="#AC86C2" opacity="0.74509805" transform="translate(207,365)"/>
<path d="M0,0 L1,0 L1,1 L0,1 Z " fill="#AC87C2" opacity="0.007843138" transform="translate(205,365)"/>
<path d="M0,0 L1,0 L1,1 L0,1 Z " fill="#AD88C2" opacity="0.3764706" transform="translate(307,364)"/>
<path d="M0,0 L1,0 L1,1 L0,1 Z " fill="#AC86C2" opacity="0.83137256" transform="translate(306,364)"/>
<path d="M0,0 L1,0 L1,1 L0,1 Z " fill="#AC87C2" opacity="0.8392157" transform="translate(205,364)"/>
<path d="M0,0 L1,0 L1,1 L0,1 Z " fill="#AC86C2" opacity="0.02745098" transform="translate(203,364)"/>
<path d="M0,0 L1,0 L1,1 L0,1 Z " fill="#AC87C3" opacity="0.38431373" transform="translate(309,363)"/>
<path d="M0,0 L1,0 L1,1 L0,1 Z " fill="#AC86C2" opacity="0.8784314" transform="translate(308,363)"/>
<path d="M0,0 L1,0 L1,1 L0,1 Z " fill="#AC86C2" opacity="0.8862745" transform="translate(203,363)"/>
<path d="M0,0 L1,0 L1,1 L0,1 Z " fill="#AC86C2" opacity="0.019607844" transform="translate(201,363)"/>
<path d="M0,0 L1,0 L1,1 L0,1 Z " fill="#AC88C2" opacity="0.36078432" transform="translate(311,362)"/>
<path d="M0,0 L1,0 L1,1 L0,1 Z " fill="#AD86C2" opacity="0.85882354" transform="translate(310,362)"/>
<path d="M0,0 L1,0 L1,1 L0,1 Z " fill="#AC86C2" opacity="0.87058824" transform="translate(201,362)"/>
<path d="M0,0 L1,0 L1,1 L0,1 Z " fill="#AC86C2" opacity="0.015686275" transform="translate(199,362)"/>
<path d="M0,0 L1,0 L1,1 L0,1 Z " fill="#AD87C3" opacity="0.31764707" transform="translate(313,361)"/>
<path d="M0,0 L1,0 L1,1 L0,1 Z " fill="#AC87C2" opacity="0.8392157" transform="translate(312,361)"/>
<path d="M0,0 L1,0 L1,1 L0,1 Z " fill="#AC86C2" opacity="0.8509804" transform="translate(199,361)"/>
<path d="M0,0 L1,0 L1,1 L0,1 Z " fill="#AC87C2" opacity="0.003921569" transform="translate(197,361)"/>
<path d="M0,0 L1,0 L1,1 L0,1 Z " fill="#AC8BC2" opacity="0.18039216" transform="translate(315,360)"/>
<path d="M0,0 L1,0 L1,1 L0,1 Z " fill="#AC86C2" opacity="0.74509805" transform="translate(314,360)"/>
<path d="M0,0 L1,0 L1,1 L0,1 Z " fill="#AC87C6" opacity="0.19215687" transform="translate(196,360)"/>
<path d="M0,0 L1,0 L1,1 L0,1 Z " fill="#B686C3" opacity="0.08235294" transform="translate(317,359)"/>
<path d="M0,0 L1,0 L1,1 L0,1 Z " fill="#AC87C2" opacity="0.5921569" transform="translate(316,359)"/>
<path d="M0,0 L1,0 L1,1 L0,1 Z " fill="#AC86C2" opacity="0.99215686" transform="translate(315,359)"/>
<path d="M0,0 L1,0 L1,1 L0,1 Z " fill="#B290C8" opacity="0.09019608" transform="translate(194,359)"/>
<path d="M0,0 L1,0 L1,1 L0,1 Z " fill="#AC88C4" opacity="0.41960785" transform="translate(318,358)"/>
<path d="M0,0 L1,0 L1,1 L0,1 Z " fill="#AC86C2" opacity="0.9411765" transform="translate(317,358)"/>
<path d="M0,0 L1,0 L1,1 L0,1 Z " fill="#AC86C2" opacity="0.9490196" transform="translate(194,358)"/>
<path d="M0,0 L1,0 L1,1 L0,1 Z " fill="#AD87C2" opacity="0.011764706" transform="translate(192,358)"/>
<path d="M0,0 L1,0 L1,1 L0,1 Z " fill="#AC88C4" opacity="0.16862746" transform="translate(320,357)"/>
<path d="M0,0 L1,0 L1,1 L0,1 Z " fill="#AD86C3" opacity="0.7764706" transform="translate(319,357)"/>
<path d="M0,0 L1,0 L1,1 L0,1 Z " fill="#AC8BC2" opacity="0.18039216" transform="translate(191,357)"/>
<path d="M0,0 L1,0 L1,1 L0,1 Z " fill="#AC86C2" opacity="0.5019608" transform="translate(321,356)"/>
<path d="M0,0 L1,0 L1,1 L0,1 Z " fill="#AC86C2" opacity="0.98039216" transform="translate(320,356)"/>
<path d="M0,0 L1,0 L1,1 L0,1 Z " fill="#AC86C2" opacity="0.9843137" transform="translate(191,356)"/>
<path d="M0,0 L1,0 L1,1 L0,1 Z " fill="#AC86C2" opacity="0.03137255" transform="translate(189,356)"/>
<path d="M0,0 L1,0 L1,1 L0,1 Z " fill="#AF89C2" opacity="0.21176471" transform="translate(323,355)"/>
<path d="M0,0 L1,0 L1,1 L0,1 Z " fill="#AC87C2" opacity="0.8392157" transform="translate(322,355)"/>
<path d="M0,0 L1,0 L1,1 L0,1 Z " fill="#AF86C5" opacity="0.22352941" transform="translate(188,355)"/>
<path d="M0,0 L1,0 L1,1 L0,1 Z " fill="#AC86C3" opacity="0.47843137" transform="translate(324,354)"/>
<path d="M0,0 L1,0 L1,1 L0,1 Z " fill="#AC86C2" opacity="0.9843137" transform="translate(323,354)"/>
<path d="M0,0 L1,0 L1,1 L0,1 Z " fill="#AC86C2" opacity="0.9882353" transform="translate(188,354)"/>
<path d="M0,0 L1,0 L1,1 L0,1 Z " fill="#AC87C2" opacity="0.015686275" transform="translate(186,354)"/>
<path d="M0,0 L1,0 L1,1 L0,1 Z " fill="#B388C4" opacity="0.11764706" transform="translate(326,353)"/>
<path d="M0,0 L1,0 L1,1 L0,1 Z " fill="#AC87C2" opacity="0.75686276" transform="translate(325,353)"/>
<path d="M0,0 L1,0 L1,1 L0,1 Z " fill="#AC87C2" opacity="0.77254903" transform="translate(186,353)"/>
<path d="M0,0 L1,0 L1,1 L0,1 Z " fill="#B28BC9" opacity="0.12941177" transform="translate(185,353)"/>
<path d="M0,0 L1,0 L1,1 L0,1 Z " fill="#AD87C2" opacity="0.34117648" transform="translate(327,352)"/>
<path d="M0,0 L1,0 L1,1 L0,1 Z " fill="#AC86C2" opacity="0.9411765" transform="translate(326,352)"/>
<path d="M0,0 L1,0 L1,1 L0,1 Z " fill="#AC88C2" opacity="0.36078432" transform="translate(184,352)"/>
<path d="M0,0 L1,0 L1,1 L0,1 Z " fill="#AD86C3" opacity="0.023529412" transform="translate(329,351)"/>
<path d="M0,0 L1,0 L1,1 L0,1 Z " fill="#AC86C3" opacity="0.5803922" transform="translate(328,351)"/>
<path d="M0,0 L1,0 L1,1 L0,1 Z " fill="#AD87C2" opacity="0.02745098" transform="translate(182,351)"/>
<path d="M0,0 L1,0 L1,1 L0,1 Z " fill="#B189C4" opacity="0.101960786" transform="translate(330,350)"/>
<path d="M0,0 L1,0 L1,1 L0,1 Z " fill="#AD86C3" opacity="0.7764706" transform="translate(329,350)"/>
<path d="M0,0 L1,0 L1,1 L0,1 Z " fill="#AD87C2" opacity="0.7882353" transform="translate(182,350)"/>
<path d="M0,0 L1,0 L1,1 L0,1 Z " fill="#B08DC2" opacity="0.11372549" transform="translate(181,350)"/>
<path d="M0,0 L1,0 L1,1 L0,1 Z " fill="#AD88C2" opacity="0.24313726" transform="translate(331,349)"/>
<path d="M0,0 L1,0 L1,1 L0,1 Z " fill="#AC86C2" opacity="0.9098039" transform="translate(330,349)"/>
<path d="M0,0 L1,0 L1,1 L0,1 Z " fill="#AD89C4" opacity="0.25490198" transform="translate(180,349)"/>
<path d="M0,0 L1,0 L1,1 L0,1 Z " fill="#AC88C4" opacity="0.41960785" transform="translate(332,348)"/>
<path d="M0,0 L1,0 L1,1 L0,1 Z " fill="#AC86C2" opacity="0.9882353" transform="translate(331,348)"/>
<path d="M0,0 L1,0 L1,1 L0,1 Z " fill="#AC86C2" opacity="0.99215686" transform="translate(180,348)"/>
<path d="M0,0 L1,0 L1,1 L0,1 Z " fill="#AD86C2" opacity="0.4392157" transform="translate(179,348)"/>
<path d="M0,0 L1,0 L1,1 L0,1 Z " fill="#AC86C3" opacity="0.003921569" transform="translate(178,348)"/>
<path d="M0,0 L1,0 L1,1 L0,1 Z " fill="#AC87C2" opacity="0.011764706" transform="translate(334,347)"/>
<path d="M0,0 L1,0 L1,1 L0,1 Z " fill="#AD87C2" opacity="0.5568628" transform="translate(333,347)"/>
<path d="M0,0 L1,0 L1,1 L0,1 Z " fill="#AC86C3" opacity="0.5764706" transform="translate(178,347)"/>
<path d="M0,0 L1,0 L1,1 L0,1 Z " fill="#AD86C2" opacity="0.011764706" transform="translate(177,347)"/>
<path d="M0,0 L1,0 L1,1 L0,1 Z " fill="#AD87C2" opacity="0.039215688" transform="translate(335,346)"/>
<path d="M0,0 L1,0 L1,1 L0,1 Z " fill="#AC87C2" opacity="0.68235296" transform="translate(334,346)"/>
<path d="M0,0 L1,0 L1,1 L0,1 Z " fill="#AC86C2" opacity="0.047058824" transform="translate(176,346)"/>
<path d="M0,0 L1,0 L1,1 L0,1 Z " fill="#B290C8" opacity="0.09019608" transform="translate(336,345)"/>
<path d="M0,0 L1,0 L1,1 L0,1 Z " fill="#AD87C2" opacity="0.7882353" transform="translate(335,345)"/>
<path d="M0,0 L1,0 L1,1 L0,1 Z " fill="#AC86C2" opacity="0.8039216" transform="translate(176,345)"/>
<path d="M0,0 L1,0 L1,1 L0,1 Z " fill="#AE8FC2" opacity="0.09803922" transform="translate(175,345)"/>
<path d="M0,0 L1,0 L1,1 L0,1 Z " fill="#B28BC9" opacity="0.12941177" transform="translate(337,344)"/>
<path d="M0,0 L1,0 L1,1 L0,1 Z " fill="#AC86C2" opacity="0.87058824" transform="translate(336,344)"/>
<path d="M0,0 L1,0 L1,1 L0,1 Z " fill="#B187C7" opacity="0.14117648" transform="translate(174,344)"/>
<path d="M0,0 L1,0 L1,1 L0,1 Z " fill="#AC86C6" opacity="0.15686275" transform="translate(338,343)"/>
<path d="M0,0 L1,0 L1,1 L0,1 Z " fill="#AC86C2" opacity="0.89411765" transform="translate(337,343)"/>
<path d="M0,0 L1,0 L1,1 L0,1 Z " fill="#AC86C3" opacity="0.90588236" transform="translate(174,343)"/>
<path d="M0,0 L1,0 L1,1 L0,1 Z " fill="#AC88C4" opacity="0.16862746" transform="translate(173,343)"/>
<path d="M0,0 L1,0 L1,1 L0,1 Z " fill="#B08AC5" opacity="0.1882353" transform="translate(339,342)"/>
<path d="M0,0 L1,0 L1,1 L0,1 Z " fill="#AC86C2" opacity="0.91764706" transform="translate(338,342)"/>
<path d="M0,0 L1,0 L1,1 L0,1 Z " fill="#AE8AC2" opacity="0.19607843" transform="translate(172,342)"/>
<path d="M0,0 L1,0 L1,1 L0,1 Z " fill="#AD89C4" opacity="0.21960784" transform="translate(340,341)"/>
<path d="M0,0 L1,0 L1,1 L0,1 Z " fill="#AC86C2" opacity="0.9372549" transform="translate(339,341)"/>
<path d="M0,0 L1,0 L1,1 L0,1 Z " fill="#AC86C2" opacity="0.94509804" transform="translate(172,341)"/>
<path d="M0,0 L1,0 L1,1 L0,1 Z " fill="#AF86C5" opacity="0.22352941" transform="translate(341,340)"/>
<path d="M0,0 L1,0 L1,1 L0,1 Z " fill="#AC86C2" opacity="0.95686275" transform="translate(340,340)"/>
<path d="M0,0 L1,0 L1,1 L0,1 Z " fill="#AC86C2" opacity="0.95686275" transform="translate(171,340)"/>
<path d="M0,0 L1,0 L1,1 L0,1 Z " fill="#B08AC5" opacity="0.1882353" transform="translate(342,339)"/>
<path d="M0,0 L1,0 L1,1 L0,1 Z " fill="#AC86C2" opacity="0.9372549" transform="translate(341,339)"/>
<path d="M0,0 L1,0 L1,1 L0,1 Z " fill="#AE8AC2" opacity="0.19607843" transform="translate(169,339)"/>
<path d="M0,0 L1,0 L1,1 L0,1 Z " fill="#AE89C7" opacity="0.16078432" transform="translate(343,338)"/>
<path d="M0,0 L1,0 L1,1 L0,1 Z " fill="#AC87C2" opacity="0.92156863" transform="translate(342,338)"/>
<path d="M0,0 L1,0 L1,1 L0,1 Z " fill="#AC86C2" opacity="0.9254902" transform="translate(169,338)"/>
<path d="M0,0 L1,0 L1,1 L0,1 Z " fill="#AC88C4" opacity="0.16862746" transform="translate(168,338)"/>
<path d="M0,0 L1,0 L1,1 L0,1 Z " fill="#AD87C3" opacity="0.13333334" transform="translate(344,337)"/>
<path d="M0,0 L1,0 L1,1 L0,1 Z " fill="#AC86C2" opacity="0.8980392" transform="translate(343,337)"/>
<path d="M0,0 L1,0 L1,1 L0,1 Z " fill="#B187C7" opacity="0.14117648" transform="translate(167,337)"/>
<path d="M0,0 L1,0 L1,1 L0,1 Z " fill="#B290C8" opacity="0.09019608" transform="translate(345,336)"/>
<path d="M0,0 L1,0 L1,1 L0,1 Z " fill="#AC86C2" opacity="0.87058824" transform="translate(344,336)"/>
<path d="M0,0 L1,0 L1,1 L0,1 Z " fill="#AC86C2" opacity="0.88235295" transform="translate(167,336)"/>
<path d="M0,0 L1,0 L1,1 L0,1 Z " fill="#B189C4" opacity="0.101960786" transform="translate(166,336)"/>
<path d="M0,0 L1,0 L1,1 L0,1 Z " fill="#AC86C2" opacity="0.039215688" transform="translate(346,335)"/>
<path d="M0,0 L1,0 L1,1 L0,1 Z " fill="#AC86C3" opacity="0.7921569" transform="translate(345,335)"/>
<path d="M0,0 L1,0 L1,1 L0,1 Z " fill="#AD86C2" opacity="0.047058824" transform="translate(165,335)"/>
<path d="M0,0 L1,0 L1,1 L0,1 Z " fill="#AD86C3" opacity="0.011764706" transform="translate(347,334)"/>
<path d="M0,0 L1,0 L1,1 L0,1 Z " fill="#AC86C2" opacity="0.6862745" transform="translate(346,334)"/>
<path d="M0,0 L1,0 L1,1 L0,1 Z " fill="#AD86C2" opacity="0.7019608" transform="translate(165,334)"/>
<path d="M0,0 L1,0 L1,1 L0,1 Z " fill="#AC86C3" opacity="0.015686275" transform="translate(164,334)"/>
<path d="M0,0 L1,0 L1,1 L0,1 Z " fill="#AD86C3" opacity="0.56078434" transform="translate(347,333)"/>
<path d="M0,0 L1,0 L1,1 L0,1 Z " fill="#AC86C3" opacity="0.5803922" transform="translate(164,333)"/>
<path d="M0,0 L1,0 L1,1 L0,1 Z " fill="#AC87C2" opacity="0.003921569" transform="translate(163,333)"/>
<path d="M0,0 L1,0 L1,1 L0,1 Z " fill="#AD88C2" opacity="0.42745098" transform="translate(348,332)"/>
<path d="M0,0 L1,0 L1,1 L0,1 Z " fill="#AC87C2" opacity="0.44313726" transform="translate(163,332)"/>
<path d="M0,0 L1,0 L1,1 L0,1 Z " fill="#AE86C3" opacity="0.24705882" transform="translate(349,331)"/>
<path d="M0,0 L1,0 L1,1 L0,1 Z " fill="#AC86C2" opacity="0.9882353" transform="translate(348,331)"/>
<path d="M0,0 L1,0 L1,1 L0,1 Z " fill="#AE87C5" opacity="0.25882354" transform="translate(162,331)"/>
<path d="M0,0 L1,0 L1,1 L0,1 Z " fill="#B48EC7" opacity="0.105882354" transform="translate(350,330)"/>
<path d="M0,0 L1,0 L1,1 L0,1 Z " fill="#AC86C2" opacity="0.9137255" transform="translate(349,330)"/>
<path d="M0,0 L1,0 L1,1 L0,1 Z " fill="#AC87C2" opacity="0.92156863" transform="translate(162,330)"/>
<path d="M0,0 L1,0 L1,1 L0,1 Z " fill="#B08DC2" opacity="0.11372549" transform="translate(161,330)"/>
<path d="M0,0 L1,0 L1,1 L0,1 Z " fill="#AD86C2" opacity="0.023529412" transform="translate(351,329)"/>
<path d="M0,0 L1,0 L1,1 L0,1 Z " fill="#AD86C3" opacity="0.7764706" transform="translate(350,329)"/>
<path d="M0,0 L1,0 L1,1 L0,1 Z " fill="#AC86C2" opacity="0.02745098" transform="translate(160,329)"/>
<path d="M0,0 L1,0 L1,1 L0,1 Z " fill="#AD86C2" opacity="0.58431375" transform="translate(351,328)"/>
<path d="M0,0 L1,0 L1,1 L0,1 Z " fill="#AC86C2" opacity="0.6039216" transform="translate(160,328)"/>
<path d="M0,0 L1,0 L1,1 L0,1 Z " fill="#AC87C3" opacity="0.34901962" transform="translate(352,327)"/>
<path d="M0,0 L1,0 L1,1 L0,1 Z " fill="#AD86C3" opacity="0.3647059" transform="translate(159,327)"/>
<path d="M0,0 L1,0 L1,1 L0,1 Z " fill="#AD8CC6" opacity="0.12156863" transform="translate(353,326)"/>
<path d="M0,0 L1,0 L1,1 L0,1 Z " fill="#AC86C2" opacity="0.94509804" transform="translate(352,326)"/>
<path d="M0,0 L1,0 L1,1 L0,1 Z " fill="#AD87C3" opacity="0.13333334" transform="translate(158,326)"/>
<path d="M0,0 L1,0 L1,1 L0,1 Z " fill="#AD87C2" opacity="0.7647059" transform="translate(353,325)"/>
<path d="M0,0 L1,0 L1,1 L0,1 Z " fill="#AD86C3" opacity="0.7764706" transform="translate(158,325)"/>
<path d="M0,0 L1,0 L1,1 L0,1 Z " fill="#AC86C2" opacity="0.015686275" transform="translate(157,325)"/>
<path d="M0,0 L1,0 L1,1 L0,1 Z " fill="#AD86C2" opacity="0.4862745" transform="translate(354,324)"/>
<path d="M0,0 L1,0 L1,1 L0,1 Z " fill="#AC86C2" opacity="0.5019608" transform="translate(157,324)"/>
<path d="M0,0 L1,0 L1,1 L0,1 Z " fill="#AC86C3" opacity="0.21568628" transform="translate(355,323)"/>
<path d="M0,0 L1,0 L1,1 L0,1 Z " fill="#AC86C2" opacity="0.9882353" transform="translate(354,323)"/>
<path d="M0,0 L1,0 L1,1 L0,1 Z " fill="#AC88C2" opacity="0.22745098" transform="translate(156,323)"/>
<path d="M0,0 L1,0 L1,1 L0,1 Z " fill="#AC86C2" opacity="0.84313726" transform="translate(355,322)"/>
<path d="M0,0 L1,0 L1,1 L0,1 Z " fill="#AC87C2" opacity="0.85490197" transform="translate(156,322)"/>
<path d="M0,0 L1,0 L1,1 L0,1 Z " fill="#AD87C2" opacity="0.03529412" transform="translate(155,322)"/>
<path d="M0,0 L1,0 L1,1 L0,1 Z " fill="#AC86C2" opacity="0.5058824" transform="translate(356,321)"/>
<path d="M0,0 L1,0 L1,1 L0,1 Z " fill="#AD87C2" opacity="0.5254902" transform="translate(155,321)"/>
<path d="M0,0 L1,0 L1,1 L0,1 Z " fill="#AE8BC5" opacity="0.17254902" transform="translate(357,320)"/>
<path d="M0,0 L1,0 L1,1 L0,1 Z " fill="#AC86C2" opacity="0.98039216" transform="translate(356,320)"/>
<path d="M0,0 L1,0 L1,1 L0,1 Z " fill="#AE88C4" opacity="0.18431373" transform="translate(154,320)"/>
<path d="M0,0 L1,0 L1,1 L0,1 Z " fill="#AC87C2" opacity="0.78039217" transform="translate(357,319)"/>
<path d="M0,0 L1,0 L1,1 L0,1 Z " fill="#AC86C2" opacity="0.79607844" transform="translate(154,319)"/>
<path d="M0,0 L1,0 L1,1 L0,1 Z " fill="#AD87C3" opacity="0.015686275" transform="translate(153,319)"/>
<path d="M0,0 L1,0 L1,1 L0,1 Z " fill="#AD88C2" opacity="0.42745098" transform="translate(358,318)"/>
<path d="M0,0 L1,0 L1,1 L0,1 Z " fill="#AD87C3" opacity="0.4509804" transform="translate(153,318)"/>
<path d="M0,0 L1,0 L1,1 L0,1 Z " fill="#AE8BC5" opacity="0.08627451" transform="translate(359,317)"/>
<path d="M0,0 L1,0 L1,1 L0,1 Z " fill="#AC86C2" opacity="0.9411765" transform="translate(358,317)"/>
<path d="M0,0 L1,0 L1,1 L0,1 Z " fill="#B58ACA" opacity="0.09411765" transform="translate(152,317)"/>
<path d="M0,0 L1,0 L1,1 L0,1 Z " fill="#AC87C2" opacity="0.6" transform="translate(359,316)"/>
<path d="M0,0 L1,0 L1,1 L0,1 Z " fill="#AD86C2" opacity="0.61960787" transform="translate(152,316)"/>
<path d="M0,0 L1,0 L1,1 L0,1 Z " fill="#AE88C4" opacity="0.18431373" transform="translate(360,315)"/>
<path d="M0,0 L1,0 L1,1 L0,1 Z " fill="#AC86C2" opacity="0.99215686" transform="translate(359,315)"/>
<path d="M0,0 L1,0 L1,1 L0,1 Z " fill="#AF87C3" opacity="0.2" transform="translate(151,315)"/>
<path d="M0,0 L1,0 L1,1 L0,1 Z " fill="#AC86C2" opacity="0.7490196" transform="translate(360,314)"/>
<path d="M0,0 L1,0 L1,1 L0,1 Z " fill="#AC86C2" opacity="0.76862746" transform="translate(151,314)"/>
<path d="M0,0 L1,0 L1,1 L0,1 Z " fill="#AC87C2" opacity="0.3254902" transform="translate(361,313)"/>
<path d="M0,0 L1,0 L1,1 L0,1 Z " fill="#AD87C2" opacity="0.34117648" transform="translate(150,313)"/>
<path d="M0,0 L1,0 L1,1 L0,1 Z " fill="#AD87C2" opacity="0.84705883" transform="translate(361,312)"/>
<path d="M0,0 L1,0 L1,1 L0,1 Z " fill="#AC86C2" opacity="0.8627451" transform="translate(150,312)"/>
<path d="M0,0 L1,0 L1,1 L0,1 Z " fill="#AE88C4" opacity="0.36862746" transform="translate(362,311)"/>
<path d="M0,0 L1,0 L1,1 L0,1 Z " fill="#AD86C4" opacity="0.3882353" transform="translate(149,311)"/>
<path d="M0,0 L1,0 L1,1 L0,1 Z " fill="#AC86C2" opacity="0.8666667" transform="translate(362,310)"/>
<path d="M0,0 L1,0 L1,1 L0,1 Z " fill="#AC86C2" opacity="0.8784314" transform="translate(149,310)"/>
<path d="M0,0 L1,0 L1,1 L0,1 Z " fill="#AE87C2" opacity="0.39215687" transform="translate(363,309)"/>
<path d="M0,0 L1,0 L1,1 L0,1 Z " fill="#AD87C3" opacity="0.41568628" transform="translate(148,309)"/>
<path d="M0,0 L1,0 L1,1 L0,1 Z " fill="#AC86C2" opacity="0.88235295" transform="translate(363,308)"/>
<path d="M0,0 L1,0 L1,1 L0,1 Z " fill="#AC86C2" opacity="0.8980392" transform="translate(148,308)"/>
<path d="M0,0 L1,0 L1,1 L0,1 Z " fill="#AC87C3" opacity="0.38431373" transform="translate(364,307)"/>
<path d="M0,0 L1,0 L1,1 L0,1 Z " fill="#AC87C2" opacity="0.40784314" transform="translate(147,307)"/>
<path d="M0,0 L1,0 L1,1 L0,1 Z " fill="#AC87C2" opacity="0.8392157" transform="translate(364,306)"/>
<path d="M0,0 L1,0 L1,1 L0,1 Z " fill="#AC87C2" opacity="0.85490197" transform="translate(147,306)"/>
<path d="M0,0 L1,0 L1,1 L0,1 Z " fill="#AE88C2" opacity="0.29411766" transform="translate(365,305)"/>
<path d="M0,0 L1,0 L1,1 L0,1 Z " fill="#AE88C2" opacity="0.30980393" transform="translate(146,305)"/>
<path d="M0,0 L1,0 L1,1 L0,1 Z " fill="#AC86C2" opacity="0.7490196" transform="translate(365,304)"/>
<path d="M0,0 L1,0 L1,1 L0,1 Z " fill="#AD87C2" opacity="0.7647059" transform="translate(146,304)"/>
<path d="M0,0 L1,0 L1,1 L0,1 Z " fill="#AC89C4" opacity="0.20392157" transform="translate(366,303)"/>
<path d="M0,0 L1,0 L1,1 L0,1 Z " fill="#AC86C3" opacity="0.21568628" transform="translate(145,303)"/>
<path d="M0,0 L1,0 L1,1 L0,1 Z " fill="#AD86C3" opacity="0.6431373" transform="translate(366,302)"/>
<path d="M0,0 L1,0 L1,1 L0,1 Z " fill="#AD86C2" opacity="0.654902" transform="translate(145,302)"/>
<path d="M0,0 L1,0 L1,1 L0,1 Z " fill="#AC86C2" opacity="0.972549" transform="translate(366,301)"/>
<path d="M0,0 L1,0 L1,1 L0,1 Z " fill="#AC86C2" opacity="0.9764706" transform="translate(145,301)"/>
<path d="M0,0 L1,0 L1,1 L0,1 Z " fill="#AC86C3" opacity="0.43137255" transform="translate(367,300)"/>
<path d="M0,0 L1,0 L1,1 L0,1 Z " fill="#AC86C3" opacity="0.44705883" transform="translate(144,300)"/>
<path d="M0,0 L1,0 L1,1 L0,1 Z " fill="#AC86C2" opacity="0.827451" transform="translate(367,299)"/>
<path d="M0,0 L1,0 L1,1 L0,1 Z " fill="#AC87C2" opacity="0.8392157" transform="translate(144,299)"/>
<path d="M0,0 L1,0 L1,1 L0,1 Z " fill="#AC86C3" opacity="0.21568628" transform="translate(368,298)"/>
<path d="M0,0 L1,0 L1,1 L0,1 Z " fill="#AE88C4" opacity="0.23529412" transform="translate(143,298)"/>
<path d="M0,0 L1,0 L1,1 L0,1 Z " fill="#AC86C3" opacity="0.6117647" transform="translate(368,297)"/>
<path d="M0,0 L1,0 L1,1 L0,1 Z " fill="#AC86C3" opacity="0.627451" transform="translate(143,297)"/>
<path d="M0,0 L1,0 L1,1 L0,1 Z " fill="#AC88C4" opacity="0.02745098" transform="translate(369,296)"/>
<path d="M0,0 L1,0 L1,1 L0,1 Z " fill="#AC86C2" opacity="0.9411765" transform="translate(368,296)"/>
<path d="M0,0 L1,0 L1,1 L0,1 Z " fill="#AC86C2" opacity="0.9529412" transform="translate(143,296)"/>
<path d="M0,0 L1,0 L1,1 L0,1 Z " fill="#AE86C4" opacity="0.32156864" transform="translate(142,295)"/>
<path d="M0,0 L1,0 L1,1 L0,1 Z " fill="#AC87C2" opacity="0.6392157" transform="translate(369,294)"/>
<path d="M0,0 L1,0 L1,1 L0,1 Z " fill="#AC86C3" opacity="0.65882355" transform="translate(142,294)"/>
<path d="M0,0 L1,0 L1,1 L0,1 Z " fill="#AD87C3" opacity="0.03529412" transform="translate(370,293)"/>
<path d="M0,0 L1,0 L1,1 L0,1 Z " fill="#AC86C2" opacity="0.9490196" transform="translate(369,293)"/>
<path d="M0,0 L1,0 L1,1 L0,1 Z " fill="#AC86C2" opacity="0.9607843" transform="translate(142,293)"/>
<path d="M0,0 L1,0 L1,1 L0,1 Z " fill="#AC88C4" opacity="0.3372549" transform="translate(141,292)"/>
<path d="M0,0 L1,0 L1,1 L0,1 Z " fill="#AC86C3" opacity="0.64705884" transform="translate(370,291)"/>
<path d="M0,0 L1,0 L1,1 L0,1 Z " fill="#AC86C3" opacity="0.6627451" transform="translate(141,291)"/>
<path d="M0,0 L1,0 L1,1 L0,1 Z " fill="#AF89C2" opacity="0.011764706" transform="translate(371,290)"/>
<path d="M0,0 L1,0 L1,1 L0,1 Z " fill="#AC86C2" opacity="0.9254902" transform="translate(370,290)"/>
<path d="M0,0 L1,0 L1,1 L0,1 Z " fill="#AC86C2" opacity="0.9372549" transform="translate(141,290)"/>
<path d="M0,0 L1,0 L1,1 L0,1 Z " fill="#AD86C3" opacity="0.015686275" transform="translate(140,290)"/>
<path d="M0,0 L1,0 L1,1 L0,1 Z " fill="#AD87C3" opacity="0.49803922" transform="translate(371,288)"/>
<path d="M0,0 L1,0 L1,1 L0,1 Z " fill="#AC87C3" opacity="0.5176471" transform="translate(140,288)"/>
<path d="M0,0 L1,0 L1,1 L0,1 Z " fill="#AC86C2" opacity="0.78431374" transform="translate(371,287)"/>
<path d="M0,0 L1,0 L1,1 L0,1 Z " fill="#AC86C2" opacity="0.8039216" transform="translate(140,287)"/>
<path d="M0,0 L1,0 L1,1 L0,1 Z " fill="#B38CCC" opacity="0.078431375" transform="translate(372,286)"/>
<path d="M0,0 L1,0 L1,1 L0,1 Z " fill="#B290C8" opacity="0.09019608" transform="translate(139,286)"/>
<path d="M0,0 L1,0 L1,1 L0,1 Z " fill="#AD87C2" opacity="0.5568628" transform="translate(372,284)"/>
<path d="M0,0 L1,0 L1,1 L0,1 Z " fill="#AC86C3" opacity="0.5764706" transform="translate(139,284)"/>
<path d="M0,0 L1,0 L1,1 L0,1 Z " fill="#AD87C2" opacity="0.7882353" transform="translate(372,283)"/>
<path d="M0,0 L1,0 L1,1 L0,1 Z " fill="#AC86C3" opacity="0.80784315" transform="translate(139,283)"/>
<path d="M0,0 L1,0 L1,1 L0,1 Z " fill="#AC86C2" opacity="0.9843137" transform="translate(372,282)"/>
<path d="M0,0 L1,0 L1,1 L0,1 Z " fill="#AC86C2" opacity="0.99215686" transform="translate(139,282)"/>
<path d="M0,0 L1,0 L1,1 L0,1 Z " fill="#AC88C4" opacity="0.2509804" transform="translate(373,281)"/>
<path d="M0,0 L1,0 L1,1 L0,1 Z " fill="#AF89C2" opacity="0.2627451" transform="translate(138,281)"/>
<path d="M0,0 L1,0 L1,1 L0,1 Z " fill="#AD86C3" opacity="0.6784314" transform="translate(373,279)"/>
<path d="M0,0 L1,0 L1,1 L0,1 Z " fill="#AD87C2" opacity="0.6901961" transform="translate(138,279)"/>
<path d="M0,0 L1,0 L1,1 L0,1 Z " fill="#AD86C2" opacity="0.85882354" transform="translate(373,278)"/>
<path d="M0,0 L1,0 L1,1 L0,1 Z " fill="#AC86C2" opacity="0.87058824" transform="translate(138,278)"/>
<path d="M0,0 L1,0 L1,1 L0,1 Z " fill="#AF89C2" opacity="0.21176471" transform="translate(374,276)"/>
<path d="M0,0 L1,0 L1,1 L0,1 Z " fill="#AC88C2" opacity="0.22745098" transform="translate(137,276)"/>
<path d="M0,0 L1,0 L1,1 L0,1 Z " fill="#AD86C2" opacity="0.5686275" transform="translate(374,274)"/>
<path d="M0,0 L1,0 L1,1 L0,1 Z " fill="#AD86C2" opacity="0.58431375" transform="translate(137,274)"/>
<path d="M0,0 L1,0 L1,1 L0,1 Z " fill="#AC87C2" opacity="0.8392157" transform="translate(374,272)"/>
<path d="M0,0 L1,0 L1,1 L0,1 Z " fill="#AC87C2" opacity="0.85490197" transform="translate(137,272)"/>
<path d="M0,0 L1,0 L1,1 L0,1 Z " fill="#AC86C2" opacity="0.9647059" transform="translate(374,271)"/>
<path d="M0,0 L1,0 L1,1 L0,1 Z " fill="#AC86C2" opacity="0.9764706" transform="translate(137,271)"/>
<path d="M0,0 L1,0 L1,1 L0,1 Z " fill="#B290C8" opacity="0.09019608" transform="translate(375,270)"/>
<path d="M0,0 L1,0 L1,1 L0,1 Z " fill="#B48EC7" opacity="0.105882354" transform="translate(136,270)"/>
<path d="M0,0 L1,0 L1,1 L0,1 Z " fill="#AD89C4" opacity="0.21960784" transform="translate(375,269)"/>
<path d="M0,0 L1,0 L1,1 L0,1 Z " fill="#AD86C3" opacity="0.23137255" transform="translate(136,269)"/>
<path d="M0,0 L1,0 L1,1 L0,1 Z " fill="#AC88C4" opacity="0.43529412" transform="translate(375,267)"/>
<path d="M0,0 L1,0 L1,1 L0,1 Z " fill="#AC86C3" opacity="0.44705883" transform="translate(136,267)"/>
<path d="M0,0 L1,0 L1,1 L0,1 Z " fill="#AC86C2" opacity="0.5882353" transform="translate(375,265)"/>
<path d="M0,0 L1,0 L1,1 L0,1 Z " fill="#AC87C2" opacity="0.6" transform="translate(136,265)"/>
<path d="M0,0 L1,0 L1,1 L0,1 Z " fill="#AC86C3" opacity="0.7411765" transform="translate(375,263)"/>
<path d="M0,0 L1,0 L1,1 L0,1 Z " fill="#AC86C2" opacity="0.7529412" transform="translate(136,263)"/>
<path d="M0,0 L1,0 L1,1 L0,1 Z " fill="#AC86C2" opacity="0.8156863" transform="translate(375,262)"/>
<path d="M0,0 L1,0 L1,1 L0,1 Z " fill="#AC86C2" opacity="0.827451" transform="translate(136,262)"/>
<path d="M0,0 L1,0 L1,1 L0,1 Z " fill="#AD86C2" opacity="0.85882354" transform="translate(375,261)"/>
<path d="M0,0 L1,0 L1,1 L0,1 Z " fill="#AC86C2" opacity="0.87058824" transform="translate(136,261)"/>
<path d="M0,0 L1,0 L1,1 L0,1 Z " fill="#AC86C2" opacity="0.9098039" transform="translate(375,259)"/>
<path d="M0,0 L1,0 L1,1 L0,1 Z " fill="#AC86C2" opacity="0.91764706" transform="translate(136,259)"/>
<path d="M0,0 L1,0 L1,1 L0,1 Z " fill="#AC86C2" opacity="0.9647059" transform="translate(375,257)"/>
<path d="M0,0 L1,0 L1,1 L0,1 Z " fill="#AC86C2" opacity="0.96862745" transform="translate(136,257)"/>
<path d="M0,0 L1,0 L1,1 L0,1 Z " fill="#AC86C2" opacity="0.9882353" transform="translate(375,256)"/>
<path d="M0,0 L1,0 L1,1 L0,1 Z " fill="#AC86C2" opacity="0.99215686" transform="translate(136,256)"/>
<path d="M0,0 L1,0 L1,1 L0,1 Z " fill="#AC86C2" opacity="0.9647059" transform="translate(375,254)"/>
<path d="M0,0 L1,0 L1,1 L0,1 Z " fill="#AC86C2" opacity="0.96862745" transform="translate(136,254)"/>
<path d="M0,0 L1,0 L1,1 L0,1 Z " fill="#AC86C2" opacity="0.9137255" transform="translate(375,252)"/>
<path d="M0,0 L1,0 L1,1 L0,1 Z " fill="#AC87C2" opacity="0.92156863" transform="translate(136,252)"/>
<path d="M0,0 L1,0 L1,1 L0,1 Z " fill="#AD86C2" opacity="0.85882354" transform="translate(375,250)"/>
<path d="M0,0 L1,0 L1,1 L0,1 Z " fill="#AC86C2" opacity="0.87058824" transform="translate(136,250)"/>
<path d="M0,0 L1,0 L1,1 L0,1 Z " fill="#AC86C2" opacity="0.74509805" transform="translate(375,248)"/>
<path d="M0,0 L1,0 L1,1 L0,1 Z " fill="#AC87C2" opacity="0.75686276" transform="translate(136,248)"/>
<path d="M0,0 L1,0 L1,1 L0,1 Z " fill="#AC87C2" opacity="0.5921569" transform="translate(375,246)"/>
<path d="M0,0 L1,0 L1,1 L0,1 Z " fill="#AC86C2" opacity="0.6039216" transform="translate(136,246)"/>
<path d="M0,0 L1,0 L1,1 L0,1 Z " fill="#AD86C2" opacity="0.4392157" transform="translate(375,244)"/>
<path d="M0,0 L1,0 L1,1 L0,1 Z " fill="#AD87C3" opacity="0.4509804" transform="translate(136,244)"/>
<path d="M0,0 L1,0 L1,1 L0,1 Z " fill="#AF86C5" opacity="0.22352941" transform="translate(375,242)"/>
<path d="M0,0 L1,0 L1,1 L0,1 Z " fill="#AE88C4" opacity="0.23529412" transform="translate(136,242)"/>
<path d="M0,0 L1,0 L1,1 L0,1 Z " fill="#AC86C2" opacity="0.007843138" transform="translate(375,240)"/>
<path d="M0,0 L1,0 L1,1 L0,1 Z " fill="#AC86C2" opacity="0.96862745" transform="translate(374,240)"/>
<path d="M0,0 L1,0 L1,1 L0,1 Z " fill="#AC86C2" opacity="0.98039216" transform="translate(137,240)"/>
<path d="M0,0 L1,0 L1,1 L0,1 Z " fill="#AC86C2" opacity="0.011764706" transform="translate(136,240)"/>
<path d="M0,0 L1,0 L1,1 L0,1 Z " fill="#AC86C2" opacity="0.7176471" transform="translate(374,238)"/>
<path d="M0,0 L1,0 L1,1 L0,1 Z " fill="#AC86C2" opacity="0.73333335" transform="translate(137,238)"/>
<path d="M0,0 L1,0 L1,1 L0,1 Z " fill="#AD87C3" opacity="0.4" transform="translate(374,236)"/>
<path d="M0,0 L1,0 L1,1 L0,1 Z " fill="#AD86C3" opacity="0.4117647" transform="translate(137,236)"/>
<path d="M0,0 L1,0 L1,1 L0,1 Z " fill="#AC86C2" opacity="0.050980393" transform="translate(374,234)"/>
<path d="M0,0 L1,0 L1,1 L0,1 Z " fill="#AC86C2" opacity="0.05882353" transform="translate(137,234)"/>
<path d="M0,0 L1,0 L1,1 L0,1 Z " fill="#AC86C2" opacity="0.8627451" transform="translate(373,233)"/>
<path d="M0,0 L1,0 L1,1 L0,1 Z " fill="#AC86C2" opacity="0.8784314" transform="translate(138,233)"/>
<path d="M0,0 L1,0 L1,1 L0,1 Z " fill="#AC87C2" opacity="0.49019608" transform="translate(373,231)"/>
<path d="M0,0 L1,0 L1,1 L0,1 Z " fill="#AC86C2" opacity="0.5019608" transform="translate(138,231)"/>
<path d="M0,0 L1,0 L1,1 L0,1 Z " fill="#AC86C2" opacity="0.047058824" transform="translate(373,229)"/>
<path d="M0,0 L1,0 L1,1 L0,1 Z " fill="#AC86C2" opacity="0.9882353" transform="translate(372,229)"/>
<path d="M0,0 L1,0 L1,1 L0,1 Z " fill="#AC86C2" opacity="0.99215686" transform="translate(139,229)"/>
<path d="M0,0 L1,0 L1,1 L0,1 Z " fill="#AC86C2" opacity="0.05490196" transform="translate(138,229)"/>
<path d="M0,0 L1,0 L1,1 L0,1 Z " fill="#AC87C3" opacity="0.5647059" transform="translate(372,227)"/>
<path d="M0,0 L1,0 L1,1 L0,1 Z " fill="#AD86C2" opacity="0.58431375" transform="translate(139,227)"/>
<path d="M0,0 L1,0 L1,1 L0,1 Z " fill="#AE8BC5" opacity="0.08627451" transform="translate(372,225)"/>
<path d="M0,0 L1,0 L1,1 L0,1 Z " fill="#AE8FC2" opacity="0.09803922" transform="translate(139,225)"/>
<path d="M0,0 L1,0 L1,1 L0,1 Z " fill="#AD87C2" opacity="0.50980395" transform="translate(371,223)"/>
<path d="M0,0 L1,0 L1,1 L0,1 Z " fill="#AC86C3" opacity="0.5294118" transform="translate(140,223)"/>
<path d="M0,0 L1,0 L1,1 L0,1 Z " fill="#AC86C2" opacity="0.011764706" transform="translate(371,221)"/>
<path d="M0,0 L1,0 L1,1 L0,1 Z " fill="#AC86C2" opacity="0.019607844" transform="translate(140,221)"/>
<path d="M0,0 L1,0 L1,1 L0,1 Z " fill="#AC86C3" opacity="0.65882355" transform="translate(370,220)"/>
<path d="M0,0 L1,0 L1,1 L0,1 Z " fill="#AC87C2" opacity="0.6745098" transform="translate(141,220)"/>
<path d="M0,0 L1,0 L1,1 L0,1 Z " fill="#AC86C2" opacity="0.039215688" transform="translate(370,218)"/>
<path d="M0,0 L1,0 L1,1 L0,1 Z " fill="#AC86C2" opacity="0.047058824" transform="translate(141,218)"/>
<path d="M0,0 L1,0 L1,1 L0,1 Z " fill="#AD86C2" opacity="0.654902" transform="translate(369,217)"/>
<path d="M0,0 L1,0 L1,1 L0,1 Z " fill="#AC87C2" opacity="0.6745098" transform="translate(142,217)"/>
<path d="M0,0 L1,0 L1,1 L0,1 Z " fill="#AC86C2" opacity="0.03137255" transform="translate(369,215)"/>
<path d="M0,0 L1,0 L1,1 L0,1 Z " fill="#AC86C2" opacity="0.039215688" transform="translate(142,215)"/>
<path d="M0,0 L1,0 L1,1 L0,1 Z " fill="#AC86C3" opacity="0.627451" transform="translate(368,214)"/>
<path d="M0,0 L1,0 L1,1 L0,1 Z " fill="#AD86C3" opacity="0.6431373" transform="translate(143,214)"/>
<path d="M0,0 L1,0 L1,1 L0,1 Z " fill="#AC87C2" opacity="0.003921569" transform="translate(368,212)"/>
<path d="M0,0 L1,0 L1,1 L0,1 Z " fill="#AC87C2" opacity="0.8392157" transform="translate(367,212)"/>
<path d="M0,0 L1,0 L1,1 L0,1 Z " fill="#AC86C2" opacity="0.8509804" transform="translate(144,212)"/>
<path d="M0,0 L1,0 L1,1 L0,1 Z " fill="#AC86C2" opacity="0.003921569" transform="translate(143,212)"/>
<path d="M0,0 L1,0 L1,1 L0,1 Z " fill="#B38CCC" opacity="0.078431375" transform="translate(367,210)"/>
<path d="M0,0 L1,0 L1,1 L0,1 Z " fill="#AC86C2" opacity="0.9764706" transform="translate(366,210)"/>
<path d="M0,0 L1,0 L1,1 L0,1 Z " fill="#AC86C2" opacity="0.98039216" transform="translate(145,210)"/>
<path d="M0,0 L1,0 L1,1 L0,1 Z " fill="#AE8BC5" opacity="0.08627451" transform="translate(144,210)"/>
<path d="M0,0 L1,0 L1,1 L0,1 Z " fill="#AC86C3" opacity="0.21568628" transform="translate(366,208)"/>
<path d="M0,0 L1,0 L1,1 L0,1 Z " fill="#AC88C2" opacity="0.22745098" transform="translate(145,208)"/>
<path d="M0,0 L1,0 L1,1 L0,1 Z " fill="#AC86C3" opacity="0.7607843" transform="translate(365,207)"/>
<path d="M0,0 L1,0 L1,1 L0,1 Z " fill="#AC87C2" opacity="0.78039217" transform="translate(146,207)"/>
<path d="M0,0 L1,0 L1,1 L0,1 Z " fill="#AC86C2" opacity="0.007843138" transform="translate(365,205)"/>
<path d="M0,0 L1,0 L1,1 L0,1 Z " fill="#AC86C2" opacity="0.8509804" transform="translate(364,205)"/>
<path d="M0,0 L1,0 L1,1 L0,1 Z " fill="#AC86C2" opacity="0.8666667" transform="translate(147,205)"/>
<path d="M0,0 L1,0 L1,1 L0,1 Z " fill="#AC86C2" opacity="0.011764706" transform="translate(146,205)"/>
<path d="M0,0 L1,0 L1,1 L0,1 Z " fill="#AC86C2" opacity="0.03137255" transform="translate(364,203)"/>
<path d="M0,0 L1,0 L1,1 L0,1 Z " fill="#AC86C2" opacity="0.8980392" transform="translate(363,203)"/>
<path d="M0,0 L1,0 L1,1 L0,1 Z " fill="#AC86C2" opacity="0.9098039" transform="translate(148,203)"/>
<path d="M0,0 L1,0 L1,1 L0,1 Z " fill="#AC86C2" opacity="0.039215688" transform="translate(147,203)"/>
<path d="M0,0 L1,0 L1,1 L0,1 Z " fill="#AC86C2" opacity="0.023529412" transform="translate(363,201)"/>
<path d="M0,0 L1,0 L1,1 L0,1 Z " fill="#AC86C2" opacity="0.88235295" transform="translate(362,201)"/>
<path d="M0,0 L1,0 L1,1 L0,1 Z " fill="#AC86C2" opacity="0.89411765" transform="translate(149,201)"/>
<path d="M0,0 L1,0 L1,1 L0,1 Z " fill="#AC86C2" opacity="0.03137255" transform="translate(148,201)"/>
<path d="M0,0 L1,0 L1,1 L0,1 Z " fill="#AC86C2" opacity="0.019607844" transform="translate(362,199)"/>
<path d="M0,0 L1,0 L1,1 L0,1 Z " fill="#AC86C2" opacity="0.8627451" transform="translate(361,199)"/>
<path d="M0,0 L1,0 L1,1 L0,1 Z " fill="#AC86C2" opacity="0.8745098" transform="translate(150,199)"/>
<path d="M0,0 L1,0 L1,1 L0,1 Z " fill="#AC86C2" opacity="0.023529412" transform="translate(149,199)"/>
<path d="M0,0 L1,0 L1,1 L0,1 Z " fill="#AC87C2" opacity="0.003921569" transform="translate(361,197)"/>
<path d="M0,0 L1,0 L1,1 L0,1 Z " fill="#AD87C2" opacity="0.007843138" transform="translate(150,197)"/>
<path d="M0,0 L1,0 L1,1 L0,1 Z " fill="#AC89C4" opacity="0.20392157" transform="translate(360,196)"/>
<path d="M0,0 L1,0 L1,1 L0,1 Z " fill="#AD89C4" opacity="0.21960784" transform="translate(151,196)"/>
<path d="M0,0 L1,0 L1,1 L0,1 Z " fill="#AE8FC2" opacity="0.09803922" transform="translate(359,194)"/>
<path d="M0,0 L1,0 L1,1 L0,1 Z " fill="#AC86C2" opacity="0.95686275" transform="translate(358,194)"/>
<path d="M0,0 L1,0 L1,1 L0,1 Z " fill="#AC86C2" opacity="0.9647059" transform="translate(153,194)"/>
<path d="M0,0 L1,0 L1,1 L0,1 Z " fill="#AD89C9" opacity="0.10980392" transform="translate(152,194)"/>
<path d="M0,0 L1,0 L1,1 L0,1 Z " fill="#AC86C2" opacity="0.015686275" transform="translate(358,192)"/>
<path d="M0,0 L1,0 L1,1 L0,1 Z " fill="#AC86C2" opacity="0.019607844" transform="translate(153,192)"/>
<path d="M0,0 L1,0 L1,1 L0,1 Z " fill="#AC87C6" opacity="0.19215687" transform="translate(357,191)"/>
<path d="M0,0 L1,0 L1,1 L0,1 Z " fill="#AC86C2" opacity="0.9882353" transform="translate(356,191)"/>
<path d="M0,0 L1,0 L1,1 L0,1 Z " fill="#AC86C2" opacity="0.99215686" transform="translate(155,191)"/>
<path d="M0,0 L1,0 L1,1 L0,1 Z " fill="#AD87C6" opacity="0.20784314" transform="translate(154,191)"/>
<path d="M0,0 L1,0 L1,1 L0,1 Z " fill="#AD87C3" opacity="0.54901963" transform="translate(155,190)"/>
<path d="M0,0 L1,0 L1,1 L0,1 Z " fill="#AD86C2" opacity="0.03529412" transform="translate(356,189)"/>
<path d="M0,0 L1,0 L1,1 L0,1 Z " fill="#AC86C2" opacity="0.043137256" transform="translate(155,189)"/>
<path d="M0,0 L1,0 L1,1 L0,1 Z " fill="#AE88C4" opacity="0.23529412" transform="translate(355,188)"/>
<path d="M0,0 L1,0 L1,1 L0,1 Z " fill="#AC86C2" opacity="0.99215686" transform="translate(354,188)"/>
<path d="M0,0 L1,0 L1,1 L0,1 Z " fill="#AE86C3" opacity="0.24705882" transform="translate(156,188)"/>
<path d="M0,0 L1,0 L1,1 L0,1 Z " fill="#AD87C2" opacity="0.50980395" transform="translate(354,187)"/>
<path d="M0,0 L1,0 L1,1 L0,1 Z " fill="#AC86C3" opacity="0.5294118" transform="translate(157,187)"/>
<path d="M0,0 L1,0 L1,1 L0,1 Z " fill="#AD87C2" opacity="0.019607844" transform="translate(354,186)"/>
<path d="M0,0 L1,0 L1,1 L0,1 Z " fill="#AD86C2" opacity="0.023529412" transform="translate(157,186)"/>
<path d="M0,0 L1,0 L1,1 L0,1 Z " fill="#B187C7" opacity="0.14117648" transform="translate(353,185)"/>
<path d="M0,0 L1,0 L1,1 L0,1 Z " fill="#AC86C2" opacity="0.95686275" transform="translate(352,185)"/>
<path d="M0,0 L1,0 L1,1 L0,1 Z " fill="#AC86C2" opacity="0.9607843" transform="translate(159,185)"/>
<path d="M0,0 L1,0 L1,1 L0,1 Z " fill="#B189C4" opacity="0.15294118" transform="translate(158,185)"/>
<path d="M0,0 L1,0 L1,1 L0,1 Z " fill="#AE86C3" opacity="0.38039216" transform="translate(352,184)"/>
<path d="M0,0 L1,0 L1,1 L0,1 Z " fill="#AC86C3" opacity="0.39607844" transform="translate(159,184)"/>
<path d="M0,0 L1,0 L1,1 L0,1 Z " fill="#AD86C2" opacity="0.003921569" transform="translate(352,183)"/>
<path d="M0,0 L1,0 L1,1 L0,1 Z " fill="#AC86C2" opacity="0.003921569" transform="translate(159,183)"/>
<path d="M0,0 L1,0 L1,1 L0,1 Z " fill="#AC86C2" opacity="0.03137255" transform="translate(351,182)"/>
<path d="M0,0 L1,0 L1,1 L0,1 Z " fill="#AC86C2" opacity="0.8039216" transform="translate(350,182)"/>
<path d="M0,0 L1,0 L1,1 L0,1 Z " fill="#AC86C2" opacity="0.8156863" transform="translate(161,182)"/>
<path d="M0,0 L1,0 L1,1 L0,1 Z " fill="#AC86C2" opacity="0.039215688" transform="translate(160,182)"/>
<path d="M0,0 L1,0 L1,1 L0,1 Z " fill="#AD8CC6" opacity="0.12156863" transform="translate(350,181)"/>
<path d="M0,0 L1,0 L1,1 L0,1 Z " fill="#AD87C3" opacity="0.13333334" transform="translate(161,181)"/>
<path d="M0,0 L1,0 L1,1 L0,1 Z " fill="#AE89C4" opacity="0.27058825" transform="translate(349,180)"/>
<path d="M0,0 L1,0 L1,1 L0,1 Z " fill="#AC86C2" opacity="0.99215686" transform="translate(348,180)"/>
<path d="M0,0 L1,0 L1,1 L0,1 Z " fill="#AF88C4" opacity="0.28627452" transform="translate(162,180)"/>
<path d="M0,0 L1,0 L1,1 L0,1 Z " fill="#AC86C2" opacity="0.45490196" transform="translate(348,179)"/>
<path d="M0,0 L1,0 L1,1 L0,1 Z " fill="#AD86C3" opacity="0.003921569" transform="translate(348,178)"/>
<path d="M0,0 L1,0 L1,1 L0,1 Z " fill="#AD86C3" opacity="0.59607846" transform="translate(347,178)"/>
<path d="M0,0 L1,0 L1,1 L0,1 Z " fill="#AC86C3" opacity="0.6117647" transform="translate(164,178)"/>
<path d="M0,0 L1,0 L1,1 L0,1 Z " fill="#AC86C3" opacity="0.003921569" transform="translate(163,178)"/>
<path d="M0,0 L1,0 L1,1 L0,1 Z " fill="#AD87C2" opacity="0.015686275" transform="translate(347,177)"/>
<path d="M0,0 L1,0 L1,1 L0,1 Z " fill="#AC86C2" opacity="0.019607844" transform="translate(164,177)"/>
<path d="M0,0 L1,0 L1,1 L0,1 Z " fill="#AC86C2" opacity="0.050980393" transform="translate(346,176)"/>
<path d="M0,0 L1,0 L1,1 L0,1 Z " fill="#AC86C2" opacity="0.8156863" transform="translate(345,176)"/>
<path d="M0,0 L1,0 L1,1 L0,1 Z " fill="#AD86C3" opacity="0.8235294" transform="translate(166,176)"/>
<path d="M0,0 L1,0 L1,1 L0,1 Z " fill="#AD86C3" opacity="0.05882353" transform="translate(165,176)"/>
<path d="M0,0 L1,0 L1,1 L0,1 Z " fill="#B48EC7" opacity="0.105882354" transform="translate(345,175)"/>
<path d="M0,0 L1,0 L1,1 L0,1 Z " fill="#B08DC2" opacity="0.11372549" transform="translate(166,175)"/>
<path d="M0,0 L1,0 L1,1 L0,1 Z " fill="#B189C4" opacity="0.15294118" transform="translate(344,174)"/>
<path d="M0,0 L1,0 L1,1 L0,1 Z " fill="#AC86C2" opacity="0.9137255" transform="translate(343,174)"/>
<path d="M0,0 L1,0 L1,1 L0,1 Z " fill="#AC87C2" opacity="0.92156863" transform="translate(168,174)"/>
<path d="M0,0 L1,0 L1,1 L0,1 Z " fill="#AE89C7" opacity="0.16078432" transform="translate(167,174)"/>
<path d="M0,0 L1,0 L1,1 L0,1 Z " fill="#AC8BC2" opacity="0.18039216" transform="translate(343,173)"/>
<path d="M0,0 L1,0 L1,1 L0,1 Z " fill="#B08AC5" opacity="0.1882353" transform="translate(168,173)"/>
<path d="M0,0 L1,0 L1,1 L0,1 Z " fill="#AD87C6" opacity="0.20784314" transform="translate(342,172)"/>
<path d="M0,0 L1,0 L1,1 L0,1 Z " fill="#AC86C2" opacity="0.9490196" transform="translate(341,172)"/>
<path d="M0,0 L1,0 L1,1 L0,1 Z " fill="#AC86C2" opacity="0.9529412" transform="translate(170,172)"/>
<path d="M0,0 L1,0 L1,1 L0,1 Z " fill="#AD89C4" opacity="0.21960784" transform="translate(169,172)"/>
<path d="M0,0 L1,0 L1,1 L0,1 Z " fill="#AC86C2" opacity="0.9647059" transform="translate(340,171)"/>
<path d="M0,0 L1,0 L1,1 L0,1 Z " fill="#AC86C2" opacity="0.96862745" transform="translate(171,171)"/>
<path d="M0,0 L1,0 L1,1 L0,1 Z " fill="#AC86C2" opacity="0.9529412" transform="translate(172,170)"/>
<path d="M0,0 L1,0 L1,1 L0,1 Z " fill="#AD87C6" opacity="0.20784314" transform="translate(339,169)"/>
<path d="M0,0 L1,0 L1,1 L0,1 Z " fill="#AC86C2" opacity="0.93333334" transform="translate(338,169)"/>
<path d="M0,0 L1,0 L1,1 L0,1 Z " fill="#AD89C4" opacity="0.21960784" transform="translate(172,169)"/>
<path d="M0,0 L1,0 L1,1 L0,1 Z " fill="#AC8BC2" opacity="0.18039216" transform="translate(338,168)"/>
<path d="M0,0 L1,0 L1,1 L0,1 Z " fill="#B08AC5" opacity="0.1882353" transform="translate(173,168)"/>
<path d="M0,0 L1,0 L1,1 L0,1 Z " fill="#B189C4" opacity="0.15294118" transform="translate(337,167)"/>
<path d="M0,0 L1,0 L1,1 L0,1 Z " fill="#AC86C3" opacity="0.8901961" transform="translate(336,167)"/>
<path d="M0,0 L1,0 L1,1 L0,1 Z " fill="#B086C3" opacity="0.16470589" transform="translate(174,167)"/>
<path d="M0,0 L1,0 L1,1 L0,1 Z " fill="#AD89C9" opacity="0.10980392" transform="translate(336,166)"/>
<path d="M0,0 L1,0 L1,1 L0,1 Z " fill="#B388C4" opacity="0.11764706" transform="translate(175,166)"/>
<path d="M0,0 L1,0 L1,1 L0,1 Z " fill="#AC86C2" opacity="0.050980393" transform="translate(335,165)"/>
<path d="M0,0 L1,0 L1,1 L0,1 Z " fill="#AC86C2" opacity="0.7176471" transform="translate(334,165)"/>
<path d="M0,0 L1,0 L1,1 L0,1 Z " fill="#AC86C2" opacity="0.05882353" transform="translate(176,165)"/>
<path d="M0,0 L1,0 L1,1 L0,1 Z " fill="#AC87C2" opacity="0.015686275" transform="translate(334,164)"/>
<path d="M0,0 L1,0 L1,1 L0,1 Z " fill="#AC87C2" opacity="0.6" transform="translate(333,164)"/>
<path d="M0,0 L1,0 L1,1 L0,1 Z " fill="#AC87C2" opacity="0.019607844" transform="translate(177,164)"/>
<path d="M0,0 L1,0 L1,1 L0,1 Z " fill="#AD86C3" opacity="0.4627451" transform="translate(332,163)"/>
<path d="M0,0 L1,0 L1,1 L0,1 Z " fill="#AC86C3" opacity="0.003921569" transform="translate(178,163)"/>
<path d="M0,0 L1,0 L1,1 L0,1 Z " fill="#AF87C5" opacity="0.27450982" transform="translate(331,162)"/>
<path d="M0,0 L1,0 L1,1 L0,1 Z " fill="#AC87C2" opacity="0.92941177" transform="translate(330,162)"/>
<path d="M0,0 L1,0 L1,1 L0,1 Z " fill="#AC86C5" opacity="0.2901961" transform="translate(180,162)"/>
<path d="M0,0 L1,0 L1,1 L0,1 Z " fill="#B088C8" opacity="0.1254902" transform="translate(330,161)"/>
<path d="M0,0 L1,0 L1,1 L0,1 Z " fill="#AF8AC5" opacity="0.13725491" transform="translate(181,161)"/>
<path d="M0,0 L1,0 L1,1 L0,1 Z " fill="#AC87C2" opacity="0.03529412" transform="translate(329,160)"/>
<path d="M0,0 L1,0 L1,1 L0,1 Z " fill="#AC87C2" opacity="0.62352943" transform="translate(328,160)"/>
<path d="M0,0 L1,0 L1,1 L0,1 Z " fill="#AD86C3" opacity="0.039215688" transform="translate(182,160)"/>
<path d="M0,0 L1,0 L1,1 L0,1 Z " fill="#AD86C4" opacity="0.3882353" transform="translate(327,159)"/>
<path d="M0,0 L1,0 L1,1 L0,1 Z " fill="#AC86C2" opacity="0.95686275" transform="translate(326,159)"/>
<path d="M0,0 L1,0 L1,1 L0,1 Z " fill="#AC86C2" opacity="0.9647059" transform="translate(185,159)"/>
<path d="M0,0 L1,0 L1,1 L0,1 Z " fill="#AC87C2" opacity="0.003921569" transform="translate(183,159)"/>
<path d="M0,0 L1,0 L1,1 L0,1 Z " fill="#AC8AC8" opacity="0.14509805" transform="translate(326,158)"/>
<path d="M0,0 L1,0 L1,1 L0,1 Z " fill="#AC86C6" opacity="0.15686275" transform="translate(185,158)"/>
<path d="M0,0 L1,0 L1,1 L0,1 Z " fill="#AD86C2" opacity="0.019607844" transform="translate(325,157)"/>
<path d="M0,0 L1,0 L1,1 L0,1 Z " fill="#AD86C2" opacity="0.52156866" transform="translate(324,157)"/>
<path d="M0,0 L1,0 L1,1 L0,1 Z " fill="#AD86C2" opacity="0.023529412" transform="translate(186,157)"/>
<path d="M0,0 L1,0 L1,1 L0,1 Z " fill="#AD88C2" opacity="0.24313726" transform="translate(323,156)"/>
<path d="M0,0 L1,0 L1,1 L0,1 Z " fill="#AC86C2" opacity="0.8666667" transform="translate(322,156)"/>
<path d="M0,0 L1,0 L1,1 L0,1 Z " fill="#AD89C4" opacity="0.25490198" transform="translate(188,156)"/>
<path d="M0,0 L1,0 L1,1 L0,1 Z " fill="#AD86C3" opacity="0.039215688" transform="translate(322,155)"/>
<path d="M0,0 L1,0 L1,1 L0,1 Z " fill="#AD86C3" opacity="0.54509807" transform="translate(321,155)"/>
<path d="M0,0 L1,0 L1,1 L0,1 Z " fill="#AD86C3" opacity="0.047058824" transform="translate(189,155)"/>
<path d="M0,0 L1,0 L1,1 L0,1 Z " fill="#AC89C4" opacity="0.20392157" transform="translate(320,154)"/>
<path d="M0,0 L1,0 L1,1 L0,1 Z " fill="#AC86C2" opacity="0.8156863" transform="translate(319,154)"/>
<path d="M0,0 L1,0 L1,1 L0,1 Z " fill="#AC86C3" opacity="0.21568628" transform="translate(191,154)"/>
<path d="M0,0 L1,0 L1,1 L0,1 Z " fill="#AC86C2" opacity="0.019607844" transform="translate(319,153)"/>
<path d="M0,0 L1,0 L1,1 L0,1 Z " fill="#AC86C2" opacity="0.47058824" transform="translate(318,153)"/>
<path d="M0,0 L1,0 L1,1 L0,1 Z " fill="#AC86C2" opacity="0.96862745" transform="translate(194,153)"/>
<path d="M0,0 L1,0 L1,1 L0,1 Z " fill="#AD86C2" opacity="0.023529412" transform="translate(192,153)"/>
<path d="M0,0 L1,0 L1,1 L0,1 Z " fill="#AD89C9" opacity="0.10980392" transform="translate(317,152)"/>
<path d="M0,0 L1,0 L1,1 L0,1 Z " fill="#AD86C3" opacity="0.6431373" transform="translate(316,152)"/>
<path d="M0,0 L1,0 L1,1 L0,1 Z " fill="#B388C4" opacity="0.11764706" transform="translate(194,152)"/>
<path d="M0,0 L1,0 L1,1 L0,1 Z " fill="#AD89C4" opacity="0.21960784" transform="translate(315,151)"/>
<path d="M0,0 L1,0 L1,1 L0,1 Z " fill="#AC86C2" opacity="0.78431374" transform="translate(314,151)"/>
<path d="M0,0 L1,0 L1,1 L0,1 Z " fill="#AD86C3" opacity="0.23137255" transform="translate(196,151)"/>
<path d="M0,0 L1,0 L1,1 L0,1 Z " fill="#AC88C2" opacity="0.36078432" transform="translate(313,150)"/>
<path d="M0,0 L1,0 L1,1 L0,1 Z " fill="#AC86C2" opacity="0.8745098" transform="translate(312,150)"/>
<path d="M0,0 L1,0 L1,1 L0,1 Z " fill="#AC86C2" opacity="0.88235295" transform="translate(199,150)"/>
<path d="M0,0 L1,0 L1,1 L0,1 Z " fill="#AC86C2" opacity="0.007843138" transform="translate(197,150)"/>
<path d="M0,0 L1,0 L1,1 L0,1 Z " fill="#AC87C2" opacity="0.40784314" transform="translate(311,149)"/>
<path d="M0,0 L1,0 L1,1 L0,1 Z " fill="#AC86C2" opacity="0.89411765" transform="translate(310,149)"/>
<path d="M0,0 L1,0 L1,1 L0,1 Z " fill="#AC86C2" opacity="0.9019608" transform="translate(201,149)"/>
<path d="M0,0 L1,0 L1,1 L0,1 Z " fill="#AC88C4" opacity="0.02745098" transform="translate(199,149)"/>
<path d="M0,0 L1,0 L1,1 L0,1 Z " fill="#AC88C4" opacity="0.43529412" transform="translate(309,148)"/>
<path d="M0,0 L1,0 L1,1 L0,1 Z " fill="#AC86C2" opacity="0.9098039" transform="translate(308,148)"/>
<path d="M0,0 L1,0 L1,1 L0,1 Z " fill="#AC86C2" opacity="0.91764706" transform="translate(203,148)"/>
<path d="M0,0 L1,0 L1,1 L0,1 Z " fill="#AC86C3" opacity="0.03529412" transform="translate(201,148)"/>
<path d="M0,0 L1,0 L1,1 L0,1 Z " fill="#AD88C2" opacity="0.42745098" transform="translate(307,147)"/>
<path d="M0,0 L1,0 L1,1 L0,1 Z " fill="#AC86C2" opacity="0.87058824" transform="translate(306,147)"/>
<path d="M0,0 L1,0 L1,1 L0,1 Z " fill="#AC86C2" opacity="0.8784314" transform="translate(205,147)"/>
<path d="M0,0 L1,0 L1,1 L0,1 Z " fill="#AD86C2" opacity="0.043137256" transform="translate(203,147)"/>
<path d="M0,0 L1,0 L1,1 L0,1 Z " fill="#AD86C3" opacity="0.32941177" transform="translate(305,146)"/>
<path d="M0,0 L1,0 L1,1 L0,1 Z " fill="#AC86C2" opacity="0.78431374" transform="translate(304,146)"/>
<path d="M0,0 L1,0 L1,1 L0,1 Z " fill="#AC86C3" opacity="0.7921569" transform="translate(207,146)"/>
<path d="M0,0 L1,0 L1,1 L0,1 Z " fill="#AC88C4" opacity="0.015686275" transform="translate(205,146)"/>
<path d="M0,0 L1,0 L1,1 L0,1 Z " fill="#AE88C4" opacity="0.23529412" transform="translate(303,145)"/>
<path d="M0,0 L1,0 L1,1 L0,1 Z " fill="#AC87C2" opacity="0.6745098" transform="translate(302,145)"/>
<path d="M0,0 L1,0 L1,1 L0,1 Z " fill="#AC86C2" opacity="0.9843137" transform="translate(301,145)"/>
<path d="M0,0 L1,0 L1,1 L0,1 Z " fill="#AD86C3" opacity="0.6784314" transform="translate(209,145)"/>
<path d="M0,0 L1,0 L1,1 L0,1 Z " fill="#AC86C5" opacity="0.003921569" transform="translate(207,145)"/>
<path d="M0,0 L1,0 L1,1 L0,1 Z " fill="#AC87C3" opacity="0.46666667" transform="translate(300,144)"/>
<path d="M0,0 L1,0 L1,1 L0,1 Z " fill="#AD86C2" opacity="0.85882354" transform="translate(299,144)"/>
<path d="M0,0 L1,0 L1,1 L0,1 Z " fill="#AC86C2" opacity="0.8627451" transform="translate(212,144)"/>
<path d="M0,0 L1,0 L1,1 L0,1 Z " fill="#B58ACA" opacity="0.09411765" transform="translate(210,144)"/>
<path d="M0,0 L1,0 L1,1 L0,1 Z " fill="#AD89C4" opacity="0.25490198" transform="translate(298,143)"/>
<path d="M0,0 L1,0 L1,1 L0,1 Z " fill="#AC86C3" opacity="0.64705884" transform="translate(297,143)"/>
<path d="M0,0 L1,0 L1,1 L0,1 Z " fill="#AC86C2" opacity="0.9607843" transform="translate(296,143)"/>
<path d="M0,0 L1,0 L1,1 L0,1 Z " fill="#AD86C2" opacity="0.654902" transform="translate(214,143)"/>
<path d="M0,0 L1,0 L1,1 L0,1 Z " fill="#AE87C5" opacity="0.007843138" transform="translate(212,143)"/>
<path d="M0,0 L1,0 L1,1 L0,1 Z " fill="#AC88C4" opacity="0.3372549" transform="translate(295,142)"/>
<path d="M0,0 L1,0 L1,1 L0,1 Z " fill="#AD86C3" opacity="0.6784314" transform="translate(294,142)"/>
<path d="M0,0 L1,0 L1,1 L0,1 Z " fill="#AC86C2" opacity="0.96862745" transform="translate(293,142)"/>
<path d="M0,0 L1,0 L1,1 L0,1 Z " fill="#AC86C2" opacity="0.6862745" transform="translate(217,142)"/>
<path d="M0,0 L1,0 L1,1 L0,1 Z " fill="#AE88C2" opacity="0.047058824" transform="translate(215,142)"/>
<path d="M0,0 L1,0 L1,1 L0,1 Z " fill="#AD88C4" opacity="0.3529412" transform="translate(292,141)"/>
<path d="M0,0 L1,0 L1,1 L0,1 Z " fill="#AC87C2" opacity="0.68235296" transform="translate(291,141)"/>
<path d="M0,0 L1,0 L1,1 L0,1 Z " fill="#AC86C2" opacity="0.9490196" transform="translate(290,141)"/>
<path d="M0,0 L1,0 L1,1 L0,1 Z " fill="#AC86C2" opacity="0.6862745" transform="translate(220,141)"/>
<path d="M0,0 L1,0 L1,1 L0,1 Z " fill="#AC88C2" opacity="0.05490196" transform="translate(218,141)"/>
<path d="M0,0 L1,0 L1,1 L0,1 Z " fill="#AC88C4" opacity="0.019607844" transform="translate(290,140)"/>
<path d="M0,0 L1,0 L1,1 L0,1 Z " fill="#AD86C2" opacity="0.5372549" transform="translate(288,140)"/>
<path d="M0,0 L1,0 L1,1 L0,1 Z " fill="#AC86C2" opacity="0.81960785" transform="translate(287,140)"/>
<path d="M0,0 L1,0 L1,1 L0,1 Z " fill="#AC87C2" opacity="0.5411765" transform="translate(223,140)"/>
<path d="M0,0 L1,0 L1,1 L0,1 Z " fill="#AD89C4" opacity="0.023529412" transform="translate(221,140)"/>
<path d="M0,0 L1,0 L1,1 L0,1 Z " fill="#B48EC7" opacity="0.105882354" transform="translate(286,139)"/>
<path d="M0,0 L1,0 L1,1 L0,1 Z " fill="#AC87C2" opacity="0.5921569" transform="translate(284,139)"/>
<path d="M0,0 L1,0 L1,1 L0,1 Z " fill="#AD86C3" opacity="0.8235294" transform="translate(283,139)"/>
<path d="M0,0 L1,0 L1,1 L0,1 Z " fill="#AD86C3" opacity="0.59607846" transform="translate(227,139)"/>
<path d="M0,0 L1,0 L1,1 L0,1 Z " fill="#AD89C9" opacity="0.10980392" transform="translate(225,139)"/>
<path d="M0,0 L1,0 L1,1 L0,1 Z " fill="#AE87C3" opacity="0.28235295" transform="translate(281,138)"/>
<path d="M0,0 L1,0 L1,1 L0,1 Z " fill="#AC86C3" opacity="0.70980394" transform="translate(279,138)"/>
<path d="M0,0 L1,0 L1,1 L0,1 Z " fill="#AC86C2" opacity="0.8862745" transform="translate(278,138)"/>
<path d="M0,0 L1,0 L1,1 L0,1 Z " fill="#AC86C3" opacity="0.8901961" transform="translate(233,138)"/>
<path d="M0,0 L1,0 L1,1 L0,1 Z " fill="#AD86C3" opacity="0.5137255" transform="translate(231,138)"/>
<path d="M0,0 L1,0 L1,1 L0,1 Z " fill="#AF88C4" opacity="0.0627451" transform="translate(229,138)"/>
<path d="M0,0 L1,0 L1,1 L0,1 Z " fill="#AD88C2" opacity="0.06666667" transform="translate(277,137)"/>
<path d="M0,0 L1,0 L1,1 L0,1 Z " fill="#AD87C2" opacity="0.42352942" transform="translate(275,137)"/>
<path d="M0,0 L1,0 L1,1 L0,1 Z " fill="#AC86C2" opacity="0.74509805" transform="translate(273,137)"/>
<path d="M0,0 L1,0 L1,1 L0,1 Z " fill="#AC86C2" opacity="0.87058824" transform="translate(272,137)"/>
<path d="M0,0 L1,0 L1,1 L0,1 Z " fill="#AC86C2" opacity="0.9843137" transform="translate(271,137)"/>
<path d="M0,0 L1,0 L1,1 L0,1 Z " fill="#AC86C2" opacity="0.9882353" transform="translate(240,137)"/>
<path d="M0,0 L1,0 L1,1 L0,1 Z " fill="#AC86C2" opacity="0.74509805" transform="translate(238,137)"/>
<path d="M0,0 L1,0 L1,1 L0,1 Z " fill="#AD88C2" opacity="0.42745098" transform="translate(236,137)"/>
<path d="M0,0 L1,0 L1,1 L0,1 Z " fill="#AE86C3" opacity="0.07058824" transform="translate(234,137)"/>
<path d="M0,0 L1,0 L1,1 L0,1 Z " fill="#AD8CC6" opacity="0.015686275" transform="translate(271,136)"/>
<path d="M0,0 L1,0 L1,1 L0,1 Z " fill="#AC88C4" opacity="0.2509804" transform="translate(269,136)"/>
<path d="M0,0 L1,0 L1,1 L0,1 Z " fill="#AC87C3" opacity="0.46666667" transform="translate(267,136)"/>
<path d="M0,0 L1,0 L1,1 L0,1 Z " fill="#AC87C2" opacity="0.6156863" transform="translate(265,136)"/>
<path d="M0,0 L1,0 L1,1 L0,1 Z " fill="#AC86C2" opacity="0.76862746" transform="translate(263,136)"/>
<path d="M0,0 L1,0 L1,1 L0,1 Z " fill="#AC86C2" opacity="0.84313726" transform="translate(262,136)"/>
<path d="M0,0 L1,0 L1,1 L0,1 Z " fill="#AC86C2" opacity="0.9098039" transform="translate(260,136)"/>
<path d="M0,0 L1,0 L1,1 L0,1 Z " fill="#AC86C2" opacity="0.9607843" transform="translate(258,136)"/>
<path d="M0,0 L1,0 L1,1 L0,1 Z " fill="#AC86C2" opacity="0.9843137" transform="translate(257,136)"/>
<path d="M0,0 L1,0 L1,1 L0,1 Z " fill="#AC86C2" opacity="0.9843137" transform="translate(254,136)"/>
<path d="M0,0 L1,0 L1,1 L0,1 Z " fill="#AC86C2" opacity="0.9372549" transform="translate(252,136)"/>
<path d="M0,0 L1,0 L1,1 L0,1 Z " fill="#AC86C2" opacity="0.8862745" transform="translate(250,136)"/>
<path d="M0,0 L1,0 L1,1 L0,1 Z " fill="#AC86C2" opacity="0.76862746" transform="translate(248,136)"/>
<path d="M0,0 L1,0 L1,1 L0,1 Z " fill="#AD86C2" opacity="0.61960787" transform="translate(246,136)"/>
<path d="M0,0 L1,0 L1,1 L0,1 Z " fill="#AC87C3" opacity="0.46666667" transform="translate(244,136)"/>
<path d="M0,0 L1,0 L1,1 L0,1 Z " fill="#AC88C4" opacity="0.2509804" transform="translate(242,136)"/>
<path d="M0,0 L1,0 L1,1 L0,1 Z " fill="#AD8CC6" opacity="0.015686275" transform="translate(240,136)"/>
</svg>
