<?xml version="1.0" encoding="UTF-8"?>
<!-- Generator: visioncortex VTracer 0.6.4 -->
<svg version="1.1" xmlns="http://www.w3.org/2000/svg" width="128" height="128">
<path d="M0,0 L3,0 L3,3 L2,3 L2,4 L0,4 L0,3 L-1,3 L-1,1 L0,1 Z M2,4 L3,4 L3,5 L2,5 Z M3,5 L4,5 L4,6 L5,6 L5,8 L6,8 L6,9 L7,9 L7,10 L8,10 L8,12 L9,12 L9,13 L10,13 L10,15 L11,15 L11,16 L15,16 L15,15 L20,15 L20,14 L25,14 L25,15 L30,15 L30,16 L33,16 L33,17 L36,17 L36,18 L37,18 L37,19 L39,19 L39,20 L40,20 L40,21 L42,21 L42,22 L43,22 L43,23 L44,23 L44,24 L45,24 L45,26 L46,26 L46,27 L47,27 L47,28 L48,28 L48,30 L49,30 L49,32 L50,32 L50,35 L51,35 L51,38 L52,38 L52,49 L51,49 L51,53 L50,53 L50,56 L49,56 L49,58 L48,58 L48,59 L47,59 L47,61 L46,61 L46,62 L45,62 L45,63 L44,63 L44,64 L43,64 L43,65 L42,65 L42,66 L41,66 L41,67 L40,67 L40,68 L39,68 L39,69 L37,69 L37,70 L35,70 L35,71 L33,71 L33,72 L29,72 L29,73 L16,73 L16,72 L13,72 L13,71 L10,71 L10,70 L8,70 L8,69 L7,69 L7,68 L5,68 L5,67 L4,67 L4,66 L3,66 L3,65 L2,65 L2,64 L1,64 L1,63 L0,63 L0,62 L-1,62 L-1,61 L-2,61 L-2,59 L-3,59 L-3,57 L-4,57 L-4,55 L-5,55 L-5,53 L-6,53 L-6,49 L-7,49 L-7,39 L-6,39 L-6,35 L-5,35 L-5,32 L-4,32 L-4,30 L-3,30 L-3,29 L-2,29 L-2,27 L-1,27 L-1,26 L0,26 L0,24 L1,24 L1,23 L2,23 L2,22 L4,22 L4,21 L5,21 L5,20 L6,20 L6,19 L8,19 L8,18 L9,18 L9,17 L8,17 L8,15 L7,15 L7,13 L6,13 L6,11 L5,11 L5,9 L4,9 L4,7 L3,7 Z " fill="#666666" transform="translate(68,21)"/>
<path d="M0,0 L6,0 L6,1 L7,1 L7,2 L8,2 L8,3 L9,3 L9,6 L10,6 L10,16 L22,16 L22,17 L24,17 L24,18 L25,18 L25,21 L26,21 L26,23 L25,23 L25,26 L24,26 L24,27 L22,27 L22,28 L10,28 L10,40 L9,40 L9,43 L8,43 L8,44 L7,44 L7,45 L0,45 L0,44 L-2,44 L-2,42 L-3,42 L-3,29 L-14,29 L-14,28 L-17,28 L-17,27 L-18,27 L-18,26 L-19,26 L-19,25 L-20,25 L-20,20 L-19,20 L-19,18 L-18,18 L-18,17 L-16,17 L-16,16 L-3,16 L-3,4 L-2,4 L-2,2 L-1,2 L-1,1 L0,1 Z " fill="#FFFFFF" transform="translate(28,42)"/>
<path d="M0,0 L1,0 L1,1 L0,1 Z M18,22 L19,22 L19,23 L18,23 Z " fill="#FFFFFF" opacity="0.99607843" transform="translate(35,43)"/>
<path d="M0,0 L6,0 L6,1 L8,1 L8,2 L9,2 L9,3 L10,3 L10,4 L9,4 L9,6 L7,6 L7,3 L5,3 L5,8 L4,8 L4,5 L3,5 L3,4 L2,4 L2,8 L1,8 L1,6 L-1,6 L-1,9 L-2,9 L-2,6 L-4,6 L-4,10 L-3,10 L-3,13 L-2,13 L-2,15 L-1,15 L-1,14 L0,14 L0,12 L1,12 L1,13 L3,13 L3,11 L4,11 L4,14 L5,14 L5,13 L6,13 L6,8 L7,8 L7,11 L8,11 L8,12 L9,12 L9,11 L10,11 L10,6 L11,6 L11,7 L12,7 L12,10 L11,10 L11,13 L10,13 L10,14 L9,14 L9,15 L8,15 L8,16 L7,16 L7,17 L4,17 L4,18 L1,18 L1,17 L-1,17 L-1,16 L-3,16 L-3,15 L-4,15 L-4,14 L-5,14 L-5,12 L-6,12 L-6,5 L-5,5 L-5,4 L-4,4 L-4,3 L-3,3 L-3,2 L-2,2 L-2,1 L0,1 Z " fill="#FFD42A" transform="translate(101,49)"/>
<path d="M0,0 L1,0 L1,1 L0,1 Z " fill="#FED32A" transform="translate(107,52)"/>
<path d="M0,0 L4,0 L4,1 L6,1 L6,2 L7,2 L7,3 L9,3 L9,4 L10,4 L10,5 L11,5 L11,6 L12,6 L12,9 L11,9 L11,11 L10,11 L10,12 L9,12 L9,14 L8,14 L8,15 L7,15 L7,16 L6,16 L6,18 L5,18 L5,19 L4,19 L4,21 L0,21 L0,20 L-2,20 L-2,19 L-3,19 L-3,18 L-5,18 L-5,17 L-6,17 L-6,16 L-7,16 L-7,15 L-8,15 L-8,12 L-7,12 L-7,10 L-6,10 L-6,9 L-5,9 L-5,7 L-4,7 L-4,6 L-3,6 L-3,4 L-2,4 L-2,3 L-1,3 L-1,2 L0,2 Z " fill="#000000" transform="translate(74,54)"/>
<path d="M0,0 L3,0 L3,3 L2,3 L2,4 L0,4 L0,3 L-1,3 L-1,1 L0,1 Z M2,4 L3,4 L3,5 L2,5 Z M3,5 L4,5 L4,6 L5,6 L5,8 L6,8 L6,9 L7,9 L7,10 L8,10 L8,12 L9,12 L9,13 L10,13 L10,15 L11,15 L11,16 L12,16 L12,18 L13,18 L13,20 L9,20 L9,17 L8,17 L8,15 L7,15 L7,13 L6,13 L6,11 L5,11 L5,9 L4,9 L4,7 L3,7 Z M2,22 L3,22 L3,23 L2,23 Z M1,23 L2,23 L2,24 L1,24 Z M0,24 L1,24 L1,25 L0,25 Z " fill="#646464" transform="translate(68,21)"/>
<path d="M0,0 L9,0 L9,1 L10,1 L10,2 L11,2 L11,3 L12,3 L12,4 L13,4 L13,6 L14,6 L14,8 L15,8 L15,13 L14,13 L14,16 L13,16 L13,17 L12,17 L12,19 L10,19 L10,20 L9,20 L9,21 L6,21 L6,22 L1,22 L1,21 L-1,21 L-1,20 L-3,20 L-3,19 L-4,19 L-4,18 L-5,18 L-5,17 L-6,17 L-6,15 L-7,15 L-7,6 L-6,6 L-6,5 L-5,5 L-5,3 L-4,3 L-4,2 L-2,2 L-2,1 L0,1 Z M1,1 L1,2 L-1,2 L-1,3 L-2,3 L-2,4 L-3,4 L-3,5 L-4,5 L-4,6 L-5,6 L-5,8 L-6,8 L-6,13 L-5,13 L-5,15 L-4,15 L-4,17 L-3,17 L-3,18 L-2,18 L-2,19 L0,19 L0,20 L7,20 L7,19 L9,19 L9,18 L10,18 L10,17 L11,17 L11,16 L12,16 L12,14 L13,14 L13,9 L12,9 L12,8 L11,8 L11,10 L10,10 L10,7 L11,7 L11,4 L10,4 L10,3 L8,3 L8,2 L6,2 L6,1 Z " fill="#3D3D3C" transform="translate(100,47)"/>
<path d="M0,0 L2,0 L2,1 L6,1 L6,0 L9,0 L9,8 L6,8 L6,7 L5,7 L5,8 L4,8 L4,9 L0,9 L0,7 L-1,7 L-1,1 L0,1 Z " fill="#666666" transform="translate(92,74)"/>
<path d="M0,0 L2,0 L2,2 L3,2 L3,3 L4,3 L4,6 L3,6 L3,4 L2,4 L2,3 L1,3 L1,5 L0,5 L0,7 L-1,7 L-1,5 L-2,5 L-2,8 L-4,8 L-4,6 L-5,6 L-5,7 L-6,7 L-6,9 L-7,9 L-7,6 L-8,6 L-8,4 L-9,4 L-9,2 L-8,2 L-8,3 L-7,3 L-7,5 L-6,5 L-6,2 L-4,2 L-4,4 L-3,4 L-3,1 L-1,1 L-1,4 L0,4 Z " fill="#493D0C" transform="translate(106,54)"/>
<path d="M0,0 L7,0 L7,1 L1,1 L1,2 L-1,2 L-1,3 L-2,3 L-2,4 L-3,4 L-3,5 L-4,5 L-4,6 L-5,6 L-5,8 L-6,8 L-6,13 L-5,13 L-5,15 L-4,15 L-4,17 L-3,17 L-3,18 L-2,18 L-2,19 L0,19 L0,20 L3,20 L3,21 L-1,21 L-1,20 L-3,20 L-3,19 L-4,19 L-4,18 L-5,18 L-5,17 L-6,17 L-6,15 L-7,15 L-7,6 L-6,6 L-6,5 L-5,5 L-5,3 L-4,3 L-4,2 L-2,2 L-2,1 L0,1 Z " fill="#545454" transform="translate(100,47)"/>
<path d="M0,0 L3,0 L3,2 L2,2 L2,3 L1,3 L1,4 L-1,4 L-1,5 L-4,5 L-4,6 L-7,6 L-7,3 L-6,3 L-6,2 L-1,2 L-1,1 L0,1 Z " fill="#787878" transform="translate(82,39)"/>
<path d="M0,0 L3,0 L3,3 L2,3 L2,4 L0,4 L0,3 L-1,3 L-1,1 L0,1 Z " fill="#640909" transform="translate(68,21)"/>
<path d="M0,0 L2,0 L2,1 L3,1 L3,8 L0,8 L0,7 L-1,7 L-1,1 L0,1 Z " fill="#EEFFAA" transform="translate(111,74)"/>
<path d="M0,0 L2,0 L2,1 L3,1 L3,7 L2,7 L2,8 L-1,8 L-1,1 L0,1 Z " fill="#EEFFAA" transform="translate(105,74)"/>
<path d="M0,0 L2,0 L2,1 L3,1 L3,8 L0,8 L0,7 L-1,7 L-1,1 L0,1 Z " fill="#EEFFAA" transform="translate(92,74)"/>
<path d="M0,0 L1,0 L1,1 L0,1 Z " fill="#FFFFFF" opacity="0.654902" transform="translate(24,79)"/>
<path d="M0,0 L1,0 L1,1 L3,1 L3,4 L2,4 L2,5 L1,5 L1,6 L0,6 L0,5 L-1,5 L-1,4 L-2,4 L-2,2 L-1,2 L-1,1 L0,1 Z M-3,5 L-2,5 L-2,6 L0,6 L0,8 L-2,8 L-2,7 L-3,7 Z " fill="#707064" transform="translate(82,68)"/>
<path d="M0,0 L3,0 L3,8 L0,8 Z " fill="#EEFFAA" transform="translate(98,74)"/>
<path d="M0,0 L2,0 L2,2 L3,2 L3,3 L4,3 L4,6 L3,6 L3,4 L2,4 L2,3 L1,3 L1,5 L0,5 L0,7 L-1,7 L-1,5 L-3,5 L-3,1 L-1,1 L-1,4 L0,4 Z " fill="#1D1905" transform="translate(106,54)"/>
<path d="M0,0 L2,0 L2,1 L3,1 L3,2 L4,2 L4,3 L5,3 L5,4 L6,4 L6,6 L7,6 L7,7 L6,7 L6,9 L5,9 L5,8 L4,8 L4,10 L3,10 L3,7 L4,7 L4,4 L3,4 L3,3 L1,3 L1,2 L-1,2 L-1,1 L0,1 Z " fill="#484846" transform="translate(107,47)"/>
<path d="M0,0 L1,0 L1,1 L0,1 Z M1,1 L2,1 L2,2 L3,2 L3,4 L2,4 L2,3 L1,3 Z " fill="#646464" transform="translate(70,25)"/>
<path d="M0,0 L7,0 L7,1 L0,1 Z " fill="#FFFFFF" opacity="0.76862746" transform="translate(40,57)"/>
<path d="M0,0 L4,0 L4,1 L5,1 L5,9 L4,9 L4,2 L3,2 L3,1 L1,1 L1,2 L0,2 Z M0,9 L4,9 L4,10 L0,10 Z " fill="#64675A" transform="translate(110,73)"/>
<path d="M0,0 L1,0 L1,1 L0,1 Z M-1,1 L0,1 L0,2 L-1,2 Z M-2,2 L-1,2 L-1,3 L-2,3 Z " fill="#666666" transform="translate(70,43)"/>
<path d="M0,0 L1,0 L1,1 L0,1 Z " fill="#666666" opacity="0.8509804" transform="translate(90,94)"/>
<path d="M0,0 L1,0 L1,1 L0,1 Z M-3,1 L0,1 L0,2 L3,2 L3,5 L2,5 L2,3 L-1,3 L-1,4 L-2,4 L-2,3 L-3,3 Z M1,5 L2,5 L2,6 L1,6 Z " fill="#666666" transform="translate(83,36)"/>
<path d="M0,0 L2,0 L2,1 L3,1 L3,7 L1,7 L1,1 L0,1 Z " fill="#5D5D5B" transform="translate(107,74)"/>
<path d="M0,0 L3,0 L3,1 L4,1 L4,2 L1,2 L1,3 L2,3 L2,5 L1,5 L1,4 L-1,4 L-1,1 L0,1 Z " fill="#89895C" transform="translate(85,64)"/>
<path d="M0,0 L2,0 L2,1 L3,1 L3,3 L2,3 L2,5 L0,5 L0,4 L-1,4 L-1,2 L0,2 Z " fill="#757561" transform="translate(67,58)"/>
<path d="M0,0 L1,0 L1,1 L2,1 L2,4 L1,4 L1,5 L-1,5 L-1,4 L-2,4 L-2,2 L-1,2 L-1,1 L0,1 Z " fill="#6E6E64" transform="translate(71,53)"/>
<path d="M0,0 L3,0 L3,2 L2,2 L2,3 L1,3 L1,4 L-1,4 L-1,5 L-2,5 L-2,3 L-1,3 L-1,1 L0,1 Z " fill="#787878" transform="translate(82,39)"/>
<path d="M0,0 L1,0 L1,1 L0,1 Z " fill="#FFFFFF" opacity="0.6862745" transform="translate(18,57)"/>
<path d="M0,0 L2,0 L2,1 L4,1 L4,2 L3,2 L3,3 L2,3 L2,2 L1,2 L1,1 L0,1 Z M-1,2 L0,2 L0,3 L2,3 L2,5 L0,5 L0,4 L-1,4 Z " fill="#8F8F5A" transform="translate(80,71)"/>
<path d="M0,0 L1,0 L1,10 L0,10 Z " fill="#FFFFFF" opacity="0.10980392" transform="translate(38,71)"/>
<path d="M0,0 L1,0 L1,1 L0,1 Z " fill="#666666" opacity="0.5294118" transform="translate(120,64)"/>
<path d="M0,0 L1,0 L1,1 L2,1 L2,2 L3,2 L3,3 L5,3 L5,4 L8,4 L8,5 L4,5 L4,4 L2,4 L2,3 L1,3 L1,2 L0,2 Z " fill="#474745" transform="translate(95,63)"/>
<path d="M0,0 L1,0 L1,1 L2,1 L2,6 L1,6 L1,7 L0,7 Z " fill="#3B3B3B" transform="translate(113,54)"/>
<path d="M0,0 L1,0 L1,8 L0,8 Z " fill="#FFFFFF" opacity="0.5019608" transform="translate(24,49)"/>
<path d="M0,0 L7,0 L7,1 L1,1 L1,2 L-1,2 L-1,3 L-3,3 L-3,2 L-2,2 L-2,1 L0,1 Z " fill="#58523A" transform="translate(100,47)"/>
<path d="M0,0 L1,0 L1,8 L-3,8 L-3,7 L0,7 Z " fill="#66695A" transform="translate(95,75)"/>
<path d="M0,0 L1,0 L1,1 L0,1 Z " fill="#FFFFFF" opacity="0.03529412" transform="translate(16,71)"/>
<path d="M0,0 L1,0 L1,1 L0,1 Z " fill="#686868" opacity="0.3254902" transform="translate(60,67)"/>
<path d="M0,0 L2,0 L2,1 L1,1 L1,2 L0,2 L0,3 L-1,3 L-1,4 L-2,4 L-2,5 L-3,5 L-3,6 L-4,6 L-4,4 L-3,4 L-3,3 L-2,3 L-2,2 L-1,2 L-1,1 L0,1 Z " fill="#FFD42A" transform="translate(99,49)"/>
<path d="M0,0 L1,0 L1,1 L0,1 Z " fill="#FFFFFF" opacity="0.654902" transform="translate(32,41)"/>
<path d="M0,0 L1,0 L1,1 L0,1 Z " fill="#FFFFFF" opacity="0.85490197" transform="translate(32,87)"/>
<path d="M0,0 L2,0 L2,1 L1,1 L1,8 L0,8 Z " fill="#66695A" transform="translate(103,74)"/>
<path d="M0,0 L4,0 L4,1 L3,1 L3,2 L-2,2 L-2,1 L0,1 Z " fill="#4D4D4D" transform="translate(103,67)"/>
<path d="M0,0 L1,0 L1,7 L0,7 Z " fill="#FFFFFF" opacity="0.10980392" transform="translate(38,50)"/>
<path d="M0,0 L1,0 L1,1 L0,1 Z M-1,1 L0,1 L0,2 L-1,2 Z " fill="#787878" transform="translate(76,42)"/>
<path d="M0,0 L1,0 L1,1 L0,1 Z " fill="#767676" transform="translate(75,42)"/>
<path d="M0,0 L1,0 L1,1 L0,1 Z " fill="#FFFFFF" opacity="0.7647059" transform="translate(44,70)"/>
<path d="M0,0 L1,0 L1,1 L0,1 Z " fill="#666666" opacity="0.93333334" transform="translate(62,55)"/>
<path d="M0,0 L1,0 L1,2 L2,2 L2,4 L1,4 L1,3 L0,3 L0,5 L-1,5 L-1,2 L0,2 Z " fill="#FBD12B" transform="translate(111,52)"/>
<path d="M0,0 L1,0 L1,1 L4,1 L4,0 L5,0 L5,2 L0,2 Z " fill="#626261" transform="translate(97,81)"/>
<path d="M0,0 L1,0 L1,1 L0,1 Z " fill="#FFFFFF" opacity="0.6313726" transform="translate(24,74)"/>
<path d="M0,0 L1,0 L1,1 L0,1 Z " fill="#FFFFFF" opacity="0.4392157" transform="translate(7,64)"/>
<path d="M0,0 L1,0 L1,1 L0,1 Z M-1,1 L0,1 L0,2 L-1,2 Z " fill="#FFFFFF" transform="translate(10,59)"/>
<path d="M0,0 L1,0 L1,1 L2,1 L2,2 L3,2 L3,4 L2,4 L2,3 L1,3 L1,2 L-1,2 L-1,1 L0,1 Z " fill="#6F6F64" transform="translate(68,56)"/>
<path d="M0,0 L2,0 L2,3 L1,3 L1,4 L0,4 Z " fill="#000000" transform="translate(103,55)"/>
<path d="M0,0 L2,0 L2,1 L3,1 L3,2 L2,2 L2,3 L1,3 L1,2 L-1,2 L-1,1 L0,1 Z " fill="#3D3D3C" transform="translate(107,47)"/>
<path d="M0,0 L4,0 L4,3 L3,3 L3,1 L0,1 Z M2,3 L3,3 L3,4 L2,4 Z " fill="#717171" transform="translate(82,38)"/>
<path d="M0,0 L1,0 L1,1 L0,1 Z " fill="#696969" opacity="0.13333334" transform="translate(90,34)"/>
<path d="M0,0 L1,0 L1,1 L0,1 Z " fill="#666666" opacity="0.99607843" transform="translate(80,92)"/>
<path d="M0,0 L1,0 L1,6 L0,6 Z " fill="#C1CE8E" transform="translate(110,75)"/>
<path d="M0,0 L1,0 L1,6 L0,6 Z " fill="#B8C489" transform="translate(107,75)"/>
<path d="M0,0 L1,0 L1,6 L0,6 Z " fill="#83896A" transform="translate(101,75)"/>
<path d="M0,0 L1,0 L1,6 L0,6 Z " fill="#747861" transform="translate(97,75)"/>
<path d="M0,0 L1,0 L1,6 L0,6 Z " fill="#B8C489" transform="translate(91,75)"/>
<path d="M0,0 L1,0 L1,4 L2,4 L2,5 L0,5 Z " fill="#5B5B5B" transform="translate(108,76)"/>
<path d="M0,0 L1,0 L1,6 L0,6 Z " fill="#5B5B5B" transform="translate(90,75)"/>
<path d="M0,0 L4,0 L4,2 L3,2 L3,1 L1,1 L1,2 L0,2 Z " fill="#606259" transform="translate(110,73)"/>
<path d="M0,0 L1,0 L1,1 L3,1 L3,3 L1,3 L1,2 L0,2 Z " fill="#959558" transform="translate(82,68)"/>
<path d="M0,0 L3,0 L3,1 L4,1 L4,2 L1,2 L1,1 L0,1 Z " fill="#9B9B56" transform="translate(85,64)"/>
<path d="M0,0 L2,0 L2,2 L1,2 L1,3 L-1,3 L-1,2 L0,2 Z " fill="#434240" transform="translate(112,61)"/>
<path d="M0,0 L1,0 L1,2 L2,2 L2,3 L1,3 L1,4 L0,4 L0,2 L-1,2 L-1,1 L0,1 Z " fill="#3E3E3C" transform="translate(94,60)"/>
<path d="M0,0 L1,0 L1,6 L0,6 Z " fill="#3B3B3B" transform="translate(93,55)"/>
<path d="M0,0 L2,0 L2,1 L3,1 L3,4 L2,4 L2,2 L1,2 L1,1 L0,1 Z " fill="#40350B" transform="translate(107,56)"/>
<path d="M0,0 L1,0 L1,1 L2,1 L2,2 L4,2 L4,3 L1,3 L1,2 L0,2 Z " fill="#010101" transform="translate(79,55)"/>
<path d="M0,0 L1,0 L1,1 L0,1 Z " fill="#666666" opacity="0.9764706" transform="translate(118,55)"/>
<path d="M0,0 L6,0 L6,1 L0,1 Z " fill="#3B3B3B" transform="translate(101,47)"/>
<path d="M0,0 L1,0 L1,1 L0,1 Z M-1,1 L0,1 L0,2 L-1,2 Z M-2,2 L-1,2 L-1,3 L-2,3 Z " fill="#FFFFFF" transform="translate(28,42)"/>
<path d="M0,0 L1,0 L1,2 L2,2 L2,3 L0,3 L0,4 L-1,4 L-1,2 L0,2 Z " fill="#787878" transform="translate(81,40)"/>
<path d="M0,0 L1,0 L1,1 L0,1 Z " fill="#666666" opacity="0.8" transform="translate(73,40)"/>
<path d="M0,0 L1,0 L1,5 L0,5 Z " fill="#646464" transform="translate(102,76)"/>
<path d="M0,0 L2,0 L2,1 L3,1 L3,2 L1,2 L1,1 L0,1 Z M3,2 L4,2 L4,3 L3,3 Z " fill="#676767" transform="translate(79,72)"/>
<path d="M0,0 L2,0 L2,1 L4,1 L4,2 L1,2 L1,1 L0,1 Z " fill="#9B9B56" transform="translate(80,71)"/>
<path d="M0,0 L1,0 L1,1 L0,1 Z " fill="#FFFFFF" opacity="0.8039216" transform="translate(41,70)"/>
<path d="M0,0 L1,0 L1,2 L3,2 L3,3 L0,3 Z " fill="#666666" transform="translate(83,66)"/>
<path d="M0,0 L2,0 L2,1 L3,1 L3,3 L2,3 L2,2 L1,2 L1,1 L0,1 Z " fill="#010101" transform="translate(66,68)"/>
<path d="M0,0 L2,0 L2,1 L3,1 L3,2 L0,2 Z " fill="#8B8B5B" transform="translate(64,63)"/>
<path d="M0,0 L1,0 L1,1 L2,1 L2,2 L3,2 L3,3 L1,3 L1,2 L0,2 Z " fill="#010101" transform="translate(83,58)"/>
<path d="M0,0 L2,0 L2,1 L3,1 L3,3 L2,3 L2,2 L1,2 L1,1 L0,1 Z " fill="#9A9A56" transform="translate(67,58)"/>
<path d="M0,0 L1,0 L1,5 L0,5 Z " fill="#4E4E4E" transform="translate(114,55)"/>
<path d="M0,0 L3,0 L3,1 L2,1 L2,3 L1,3 L1,1 L0,1 Z " fill="#312909" transform="translate(104,58)"/>
<path d="M0,0 L1,0 L1,5 L0,5 Z " fill="#B89D31" transform="translate(94,55)"/>
<path d="M0,0 L2,0 L2,2 L1,2 L1,3 L0,3 Z " fill="#241E06" transform="translate(100,56)"/>
<path d="M0,0 L1,0 L1,1 L0,1 Z " fill="#FFFFFF" opacity="0.7137255" transform="translate(22,57)"/>
<path d="M0,0 L1,0 L1,3 L-1,3 L-1,1 L0,1 Z " fill="#494949" transform="translate(94,52)"/>
<path d="M0,0 L5,0 L5,1 L0,1 Z " fill="#B59A31" transform="translate(101,48)"/>
<path d="M0,0 L1,0 L1,1 L0,1 Z " fill="#666666" opacity="0.003921569" transform="translate(111,42)"/>
<path d="M0,0 L1,0 L1,1 L0,1 Z M-1,1 L0,1 L0,2 L-1,2 Z M-2,2 L-1,2 L-1,5 L-2,5 Z " fill="#686868" transform="translate(76,40)"/>
<path d="M0,0 L1,0 L1,1 L0,1 Z " fill="#676767" opacity="0.5529412" transform="translate(86,94)"/>
<path d="M0,0 L1,0 L1,1 L0,1 Z " fill="#686868" opacity="0.35686275" transform="translate(76,91)"/>
<path d="M0,0 L1,0 L1,1 L0,1 Z " fill="#FFFFFF" opacity="0.8235294" transform="translate(30,87)"/>
<path d="M0,0 L4,0 L4,1 L0,1 Z " fill="#646759" transform="translate(110,82)"/>
<path d="M0,0 L4,0 L4,1 L0,1 Z " fill="#656565" transform="translate(92,82)"/>
<path d="M0,0 L1,0 L1,1 L0,1 Z " fill="#666666" opacity="0.99607843" transform="translate(64,78)"/>
<path d="M0,0 L2,0 L2,1 L3,1 L3,2 L1,2 L1,1 L0,1 Z " fill="#5C5C5C" transform="translate(107,74)"/>
<path d="M0,0 L1,0 L1,1 L2,1 L2,3 L1,3 L1,2 L0,2 Z " fill="#010101" transform="translate(71,71)"/>
<path d="M0,0 L1,0 L1,1 L0,1 Z " fill="#FFFFFF" opacity="0.99215686" transform="translate(13,70)"/>
<path d="M0,0 L1,0 L1,1 L0,1 Z M-1,1 L0,1 L0,2 L-1,2 Z " fill="#FFFFFF" opacity="0.003921569" transform="translate(53,68)"/>
<path d="M0,0 L1,0 L1,1 L0,1 Z " fill="#FFFFFF" opacity="0.15294118" transform="translate(54,63)"/>
<path d="M0,0 L1,0 L1,1 L0,1 Z " fill="#686868" opacity="0.42352942" transform="translate(120,62)"/>
<path d="M0,0 L1,0 L1,1 L0,1 Z " fill="#666666" opacity="0.34117648" transform="translate(60,62)"/>
<path d="M0,0 L2,0 L2,1 L3,1 L3,2 L1,2 L1,1 L0,1 Z " fill="#939351" transform="translate(69,56)"/>
<path d="M0,0 L1,0 L1,1 L0,1 Z " fill="#FFFFFF" opacity="0.6431373" transform="translate(14,57)"/>
<path d="M0,0 L1,0 L1,1 L2,1 L2,3 L1,3 L1,2 L0,2 Z " fill="#9B9B56" transform="translate(71,53)"/>
<path d="M0,0 L1,0 L1,1 L0,1 Z " fill="#686868" opacity="0.3764706" transform="translate(117,51)"/>
<path d="M0,0 L1,0 L1,1 L0,1 Z " fill="#666666" opacity="0.29411766" transform="translate(63,51)"/>
<path d="M0,0 L1,0 L1,1 L0,1 Z " fill="#FFFFFF" opacity="0.47058824" transform="translate(24,48)"/>
<path d="M0,0 L1,0 L1,1 L0,1 Z " fill="#666666" opacity="0.85490197" transform="translate(66,47)"/>
<path d="M0,0 L1,0 L1,1 L0,1 Z " fill="#FFFFFF" opacity="0.5137255" transform="translate(37,45)"/>
<path d="M0,0 L1,0 L1,1 L0,1 Z " fill="#666666" opacity="0.99607843" transform="translate(71,42)"/>
<path d="M0,0 L1,0 L1,1 L0,1 Z " fill="#FFFFFF" opacity="0.72156864" transform="translate(27,42)"/>
<path d="M0,0 L1,0 L1,1 L0,1 Z " fill="#666666" opacity="0.9764706" transform="translate(105,39)"/>
<path d="M0,0 L1,0 L1,1 L0,1 Z " fill="#666666" opacity="0.69411767" transform="translate(85,35)"/>
<path d="M0,0 L1,0 L1,1 L0,1 Z " fill="#646464" opacity="0.8980392" transform="translate(76,32)"/>
<path d="M0,0 L1,0 L1,1 L0,1 Z " fill="#646464" opacity="0.9764706" transform="translate(73,32)"/>
<path d="M0,0 L1,0 L1,1 L0,1 Z " fill="#646464" opacity="0.87058824" transform="translate(74,29)"/>
<path d="M0,0 L1,0 L1,1 L0,1 Z " fill="#646464" opacity="0.84313726" transform="translate(72,26)"/>
<path d="M0,0 L1,0 L1,1 L0,1 Z " fill="#646464" opacity="0.9647059" transform="translate(70,26)"/>
<path d="M0,0 L2,0 L2,1 L0,1 Z " fill="#646464" opacity="0.9882353" transform="translate(70,25)"/>
<path d="M0,0 L1,0 L1,1 L0,1 Z " fill="#650A0A" opacity="0.48235294" transform="translate(66,22)"/>
<path d="M0,0 L1,0 L1,1 L0,1 Z " fill="#666666" opacity="0.9098039" transform="translate(71,87)"/>
<path d="M0,0 L1,0 L1,1 L0,1 Z " fill="#676767" opacity="0.9647059" transform="translate(69,85)"/>
<path d="M0,0 L1,0 L1,1 L0,1 Z " fill="#666666" opacity="0.8745098" transform="translate(67,83)"/>
<path d="M0,0 L1,0 L1,1 L2,1 L2,2 L0,2 Z " fill="#626262" transform="translate(97,81)"/>
<path d="M0,0 L2,0 L2,1 L1,1 L1,2 L0,2 Z " fill="#636659" transform="translate(103,74)"/>
<path d="M0,0 L3,0 L3,1 L0,1 Z " fill="#D8E79D" transform="translate(98,74)"/>
<path d="M0,0 L1,0 L1,1 L2,1 L2,2 L0,2 Z " fill="#999957" transform="translate(79,73)"/>
<path d="M0,0 L1,0 L1,1 L0,1 Z " fill="#676767" opacity="0.2627451" transform="translate(119,73)"/>
<path d="M0,0 L3,0 L3,1 L0,1 Z " fill="#61625A" transform="translate(104,73)"/>
<path d="M0,0 L3,0 L3,1 L0,1 Z " fill="#60615A" transform="translate(98,73)"/>
<path d="M0,0 L3,0 L3,1 L0,1 Z " fill="#60605B" transform="translate(92,73)"/>
<path d="M0,0 L2,0 L2,1 L1,1 L1,2 L0,2 Z " fill="#010101" transform="translate(78,71)"/>
<path d="M0,0 L1,0 L1,1 L0,1 Z " fill="#FFFFFF" opacity="0.007843138" transform="translate(22,71)"/>
<path d="M0,0 L1,0 L1,1 L0,1 Z " fill="#FFFFFF" opacity="0.023529412" transform="translate(19,71)"/>
<path d="M0,0 L1,0 L1,2 L-1,2 L-1,1 L0,1 Z " fill="#717164" transform="translate(81,69)"/>
<path d="M0,0 L1,0 L1,1 L0,1 Z " fill="#FFFFFF" opacity="0.3254902" transform="translate(49,70)"/>
<path d="M0,0 L1,0 L1,1 L0,1 Z " fill="#FFFFFF" opacity="0.99215686" transform="translate(9,68)"/>
<path d="M0,0 L1,0 L1,1 L2,1 L2,2 L0,2 Z " fill="#40403E" transform="translate(107,66)"/>
<path d="M0,0 L3,0 L3,1 L0,1 Z " fill="#3B3B3B" transform="translate(100,67)"/>
<path d="M0,0 L2,0 L2,2 L1,2 L1,1 L0,1 Z " fill="#929259" transform="translate(85,67)"/>
<path d="M0,0 L3,0 L3,1 L0,1 Z " fill="#7C7C60" transform="translate(86,66)"/>
<path d="M0,0 L1,0 L1,1 L0,1 Z " fill="#666666" opacity="0.4392157" transform="translate(60,64)"/>
<path d="M0,0 L1,0 L1,1 L2,1 L2,2 L0,2 Z " fill="#6B6B65" transform="translate(66,62)"/>
<path d="M0,0 L2,0 L2,2 L1,2 L1,1 L0,1 Z " fill="#40403E" transform="translate(112,61)"/>
<path d="M0,0 L1,0 L1,3 L0,3 Z " fill="#000000" transform="translate(99,60)"/>
<path d="M0,0 L2,0 L2,2 L1,2 L1,1 L0,1 Z " fill="#979757" transform="translate(66,61)"/>
<path d="M0,0 L1,0 L1,3 L0,3 Z " fill="#816B16" transform="translate(103,59)"/>
<path d="M0,0 L1,0 L1,3 L0,3 Z " fill="#000000" transform="translate(102,59)"/>
<path d="M0,0 L1,0 L1,2 L-1,2 L-1,1 L0,1 Z " fill="#6B6B65" transform="translate(67,59)"/>
<path d="M0,0 L1,0 L1,3 L0,3 Z " fill="#FFD42A" transform="translate(107,57)"/>
<path d="M0,0 L2,0 L2,1 L1,1 L1,2 L0,2 Z " fill="#907818" transform="translate(101,58)"/>
<path d="M0,0 L1,0 L1,1 L0,1 Z " fill="#FFFFFF" opacity="0.003921569" transform="translate(52,58)"/>
<path d="M0,0 L1,0 L1,3 L0,3 Z " fill="#FFD42A" transform="translate(99,56)"/>
<path d="M0,0 L1,0 L1,1 L2,1 L2,2 L0,2 Z " fill="#9A801A" transform="translate(97,56)"/>
<path d="M0,0 L1,0 L1,2 L-1,2 L-1,1 L0,1 Z " fill="#686866" transform="translate(68,56)"/>
<path d="M0,0 L1,0 L1,1 L0,1 Z " fill="#FFFFFF" opacity="0.3529412" transform="translate(49,57)"/>
<path d="M0,0 L1,0 L1,3 L0,3 Z " fill="#FFD42A" transform="translate(105,55)"/>
<path d="M0,0 L1,0 L1,1 L2,1 L2,2 L0,2 Z " fill="#010101" transform="translate(79,55)"/>
<path d="M0,0 L1,0 L1,3 L0,3 Z " fill="#1D1905" transform="translate(110,54)"/>
<path d="M0,0 L2,0 L2,2 L1,2 L1,1 L0,1 Z " fill="#E5BE26" transform="translate(108,55)"/>
<path d="M0,0 L2,0 L2,2 L1,2 L1,1 L0,1 Z " fill="#F6CC29" transform="translate(97,55)"/>
<path d="M0,0 L2,0 L2,1 L1,1 L1,2 L0,2 Z " fill="#000000" transform="translate(74,54)"/>
<path d="M0,0 L1,0 L1,1 L0,1 Z " fill="#666666" opacity="0.99215686" transform="translate(113,46)"/>
<path d="M0,0 L3,0 L3,1 L0,1 Z " fill="#6F6F6F" transform="translate(75,44)"/>
<path d="M0,0 L1,0 L1,1 L0,1 Z " fill="#676767" opacity="0.9647059" transform="translate(108,41)"/>
<path d="M0,0 L1,0 L1,1 L0,1 Z M-1,1 L0,1 L0,2 L-1,2 Z " fill="#666666" transform="translate(83,36)"/>
<path d="M0,0 L1,0 L1,1 L0,1 Z " fill="#646464" opacity="0.92156863" transform="translate(78,35)"/>
<path d="M0,0 L1,0 L1,1 L0,1 Z M-1,1 L0,1 L0,2 L-1,2 Z " fill="#640909" transform="translate(68,21)"/>
<path d="M0,0 L1,0 L1,1 L0,1 Z " fill="#640B0B" opacity="0.019607844" transform="translate(71,20)"/>
<path d="M0,0 L1,0 L1,1 L0,1 Z " fill="#666666" opacity="0.039215688" transform="translate(97,94)"/>
<path d="M0,0 L1,0 L1,1 L0,1 Z " fill="#666666" opacity="0.4117647" transform="translate(95,94)"/>
<path d="M0,0 L1,0 L1,1 L0,1 Z " fill="#666666" opacity="0.7019608" transform="translate(93,94)"/>
<path d="M0,0 L1,0 L1,1 L0,1 Z " fill="#666666" opacity="0.7529412" transform="translate(88,94)"/>
<path d="M0,0 L1,0 L1,1 L0,1 Z " fill="#666666" opacity="0.23529412" transform="translate(84,94)"/>
<path d="M0,0 L1,0 L1,1 L0,1 Z " fill="#6C6C6C" opacity="0.12941177" transform="translate(100,93)"/>
<path d="M0,0 L1,0 L1,1 L0,1 Z " fill="#666666" opacity="0.96862745" transform="translate(83,93)"/>
<path d="M0,0 L1,0 L1,1 L0,1 Z " fill="#676767" opacity="0.45490196" transform="translate(81,93)"/>
<path d="M0,0 L1,0 L1,1 L0,1 Z " fill="#666666" opacity="0.015686275" transform="translate(103,92)"/>
<path d="M0,0 L1,0 L1,1 L0,1 Z " fill="#676767" opacity="0.32156864" transform="translate(78,92)"/>
<path d="M0,0 L1,0 L1,1 L0,1 Z " fill="#666666" opacity="0.015686275" transform="translate(105,91)"/>
<path d="M0,0 L1,0 L1,1 L0,1 Z " fill="#666666" opacity="0.78431374" transform="translate(75,90)"/>
<path d="M0,0 L1,0 L1,1 L0,1 Z " fill="#676767" opacity="0.53333336" transform="translate(73,89)"/>
<path d="M0,0 L1,0 L1,1 L0,1 Z " fill="#FFFFFF" opacity="0.003921569" transform="translate(35,87)"/>
<path d="M0,0 L1,0 L1,1 L0,1 Z " fill="#FFFFFF" opacity="0.44705883" transform="translate(28,87)"/>
<path d="M0,0 L1,0 L1,1 L0,1 Z " fill="#FFFFFF" opacity="0.9490196" transform="translate(27,86)"/>
<path d="M0,0 L1,0 L1,1 L0,1 Z " fill="#FFFFFF" opacity="0.011764706" transform="translate(37,85)"/>
<path d="M0,0 L1,0 L1,1 L0,1 Z " fill="#666666" opacity="0.015686275" transform="translate(115,82)"/>
<path d="M0,0 L2,0 L2,1 L0,1 Z " fill="#66695A" transform="translate(105,82)"/>
<path d="M0,0 L2,0 L2,1 L0,1 Z " fill="#636558" transform="translate(99,82)"/>
<path d="M0,0 L2,0 L2,1 L0,1 Z " fill="#6F735F" transform="translate(92,82)"/>
<path d="M0,0 L1,0 L1,1 L0,1 Z " fill="#686868" opacity="0.003921569" transform="translate(65,82)"/>
<path d="M0,0 L2,0 L2,1 L0,1 Z " fill="#636363" transform="translate(107,81)"/>
<path d="M0,0 L2,0 L2,1 L0,1 Z " fill="#5C5C5A" transform="translate(108,80)"/>
<path d="M0,0 L1,0 L1,1 L0,1 Z " fill="#FFFFFF" opacity="0.64705884" transform="translate(24,77)"/>
<path d="M0,0 L1,0 L1,1 L0,1 Z " fill="#686868" opacity="0.19215687" transform="translate(118,76)"/>
<path d="M0,0 L1,0 L1,2 L0,2 Z " fill="#C1CE8E" transform="translate(110,75)"/>
<path d="M0,0 L1,0 L1,2 L0,2 Z " fill="#B8C489" transform="translate(107,75)"/>
<path d="M0,0 L1,0 L1,2 L0,2 Z " fill="#83896A" transform="translate(101,75)"/>
<path d="M0,0 L1,0 L1,2 L0,2 Z " fill="#747861" transform="translate(97,75)"/>
<path d="M0,0 L1,0 L1,2 L0,2 Z " fill="#B8C489" transform="translate(91,75)"/>
<path d="M0,0 L1,0 L1,1 L0,1 Z " fill="#666666" opacity="0.11764706" transform="translate(62,76)"/>
<path d="M0,0 L1,0 L1,2 L0,2 Z " fill="#636559" transform="translate(114,74)"/>
<path d="M0,0 L2,0 L2,1 L0,1 Z " fill="#4F4F4F" transform="translate(75,75)"/>
<path d="M0,0 L2,0 L2,1 L0,1 Z " fill="#E4F4A4" transform="translate(111,74)"/>
<path d="M0,0 L2,0 L2,1 L0,1 Z " fill="#656565" transform="translate(107,74)"/>
<path d="M0,0 L2,0 L2,1 L0,1 Z " fill="#CDDB96" transform="translate(105,74)"/>
<path d="M0,0 L2,0 L2,1 L0,1 Z " fill="#5F605C" transform="translate(94,74)"/>
<path d="M0,0 L2,0 L2,1 L0,1 Z " fill="#CDDB96" transform="translate(92,74)"/>
<path d="M0,0 L1,0 L1,2 L0,2 Z " fill="#76765F" transform="translate(78,73)"/>
<path d="M0,0 L1,0 L1,1 L0,1 Z " fill="#696969" opacity="0.003921569" transform="translate(61,74)"/>
<path d="M0,0 L1,0 L1,1 L0,1 Z M-1,1 L0,1 L0,2 L-1,2 Z " fill="#7F7F5F" transform="translate(82,73)"/>
<path d="M0,0 L2,0 L2,1 L0,1 Z " fill="#6C6C64" transform="translate(79,72)"/>
<path d="M0,0 L1,0 L1,1 L0,1 Z " fill="#686868" opacity="0.44313726" transform="translate(61,72)"/>
<path d="M0,0 L1,0 L1,1 L0,1 Z " fill="#FFFFFF" opacity="0.62352943" transform="translate(24,72)"/>
<path d="M0,0 L1,0 L1,2 L0,2 Z " fill="#7F7F5F" transform="translate(82,70)"/>
<path d="M0,0 L1,0 L1,1 L0,1 Z " fill="#FFFFFF" opacity="0.043137256" transform="translate(14,71)"/>
<path d="M0,0 L1,0 L1,1 L0,1 Z " fill="#6B6B6B" opacity="0.019607844" transform="translate(120,70)"/>
<path d="M0,0 L1,0 L1,1 L0,1 Z " fill="#FFFFFF" opacity="0.827451" transform="translate(39,70)"/>
<path d="M0,0 L1,0 L1,1 L0,1 Z " fill="#FFFFFF" opacity="0.5921569" transform="translate(11,70)"/>
<path d="M0,0 L2,0 L2,1 L0,1 Z " fill="#4F4F4F" transform="translate(101,68)"/>
<path d="M0,0 L1,0 L1,2 L0,2 Z " fill="#5B5B5B" transform="translate(65,67)"/>
<path d="M0,0 L2,0 L2,1 L0,1 Z " fill="#3B3B3B" transform="translate(105,67)"/>
<path d="M0,0 L2,0 L2,1 L0,1 Z " fill="#4A473C" transform="translate(103,67)"/>
<path d="M0,0 L1,0 L1,2 L0,2 Z " fill="#464644" transform="translate(99,66)"/>
<path d="M0,0 L1,0 L1,2 L0,2 Z " fill="#6A6A65" transform="translate(83,66)"/>
<path d="M0,0 L1,0 L1,1 L0,1 Z " fill="#FFFFFF" opacity="0.003921569" transform="translate(7,67)"/>
<path d="M0,0 L2,0 L2,1 L0,1 Z " fill="#42423F" transform="translate(108,66)"/>
<path d="M0,0 L2,0 L2,1 L0,1 Z " fill="#E6C02D" transform="translate(100,66)"/>
<path d="M0,0 L2,0 L2,1 L0,1 Z " fill="#010101" transform="translate(66,66)"/>
<path d="M0,0 L2,0 L2,1 L0,1 Z " fill="#6B6B65" transform="translate(84,65)"/>
<path d="M0,0 L2,0 L2,1 L0,1 Z " fill="#010101" transform="translate(67,64)"/>
<path d="M0,0 L2,0 L2,1 L0,1 Z " fill="#979757" transform="translate(65,64)"/>
<path d="M0,0 L1,0 L1,2 L0,2 Z " fill="#686867" transform="translate(63,63)"/>
<path d="M0,0 L1,0 L1,1 L0,1 Z M-1,1 L0,1 L0,2 L-1,2 Z " fill="#F7CE2C" transform="translate(110,63)"/>
<path d="M0,0 L2,0 L2,1 L0,1 Z " fill="#737363" transform="translate(85,63)"/>
<path d="M0,0 L2,0 L2,1 L0,1 Z " fill="#020201" transform="translate(68,63)"/>
<path d="M0,0 L1,0 L1,2 L0,2 Z " fill="#F8CE29" transform="translate(105,61)"/>
<path d="M0,0 L1,0 L1,2 L0,2 Z " fill="#ECC427" transform="translate(100,61)"/>
<path d="M0,0 L1,0 L1,2 L0,2 Z " fill="#5F5F5F" transform="translate(86,61)"/>
<path d="M0,0 L1,0 L1,1 L0,1 Z " fill="#FFFFFF" opacity="0.29803923" transform="translate(7,62)"/>
<path d="M0,0 L1,0 L1,2 L0,2 Z " fill="#FFD42A" transform="translate(101,60)"/>
<path d="M0,0 L1,0 L1,2 L0,2 Z " fill="#EDC527" transform="translate(98,60)"/>
<path d="M0,0 L2,0 L2,1 L0,1 Z " fill="#010101" transform="translate(69,61)"/>
<path d="M0,0 L1,0 L1,1 L0,1 Z " fill="#FFFFFF" opacity="0.7647059" transform="translate(53,61)"/>
<path d="M0,0 L1,0 L1,1 L0,1 Z " fill="#686868" opacity="0.19215687" transform="translate(120,60)"/>
<path d="M0,0 L1,0 L1,2 L0,2 Z " fill="#3B3B3B" transform="translate(113,59)"/>
<path d="M0,0 L1,0 L1,2 L0,2 Z " fill="#BD9D20" transform="translate(106,59)"/>
<path d="M0,0 L1,0 L1,2 L0,2 Z " fill="#000000" transform="translate(105,59)"/>
<path d="M0,0 L1,0 L1,2 L0,2 Z " fill="#FFD42A" transform="translate(104,59)"/>
<path d="M0,0 L2,0 L2,1 L0,1 Z " fill="#020201" transform="translate(70,60)"/>
<path d="M0,0 L1,0 L1,1 L0,1 Z " fill="#6D6D6D" opacity="0.10980392" transform="translate(60,60)"/>
<path d="M0,0 L1,0 L1,1 L0,1 Z " fill="#FFFFFF" opacity="0.54509807" transform="translate(8,60)"/>
<path d="M0,0 L1,0 L1,2 L0,2 Z " fill="#110F03" transform="translate(109,58)"/>
<path d="M0,0 L1,0 L1,2 L0,2 Z " fill="#FCD12A" transform="translate(108,58)"/>
<path d="M0,0 L1,0 L1,2 L0,2 Z " fill="#463A0C" transform="translate(98,58)"/>
<path d="M0,0 L1,0 L1,2 L0,2 Z " fill="#020202" transform="translate(83,58)"/>
<path d="M0,0 L1,0 L1,1 L0,1 Z " fill="#666666" opacity="0.85490197" transform="translate(119,58)"/>
<path d="M0,0 L1,0 L1,2 L0,2 Z " fill="#47453C" transform="translate(113,57)"/>
<path d="M0,0 L1,0 L1,2 L0,2 Z " fill="#CAA822" transform="translate(110,57)"/>
<path d="M0,0 L1,0 L1,2 L0,2 Z " fill="#231D06" transform="translate(103,57)"/>
<path d="M0,0 L1,0 L1,2 L0,2 Z " fill="#606060" transform="translate(92,57)"/>
<path d="M0,0 L2,0 L2,1 L0,1 Z " fill="#010101" transform="translate(71,58)"/>
<path d="M0,0 L2,0 L2,1 L0,1 Z " fill="#919159" transform="translate(67,58)"/>
<path d="M0,0 L1,0 L1,1 L0,1 Z " fill="#666666" opacity="0.77254903" transform="translate(61,58)"/>
<path d="M0,0 L1,0 L1,1 L0,1 Z " fill="#FFFFFF" opacity="0.6" transform="translate(10,58)"/>
<path d="M0,0 L1,0 L1,2 L0,2 Z " fill="#000000" transform="translate(101,56)"/>
<path d="M0,0 L2,0 L2,1 L0,1 Z " fill="#020202" transform="translate(72,57)"/>
<path d="M0,0 L1,0 L1,1 L0,1 Z " fill="#FFFFFF" opacity="0.76862746" transform="translate(39,57)"/>
<path d="M0,0 L1,0 L1,1 L0,1 Z " fill="#FFFFFF" opacity="0.69803923" transform="translate(20,57)"/>
<path d="M0,0 L1,0 L1,1 L0,1 Z " fill="#FFFFFF" opacity="0.6745098" transform="translate(16,57)"/>
<path d="M0,0 L1,0 L1,1 L0,1 Z " fill="#FFFFFF" opacity="0.33333334" transform="translate(12,57)"/>
<path d="M0,0 L1,0 L1,1 L0,1 Z " fill="#686868" opacity="0.3372549" transform="translate(119,56)"/>
<path d="M0,0 L1,0 L1,2 L0,2 Z " fill="#505050" transform="translate(114,55)"/>
<path d="M0,0 L2,0 L2,1 L0,1 Z " fill="#493D0C" transform="translate(107,56)"/>
<path d="M0,0 L1,0 L1,2 L0,2 Z " fill="#B09631" transform="translate(94,55)"/>
<path d="M0,0 L2,0 L2,1 L0,1 Z " fill="#9A9A57" transform="translate(69,56)"/>
<path d="M0,0 L1,0 L1,1 L0,1 Z " fill="#686868" opacity="0.25882354" transform="translate(61,56)"/>
<path d="M0,0 L1,0 L1,2 L0,2 Z " fill="#000000" transform="translate(107,54)"/>
<path d="M0,0 L1,0 L1,2 L0,2 Z " fill="#57490F" transform="translate(106,54)"/>
<path d="M0,0 L2,0 L2,1 L0,1 Z " fill="#7A6615" transform="translate(103,55)"/>
<path d="M0,0 L2,0 L2,1 L0,1 Z " fill="#B7981F" transform="translate(100,55)"/>
<path d="M0,0 L1,0 L1,2 L0,2 Z " fill="#010101" transform="translate(77,54)"/>
<path d="M0,0 L2,0 L2,1 L0,1 Z " fill="#EAC227" transform="translate(103,54)"/>
<path d="M0,0 L1,0 L1,1 L0,1 Z " fill="#676767" opacity="0.3019608" transform="translate(118,53)"/>
<path d="M0,0 L2,0 L2,1 L0,1 Z " fill="#474745" transform="translate(112,53)"/>
<path d="M0,0 L2,0 L2,1 L0,1 Z " fill="#B3951E" transform="translate(106,53)"/>
<path d="M0,0 L1,0 L1,2 L0,2 Z " fill="#3B3B3B" transform="translate(94,52)"/>
<path d="M0,0 L2,0 L2,1 L0,1 Z " fill="#474747" transform="translate(75,53)"/>
<path d="M0,0 L1,0 L1,1 L0,1 Z " fill="#666666" opacity="0.21568628" transform="translate(62,53)"/>
<path d="M0,0 L1,0 L1,1 L0,1 Z " fill="#666666" opacity="0.85882354" transform="translate(116,50)"/>
<path d="M0,0 L1,0 L1,1 L0,1 Z M-1,1 L0,1 L0,2 L-1,2 Z " fill="#7C6E37" transform="translate(97,50)"/>
<path d="M0,0 L1,0 L1,1 L0,1 Z " fill="#666666" opacity="0.7921569" transform="translate(64,50)"/>
<path d="M0,0 L2,0 L2,1 L0,1 Z " fill="#FFD42B" transform="translate(99,49)"/>
<path d="M0,0 L1,0 L1,1 L0,1 Z " fill="#FFFFFF" opacity="0.10980392" transform="translate(38,49)"/>
<path d="M0,0 L1,0 L1,1 L0,1 Z " fill="#666666" opacity="0.6745098" transform="translate(115,48)"/>
<path d="M0,0 L2,0 L2,1 L0,1 Z " fill="#AD9432" transform="translate(101,48)"/>
<path d="M0,0 L1,0 L1,2 L0,2 Z " fill="#4F4B3B" transform="translate(100,47)"/>
<path d="M0,0 L2,0 L2,1 L0,1 Z " fill="#3B3B3B" transform="translate(98,48)"/>
<path d="M0,0 L2,0 L2,1 L0,1 Z " fill="#626262" transform="translate(107,47)"/>
<path d="M0,0 L2,0 L2,1 L0,1 Z " fill="#3B3B3B" transform="translate(101,47)"/>
<path d="M0,0 L1,0 L1,1 L0,1 Z " fill="#FFFFFF" opacity="0.91764706" transform="translate(37,47)"/>
<path d="M0,0 L2,0 L2,1 L0,1 Z " fill="#616161" transform="translate(103,46)"/>
<path d="M0,0 L1,0 L1,1 L0,1 Z " fill="#FFFFFF" opacity="0.1764706" transform="translate(24,46)"/>
<path d="M0,0 L1,0 L1,1 L0,1 Z " fill="#FFFFFF" opacity="0.9411765" transform="translate(36,44)"/>
<path d="M0,0 L1,0 L1,1 L0,1 Z " fill="#FFFFFF" opacity="0.5176471" transform="translate(25,44)"/>
<path d="M0,0 L2,0 L2,1 L0,1 Z " fill="#696969" transform="translate(77,41)"/>
<path d="M0,0 L1,0 L1,1 L0,1 Z " fill="#676767" opacity="0.94509804" transform="translate(72,41)"/>
<path d="M0,0 L1,0 L1,1 L0,1 Z " fill="#FFFFFF" opacity="0.70980394" transform="translate(30,41)"/>
<path d="M0,0 L1,0 L1,1 L0,1 Z " fill="#FFFFFF" opacity="0.24705882" transform="translate(28,41)"/>
<path d="M0,0 L1,0 L1,1 L0,1 Z M-1,1 L0,1 L0,2 L-1,2 Z " fill="#6A6A6A" transform="translate(85,40)"/>
<path d="M0,0 L1,0 L1,2 L0,2 Z " fill="#797979" transform="translate(82,39)"/>
<path d="M0,0 L1,0 L1,2 L0,2 Z " fill="#6A6A6A" transform="translate(81,38)"/>
<path d="M0,0 L1,0 L1,1 L0,1 Z " fill="#666666" opacity="0.9607843" transform="translate(75,39)"/>
<path d="M0,0 L1,0 L1,1 L0,1 Z " fill="#676767" opacity="0.46666667" transform="translate(74,39)"/>
<path d="M0,0 L1,0 L1,1 L0,1 Z " fill="#666666" opacity="0.07450981" transform="translate(101,36)"/>
<path d="M0,0 L1,0 L1,1 L0,1 Z " fill="#676767" opacity="0.7490196" transform="translate(81,36)"/>
<path d="M0,0 L1,0 L1,1 L0,1 Z " fill="#696969" opacity="0.0627451" transform="translate(98,35)"/>
<path d="M0,0 L1,0 L1,1 L0,1 Z " fill="#676767" opacity="0.54509807" transform="translate(96,35)"/>
<path d="M0,0 L1,0 L1,1 L0,1 Z " fill="#666666" opacity="0.98039216" transform="translate(87,35)"/>
<path d="M0,0 L1,0 L1,1 L0,1 Z " fill="#676767" opacity="0.28235295" transform="translate(83,35)"/>
<path d="M0,0 L1,0 L1,1 L0,1 Z " fill="#666666" opacity="0.003921569" transform="translate(93,34)"/>
<path d="M0,0 L1,0 L1,1 L0,1 Z " fill="#6A6A6A" opacity="0.043137256" transform="translate(88,34)"/>
<path d="M0,0 L1,0 L1,1 L0,1 Z " fill="#656060" transform="translate(70,25)"/>
<path d="M0,0 L1,0 L1,1 L0,1 Z " fill="#650A0A" opacity="0.1882353" transform="translate(68,25)"/>
<path d="M0,0 L1,0 L1,1 L0,1 Z " fill="#640909" opacity="0.6666667" transform="translate(68,20)"/>
<path d="M0,0 L1,0 L1,1 L0,1 Z " fill="#686868" opacity="0.2509804" transform="translate(96,94)"/>
<path d="M0,0 L1,0 L1,1 L0,1 Z " fill="#676767" opacity="0.5647059" transform="translate(94,94)"/>
<path d="M0,0 L1,0 L1,1 L0,1 Z " fill="#666666" opacity="0.7607843" transform="translate(92,94)"/>
<path d="M0,0 L1,0 L1,1 L0,1 Z " fill="#666666" opacity="0.8117647" transform="translate(91,94)"/>
<path d="M0,0 L1,0 L1,1 L0,1 Z " fill="#676767" opacity="0.80784315" transform="translate(89,94)"/>
<path d="M0,0 L1,0 L1,1 L0,1 Z " fill="#666666" opacity="0.69411767" transform="translate(87,94)"/>
<path d="M0,0 L1,0 L1,1 L0,1 Z " fill="#666666" opacity="0.4" transform="translate(85,94)"/>
<path d="M0,0 L1,0 L1,1 L0,1 Z " fill="#666666" opacity="0.02745098" transform="translate(83,94)"/>
<path d="M0,0 L1,0 L1,1 L0,1 Z " fill="#686868" opacity="0.48235294" transform="translate(99,93)"/>
<path d="M0,0 L1,0 L1,1 L0,1 Z " fill="#666666" opacity="0.7529412" transform="translate(98,93)"/>
<path d="M0,0 L1,0 L1,1 L0,1 Z " fill="#666666" opacity="0.9764706" transform="translate(97,93)"/>
<path d="M0,0 L1,0 L1,1 L0,1 Z " fill="#666666" opacity="0.73333335" transform="translate(82,93)"/>
<path d="M0,0 L1,0 L1,1 L0,1 Z " fill="#686868" opacity="0.105882354" transform="translate(80,93)"/>
<path d="M0,0 L1,0 L1,1 L0,1 Z " fill="#686868" opacity="0.3647059" transform="translate(102,92)"/>
<path d="M0,0 L1,0 L1,1 L0,1 Z " fill="#666666" opacity="0.7647059" transform="translate(101,92)"/>
<path d="M0,0 L1,0 L1,1 L0,1 Z " fill="#666666" opacity="0.73333335" transform="translate(79,92)"/>
<path d="M0,0 L1,0 L1,1 L0,1 Z " fill="#666666" opacity="0.007843138" transform="translate(77,92)"/>
<path d="M0,0 L1,0 L1,1 L0,1 Z " fill="#676767" opacity="0.39607844" transform="translate(104,91)"/>
<path d="M0,0 L1,0 L1,1 L0,1 Z " fill="#666666" opacity="0.87058824" transform="translate(103,91)"/>
<path d="M0,0 L1,0 L1,1 L0,1 Z " fill="#666666" opacity="0.8392157" transform="translate(77,91)"/>
<path d="M0,0 L1,0 L1,1 L0,1 Z " fill="#666666" opacity="0.007843138" transform="translate(75,91)"/>
<path d="M0,0 L1,0 L1,1 L0,1 Z " fill="#686868" opacity="0.23137255" transform="translate(106,90)"/>
<path d="M0,0 L1,0 L1,1 L0,1 Z " fill="#666666" opacity="0.81960785" transform="translate(105,90)"/>
<path d="M0,0 L1,0 L1,1 L0,1 Z " fill="#686868" opacity="0.19215687" transform="translate(74,90)"/>
<path d="M0,0 L1,0 L1,1 L0,1 Z " fill="#666666" opacity="0.03529412" transform="translate(108,89)"/>
<path d="M0,0 L1,0 L1,1 L0,1 Z " fill="#676767" opacity="0.5921569" transform="translate(107,89)"/>
<path d="M0,0 L1,0 L1,1 L0,1 Z " fill="#666666" opacity="0.99215686" transform="translate(74,89)"/>
<path d="M0,0 L1,0 L1,1 L0,1 Z " fill="#666666" opacity="0.019607844" transform="translate(72,89)"/>
<path d="M0,0 L1,0 L1,1 L0,1 Z " fill="#6B6B6B" opacity="0.14901961" transform="translate(109,88)"/>
<path d="M0,0 L1,0 L1,1 L0,1 Z " fill="#666666" opacity="0.8156863" transform="translate(108,88)"/>
<path d="M0,0 L1,0 L1,1 L0,1 Z " fill="#666666" opacity="0.77254903" transform="translate(72,88)"/>
<path d="M0,0 L1,0 L1,1 L0,1 Z " fill="#696969" opacity="0.11372549" transform="translate(71,88)"/>
<path d="M0,0 L1,0 L1,1 L0,1 Z " fill="#676767" opacity="0.24313726" transform="translate(110,87)"/>
<path d="M0,0 L1,0 L1,1 L0,1 Z " fill="#666666" opacity="0.9411765" transform="translate(109,87)"/>
<path d="M0,0 L1,0 L1,1 L0,1 Z " fill="#686868" opacity="0.19215687" transform="translate(70,87)"/>
<path d="M0,0 L1,0 L1,1 L0,1 Z " fill="#FFFFFF" opacity="0.28235295" transform="translate(34,87)"/>
<path d="M0,0 L1,0 L1,1 L0,1 Z " fill="#FFFFFF" opacity="0.6509804" transform="translate(33,87)"/>
<path d="M0,0 L1,0 L1,1 L0,1 Z " fill="#FFFFFF" opacity="0.92156863" transform="translate(31,87)"/>
<path d="M0,0 L1,0 L1,1 L0,1 Z " fill="#FFFFFF" opacity="0.6392157" transform="translate(29,87)"/>
<path d="M0,0 L1,0 L1,1 L0,1 Z " fill="#FFFFFF" opacity="0.07450981" transform="translate(27,87)"/>
<path d="M0,0 L1,0 L1,1 L0,1 Z " fill="#676767" opacity="0.32156864" transform="translate(111,86)"/>
<path d="M0,0 L1,0 L1,1 L0,1 Z " fill="#666666" opacity="0.972549" transform="translate(110,86)"/>
<path d="M0,0 L1,0 L1,1 L0,1 Z " fill="#666666" opacity="0.9490196" transform="translate(70,86)"/>
<path d="M0,0 L1,0 L1,1 L0,1 Z " fill="#666666" opacity="0.25490198" transform="translate(69,86)"/>
<path d="M0,0 L1,0 L1,1 L0,1 Z " fill="#FFFFFF" opacity="0.05882353" transform="translate(36,86)"/>
<path d="M0,0 L1,0 L1,1 L0,1 Z " fill="#FFFFFF" opacity="0.69803923" transform="translate(35,86)"/>
<path d="M0,0 L1,0 L1,1 L0,1 Z " fill="#FFFFFF" opacity="0.3372549" transform="translate(26,86)"/>
<path d="M0,0 L1,0 L1,1 L0,1 Z " fill="#666666" opacity="0.29411766" transform="translate(112,85)"/>
<path d="M0,0 L1,0 L1,1 L0,1 Z " fill="#666666" opacity="0.9882353" transform="translate(111,85)"/>
<path d="M0,0 L1,0 L1,1 L0,1 Z " fill="#696969" opacity="0.22745098" transform="translate(68,85)"/>
<path d="M0,0 L1,0 L1,1 L0,1 Z " fill="#FFFFFF" opacity="0.7294118" transform="translate(36,85)"/>
<path d="M0,0 L1,0 L1,1 L0,1 Z " fill="#FFFFFF" opacity="0.3019608" transform="translate(25,85)"/>
<path d="M0,0 L1,0 L1,1 L0,1 Z " fill="#696969" opacity="0.21960784" transform="translate(113,84)"/>
<path d="M0,0 L1,0 L1,1 L0,1 Z " fill="#676767" opacity="0.9647059" transform="translate(112,84)"/>
<path d="M0,0 L1,0 L1,1 L0,1 Z " fill="#666666" opacity="0.93333334" transform="translate(68,84)"/>
<path d="M0,0 L1,0 L1,1 L0,1 Z " fill="#6B6B6B" opacity="0.16862746" transform="translate(67,84)"/>
<path d="M0,0 L1,0 L1,1 L0,1 Z " fill="#FFFFFF" opacity="0.36078432" transform="translate(37,84)"/>
<path d="M0,0 L1,0 L1,1 L0,1 Z " fill="#FFFFFF" opacity="0.90588236" transform="translate(25,84)"/>
<path d="M0,0 L1,0 L1,1 L0,1 Z " fill="#FFFFFF" opacity="0.03137255" transform="translate(24,84)"/>
<path d="M0,0 L1,0 L1,1 L0,1 Z " fill="#6C6C6C" opacity="0.101960786" transform="translate(114,83)"/>
<path d="M0,0 L1,0 L1,1 L0,1 Z " fill="#666666" opacity="0.91764706" transform="translate(113,83)"/>
<path d="M0,0 L1,0 L1,1 L0,1 Z " fill="#666666" opacity="0.06666667" transform="translate(66,83)"/>
<path d="M0,0 L1,0 L1,1 L0,1 Z " fill="#FFFFFF" opacity="0.7607843" transform="translate(37,83)"/>
<path d="M0,0 L1,0 L1,1 L0,1 Z " fill="#FFFFFF" opacity="0.3372549" transform="translate(24,83)"/>
<path d="M0,0 L1,0 L1,1 L0,1 Z " fill="#676767" opacity="0.75686276" transform="translate(114,82)"/>
<path d="M0,0 L1,0 L1,1 L0,1 Z " fill="#5F615A" transform="translate(113,82)"/>
<path d="M0,0 L1,0 L1,1 L0,1 Z " fill="#686B5B" transform="translate(112,82)"/>
<path d="M0,0 L1,0 L1,1 L0,1 Z " fill="#60605D" transform="translate(110,82)"/>
<path d="M0,0 L1,0 L1,1 L0,1 Z " fill="#61615D" transform="translate(107,82)"/>
<path d="M0,0 L1,0 L1,1 L0,1 Z " fill="#6B6F5D" transform="translate(105,82)"/>
<path d="M0,0 L1,0 L1,1 L0,1 Z " fill="#5F6158" transform="translate(104,82)"/>
<path d="M0,0 L1,0 L1,1 L0,1 Z " fill="#646464" transform="translate(103,82)"/>
<path d="M0,0 L1,0 L1,1 L0,1 Z " fill="#6C705D" transform="translate(99,82)"/>
<path d="M0,0 L1,0 L1,1 L0,1 Z " fill="#616358" transform="translate(98,82)"/>
<path d="M0,0 L1,0 L1,1 L0,1 Z " fill="#606258" transform="translate(94,82)"/>
<path d="M0,0 L1,0 L1,1 L0,1 Z " fill="#6A6D5C" transform="translate(92,82)"/>
<path d="M0,0 L1,0 L1,1 L0,1 Z " fill="#60605B" transform="translate(91,82)"/>
<path d="M0,0 L1,0 L1,1 L0,1 Z " fill="#666666" opacity="0.68235296" transform="translate(66,82)"/>
<path d="M0,0 L1,0 L1,1 L0,1 Z " fill="#FFFFFF" opacity="0.011764706" transform="translate(38,82)"/>
<path d="M0,0 L1,0 L1,1 L0,1 Z " fill="#FFFFFF" opacity="0.9843137" transform="translate(37,82)"/>
<path d="M0,0 L1,0 L1,1 L0,1 Z " fill="#FFFFFF" opacity="0.5647059" transform="translate(24,82)"/>
<path d="M0,0 L1,0 L1,1 L0,1 Z " fill="#666666" opacity="0.49019608" transform="translate(115,81)"/>
<path d="M0,0 L1,0 L1,1 L0,1 Z " fill="#5F605A" transform="translate(114,81)"/>
<path d="M0,0 L1,0 L1,1 L0,1 Z " fill="#B6C288" transform="translate(113,81)"/>
<path d="M0,0 L1,0 L1,1 L0,1 Z " fill="#797F63" transform="translate(110,81)"/>
<path d="M0,0 L1,0 L1,1 L0,1 Z " fill="#616161" transform="translate(109,81)"/>
<path d="M0,0 L1,0 L1,1 L0,1 Z " fill="#767B61" transform="translate(107,81)"/>
<path d="M0,0 L1,0 L1,1 L0,1 Z " fill="#C9D794" transform="translate(104,81)"/>
<path d="M0,0 L1,0 L1,1 L0,1 Z " fill="#5E5F58" transform="translate(103,81)"/>
<path d="M0,0 L1,0 L1,1 L0,1 Z " fill="#666666" transform="translate(102,81)"/>
<path d="M0,0 L1,0 L1,1 L0,1 Z " fill="#636656" transform="translate(101,81)"/>
<path d="M0,0 L1,0 L1,1 L0,1 Z " fill="#E7F8A6" transform="translate(100,81)"/>
<path d="M0,0 L1,0 L1,1 L0,1 Z " fill="#E1F1A2" transform="translate(98,81)"/>
<path d="M0,0 L1,0 L1,1 L0,1 Z " fill="#606356" transform="translate(97,81)"/>
<path d="M0,0 L1,0 L1,1 L0,1 Z " fill="#5F6158" transform="translate(95,81)"/>
<path d="M0,0 L1,0 L1,1 L0,1 Z " fill="#CDDB96" transform="translate(94,81)"/>
<path d="M0,0 L1,0 L1,1 L0,1 Z " fill="#7F8567" transform="translate(91,81)"/>
<path d="M0,0 L1,0 L1,1 L0,1 Z " fill="#616161" transform="translate(90,81)"/>
<path d="M0,0 L1,0 L1,1 L0,1 Z " fill="#686868" opacity="0.40392157" transform="translate(65,81)"/>
<path d="M0,0 L1,0 L1,1 L0,1 Z " fill="#FFFFFF" opacity="0.08235294" transform="translate(38,81)"/>
<path d="M0,0 L1,0 L1,1 L0,1 Z " fill="#FFFFFF" opacity="0.6392157" transform="translate(24,81)"/>
<path d="M0,0 L1,0 L1,1 L0,1 Z " fill="#666666" opacity="0.13725491" transform="translate(116,80)"/>
<path d="M0,0 L1,0 L1,1 L0,1 Z " fill="#666666" opacity="0.972549" transform="translate(115,80)"/>
<path d="M0,0 L1,0 L1,1 L0,1 Z " fill="#646659" transform="translate(114,80)"/>
<path d="M0,0 L1,0 L1,1 L0,1 Z " fill="#C0CD8E" transform="translate(110,80)"/>
<path d="M0,0 L1,0 L1,1 L0,1 Z " fill="#5C5C5C" transform="translate(108,80)"/>
<path d="M0,0 L1,0 L1,1 L0,1 Z " fill="#B6C187" transform="translate(107,80)"/>
<path d="M0,0 L1,0 L1,1 L0,1 Z " fill="#656565" transform="translate(102,80)"/>
<path d="M0,0 L1,0 L1,1 L0,1 Z " fill="#828869" transform="translate(101,80)"/>
<path d="M0,0 L1,0 L1,1 L0,1 Z " fill="#666666" opacity="0.9372549" transform="translate(65,80)"/>
<path d="M0,0 L1,0 L1,1 L0,1 Z " fill="#686868" opacity="0.08627451" transform="translate(64,80)"/>
<path d="M0,0 L1,0 L1,1 L0,1 Z " fill="#FFFFFF" opacity="0.65882355" transform="translate(24,80)"/>
<path d="M0,0 L1,0 L1,1 L0,1 Z " fill="#676767" opacity="0.70980394" transform="translate(116,79)"/>
<path d="M0,0 L1,0 L1,1 L0,1 Z " fill="#676767" opacity="0.6313726" transform="translate(64,79)"/>
<path d="M0,0 L1,0 L1,1 L0,1 Z " fill="#686868" opacity="0.23921569" transform="translate(117,78)"/>
<path d="M0,0 L1,0 L1,1 L0,1 Z " fill="#676767" opacity="0.16470589" transform="translate(63,78)"/>
<path d="M0,0 L1,0 L1,1 L0,1 Z " fill="#FFFFFF" opacity="0.6509804" transform="translate(24,78)"/>
<path d="M0,0 L1,0 L1,1 L0,1 Z " fill="#666666" opacity="0.72156864" transform="translate(117,77)"/>
<path d="M0,0 L1,0 L1,1 L0,1 Z " fill="#666666" opacity="0.6392157" transform="translate(63,77)"/>
<path d="M0,0 L1,0 L1,1 L0,1 Z " fill="#6A6A65" transform="translate(81,76)"/>
<path d="M0,0 L1,0 L1,1 L0,1 Z " fill="#676767" transform="translate(80,76)"/>
<path d="M0,0 L1,0 L1,1 L0,1 Z " fill="#666666" opacity="0.9882353" transform="translate(63,76)"/>
<path d="M0,0 L1,0 L1,1 L0,1 Z " fill="#FFFFFF" opacity="0.6431373" transform="translate(24,76)"/>
<path d="M0,0 L1,0 L1,1 L0,1 Z " fill="#666666" opacity="0.5686275" transform="translate(118,75)"/>
<path d="M0,0 L1,0 L1,1 L0,1 Z " fill="#BDCA8C" transform="translate(110,75)"/>
<path d="M0,0 L1,0 L1,1 L0,1 Z " fill="#5D5D5D" transform="translate(108,75)"/>
<path d="M0,0 L1,0 L1,1 L0,1 Z " fill="#AEB983" transform="translate(107,75)"/>
<path d="M0,0 L1,0 L1,1 L0,1 Z " fill="#666666" transform="translate(102,75)"/>
<path d="M0,0 L1,0 L1,1 L0,1 Z " fill="#7C8266" transform="translate(101,75)"/>
<path d="M0,0 L1,0 L1,1 L0,1 Z " fill="#71755F" transform="translate(97,75)"/>
<path d="M0,0 L1,0 L1,1 L0,1 Z " fill="#636659" transform="translate(95,75)"/>
<path d="M0,0 L1,0 L1,1 L0,1 Z " fill="#ADB883" transform="translate(91,75)"/>
<path d="M0,0 L1,0 L1,1 L0,1 Z " fill="#5C5C5C" transform="translate(90,75)"/>
<path d="M0,0 L1,0 L1,1 L0,1 Z " fill="#676767" transform="translate(82,75)"/>
<path d="M0,0 L1,0 L1,1 L0,1 Z " fill="#6C6C64" transform="translate(79,75)"/>
<path d="M0,0 L1,0 L1,1 L0,1 Z " fill="#484848" transform="translate(75,75)"/>
<path d="M0,0 L1,0 L1,1 L0,1 Z " fill="#5C5C5C" transform="translate(74,75)"/>
<path d="M0,0 L1,0 L1,1 L0,1 Z " fill="#686868" opacity="0.48235294" transform="translate(62,75)"/>
<path d="M0,0 L1,0 L1,1 L0,1 Z " fill="#FFFFFF" opacity="0.63529414" transform="translate(24,75)"/>
<path d="M0,0 L1,0 L1,1 L0,1 Z " fill="#676767" opacity="0.019607844" transform="translate(119,74)"/>
<path d="M0,0 L1,0 L1,1 L0,1 Z " fill="#666666" opacity="0.91764706" transform="translate(118,74)"/>
<path d="M0,0 L1,0 L1,1 L0,1 Z " fill="#60605C" transform="translate(114,74)"/>
<path d="M0,0 L1,0 L1,1 L0,1 Z " fill="#939B72" transform="translate(113,74)"/>
<path d="M0,0 L1,0 L1,1 L0,1 Z " fill="#DBEB9F" transform="translate(111,74)"/>
<path d="M0,0 L1,0 L1,1 L0,1 Z " fill="#676A58" transform="translate(110,74)"/>
<path d="M0,0 L1,0 L1,1 L0,1 Z " fill="#636363" transform="translate(109,74)"/>
<path d="M0,0 L1,0 L1,1 L0,1 Z " fill="#606254" transform="translate(107,74)"/>
<path d="M0,0 L1,0 L1,1 L0,1 Z " fill="#D9E89D" transform="translate(105,74)"/>
<path d="M0,0 L1,0 L1,1 L0,1 Z " fill="#8F9770" transform="translate(104,74)"/>
<path d="M0,0 L1,0 L1,1 L0,1 Z " fill="#5F5F5B" transform="translate(103,74)"/>
<path d="M0,0 L1,0 L1,1 L0,1 Z " fill="#5C5E54" transform="translate(101,74)"/>
<path d="M0,0 L1,0 L1,1 L0,1 Z " fill="#BCC88C" transform="translate(100,74)"/>
<path d="M0,0 L1,0 L1,1 L0,1 Z " fill="#AEB983" transform="translate(98,74)"/>
<path d="M0,0 L1,0 L1,1 L0,1 Z " fill="#5C5E56" transform="translate(97,74)"/>
<path d="M0,0 L1,0 L1,1 L0,1 Z " fill="#818768" transform="translate(94,74)"/>
<path d="M0,0 L1,0 L1,1 L0,1 Z " fill="#C4D190" transform="translate(92,74)"/>
<path d="M0,0 L1,0 L1,1 L0,1 Z " fill="#5D5F53" transform="translate(91,74)"/>
<path d="M0,0 L1,0 L1,1 L0,1 Z " fill="#656565" transform="translate(90,74)"/>
<path d="M0,0 L1,0 L1,1 L0,1 Z " fill="#9B9B56" transform="translate(80,74)"/>
<path d="M0,0 L1,0 L1,1 L0,1 Z " fill="#222222" transform="translate(77,74)"/>
<path d="M0,0 L1,0 L1,1 L0,1 Z " fill="#060606" transform="translate(74,74)"/>
<path d="M0,0 L1,0 L1,1 L0,1 Z " fill="#424242" transform="translate(73,74)"/>
<path d="M0,0 L1,0 L1,1 L0,1 Z " fill="#666666" opacity="0.8509804" transform="translate(62,74)"/>
<path d="M0,0 L1,0 L1,1 L0,1 Z " fill="#60605D" transform="translate(113,73)"/>
<path d="M0,0 L1,0 L1,1 L0,1 Z " fill="#5F6158" transform="translate(112,73)"/>
<path d="M0,0 L1,0 L1,1 L0,1 Z " fill="#616161" transform="translate(110,73)"/>
<path d="M0,0 L1,0 L1,1 L0,1 Z " fill="#636363" transform="translate(107,73)"/>
<path d="M0,0 L1,0 L1,1 L0,1 Z " fill="#5E5F59" transform="translate(106,73)"/>
<path d="M0,0 L1,0 L1,1 L0,1 Z " fill="#5F5F5D" transform="translate(104,73)"/>
<path d="M0,0 L1,0 L1,1 L0,1 Z " fill="#656565" transform="translate(101,73)"/>
<path d="M0,0 L1,0 L1,1 L0,1 Z " fill="#5D5E5A" transform="translate(100,73)"/>
<path d="M0,0 L1,0 L1,1 L0,1 Z " fill="#5D5D5A" transform="translate(98,73)"/>
<path d="M0,0 L1,0 L1,1 L0,1 Z " fill="#606060" transform="translate(94,73)"/>
<path d="M0,0 L1,0 L1,1 L0,1 Z " fill="#5D5E5B" transform="translate(92,73)"/>
<path d="M0,0 L1,0 L1,1 L0,1 Z " fill="#636363" transform="translate(91,73)"/>
<path d="M0,0 L1,0 L1,1 L0,1 Z " fill="#717163" transform="translate(83,73)"/>
<path d="M0,0 L1,0 L1,1 L0,1 Z " fill="#707063" transform="translate(80,73)"/>
<path d="M0,0 L1,0 L1,1 L0,1 Z " fill="#949459" transform="translate(79,73)"/>
<path d="M0,0 L1,0 L1,1 L0,1 Z " fill="#474727" transform="translate(78,73)"/>
<path d="M0,0 L1,0 L1,1 L0,1 Z " fill="#010101" transform="translate(74,73)"/>
<path d="M0,0 L1,0 L1,1 L0,1 Z " fill="#222222" transform="translate(72,73)"/>
<path d="M0,0 L1,0 L1,1 L0,1 Z " fill="#5F5F5F" transform="translate(71,73)"/>
<path d="M0,0 L1,0 L1,1 L0,1 Z " fill="#696969" opacity="0.18039216" transform="translate(61,73)"/>
<path d="M0,0 L1,0 L1,1 L0,1 Z " fill="#FFFFFF" opacity="0.627451" transform="translate(24,73)"/>
<path d="M0,0 L1,0 L1,1 L0,1 Z " fill="#666666" opacity="0.52156866" transform="translate(119,72)"/>
<path d="M0,0 L1,0 L1,1 L0,1 Z " fill="#87875D" transform="translate(83,72)"/>
<path d="M0,0 L1,0 L1,1 L0,1 Z " fill="#9C9C55" transform="translate(82,72)"/>
<path d="M0,0 L1,0 L1,1 L0,1 Z " fill="#8F8F5A" transform="translate(81,72)"/>
<path d="M0,0 L1,0 L1,1 L0,1 Z " fill="#4F4F4E" transform="translate(79,72)"/>
<path d="M0,0 L1,0 L1,1 L0,1 Z " fill="#090909" transform="translate(71,72)"/>
<path d="M0,0 L1,0 L1,1 L0,1 Z " fill="#484848" transform="translate(70,72)"/>
<path d="M0,0 L1,0 L1,1 L0,1 Z " fill="#666666" opacity="0.78039217" transform="translate(119,71)"/>
<path d="M0,0 L1,0 L1,1 L0,1 Z " fill="#676767" transform="translate(83,71)"/>
<path d="M0,0 L1,0 L1,1 L0,1 Z " fill="#929253" transform="translate(80,71)"/>
<path d="M0,0 L1,0 L1,1 L0,1 Z " fill="#0F0F0C" transform="translate(79,71)"/>
<path d="M0,0 L1,0 L1,1 L0,1 Z " fill="#282828" transform="translate(69,71)"/>
<path d="M0,0 L1,0 L1,1 L0,1 Z " fill="#616161" transform="translate(68,71)"/>
<path d="M0,0 L1,0 L1,1 L0,1 Z " fill="#666666" opacity="0.7019608" transform="translate(61,71)"/>
<path d="M0,0 L1,0 L1,1 L0,1 Z " fill="#FFFFFF" opacity="0.6156863" transform="translate(24,71)"/>
<path d="M0,0 L1,0 L1,1 L0,1 Z " fill="#FFFFFF" opacity="0.003921569" transform="translate(23,71)"/>
<path d="M0,0 L1,0 L1,1 L0,1 Z " fill="#FFFFFF" opacity="0.011764706" transform="translate(21,71)"/>
<path d="M0,0 L1,0 L1,1 L0,1 Z " fill="#FFFFFF" opacity="0.019607844" transform="translate(20,71)"/>
<path d="M0,0 L1,0 L1,1 L0,1 Z " fill="#FFFFFF" opacity="0.02745098" transform="translate(18,71)"/>
<path d="M0,0 L1,0 L1,1 L0,1 Z " fill="#FFFFFF" opacity="0.03137255" transform="translate(17,71)"/>
<path d="M0,0 L1,0 L1,1 L0,1 Z " fill="#FFFFFF" opacity="0.039215688" transform="translate(15,71)"/>
<path d="M0,0 L1,0 L1,1 L0,1 Z " fill="#FFFFFF" opacity="0.007843138" transform="translate(13,71)"/>
<path d="M0,0 L1,0 L1,1 L0,1 Z " fill="#676767" opacity="0.9843137" transform="translate(119,70)"/>
<path d="M0,0 L1,0 L1,1 L0,1 Z " fill="#737363" transform="translate(85,70)"/>
<path d="M0,0 L1,0 L1,1 L0,1 Z " fill="#9C9C56" transform="translate(84,70)"/>
<path d="M0,0 L1,0 L1,1 L0,1 Z " fill="#88885D" transform="translate(83,70)"/>
<path d="M0,0 L1,0 L1,1 L0,1 Z " fill="#696965" transform="translate(82,70)"/>
<path d="M0,0 L1,0 L1,1 L0,1 Z " fill="#3A3A23" transform="translate(80,70)"/>
<path d="M0,0 L1,0 L1,1 L0,1 Z " fill="#0C0C0C" transform="translate(68,70)"/>
<path d="M0,0 L1,0 L1,1 L0,1 Z " fill="#4D4D4D" transform="translate(67,70)"/>
<path d="M0,0 L1,0 L1,1 L0,1 Z " fill="#666666" opacity="0.91764706" transform="translate(61,70)"/>
<path d="M0,0 L1,0 L1,1 L0,1 Z " fill="#FFFFFF" opacity="0.039215688" transform="translate(50,70)"/>
<path d="M0,0 L1,0 L1,1 L0,1 Z " fill="#FFFFFF" opacity="0.47843137" transform="translate(48,70)"/>
<path d="M0,0 L1,0 L1,1 L0,1 Z " fill="#FFFFFF" opacity="0.62352943" transform="translate(47,70)"/>
<path d="M0,0 L1,0 L1,1 L0,1 Z " fill="#FFFFFF" opacity="0.7372549" transform="translate(46,70)"/>
<path d="M0,0 L1,0 L1,1 L0,1 Z " fill="#FFFFFF" opacity="0.7529412" transform="translate(45,70)"/>
<path d="M0,0 L1,0 L1,1 L0,1 Z " fill="#FFFFFF" opacity="0.7764706" transform="translate(43,70)"/>
<path d="M0,0 L1,0 L1,1 L0,1 Z " fill="#FFFFFF" opacity="0.7921569" transform="translate(42,70)"/>
<path d="M0,0 L1,0 L1,1 L0,1 Z " fill="#FFFFFF" opacity="0.8156863" transform="translate(40,70)"/>
<path d="M0,0 L1,0 L1,1 L0,1 Z " fill="#FFFFFF" opacity="0.8627451" transform="translate(38,70)"/>
<path d="M0,0 L1,0 L1,1 L0,1 Z " fill="#FFFFFF" opacity="0.87058824" transform="translate(12,70)"/>
<path d="M0,0 L1,0 L1,1 L0,1 Z " fill="#FFFFFF" opacity="0.14117648" transform="translate(10,70)"/>
<path d="M0,0 L1,0 L1,1 L0,1 Z " fill="#6B6B6B" opacity="0.14901961" transform="translate(120,69)"/>
<path d="M0,0 L1,0 L1,1 L0,1 Z " fill="#696966" transform="translate(85,69)"/>
<path d="M0,0 L1,0 L1,1 L0,1 Z " fill="#86865D" transform="translate(84,69)"/>
<path d="M0,0 L1,0 L1,1 L0,1 Z " fill="#9C9C55" transform="translate(83,69)"/>
<path d="M0,0 L1,0 L1,1 L0,1 Z " fill="#515145" transform="translate(81,69)"/>
<path d="M0,0 L1,0 L1,1 L0,1 Z " fill="#020202" transform="translate(68,69)"/>
<path d="M0,0 L1,0 L1,1 L0,1 Z " fill="#010101" transform="translate(67,69)"/>
<path d="M0,0 L1,0 L1,1 L0,1 Z " fill="#3D3D3D" transform="translate(66,69)"/>
<path d="M0,0 L1,0 L1,1 L0,1 Z " fill="#696969" opacity="0.06666667" transform="translate(60,69)"/>
<path d="M0,0 L1,0 L1,1 L0,1 Z " fill="#FFFFFF" opacity="0.40784314" transform="translate(51,69)"/>
<path d="M0,0 L1,0 L1,1 L0,1 Z " fill="#FFFFFF" opacity="0.93333334" transform="translate(50,69)"/>
<path d="M0,0 L1,0 L1,1 L0,1 Z " fill="#FFFFFF" opacity="0.972549" transform="translate(10,69)"/>
<path d="M0,0 L1,0 L1,1 L0,1 Z " fill="#FFFFFF" opacity="0.3647059" transform="translate(9,69)"/>
<path d="M0,0 L1,0 L1,1 L0,1 Z " fill="#676767" opacity="0.3019608" transform="translate(120,68)"/>
<path d="M0,0 L1,0 L1,1 L0,1 Z " fill="#5B5B5B" transform="translate(106,68)"/>
<path d="M0,0 L1,0 L1,1 L0,1 Z " fill="#525252" transform="translate(105,68)"/>
<path d="M0,0 L1,0 L1,1 L0,1 Z " fill="#4B4B4B" transform="translate(103,68)"/>
<path d="M0,0 L1,0 L1,1 L0,1 Z " fill="#555555" transform="translate(101,68)"/>
<path d="M0,0 L1,0 L1,1 L0,1 Z " fill="#616161" transform="translate(100,68)"/>
<path d="M0,0 L1,0 L1,1 L0,1 Z " fill="#85855D" transform="translate(86,68)"/>
<path d="M0,0 L1,0 L1,1 L0,1 Z " fill="#797960" transform="translate(85,68)"/>
<path d="M0,0 L1,0 L1,1 L0,1 Z " fill="#757561" transform="translate(83,68)"/>
<path d="M0,0 L1,0 L1,1 L0,1 Z " fill="#8C8C51" transform="translate(82,68)"/>
<path d="M0,0 L1,0 L1,1 L0,1 Z " fill="#0E0E08" transform="translate(81,68)"/>
<path d="M0,0 L1,0 L1,1 L0,1 Z " fill="#020201" transform="translate(80,68)"/>
<path d="M0,0 L1,0 L1,1 L0,1 Z " fill="#030303" transform="translate(66,68)"/>
<path d="M0,0 L1,0 L1,1 L0,1 Z " fill="#696969" opacity="0.21960784" transform="translate(60,68)"/>
<path d="M0,0 L1,0 L1,1 L0,1 Z " fill="#FFFFFF" opacity="0.5568628" transform="translate(52,68)"/>
<path d="M0,0 L1,0 L1,1 L0,1 Z " fill="#FFFFFF" opacity="0.24705882" transform="translate(8,68)"/>
<path d="M0,0 L1,0 L1,1 L0,1 Z " fill="#666666" opacity="0.4117647" transform="translate(120,67)"/>
<path d="M0,0 L1,0 L1,1 L0,1 Z " fill="#646464" transform="translate(109,67)"/>
<path d="M0,0 L1,0 L1,1 L0,1 Z " fill="#505050" transform="translate(108,67)"/>
<path d="M0,0 L1,0 L1,1 L0,1 Z " fill="#3C3C3C" transform="translate(105,67)"/>
<path d="M0,0 L1,0 L1,1 L0,1 Z " fill="#524E3B" transform="translate(103,67)"/>
<path d="M0,0 L1,0 L1,1 L0,1 Z " fill="#42413C" transform="translate(102,67)"/>
<path d="M0,0 L1,0 L1,1 L0,1 Z " fill="#5B5B5B" transform="translate(98,67)"/>
<path d="M0,0 L1,0 L1,1 L0,1 Z " fill="#696966" transform="translate(87,67)"/>
<path d="M0,0 L1,0 L1,1 L0,1 Z " fill="#9C9C55" transform="translate(85,67)"/>
<path d="M0,0 L1,0 L1,1 L0,1 Z " fill="#242422" transform="translate(82,67)"/>
<path d="M0,0 L1,0 L1,1 L0,1 Z " fill="#010101" transform="translate(81,67)"/>
<path d="M0,0 L1,0 L1,1 L0,1 Z " fill="#4F4F4F" transform="translate(65,67)"/>
<path d="M0,0 L1,0 L1,1 L0,1 Z " fill="#FFFFFF" opacity="0.30588236" transform="translate(53,67)"/>
<path d="M0,0 L1,0 L1,1 L0,1 Z " fill="#FFFFFF" opacity="0.80784315" transform="translate(8,67)"/>
<path d="M0,0 L1,0 L1,1 L0,1 Z " fill="#686868" opacity="0.4627451" transform="translate(120,66)"/>
<path d="M0,0 L1,0 L1,1 L0,1 Z " fill="#5C5C5C" transform="translate(110,66)"/>
<path d="M0,0 L1,0 L1,1 L0,1 Z " fill="#3C3C3C" transform="translate(108,66)"/>
<path d="M0,0 L1,0 L1,1 L0,1 Z " fill="#7D6F36" transform="translate(107,66)"/>
<path d="M0,0 L1,0 L1,1 L0,1 Z " fill="#C3A530" transform="translate(106,66)"/>
<path d="M0,0 L1,0 L1,1 L0,1 Z " fill="#F9CF2C" transform="translate(105,66)"/>
<path d="M0,0 L1,0 L1,1 L0,1 Z " fill="#A99133" transform="translate(100,66)"/>
<path d="M0,0 L1,0 L1,1 L0,1 Z " fill="#56503A" transform="translate(99,66)"/>
<path d="M0,0 L1,0 L1,1 L0,1 Z " fill="#3B3B3B" transform="translate(98,66)"/>
<path d="M0,0 L1,0 L1,1 L0,1 Z " fill="#4B4B49" transform="translate(97,66)"/>
<path d="M0,0 L1,0 L1,1 L0,1 Z " fill="#646464" transform="translate(96,66)"/>
<path d="M0,0 L1,0 L1,1 L0,1 Z " fill="#6D6D65" transform="translate(88,66)"/>
<path d="M0,0 L1,0 L1,1 L0,1 Z " fill="#686866" transform="translate(86,66)"/>
<path d="M0,0 L1,0 L1,1 L0,1 Z " fill="#84845D" transform="translate(85,66)"/>
<path d="M0,0 L1,0 L1,1 L0,1 Z " fill="#9C9C56" transform="translate(84,66)"/>
<path d="M0,0 L1,0 L1,1 L0,1 Z " fill="#616139" transform="translate(83,66)"/>
<path d="M0,0 L1,0 L1,1 L0,1 Z " fill="#060606" transform="translate(66,66)"/>
<path d="M0,0 L1,0 L1,1 L0,1 Z " fill="#5F5F5F" transform="translate(65,66)"/>
<path d="M0,0 L1,0 L1,1 L0,1 Z " fill="#686868" opacity="0.3764706" transform="translate(60,66)"/>
<path d="M0,0 L1,0 L1,1 L0,1 Z " fill="#FFFFFF" opacity="0.78039217" transform="translate(53,66)"/>
<path d="M0,0 L1,0 L1,1 L0,1 Z " fill="#FFFFFF" opacity="0.12156863" transform="translate(7,66)"/>
<path d="M0,0 L1,0 L1,1 L0,1 Z " fill="#676767" opacity="0.5137255" transform="translate(120,65)"/>
<path d="M0,0 L1,0 L1,1 L0,1 Z " fill="#565656" transform="translate(111,65)"/>
<path d="M0,0 L1,0 L1,1 L0,1 Z " fill="#5F5739" transform="translate(109,65)"/>
<path d="M0,0 L1,0 L1,1 L0,1 Z " fill="#DBB82E" transform="translate(108,65)"/>
<path d="M0,0 L1,0 L1,1 L0,1 Z " fill="#FCD12B" transform="translate(99,65)"/>
<path d="M0,0 L1,0 L1,1 L0,1 Z " fill="#AC9332" transform="translate(98,65)"/>
<path d="M0,0 L1,0 L1,1 L0,1 Z " fill="#403F3C" transform="translate(97,65)"/>
<path d="M0,0 L1,0 L1,1 L0,1 Z " fill="#454543" transform="translate(96,65)"/>
<path d="M0,0 L1,0 L1,1 L0,1 Z " fill="#636363" transform="translate(95,65)"/>
<path d="M0,0 L1,0 L1,1 L0,1 Z " fill="#85855E" transform="translate(88,65)"/>
<path d="M0,0 L1,0 L1,1 L0,1 Z " fill="#9C9C55" transform="translate(87,65)"/>
<path d="M0,0 L1,0 L1,1 L0,1 Z " fill="#8C8C5B" transform="translate(86,65)"/>
<path d="M0,0 L1,0 L1,1 L0,1 Z " fill="#686858" transform="translate(84,65)"/>
<path d="M0,0 L1,0 L1,1 L0,1 Z " fill="#090905" transform="translate(83,65)"/>
<path d="M0,0 L1,0 L1,1 L0,1 Z " fill="#020201" transform="translate(82,65)"/>
<path d="M0,0 L1,0 L1,1 L0,1 Z " fill="#585834" transform="translate(66,65)"/>
<path d="M0,0 L1,0 L1,1 L0,1 Z " fill="#727262" transform="translate(65,65)"/>
<path d="M0,0 L1,0 L1,1 L0,1 Z " fill="#676767" opacity="0.42745098" transform="translate(60,65)"/>
<path d="M0,0 L1,0 L1,1 L0,1 Z " fill="#FFFFFF" opacity="0.05882353" transform="translate(54,65)"/>
<path d="M0,0 L1,0 L1,1 L0,1 Z " fill="#FFFFFF" opacity="0.28235295" transform="translate(7,65)"/>
<path d="M0,0 L1,0 L1,1 L0,1 Z " fill="#5C5C5C" transform="translate(112,64)"/>
<path d="M0,0 L1,0 L1,1 L0,1 Z " fill="#746837" transform="translate(110,64)"/>
<path d="M0,0 L1,0 L1,1 L0,1 Z " fill="#D1B02F" transform="translate(97,64)"/>
<path d="M0,0 L1,0 L1,1 L0,1 Z " fill="#44423B" transform="translate(96,64)"/>
<path d="M0,0 L1,0 L1,1 L0,1 Z " fill="#676766" transform="translate(88,64)"/>
<path d="M0,0 L1,0 L1,1 L0,1 Z " fill="#81815E" transform="translate(87,64)"/>
<path d="M0,0 L1,0 L1,1 L0,1 Z " fill="#979757" transform="translate(85,64)"/>
<path d="M0,0 L1,0 L1,1 L0,1 Z " fill="#20201B" transform="translate(84,64)"/>
<path d="M0,0 L1,0 L1,1 L0,1 Z " fill="#010101" transform="translate(83,64)"/>
<path d="M0,0 L1,0 L1,1 L0,1 Z " fill="#20201B" transform="translate(67,64)"/>
<path d="M0,0 L1,0 L1,1 L0,1 Z " fill="#9C9C56" transform="translate(65,64)"/>
<path d="M0,0 L1,0 L1,1 L0,1 Z " fill="#81815E" transform="translate(64,64)"/>
<path d="M0,0 L1,0 L1,1 L0,1 Z " fill="#FFFFFF" opacity="0.16078432" transform="translate(54,64)"/>
<path d="M0,0 L1,0 L1,1 L0,1 Z " fill="#666666" opacity="0.47843137" transform="translate(120,63)"/>
<path d="M0,0 L1,0 L1,1 L0,1 Z " fill="#656565" transform="translate(113,63)"/>
<path d="M0,0 L1,0 L1,1 L0,1 Z " fill="#5F5739" transform="translate(111,63)"/>
<path d="M0,0 L1,0 L1,1 L0,1 Z " fill="#C2A120" transform="translate(99,63)"/>
<path d="M0,0 L1,0 L1,1 L0,1 Z " fill="#C6A830" transform="translate(96,63)"/>
<path d="M0,0 L1,0 L1,1 L0,1 Z " fill="#3D3D3C" transform="translate(95,63)"/>
<path d="M0,0 L1,0 L1,1 L0,1 Z " fill="#505050" transform="translate(94,63)"/>
<path d="M0,0 L1,0 L1,1 L0,1 Z " fill="#575734" transform="translate(85,63)"/>
<path d="M0,0 L1,0 L1,1 L0,1 Z " fill="#080805" transform="translate(68,63)"/>
<path d="M0,0 L1,0 L1,1 L0,1 Z " fill="#5E5E5B" transform="translate(67,63)"/>
<path d="M0,0 L1,0 L1,1 L0,1 Z " fill="#999957" transform="translate(64,63)"/>
<path d="M0,0 L1,0 L1,1 L0,1 Z " fill="#6D6D65" transform="translate(63,63)"/>
<path d="M0,0 L1,0 L1,1 L0,1 Z " fill="#666666" opacity="0.39215687" transform="translate(60,63)"/>
<path d="M0,0 L1,0 L1,1 L0,1 Z " fill="#FFFFFF" opacity="0.43137255" transform="translate(7,63)"/>
<path d="M0,0 L1,0 L1,1 L0,1 Z " fill="#515151" transform="translate(113,62)"/>
<path d="M0,0 L1,0 L1,1 L0,1 Z " fill="#3C3C3C" transform="translate(112,62)"/>
<path d="M0,0 L1,0 L1,1 L0,1 Z " fill="#DBB82E" transform="translate(111,62)"/>
<path d="M0,0 L1,0 L1,1 L0,1 Z " fill="#483C0C" transform="translate(99,62)"/>
<path d="M0,0 L1,0 L1,1 L0,1 Z " fill="#887735" transform="translate(95,62)"/>
<path d="M0,0 L1,0 L1,1 L0,1 Z " fill="#3E3E3C" transform="translate(94,62)"/>
<path d="M0,0 L1,0 L1,1 L0,1 Z " fill="#626262" transform="translate(93,62)"/>
<path d="M0,0 L1,0 L1,1 L0,1 Z " fill="#030303" transform="translate(85,62)"/>
<path d="M0,0 L1,0 L1,1 L0,1 Z " fill="#010101" transform="translate(84,62)"/>
<path d="M0,0 L1,0 L1,1 L0,1 Z " fill="#646437" transform="translate(68,62)"/>
<path d="M0,0 L1,0 L1,1 L0,1 Z " fill="#959558" transform="translate(67,62)"/>
<path d="M0,0 L1,0 L1,1 L0,1 Z " fill="#737363" transform="translate(66,62)"/>
<path d="M0,0 L1,0 L1,1 L0,1 Z " fill="#6E6E64" transform="translate(64,62)"/>
<path d="M0,0 L1,0 L1,1 L0,1 Z " fill="#FFFFFF" opacity="0.050980393" transform="translate(54,62)"/>
<path d="M0,0 L1,0 L1,1 L0,1 Z " fill="#FFFFFF" opacity="0.99215686" transform="translate(53,62)"/>
<path d="M0,0 L1,0 L1,1 L0,1 Z " fill="#666666" opacity="0.34117648" transform="translate(120,61)"/>
<path d="M0,0 L1,0 L1,1 L0,1 Z " fill="#7A6C36" transform="translate(112,61)"/>
<path d="M0,0 L1,0 L1,1 L0,1 Z " fill="#F9CF29" transform="translate(106,61)"/>
<path d="M0,0 L1,0 L1,1 L0,1 Z " fill="#8C7417" transform="translate(105,61)"/>
<path d="M0,0 L1,0 L1,1 L0,1 Z " fill="#B0921D" transform="translate(103,61)"/>
<path d="M0,0 L1,0 L1,1 L0,1 Z " fill="#0E0C03" transform="translate(102,61)"/>
<path d="M0,0 L1,0 L1,1 L0,1 Z " fill="#B0921D" transform="translate(100,61)"/>
<path d="M0,0 L1,0 L1,1 L0,1 Z " fill="#EAC32D" transform="translate(95,61)"/>
<path d="M0,0 L1,0 L1,1 L0,1 Z " fill="#515151" transform="translate(93,61)"/>
<path d="M0,0 L1,0 L1,1 L0,1 Z " fill="#555555" transform="translate(86,61)"/>
<path d="M0,0 L1,0 L1,1 L0,1 Z " fill="#222222" transform="translate(69,61)"/>
<path d="M0,0 L1,0 L1,1 L0,1 Z " fill="#9C9C56" transform="translate(66,61)"/>
<path d="M0,0 L1,0 L1,1 L0,1 Z " fill="#787861" transform="translate(65,61)"/>
<path d="M0,0 L1,0 L1,1 L0,1 Z " fill="#686868" opacity="0.25882354" transform="translate(60,61)"/>
<path d="M0,0 L1,0 L1,1 L0,1 Z " fill="#FFFFFF" opacity="0.9647059" transform="translate(8,61)"/>
<path d="M0,0 L1,0 L1,1 L0,1 Z " fill="#FFFFFF" opacity="0.05490196" transform="translate(7,61)"/>
<path d="M0,0 L1,0 L1,1 L0,1 Z " fill="#5C5C5C" transform="translate(114,60)"/>
<path d="M0,0 L1,0 L1,1 L0,1 Z " fill="#C0A330" transform="translate(112,60)"/>
<path d="M0,0 L1,0 L1,1 L0,1 Z " fill="#CFAC22" transform="translate(109,60)"/>
<path d="M0,0 L1,0 L1,1 L0,1 Z " fill="#EDC527" transform="translate(101,60)"/>
<path d="M0,0 L1,0 L1,1 L0,1 Z " fill="#7F6A15" transform="translate(100,60)"/>
<path d="M0,0 L1,0 L1,1 L0,1 Z " fill="#9C821A" transform="translate(98,60)"/>
<path d="M0,0 L1,0 L1,1 L0,1 Z " fill="#6E6338" transform="translate(94,60)"/>
<path d="M0,0 L1,0 L1,1 L0,1 Z " fill="#454442" transform="translate(93,60)"/>
<path d="M0,0 L1,0 L1,1 L0,1 Z " fill="#5E5E5E" transform="translate(86,60)"/>
<path d="M0,0 L1,0 L1,1 L0,1 Z " fill="#040404" transform="translate(85,60)"/>
<path d="M0,0 L1,0 L1,1 L0,1 Z " fill="#0D0D07" transform="translate(70,60)"/>
<path d="M0,0 L1,0 L1,1 L0,1 Z " fill="#858552" transform="translate(69,60)"/>
<path d="M0,0 L1,0 L1,1 L0,1 Z " fill="#6E6E65" transform="translate(68,60)"/>
<path d="M0,0 L1,0 L1,1 L0,1 Z " fill="#87875D" transform="translate(66,60)"/>
<path d="M0,0 L1,0 L1,1 L0,1 Z " fill="#6A6A66" transform="translate(65,60)"/>
<path d="M0,0 L1,0 L1,1 L0,1 Z " fill="#FFFFFF" opacity="0.2901961" transform="translate(53,60)"/>
<path d="M0,0 L1,0 L1,1 L0,1 Z " fill="#666666" opacity="0.043137256" transform="translate(120,59)"/>
<path d="M0,0 L1,0 L1,1 L0,1 Z " fill="#525252" transform="translate(114,59)"/>
<path d="M0,0 L1,0 L1,1 L0,1 Z " fill="#F7CE2C" transform="translate(112,59)"/>
<path d="M0,0 L1,0 L1,1 L0,1 Z " fill="#FAD02A" transform="translate(110,59)"/>
<path d="M0,0 L1,0 L1,1 L0,1 Z " fill="#8F7718" transform="translate(106,59)"/>
<path d="M0,0 L1,0 L1,1 L0,1 Z " fill="#CBA922" transform="translate(104,59)"/>
<path d="M0,0 L1,0 L1,1 L0,1 Z " fill="#54460E" transform="translate(103,59)"/>
<path d="M0,0 L1,0 L1,1 L0,1 Z " fill="#120F03" transform="translate(102,59)"/>
<path d="M0,0 L1,0 L1,1 L0,1 Z " fill="#A4881B" transform="translate(101,59)"/>
<path d="M0,0 L1,0 L1,1 L0,1 Z " fill="#685712" transform="translate(99,59)"/>
<path d="M0,0 L1,0 L1,1 L0,1 Z " fill="#A38C33" transform="translate(94,59)"/>
<path d="M0,0 L1,0 L1,1 L0,1 Z " fill="#656565" transform="translate(92,59)"/>
<path d="M0,0 L1,0 L1,1 L0,1 Z " fill="#404040" transform="translate(85,59)"/>
<path d="M0,0 L1,0 L1,1 L0,1 Z " fill="#575743" transform="translate(70,59)"/>
<path d="M0,0 L1,0 L1,1 L0,1 Z " fill="#9A9A57" transform="translate(68,59)"/>
<path d="M0,0 L1,0 L1,1 L0,1 Z " fill="#7A7A60" transform="translate(67,59)"/>
<path d="M0,0 L1,0 L1,1 L0,1 Z " fill="#666666" opacity="0.95686275" transform="translate(61,59)"/>
<path d="M0,0 L1,0 L1,1 L0,1 Z " fill="#666666" opacity="0.003921569" transform="translate(60,59)"/>
<path d="M0,0 L1,0 L1,1 L0,1 Z " fill="#FFFFFF" opacity="0.5372549" transform="translate(52,59)"/>
<path d="M0,0 L1,0 L1,1 L0,1 Z " fill="#FFFFFF" opacity="0.7764706" transform="translate(9,59)"/>
<path d="M0,0 L1,0 L1,1 L0,1 Z " fill="#FFFFFF" opacity="0.03137255" transform="translate(8,59)"/>
<path d="M0,0 L1,0 L1,1 L0,1 Z " fill="#000000" transform="translate(109,58)"/>
<path d="M0,0 L1,0 L1,1 L0,1 Z " fill="#A5891C" transform="translate(108,58)"/>
<path d="M0,0 L1,0 L1,1 L0,1 Z " fill="#56480F" transform="translate(106,58)"/>
<path d="M0,0 L1,0 L1,1 L0,1 Z " fill="#6E5C13" transform="translate(104,58)"/>
<path d="M0,0 L1,0 L1,1 L0,1 Z " fill="#58490F" transform="translate(101,58)"/>
<path d="M0,0 L1,0 L1,1 L0,1 Z " fill="#141104" transform="translate(100,58)"/>
<path d="M0,0 L1,0 L1,1 L0,1 Z " fill="#E6BF26" transform="translate(99,58)"/>
<path d="M0,0 L1,0 L1,1 L0,1 Z " fill="#110F03" transform="translate(98,58)"/>
<path d="M0,0 L1,0 L1,1 L0,1 Z " fill="#ECC427" transform="translate(97,58)"/>
<path d="M0,0 L1,0 L1,1 L0,1 Z " fill="#505050" transform="translate(84,58)"/>
<path d="M0,0 L1,0 L1,1 L0,1 Z " fill="#0F0F0F" transform="translate(83,58)"/>
<path d="M0,0 L1,0 L1,1 L0,1 Z " fill="#323224" transform="translate(71,58)"/>
<path d="M0,0 L1,0 L1,1 L0,1 Z " fill="#686867" transform="translate(70,58)"/>
<path d="M0,0 L1,0 L1,1 L0,1 Z " fill="#87875D" transform="translate(67,58)"/>
<path d="M0,0 L1,0 L1,1 L0,1 Z " fill="#FFFFFF" opacity="0.4117647" transform="translate(51,58)"/>
<path d="M0,0 L1,0 L1,1 L0,1 Z " fill="#FFFFFF" opacity="0.94509804" transform="translate(50,58)"/>
<path d="M0,0 L1,0 L1,1 L0,1 Z " fill="#FFFFFF" opacity="0.9882353" transform="translate(11,58)"/>
<path d="M0,0 L1,0 L1,1 L0,1 Z " fill="#FFFFFF" opacity="0.039215688" transform="translate(9,58)"/>
<path d="M0,0 L1,0 L1,1 L0,1 Z " fill="#666666" opacity="0.59607846" transform="translate(119,57)"/>
<path d="M0,0 L1,0 L1,1 L0,1 Z " fill="#4C4C4C" transform="translate(114,57)"/>
<path d="M0,0 L1,0 L1,1 L0,1 Z " fill="#4F4B3B" transform="translate(113,57)"/>
<path d="M0,0 L1,0 L1,1 L0,1 Z " fill="#907818" transform="translate(110,57)"/>
<path d="M0,0 L1,0 L1,1 L0,1 Z " fill="#2E2708" transform="translate(108,57)"/>
<path d="M0,0 L1,0 L1,1 L0,1 Z " fill="#C4A321" transform="translate(105,57)"/>
<path d="M0,0 L1,0 L1,1 L0,1 Z " fill="#070602" transform="translate(104,57)"/>
<path d="M0,0 L1,0 L1,1 L0,1 Z " fill="#181404" transform="translate(103,57)"/>
<path d="M0,0 L1,0 L1,1 L0,1 Z " fill="#EEC628" transform="translate(102,57)"/>
<path d="M0,0 L1,0 L1,1 L0,1 Z " fill="#594A0F" transform="translate(98,57)"/>
<path d="M0,0 L1,0 L1,1 L0,1 Z " fill="#C0A330" transform="translate(94,57)"/>
<path d="M0,0 L1,0 L1,1 L0,1 Z " fill="#5E5E5E" transform="translate(92,57)"/>
<path d="M0,0 L1,0 L1,1 L0,1 Z " fill="#626262" transform="translate(83,57)"/>
<path d="M0,0 L1,0 L1,1 L0,1 Z " fill="#2C2C2C" transform="translate(82,57)"/>
<path d="M0,0 L1,0 L1,1 L0,1 Z " fill="#020202" transform="translate(80,57)"/>
<path d="M0,0 L1,0 L1,1 L0,1 Z " fill="#10100A" transform="translate(72,57)"/>
<path d="M0,0 L1,0 L1,1 L0,1 Z " fill="#909059" transform="translate(70,57)"/>
<path d="M0,0 L1,0 L1,1 L0,1 Z " fill="#6E6E64" transform="translate(69,57)"/>
<path d="M0,0 L1,0 L1,1 L0,1 Z " fill="#696966" transform="translate(67,57)"/>
<path d="M0,0 L1,0 L1,1 L0,1 Z " fill="#666666" opacity="0.5176471" transform="translate(61,57)"/>
<path d="M0,0 L1,0 L1,1 L0,1 Z " fill="#FFFFFF" opacity="0.050980393" transform="translate(50,57)"/>
<path d="M0,0 L1,0 L1,1 L0,1 Z " fill="#FFFFFF" opacity="0.50980395" transform="translate(48,57)"/>
<path d="M0,0 L1,0 L1,1 L0,1 Z " fill="#FFFFFF" opacity="0.6627451" transform="translate(47,57)"/>
<path d="M0,0 L1,0 L1,1 L0,1 Z " fill="#FFFFFF" opacity="0.79607844" transform="translate(38,57)"/>
<path d="M0,0 L1,0 L1,1 L0,1 Z " fill="#FFFFFF" opacity="0.8627451" transform="translate(24,57)"/>
<path d="M0,0 L1,0 L1,1 L0,1 Z " fill="#FFFFFF" opacity="0.7176471" transform="translate(23,57)"/>
<path d="M0,0 L1,0 L1,1 L0,1 Z " fill="#FFFFFF" opacity="0.7058824" transform="translate(21,57)"/>
<path d="M0,0 L1,0 L1,1 L0,1 Z " fill="#FFFFFF" opacity="0.69411767" transform="translate(19,57)"/>
<path d="M0,0 L1,0 L1,1 L0,1 Z " fill="#FFFFFF" opacity="0.68235296" transform="translate(17,57)"/>
<path d="M0,0 L1,0 L1,1 L0,1 Z " fill="#FFFFFF" opacity="0.6666667" transform="translate(15,57)"/>
<path d="M0,0 L1,0 L1,1 L0,1 Z " fill="#FFFFFF" opacity="0.5019608" transform="translate(13,57)"/>
<path d="M0,0 L1,0 L1,1 L0,1 Z " fill="#FFFFFF" opacity="0.11764706" transform="translate(11,57)"/>
<path d="M0,0 L1,0 L1,1 L0,1 Z " fill="#403F3C" transform="translate(113,56)"/>
<path d="M0,0 L1,0 L1,1 L0,1 Z " fill="#56480F" transform="translate(110,56)"/>
<path d="M0,0 L1,0 L1,1 L0,1 Z " fill="#AA8D1C" transform="translate(109,56)"/>
<path d="M0,0 L1,0 L1,1 L0,1 Z " fill="#977E19" transform="translate(107,56)"/>
<path d="M0,0 L1,0 L1,1 L0,1 Z " fill="#1E1905" transform="translate(106,56)"/>
<path d="M0,0 L1,0 L1,1 L0,1 Z " fill="#030301" transform="translate(103,56)"/>
<path d="M0,0 L1,0 L1,1 L0,1 Z " fill="#FFD42A" transform="translate(102,56)"/>
<path d="M0,0 L1,0 L1,1 L0,1 Z " fill="#201B06" transform="translate(100,56)"/>
<path d="M0,0 L1,0 L1,1 L0,1 Z " fill="#AE911D" transform="translate(98,56)"/>
<path d="M0,0 L1,0 L1,1 L0,1 Z " fill="#44390C" transform="translate(97,56)"/>
<path d="M0,0 L1,0 L1,1 L0,1 Z " fill="#626262" transform="translate(92,56)"/>
<path d="M0,0 L1,0 L1,1 L0,1 Z " fill="#4B4B4B" transform="translate(81,56)"/>
<path d="M0,0 L1,0 L1,1 L0,1 Z " fill="#0B0B0B" transform="translate(80,56)"/>
<path d="M0,0 L1,0 L1,1 L0,1 Z " fill="#010101" transform="translate(73,56)"/>
<path d="M0,0 L1,0 L1,1 L0,1 Z " fill="#4E4E4C" transform="translate(72,56)"/>
<path d="M0,0 L1,0 L1,1 L0,1 Z " fill="#7B7B60" transform="translate(71,56)"/>
<path d="M0,0 L1,0 L1,1 L0,1 Z " fill="#999956" transform="translate(69,56)"/>
<path d="M0,0 L1,0 L1,1 L0,1 Z " fill="#6A6A65" transform="translate(68,56)"/>
<path d="M0,0 L1,0 L1,1 L0,1 Z " fill="#666666" opacity="0.06666667" transform="translate(119,55)"/>
<path d="M0,0 L1,0 L1,1 L0,1 Z " fill="#565656" transform="translate(114,55)"/>
<path d="M0,0 L1,0 L1,1 L0,1 Z " fill="#E2BD2D" transform="translate(112,55)"/>
<path d="M0,0 L1,0 L1,1 L0,1 Z " fill="#FFD42A" transform="translate(111,55)"/>
<path d="M0,0 L1,0 L1,1 L0,1 Z " fill="#C2A120" transform="translate(108,55)"/>
<path d="M0,0 L1,0 L1,1 L0,1 Z " fill="#645311" transform="translate(103,55)"/>
<path d="M0,0 L1,0 L1,1 L0,1 Z " fill="#C1A020" transform="translate(100,55)"/>
<path d="M0,0 L1,0 L1,1 L0,1 Z " fill="#AC8F1D" transform="translate(97,55)"/>
<path d="M0,0 L1,0 L1,1 L0,1 Z " fill="#8F7D34" transform="translate(94,55)"/>
<path d="M0,0 L1,0 L1,1 L0,1 Z " fill="#3F3F3D" transform="translate(93,55)"/>
<path d="M0,0 L1,0 L1,1 L0,1 Z " fill="#606060" transform="translate(80,55)"/>
<path d="M0,0 L1,0 L1,1 L0,1 Z " fill="#262626" transform="translate(79,55)"/>
<path d="M0,0 L1,0 L1,1 L0,1 Z " fill="#444425" transform="translate(73,55)"/>
<path d="M0,0 L1,0 L1,1 L0,1 Z " fill="#939359" transform="translate(72,55)"/>
<path d="M0,0 L1,0 L1,1 L0,1 Z " fill="#707063" transform="translate(71,55)"/>
<path d="M0,0 L1,0 L1,1 L0,1 Z " fill="#7C7C60" transform="translate(69,55)"/>
<path d="M0,0 L1,0 L1,1 L0,1 Z " fill="#666666" opacity="0.02745098" transform="translate(61,55)"/>
<path d="M0,0 L1,0 L1,1 L0,1 Z " fill="#676767" opacity="0.67058825" transform="translate(118,54)"/>
<path d="M0,0 L1,0 L1,1 L0,1 Z " fill="#626262" transform="translate(114,54)"/>
<path d="M0,0 L1,0 L1,1 L0,1 Z " fill="#A48D33" transform="translate(112,54)"/>
<path d="M0,0 L1,0 L1,1 L0,1 Z " fill="#E3BC26" transform="translate(111,54)"/>
<path d="M0,0 L1,0 L1,1 L0,1 Z " fill="#1F1A06" transform="translate(110,54)"/>
<path d="M0,0 L1,0 L1,1 L0,1 Z " fill="#796514" transform="translate(106,54)"/>
<path d="M0,0 L1,0 L1,1 L0,1 Z " fill="#B6971E" transform="translate(103,54)"/>
<path d="M0,0 L1,0 L1,1 L0,1 Z " fill="#514C3B" transform="translate(94,54)"/>
<path d="M0,0 L1,0 L1,1 L0,1 Z " fill="#464646" transform="translate(78,54)"/>
<path d="M0,0 L1,0 L1,1 L0,1 Z " fill="#0A0A0A" transform="translate(77,54)"/>
<path d="M0,0 L1,0 L1,1 L0,1 Z " fill="#1B1B1B" transform="translate(74,54)"/>
<path d="M0,0 L1,0 L1,1 L0,1 Z " fill="#73735D" transform="translate(73,54)"/>
<path d="M0,0 L1,0 L1,1 L0,1 Z " fill="#999957" transform="translate(72,54)"/>
<path d="M0,0 L1,0 L1,1 L0,1 Z " fill="#797961" transform="translate(70,54)"/>
<path d="M0,0 L1,0 L1,1 L0,1 Z " fill="#666666" opacity="0.5882353" transform="translate(62,54)"/>
<path d="M0,0 L1,0 L1,1 L0,1 Z " fill="#534E3A" transform="translate(112,53)"/>
<path d="M0,0 L1,0 L1,1 L0,1 Z " fill="#EBC327" transform="translate(110,53)"/>
<path d="M0,0 L1,0 L1,1 L0,1 Z " fill="#C9A721" transform="translate(106,53)"/>
<path d="M0,0 L1,0 L1,1 L0,1 Z " fill="#FDD22A" transform="translate(103,53)"/>
<path d="M0,0 L1,0 L1,1 L0,1 Z " fill="#C1A430" transform="translate(95,53)"/>
<path d="M0,0 L1,0 L1,1 L0,1 Z " fill="#575757" transform="translate(93,53)"/>
<path d="M0,0 L1,0 L1,1 L0,1 Z " fill="#616161" transform="translate(77,53)"/>
<path d="M0,0 L1,0 L1,1 L0,1 Z " fill="#4D4D4D" transform="translate(75,53)"/>
<path d="M0,0 L1,0 L1,1 L0,1 Z " fill="#6D6D65" transform="translate(72,53)"/>
<path d="M0,0 L1,0 L1,1 L0,1 Z " fill="#8C8C5A" transform="translate(71,53)"/>
<path d="M0,0 L1,0 L1,1 L0,1 Z " fill="#6E6E64" transform="translate(70,53)"/>
<path d="M0,0 L1,0 L1,1 L0,1 Z " fill="#666666" opacity="0.011764706" transform="translate(118,52)"/>
<path d="M0,0 L1,0 L1,1 L0,1 Z " fill="#666666" opacity="0.8509804" transform="translate(117,52)"/>
<path d="M0,0 L1,0 L1,1 L0,1 Z " fill="#5C5C5C" transform="translate(113,52)"/>
<path d="M0,0 L1,0 L1,1 L0,1 Z " fill="#3B3B3B" transform="translate(112,52)"/>
<path d="M0,0 L1,0 L1,1 L0,1 Z " fill="#A68F32" transform="translate(111,52)"/>
<path d="M0,0 L1,0 L1,1 L0,1 Z " fill="#FCD12A" transform="translate(106,52)"/>
<path d="M0,0 L1,0 L1,1 L0,1 Z " fill="#F9CF2C" transform="translate(96,52)"/>
<path d="M0,0 L1,0 L1,1 L0,1 Z " fill="#59533A" transform="translate(95,52)"/>
<path d="M0,0 L1,0 L1,1 L0,1 Z " fill="#464543" transform="translate(94,52)"/>
<path d="M0,0 L1,0 L1,1 L0,1 Z " fill="#666666" opacity="0.7764706" transform="translate(63,52)"/>
<path d="M0,0 L1,0 L1,1 L0,1 Z " fill="#666666" opacity="0.003921569" transform="translate(62,52)"/>
<path d="M0,0 L1,0 L1,1 L0,1 Z " fill="#4C4C4B" transform="translate(112,51)"/>
<path d="M0,0 L1,0 L1,1 L0,1 Z " fill="#3E3D3B" transform="translate(111,51)"/>
<path d="M0,0 L1,0 L1,1 L0,1 Z " fill="#CCAC2F" transform="translate(110,51)"/>
<path d="M0,0 L1,0 L1,1 L0,1 Z " fill="#FFD42B" transform="translate(97,51)"/>
<path d="M0,0 L1,0 L1,1 L0,1 Z " fill="#3D3D3C" transform="translate(95,51)"/>
<path d="M0,0 L1,0 L1,1 L0,1 Z " fill="#5D5D5D" transform="translate(94,51)"/>
<path d="M0,0 L1,0 L1,1 L0,1 Z " fill="#666666" opacity="0.019607844" transform="translate(117,50)"/>
<path d="M0,0 L1,0 L1,1 L0,1 Z " fill="#656565" transform="translate(112,50)"/>
<path d="M0,0 L1,0 L1,1 L0,1 Z " fill="#454543" transform="translate(111,50)"/>
<path d="M0,0 L1,0 L1,1 L0,1 Z " fill="#42413C" transform="translate(110,50)"/>
<path d="M0,0 L1,0 L1,1 L0,1 Z " fill="#C0A330" transform="translate(109,50)"/>
<path d="M0,0 L1,0 L1,1 L0,1 Z " fill="#F9CF2C" transform="translate(98,50)"/>
<path d="M0,0 L1,0 L1,1 L0,1 Z " fill="#3B3B3B" transform="translate(96,50)"/>
<path d="M0,0 L1,0 L1,1 L0,1 Z " fill="#666666" opacity="0.003921569" transform="translate(63,50)"/>
<path d="M0,0 L1,0 L1,1 L0,1 Z " fill="#676767" opacity="0.28235295" transform="translate(116,49)"/>
<path d="M0,0 L1,0 L1,1 L0,1 Z " fill="#636363" transform="translate(111,49)"/>
<path d="M0,0 L1,0 L1,1 L0,1 Z " fill="#3C3C3C" transform="translate(109,49)"/>
<path d="M0,0 L1,0 L1,1 L0,1 Z " fill="#847436" transform="translate(108,49)"/>
<path d="M0,0 L1,0 L1,1 L0,1 Z " fill="#E6C02D" transform="translate(107,49)"/>
<path d="M0,0 L1,0 L1,1 L0,1 Z " fill="#C0A331" transform="translate(99,49)"/>
<path d="M0,0 L1,0 L1,1 L0,1 Z " fill="#3D3D3C" transform="translate(97,49)"/>
<path d="M0,0 L1,0 L1,1 L0,1 Z " fill="#666666" opacity="0.99607843" transform="translate(65,49)"/>
<path d="M0,0 L1,0 L1,1 L0,1 Z " fill="#6A6A6A" opacity="0.20784314" transform="translate(64,49)"/>
<path d="M0,0 L1,0 L1,1 L0,1 Z " fill="#515151" transform="translate(109,48)"/>
<path d="M0,0 L1,0 L1,1 L0,1 Z " fill="#3F3F3D" transform="translate(108,48)"/>
<path d="M0,0 L1,0 L1,1 L0,1 Z " fill="#695F38" transform="translate(106,48)"/>
<path d="M0,0 L1,0 L1,1 L0,1 Z " fill="#A08A33" transform="translate(105,48)"/>
<path d="M0,0 L1,0 L1,1 L0,1 Z " fill="#BDA030" transform="translate(103,48)"/>
<path d="M0,0 L1,0 L1,1 L0,1 Z " fill="#8D7B35" transform="translate(101,48)"/>
<path d="M0,0 L1,0 L1,1 L0,1 Z " fill="#454543" transform="translate(98,48)"/>
<path d="M0,0 L1,0 L1,1 L0,1 Z " fill="#5C5C5C" transform="translate(97,48)"/>
<path d="M0,0 L1,0 L1,1 L0,1 Z " fill="#676767" opacity="0.5921569" transform="translate(65,48)"/>
<path d="M0,0 L1,0 L1,1 L0,1 Z " fill="#FFFFFF" opacity="0.06666667" transform="translate(38,48)"/>
<path d="M0,0 L1,0 L1,1 L0,1 Z " fill="#686868" opacity="0.08627451" transform="translate(115,47)"/>
<path d="M0,0 L1,0 L1,1 L0,1 Z " fill="#666666" opacity="0.9019608" transform="translate(114,47)"/>
<path d="M0,0 L1,0 L1,1 L0,1 Z " fill="#515151" transform="translate(107,47)"/>
<path d="M0,0 L1,0 L1,1 L0,1 Z " fill="#464544" transform="translate(106,47)"/>
<path d="M0,0 L1,0 L1,1 L0,1 Z " fill="#403F3E" transform="translate(101,47)"/>
<path d="M0,0 L1,0 L1,1 L0,1 Z " fill="#494949" transform="translate(100,47)"/>
<path d="M0,0 L1,0 L1,1 L0,1 Z " fill="#585858" transform="translate(99,47)"/>
<path d="M0,0 L1,0 L1,1 L0,1 Z " fill="#666666" opacity="0.050980393" transform="translate(65,47)"/>
<path d="M0,0 L1,0 L1,1 L0,1 Z " fill="#FFFFFF" opacity="0.32941177" transform="translate(24,47)"/>
<path d="M0,0 L1,0 L1,1 L0,1 Z " fill="#696969" opacity="0.24705882" transform="translate(114,46)"/>
<path d="M0,0 L1,0 L1,1 L0,1 Z " fill="#656565" transform="translate(105,46)"/>
<path d="M0,0 L1,0 L1,1 L0,1 Z " fill="#5F5F5F" transform="translate(103,46)"/>
<path d="M0,0 L1,0 L1,1 L0,1 Z " fill="#636363" transform="translate(102,46)"/>
<path d="M0,0 L1,0 L1,1 L0,1 Z " fill="#676767" transform="translate(101,46)"/>
<path d="M0,0 L1,0 L1,1 L0,1 Z " fill="#666666" opacity="0.972549" transform="translate(67,46)"/>
<path d="M0,0 L1,0 L1,1 L0,1 Z " fill="#676767" opacity="0.18431373" transform="translate(66,46)"/>
<path d="M0,0 L1,0 L1,1 L0,1 Z " fill="#FFFFFF" opacity="0.7647059" transform="translate(37,46)"/>
<path d="M0,0 L1,0 L1,1 L0,1 Z " fill="#666666" opacity="0.4392157" transform="translate(113,45)"/>
<path d="M0,0 L1,0 L1,1 L0,1 Z " fill="#666666" opacity="0.36078432" transform="translate(67,45)"/>
<path d="M0,0 L1,0 L1,1 L0,1 Z " fill="#FFFFFF" opacity="0.9372549" transform="translate(25,45)"/>
<path d="M0,0 L1,0 L1,1 L0,1 Z " fill="#FFFFFF" opacity="0.03137255" transform="translate(24,45)"/>
<path d="M0,0 L1,0 L1,1 L0,1 Z " fill="#676767" opacity="0.53333336" transform="translate(112,44)"/>
<path d="M0,0 L1,0 L1,1 L0,1 Z " fill="#696969" transform="translate(78,44)"/>
<path d="M0,0 L1,0 L1,1 L0,1 Z " fill="#6D6D6D" transform="translate(77,44)"/>
<path d="M0,0 L1,0 L1,1 L0,1 Z " fill="#6E6E6E" transform="translate(75,44)"/>
<path d="M0,0 L1,0 L1,1 L0,1 Z " fill="#686868" transform="translate(74,44)"/>
<path d="M0,0 L1,0 L1,1 L0,1 Z " fill="#676767" opacity="0.44705883" transform="translate(68,44)"/>
<path d="M0,0 L1,0 L1,1 L0,1 Z " fill="#FFFFFF" opacity="0.09411765" transform="translate(37,44)"/>
<path d="M0,0 L1,0 L1,1 L0,1 Z " fill="#676767" opacity="0.003921569" transform="translate(112,43)"/>
<path d="M0,0 L1,0 L1,1 L0,1 Z " fill="#676767" opacity="0.58431375" transform="translate(111,43)"/>
<path d="M0,0 L1,0 L1,1 L0,1 Z " fill="#686868" transform="translate(81,43)"/>
<path d="M0,0 L1,0 L1,1 L0,1 Z " fill="#6F6F6F" transform="translate(80,43)"/>
<path d="M0,0 L1,0 L1,1 L0,1 Z " fill="#757575" transform="translate(79,43)"/>
<path d="M0,0 L1,0 L1,1 L0,1 Z " fill="#6D6D6D" transform="translate(74,43)"/>
<path d="M0,0 L1,0 L1,1 L0,1 Z " fill="#666666" opacity="0.49803922" transform="translate(69,43)"/>
<path d="M0,0 L1,0 L1,1 L0,1 Z " fill="#FFFFFF" opacity="0.3254902" transform="translate(36,43)"/>
<path d="M0,0 L1,0 L1,1 L0,1 Z " fill="#FFFFFF" opacity="0.8156863" transform="translate(26,43)"/>
<path d="M0,0 L1,0 L1,1 L0,1 Z " fill="#FFFFFF" opacity="0.03529412" transform="translate(25,43)"/>
<path d="M0,0 L1,0 L1,1 L0,1 Z " fill="#666666" opacity="0.49803922" transform="translate(110,42)"/>
<path d="M0,0 L1,0 L1,1 L0,1 Z " fill="#686868" transform="translate(83,42)"/>
<path d="M0,0 L1,0 L1,1 L0,1 Z " fill="#6F6F6F" transform="translate(82,42)"/>
<path d="M0,0 L1,0 L1,1 L0,1 Z " fill="#777777" transform="translate(81,42)"/>
<path d="M0,0 L1,0 L1,1 L0,1 Z " fill="#686868" opacity="0.42352942" transform="translate(70,42)"/>
<path d="M0,0 L1,0 L1,1 L0,1 Z " fill="#FFFFFF" opacity="0.32941177" transform="translate(35,42)"/>
<path d="M0,0 L1,0 L1,1 L0,1 Z " fill="#FFFFFF" opacity="0.93333334" transform="translate(34,42)"/>
<path d="M0,0 L1,0 L1,1 L0,1 Z " fill="#FFFFFF" opacity="0.07058824" transform="translate(26,42)"/>
<path d="M0,0 L1,0 L1,1 L0,1 Z " fill="#686868" opacity="0.3764706" transform="translate(109,41)"/>
<path d="M0,0 L1,0 L1,1 L0,1 Z " fill="#757575" transform="translate(83,41)"/>
<path d="M0,0 L1,0 L1,1 L0,1 Z " fill="#797979" transform="translate(80,41)"/>
<path d="M0,0 L1,0 L1,1 L0,1 Z " fill="#727272" transform="translate(79,41)"/>
<path d="M0,0 L1,0 L1,1 L0,1 Z " fill="#6C6C6C" transform="translate(77,41)"/>
<path d="M0,0 L1,0 L1,1 L0,1 Z " fill="#747474" transform="translate(76,41)"/>
<path d="M0,0 L1,0 L1,1 L0,1 Z " fill="#686868" opacity="0.31764707" transform="translate(71,41)"/>
<path d="M0,0 L1,0 L1,1 L0,1 Z " fill="#FFFFFF" opacity="0.07450981" transform="translate(34,41)"/>
<path d="M0,0 L1,0 L1,1 L0,1 Z " fill="#FFFFFF" opacity="0.41960785" transform="translate(33,41)"/>
<path d="M0,0 L1,0 L1,1 L0,1 Z " fill="#FFFFFF" opacity="0.7490196" transform="translate(31,41)"/>
<path d="M0,0 L1,0 L1,1 L0,1 Z " fill="#FFFFFF" opacity="0.5568628" transform="translate(29,41)"/>
<path d="M0,0 L1,0 L1,1 L0,1 Z " fill="#FFFFFF" opacity="0.003921569" transform="translate(27,41)"/>
<path d="M0,0 L1,0 L1,1 L0,1 Z " fill="#686868" opacity="0.17254902" transform="translate(108,40)"/>
<path d="M0,0 L1,0 L1,1 L0,1 Z " fill="#666666" opacity="0.84313726" transform="translate(107,40)"/>
<path d="M0,0 L1,0 L1,1 L0,1 Z " fill="#777777" transform="translate(84,40)"/>
<path d="M0,0 L1,0 L1,1 L0,1 Z " fill="#717171" transform="translate(81,40)"/>
<path d="M0,0 L1,0 L1,1 L0,1 Z " fill="#676767" transform="translate(80,40)"/>
<path d="M0,0 L1,0 L1,1 L0,1 Z " fill="#696969" opacity="0.13333334" transform="translate(72,40)"/>
<path d="M0,0 L1,0 L1,1 L0,1 Z " fill="#666666" opacity="0.039215688" transform="translate(107,39)"/>
<path d="M0,0 L1,0 L1,1 L0,1 Z " fill="#666666" opacity="0.5176471" transform="translate(106,39)"/>
<path d="M0,0 L1,0 L1,1 L0,1 Z " fill="#727272" transform="translate(85,39)"/>
<path d="M0,0 L1,0 L1,1 L0,1 Z " fill="#676767" opacity="0.023529412" transform="translate(73,39)"/>
<path d="M0,0 L1,0 L1,1 L0,1 Z " fill="#6B6B6B" opacity="0.14901961" transform="translate(105,38)"/>
<path d="M0,0 L1,0 L1,1 L0,1 Z " fill="#676767" opacity="0.6901961" transform="translate(104,38)"/>
<path d="M0,0 L1,0 L1,1 L0,1 Z " fill="#6B6B6B" transform="translate(85,38)"/>
<path d="M0,0 L1,0 L1,1 L0,1 Z " fill="#717171" transform="translate(84,38)"/>
<path d="M0,0 L1,0 L1,1 L0,1 Z " fill="#6E6E6E" transform="translate(82,38)"/>
<path d="M0,0 L1,0 L1,1 L0,1 Z " fill="#696969" transform="translate(81,38)"/>
<path d="M0,0 L1,0 L1,1 L0,1 Z " fill="#656565" transform="translate(80,38)"/>
<path d="M0,0 L1,0 L1,1 L0,1 Z " fill="#646464" opacity="0.99607843" transform="translate(76,38)"/>
<path d="M0,0 L1,0 L1,1 L0,1 Z " fill="#6D6D6D" opacity="0.23921569" transform="translate(75,38)"/>
<path d="M0,0 L1,0 L1,1 L0,1 Z " fill="#666666" opacity="0.1764706" transform="translate(103,37)"/>
<path d="M0,0 L1,0 L1,1 L0,1 Z " fill="#676767" opacity="0.6509804" transform="translate(102,37)"/>
<path d="M0,0 L1,0 L1,1 L0,1 Z " fill="#666666" opacity="0.98039216" transform="translate(101,37)"/>
<path d="M0,0 L1,0 L1,1 L0,1 Z " fill="#646464" opacity="0.6117647" transform="translate(75,37)"/>
<path d="M0,0 L1,0 L1,1 L0,1 Z " fill="#666666" opacity="0.41960785" transform="translate(100,36)"/>
<path d="M0,0 L1,0 L1,1 L0,1 Z " fill="#666666" opacity="0.7764706" transform="translate(99,36)"/>
<path d="M0,0 L1,0 L1,1 L0,1 Z " fill="#666666" opacity="0.99215686" transform="translate(98,36)"/>
<path d="M0,0 L1,0 L1,1 L0,1 Z " fill="#676767" opacity="0.9843137" transform="translate(82,36)"/>
<path d="M0,0 L1,0 L1,1 L0,1 Z " fill="#686868" opacity="0.39215687" transform="translate(80,36)"/>
<path d="M0,0 L1,0 L1,1 L0,1 Z " fill="#646464" opacity="0.7058824" transform="translate(79,36)"/>
<path d="M0,0 L1,0 L1,1 L0,1 Z " fill="#646464" opacity="0.9843137" transform="translate(75,36)"/>
<path d="M0,0 L1,0 L1,1 L0,1 Z " fill="#686868" opacity="0.1254902" transform="translate(74,36)"/>
<path d="M0,0 L1,0 L1,1 L0,1 Z " fill="#696969" opacity="0.30588236" transform="translate(97,35)"/>
<path d="M0,0 L1,0 L1,1 L0,1 Z " fill="#666666" opacity="0.7058824" transform="translate(95,35)"/>
<path d="M0,0 L1,0 L1,1 L0,1 Z " fill="#666666" opacity="0.85882354" transform="translate(94,35)"/>
<path d="M0,0 L1,0 L1,1 L0,1 Z " fill="#666666" opacity="0.9882353" transform="translate(93,35)"/>
<path d="M0,0 L1,0 L1,1 L0,1 Z " fill="#676767" opacity="0.84705883" transform="translate(86,35)"/>
<path d="M0,0 L1,0 L1,1 L0,1 Z " fill="#676767" opacity="0.5254902" transform="translate(84,35)"/>
<path d="M0,0 L1,0 L1,1 L0,1 Z " fill="#676767" opacity="0.047058824" transform="translate(82,35)"/>
<path d="M0,0 L1,0 L1,1 L0,1 Z " fill="#686868" opacity="0.08627451" transform="translate(79,35)"/>
<path d="M0,0 L1,0 L1,1 L0,1 Z " fill="#646464" opacity="0.6" transform="translate(74,35)"/>
<path d="M0,0 L1,0 L1,1 L0,1 Z " fill="#666666" opacity="0.047058824" transform="translate(92,34)"/>
<path d="M0,0 L1,0 L1,1 L0,1 Z " fill="#666666" opacity="0.09803922" transform="translate(91,34)"/>
<path d="M0,0 L1,0 L1,1 L0,1 Z " fill="#6A6A6A" opacity="0.09411765" transform="translate(89,34)"/>
<path d="M0,0 L1,0 L1,1 L0,1 Z " fill="#666666" opacity="0.003921569" transform="translate(87,34)"/>
<path d="M0,0 L1,0 L1,1 L0,1 Z " fill="#656565" opacity="0.3254902" transform="translate(78,34)"/>
<path d="M0,0 L1,0 L1,1 L0,1 Z " fill="#646464" opacity="0.98039216" transform="translate(74,34)"/>
<path d="M0,0 L1,0 L1,1 L0,1 Z " fill="#666666" opacity="0.11764706" transform="translate(73,34)"/>
<path d="M0,0 L1,0 L1,1 L0,1 Z " fill="#646464" opacity="0.6392157" transform="translate(77,33)"/>
<path d="M0,0 L1,0 L1,1 L0,1 Z " fill="#646464" opacity="0.5921569" transform="translate(73,33)"/>
<path d="M0,0 L1,0 L1,1 L0,1 Z " fill="#646464" opacity="0.06666667" transform="translate(77,32)"/>
<path d="M0,0 L1,0 L1,1 L0,1 Z " fill="#646464" opacity="0.10980392" transform="translate(72,32)"/>
<path d="M0,0 L1,0 L1,1 L0,1 Z " fill="#676767" opacity="0.28235295" transform="translate(76,31)"/>
<path d="M0,0 L1,0 L1,1 L0,1 Z " fill="#646464" opacity="0.5803922" transform="translate(72,31)"/>
<path d="M0,0 L1,0 L1,1 L0,1 Z " fill="#656565" opacity="0.59607846" transform="translate(75,30)"/>
<path d="M0,0 L1,0 L1,1 L0,1 Z " fill="#646464" opacity="0.972549" transform="translate(72,30)"/>
<path d="M0,0 L1,0 L1,1 L0,1 Z " fill="#6C6C6C" opacity="0.101960786" transform="translate(71,30)"/>
<path d="M0,0 L1,0 L1,1 L0,1 Z " fill="#646464" opacity="0.050980393" transform="translate(75,29)"/>
<path d="M0,0 L1,0 L1,1 L0,1 Z " fill="#646464" opacity="0.5686275" transform="translate(71,29)"/>
<path d="M0,0 L1,0 L1,1 L0,1 Z " fill="#676767" opacity="0.24313726" transform="translate(74,28)"/>
<path d="M0,0 L1,0 L1,1 L0,1 Z " fill="#646464" opacity="0.99607843" transform="translate(73,28)"/>
<path d="M0,0 L1,0 L1,1 L0,1 Z " fill="#646464" opacity="0.96862745" transform="translate(71,28)"/>
<path d="M0,0 L1,0 L1,1 L0,1 Z " fill="#6A6A6A" opacity="0.09411765" transform="translate(70,28)"/>
<path d="M0,0 L1,0 L1,1 L0,1 Z " fill="#656565" opacity="0.5529412" transform="translate(73,27)"/>
<path d="M0,0 L1,0 L1,1 L0,1 Z " fill="#646464" opacity="0.5568628" transform="translate(70,27)"/>
<path d="M0,0 L1,0 L1,1 L0,1 Z " fill="#646464" opacity="0.03529412" transform="translate(73,26)"/>
<path d="M0,0 L1,0 L1,1 L0,1 Z " fill="#646464" opacity="0.09019608" transform="translate(69,26)"/>
<path d="M0,0 L1,0 L1,1 L0,1 Z " fill="#656565" opacity="0.20784314" transform="translate(72,25)"/>
<path d="M0,0 L1,0 L1,1 L0,1 Z " fill="#653E3E" opacity="0.62352943" transform="translate(69,25)"/>
<path d="M0,0 L1,0 L1,1 L0,1 Z " fill="#640A0A" opacity="0.003921569" transform="translate(67,25)"/>
<path d="M0,0 L1,0 L1,1 L0,1 Z " fill="#663F3F" opacity="0.52156866" transform="translate(71,24)"/>
<path d="M0,0 L1,0 L1,1 L0,1 Z " fill="#640C0C" opacity="0.9490196" transform="translate(70,24)"/>
<path d="M0,0 L1,0 L1,1 L0,1 Z " fill="#640A0A" opacity="0.7019608" transform="translate(67,24)"/>
<path d="M0,0 L1,0 L1,1 L0,1 Z " fill="#650A0A" opacity="0.019607844" transform="translate(66,24)"/>
<path d="M0,0 L1,0 L1,1 L0,1 Z " fill="#640A0A" opacity="0.79607844" transform="translate(71,23)"/>
<path d="M0,0 L1,0 L1,1 L0,1 Z " fill="#650A0A" opacity="0.3764706" transform="translate(66,23)"/>
<path d="M0,0 L1,0 L1,1 L0,1 Z " fill="#640A0A" opacity="0.9019608" transform="translate(71,22)"/>
<path d="M0,0 L1,0 L1,1 L0,1 Z " fill="#640909" opacity="0.54901963" transform="translate(71,21)"/>
<path d="M0,0 L1,0 L1,1 L0,1 Z " fill="#640909" opacity="0.972549" transform="translate(67,21)"/>
<path d="M0,0 L1,0 L1,1 L0,1 Z " fill="#670C0C" opacity="0.16470589" transform="translate(66,21)"/>
<path d="M0,0 L1,0 L1,1 L0,1 Z " fill="#640B0B" opacity="0.4509804" transform="translate(70,20)"/>
<path d="M0,0 L1,0 L1,1 L0,1 Z " fill="#640909" opacity="0.7411765" transform="translate(69,20)"/>
<path d="M0,0 L1,0 L1,1 L0,1 Z " fill="#680909" opacity="0.21176471" transform="translate(67,20)"/>
</svg>
