<?xml version="1.0" encoding="UTF-8"?>
<!-- Generator: visioncortex VTracer 0.6.4 -->
<svg version="1.1" xmlns="http://www.w3.org/2000/svg" width="128" height="128">
<path d="M0,0 L1,0 L1,32 L31,32 L31,0 L34,0 L34,32 L64,32 L64,0 L65,0 L65,32 L96,32 L96,33 L65,33 L65,63 L96,63 L96,66 L65,66 L65,96 L96,96 L96,97 L65,97 L65,128 L64,128 L64,97 L34,97 L34,128 L31,128 L31,97 L1,97 L1,128 L0,128 L0,97 L-32,97 L-32,96 L0,96 L0,66 L-32,66 L-32,63 L0,63 L0,33 L-32,33 L-32,32 L0,32 Z M1,33 L1,63 L31,63 L31,33 Z M34,33 L34,63 L64,63 L64,33 Z M1,66 L1,96 L31,96 L31,66 Z M34,66 L34,96 L64,96 L64,66 Z M-16,16 L-15,16 L-15,17 L-16,17 Z M16,16 L17,16 L17,17 L16,17 Z M48,16 L49,16 L49,17 L48,17 Z M80,16 L81,16 L81,17 L80,17 Z M-16,48 L-15,48 L-15,49 L-16,49 Z M16,48 L17,48 L17,49 L16,49 Z M48,48 L49,48 L49,49 L48,49 Z M80,48 L81,48 L81,49 L80,49 Z M-16,80 L-15,80 L-15,81 L-16,81 Z M16,80 L17,80 L17,81 L16,81 Z M48,80 L49,80 L49,81 L48,81 Z M80,80 L81,80 L81,81 L80,81 Z M-16,112 L-15,112 L-15,113 L-16,113 Z M16,112 L17,112 L17,113 L16,113 Z M48,112 L49,112 L49,113 L48,113 Z M80,112 L81,112 L81,113 L80,113 Z " fill="#000000" transform="translate(32,0)"/>
<path d="M0,0 L1,0 L1,32 L30,32 L30,33 L1,33 L1,62 L0,62 L0,33 L-32,33 L-32,32 L0,32 Z M16,0 L17,0 L17,15 L16,15 Z M-16,16 L-15,16 L-15,17 L-16,17 Z M2,16 L14,16 L14,17 L2,17 Z M16,16 L17,16 L17,17 L16,17 Z M-16,48 L-15,48 L-15,49 L-16,49 Z M16,48 L17,48 L17,49 L16,49 Z " fill="#767676" opacity="0.9411765" transform="translate(32,0)"/>
<path d="M0,0 L14,0 L14,1 L0,1 Z M16,0 L17,0 L17,1 L16,1 Z M48,0 L49,0 L49,1 L48,1 Z M32,-13 L33,-13 L33,16 L62,16 L62,17 L33,17 L33,48 L32,48 L32,17 L0,17 L0,16 L32,16 Z M16,32 L17,32 L17,33 L16,33 Z M48,32 L49,32 L49,33 L48,33 Z " fill="#767676" opacity="0.9411765" transform="translate(0,80)"/>
<path d="M0,0 L1,0 L1,15 L0,15 Z M16,0 L17,0 L17,32 L48,32 L48,33 L17,33 L17,62 L16,62 L16,33 L-13,33 L-13,32 L16,32 Z M0,16 L1,16 L1,17 L0,17 Z M32,16 L33,16 L33,17 L32,17 Z M0,48 L1,48 L1,49 L0,49 Z M32,48 L33,48 L33,49 L32,49 Z " fill="#767676" opacity="0.9411765" transform="translate(80,0)"/>
<path d="M0,0 L1,0 L1,29 L32,29 L32,30 L1,30 L1,61 L0,61 L0,30 L-29,30 L-29,29 L0,29 Z M-16,13 L-15,13 L-15,14 L-16,14 Z M16,13 L17,13 L17,14 L16,14 Z M-16,31 L-15,31 L-15,44 L-16,44 Z M-16,45 L-15,45 L-15,46 L-16,46 Z M16,45 L17,45 L17,46 L16,46 Z " fill="#767676" opacity="0.9411765" transform="translate(96,67)"/>
<path d="M0,0 L1,0 L1,1 L0,1 Z M0,16 L14,16 L14,17 L0,17 Z M0,18 L1,18 L1,31 L0,31 Z M-16,32 L-15,32 L-15,48 L-16,48 Z M-14,32 L-2,32 L-2,33 L-14,33 Z M0,32 L1,32 L1,33 L0,33 Z " fill="#767676" opacity="0.9411765" transform="translate(48,80)"/>
<path d="M0,0 L16,0 L16,1 L0,1 Z M0,2 L1,2 L1,15 L0,15 Z M-32,16 L-31,16 L-31,17 L-32,17 Z M-16,16 L-15,16 L-15,30 L-16,30 Z M-14,16 L-2,16 L-2,17 L-14,17 Z M0,16 L1,16 L1,17 L0,17 Z " fill="#767676" opacity="0.9411765" transform="translate(112,32)"/>
<path d="M0,0 L1,0 L1,15 L16,15 L16,16 L1,16 L1,31 L0,31 L0,16 L-15,16 L-15,15 L0,15 Z " fill="#525252" transform="translate(96,81)"/>
<path d="M0,0 L1,0 L1,15 L16,15 L16,16 L1,16 L1,31 L0,31 L0,16 L-15,16 L-15,15 L0,15 Z " fill="#525252" transform="translate(32,81)"/>
<path d="M0,0 L1,0 L1,15 L16,15 L16,16 L1,16 L1,31 L0,31 L0,16 L-15,16 L-15,15 L0,15 Z " fill="#525252" transform="translate(96,17)"/>
<path d="M0,0 L1,0 L1,15 L16,15 L16,16 L1,16 L1,31 L0,31 L0,16 L-15,16 L-15,15 L0,15 Z " fill="#525252" transform="translate(32,17)"/>
<path d="M0,0 L12,0 L12,1 L0,1 Z M14,0 L15,0 L15,1 L14,1 Z M14,16 L30,16 L30,17 L14,17 Z M14,32 L15,32 L15,33 L14,33 Z " fill="#767676" opacity="0.9411765" transform="translate(98,80)"/>
<path d="M0,0 L1,0 L1,15 L0,15 Z M16,0 L17,0 L17,17 L16,17 Z M-16,16 L-2,16 L-2,17 L-16,17 Z M0,16 L1,16 L1,17 L0,17 Z M-16,32 L1,32 L1,33 L-16,33 Z " fill="#767676" opacity="0.9411765" transform="translate(16,0)"/>
<path d="M0,0 L1,0 L1,13 L0,13 Z M0,14 L1,14 L1,15 L0,15 Z M16,14 L17,14 L17,28 L16,28 Z " fill="#767676" opacity="0.9411765" transform="translate(16,34)"/>
<path d="M0,0 L1,0 L1,14 L0,14 Z M-16,13 L-15,13 L-15,14 L-16,14 Z M-14,13 L-1,13 L-1,14 L-14,14 Z " fill="#767676" opacity="0.9411765" transform="translate(96,67)"/>
<path d="M0,0 L16,0 L16,1 L1,1 L1,16 L0,16 Z " fill="#525252" transform="translate(96,96)"/>
<path d="M0,0 L16,0 L16,1 L1,1 L1,16 L0,16 Z " fill="#525252" transform="translate(32,96)"/>
<path d="M0,0 L16,0 L16,1 L1,1 L1,16 L0,16 Z " fill="#525252" transform="translate(96,32)"/>
<path d="M0,0 L16,0 L16,1 L1,1 L1,16 L0,16 Z " fill="#525252" transform="translate(32,32)"/>
<path d="M0,0 L1,0 L1,13 L0,13 Z M-14,14 L-2,14 L-2,15 L-14,15 Z M0,14 L1,14 L1,15 L0,15 Z M2,14 L16,14 L16,15 L2,15 Z M0,16 L1,16 L1,30 L0,30 Z " fill="#767676" opacity="0.9411765" transform="translate(112,98)"/>
<path d="M0,0 L1,0 L1,13 L0,13 Z M-14,14 L-2,14 L-2,15 L-14,15 Z M0,14 L1,14 L1,15 L0,15 Z " fill="#767676" opacity="0.9411765" transform="translate(48,34)"/>
<path d="M0,0 L16,0 L16,1 L0,1 Z " fill="#525252" transform="translate(0,96)"/>
<path d="M0,0 L16,0 L16,1 L0,1 Z " fill="#525252" transform="translate(0,32)"/>
<path d="M0,0 L1,0 L1,16 L0,16 Z " fill="#525252" transform="translate(96,0)"/>
<path d="M0,0 L1,0 L1,16 L0,16 Z " fill="#525252" transform="translate(32,0)"/>
<path d="M0,0 L1,0 L1,13 L0,13 Z M-16,14 L-2,14 L-2,15 L-16,15 Z M0,14 L1,14 L1,15 L0,15 Z M0,16 L1,16 L1,30 L0,30 Z " fill="#767676" opacity="0.9411765" transform="translate(16,98)"/>
<path d="M0,0 L1,0 L1,15 L0,15 Z M-14,16 L-2,16 L-2,17 L-14,17 Z M0,16 L1,16 L1,17 L0,17 Z M2,16 L16,16 L16,17 L2,17 Z " fill="#767676" opacity="0.9411765" transform="translate(112,0)"/>
<path d="M0,0 L1,0 L1,15 L0,15 Z " fill="#525252" transform="translate(96,113)"/>
<path d="M0,0 L1,0 L1,15 L0,15 Z " fill="#525252" transform="translate(32,113)"/>
<path d="M0,0 L15,0 L15,1 L0,1 Z " fill="#525252" transform="translate(113,96)"/>
<path d="M0,0 L15,0 L15,1 L0,1 Z " fill="#525252" transform="translate(113,32)"/>
<path d="M0,0 L12,0 L12,1 L0,1 Z M14,0 L15,0 L15,1 L14,1 Z " fill="#767676" opacity="0.9411765" transform="translate(34,80)"/>
<path d="M0,0 L1,0 L1,13 L0,13 Z M0,14 L1,14 L1,15 L0,15 Z " fill="#767676" opacity="0.9411765" transform="translate(80,34)"/>
<path d="M0,0 L13,0 L13,1 L0,1 Z " fill="#525252" transform="translate(67,96)"/>
<path d="M0,0 L13,0 L13,1 L0,1 Z " fill="#525252" transform="translate(49,96)"/>
<path d="M0,0 L1,0 L1,13 L0,13 Z " fill="#525252" transform="translate(96,67)"/>
<path d="M0,0 L1,0 L1,13 L0,13 Z " fill="#525252" transform="translate(32,67)"/>
<path d="M0,0 L1,0 L1,13 L0,13 Z " fill="#525252" transform="translate(96,49)"/>
<path d="M0,0 L1,0 L1,13 L0,13 Z " fill="#525252" transform="translate(32,49)"/>
<path d="M0,0 L13,0 L13,1 L0,1 Z " fill="#525252" transform="translate(67,32)"/>
<path d="M0,0 L13,0 L13,1 L0,1 Z " fill="#525252" transform="translate(49,32)"/>
<path d="M0,0 L1,0 L1,13 L0,13 Z " fill="#525252" opacity="0.4392157" transform="translate(97,99)"/>
<path d="M0,0 L1,0 L1,13 L0,13 Z " fill="#525252" opacity="0.4392157" transform="translate(95,99)"/>
<path d="M0,0 L1,0 L1,13 L0,13 Z " fill="#525252" opacity="0.4392157" transform="translate(33,99)"/>
<path d="M0,0 L1,0 L1,13 L0,13 Z " fill="#525252" opacity="0.4392157" transform="translate(31,99)"/>
<path d="M0,0 L13,0 L13,1 L0,1 Z " fill="#535353" opacity="0.45490196" transform="translate(99,95)"/>
<path d="M0,0 L14,0 L14,1 L0,1 Z " fill="#535353" opacity="0.45490196" transform="translate(81,95)"/>
<path d="M0,0 L13,0 L13,1 L0,1 Z " fill="#535353" opacity="0.45490196" transform="translate(35,95)"/>
<path d="M0,0 L14,0 L14,1 L0,1 Z " fill="#535353" opacity="0.45490196" transform="translate(17,95)"/>
<path d="M0,0 L1,0 L1,13 L0,13 Z " fill="#525252" opacity="0.4392157" transform="translate(97,35)"/>
<path d="M0,0 L1,0 L1,13 L0,13 Z " fill="#525252" opacity="0.4392157" transform="translate(95,35)"/>
<path d="M0,0 L1,0 L1,13 L0,13 Z " fill="#525252" opacity="0.4392157" transform="translate(33,35)"/>
<path d="M0,0 L1,0 L1,13 L0,13 Z " fill="#525252" opacity="0.4392157" transform="translate(31,35)"/>
<path d="M0,0 L13,0 L13,1 L0,1 Z " fill="#535353" opacity="0.45490196" transform="translate(99,31)"/>
<path d="M0,0 L14,0 L14,1 L0,1 Z " fill="#535353" opacity="0.45490196" transform="translate(81,31)"/>
<path d="M0,0 L13,0 L13,1 L0,1 Z " fill="#535353" opacity="0.45490196" transform="translate(35,31)"/>
<path d="M0,0 L14,0 L14,1 L0,1 Z " fill="#535353" opacity="0.45490196" transform="translate(17,31)"/>
<path d="M0,0 L1,0 L1,12 L0,12 Z " fill="#000000" opacity="0.4392157" transform="translate(66,68)"/>
<path d="M0,0 L1,0 L1,12 L0,12 Z " fill="#000000" opacity="0.4392157" transform="translate(62,68)"/>
<path d="M0,0 L12,0 L12,1 L0,1 Z " fill="#000000" opacity="0.45490196" transform="translate(68,62)"/>
<path d="M0,0 L13,0 L13,1 L0,1 Z " fill="#000000" opacity="0.45490196" transform="translate(49,62)"/>
<path d="M0,0 L13,0 L13,1 L0,1 Z M14,0 L15,0 L15,1 L14,1 Z " fill="#767676" opacity="0.9411765" transform="translate(82,112)"/>
<path d="M0,0 L13,0 L13,1 L0,1 Z M14,0 L15,0 L15,1 L14,1 Z " fill="#767676" opacity="0.9411765" transform="translate(18,112)"/>
<path d="M0,0 L16,0 L16,1 L0,1 Z " fill="#525252" opacity="0.42352942" transform="translate(0,97)"/>
<path d="M0,0 L16,0 L16,1 L0,1 Z " fill="#535353" opacity="0.45490196" transform="translate(0,95)"/>
<path d="M0,0 L1,0 L1,13 L0,13 Z M0,14 L1,14 L1,15 L0,15 Z " fill="#767676" opacity="0.9411765" transform="translate(112,82)"/>
<path d="M0,0 L1,0 L1,13 L0,13 Z M0,14 L1,14 L1,15 L0,15 Z " fill="#767676" opacity="0.9411765" transform="translate(80,82)"/>
<path d="M0,0 L1,0 L1,13 L0,13 Z M0,14 L1,14 L1,15 L0,15 Z " fill="#767676" opacity="0.9411765" transform="translate(48,82)"/>
<path d="M0,0 L1,0 L1,13 L0,13 Z M0,14 L1,14 L1,15 L0,15 Z " fill="#767676" opacity="0.9411765" transform="translate(16,82)"/>
<path d="M0,0 L13,0 L13,1 L0,1 Z M14,0 L15,0 L15,1 L14,1 Z " fill="#767676" opacity="0.9411765" transform="translate(18,80)"/>
<path d="M0,0 L16,0 L16,1 L0,1 Z " fill="#000000" opacity="0.42352942" transform="translate(0,66)"/>
<path d="M0,0 L16,0 L16,1 L0,1 Z " fill="#000000" opacity="0.45490196" transform="translate(0,62)"/>
<path d="M0,0 L13,0 L13,1 L0,1 Z M14,0 L15,0 L15,1 L14,1 Z " fill="#767676" opacity="0.9411765" transform="translate(82,48)"/>
<path d="M0,0 L13,0 L13,1 L0,1 Z M14,0 L15,0 L15,1 L14,1 Z " fill="#767676" opacity="0.9411765" transform="translate(18,48)"/>
<path d="M0,0 L16,0 L16,1 L0,1 Z " fill="#525252" opacity="0.42352942" transform="translate(0,33)"/>
<path d="M0,0 L16,0 L16,1 L0,1 Z " fill="#535353" opacity="0.45490196" transform="translate(0,31)"/>
<path d="M0,0 L1,0 L1,13 L0,13 Z M0,14 L1,14 L1,15 L0,15 Z " fill="#767676" opacity="0.9411765" transform="translate(112,18)"/>
<path d="M0,0 L1,0 L1,13 L0,13 Z M0,14 L1,14 L1,15 L0,15 Z " fill="#767676" opacity="0.9411765" transform="translate(80,18)"/>
<path d="M0,0 L1,0 L1,13 L0,13 Z M0,14 L1,14 L1,15 L0,15 Z " fill="#767676" opacity="0.9411765" transform="translate(48,18)"/>
<path d="M0,0 L1,0 L1,13 L0,13 Z M0,14 L1,14 L1,15 L0,15 Z " fill="#767676" opacity="0.9411765" transform="translate(16,18)"/>
<path d="M0,0 L13,0 L13,1 L0,1 Z M14,0 L15,0 L15,1 L14,1 Z " fill="#767676" opacity="0.9411765" transform="translate(82,16)"/>
<path d="M0,0 L13,0 L13,1 L0,1 Z M14,0 L15,0 L15,1 L14,1 Z " fill="#767676" opacity="0.9411765" transform="translate(18,16)"/>
<path d="M0,0 L1,0 L1,16 L0,16 Z " fill="#525252" opacity="0.4392157" transform="translate(97,0)"/>
<path d="M0,0 L1,0 L1,16 L0,16 Z " fill="#525252" opacity="0.4392157" transform="translate(95,0)"/>
<path d="M0,0 L1,0 L1,16 L0,16 Z " fill="#000000" opacity="0.4392157" transform="translate(66,0)"/>
<path d="M0,0 L1,0 L1,16 L0,16 Z " fill="#000000" opacity="0.4392157" transform="translate(62,0)"/>
<path d="M0,0 L1,0 L1,16 L0,16 Z " fill="#525252" opacity="0.4392157" transform="translate(33,0)"/>
<path d="M0,0 L1,0 L1,16 L0,16 Z " fill="#525252" opacity="0.4392157" transform="translate(31,0)"/>
<path d="M0,0 L1,0 L1,15 L0,15 Z " fill="#525252" opacity="0.4392157" transform="translate(97,113)"/>
<path d="M0,0 L1,0 L1,15 L0,15 Z " fill="#525252" opacity="0.4392157" transform="translate(95,113)"/>
<path d="M0,0 L1,0 L1,15 L0,15 Z " fill="#000000" opacity="0.4392157" transform="translate(66,113)"/>
<path d="M0,0 L1,0 L1,15 L0,15 Z " fill="#000000" opacity="0.4392157" transform="translate(62,113)"/>
<path d="M0,0 L1,0 L1,15 L0,15 Z " fill="#525252" opacity="0.4392157" transform="translate(33,113)"/>
<path d="M0,0 L1,0 L1,15 L0,15 Z " fill="#525252" opacity="0.4392157" transform="translate(31,113)"/>
<path d="M0,0 L15,0 L15,1 L0,1 Z " fill="#525252" opacity="0.42352942" transform="translate(113,97)"/>
<path d="M0,0 L15,0 L15,1 L0,1 Z " fill="#535353" opacity="0.45490196" transform="translate(113,95)"/>
<path d="M0,0 L15,0 L15,1 L0,1 Z " fill="#000000" opacity="0.42352942" transform="translate(113,66)"/>
<path d="M0,0 L15,0 L15,1 L0,1 Z " fill="#000000" opacity="0.45490196" transform="translate(113,62)"/>
<path d="M0,0 L15,0 L15,1 L0,1 Z " fill="#525252" opacity="0.42352942" transform="translate(113,33)"/>
<path d="M0,0 L15,0 L15,1 L0,1 Z " fill="#535353" opacity="0.45490196" transform="translate(113,31)"/>
<path d="M0,0 L1,0 L1,14 L0,14 Z " fill="#767676" opacity="0.9411765" transform="translate(80,114)"/>
<path d="M0,0 L1,0 L1,14 L0,14 Z " fill="#767676" opacity="0.9411765" transform="translate(48,114)"/>
<path d="M0,0 L1,0 L1,14 L0,14 Z " fill="#000000" opacity="0.4392157" transform="translate(66,98)"/>
<path d="M0,0 L1,0 L1,14 L0,14 Z " fill="#000000" opacity="0.4392157" transform="translate(62,98)"/>
<path d="M0,0 L14,0 L14,1 L0,1 Z " fill="#525252" opacity="0.42352942" transform="translate(98,97)"/>
<path d="M0,0 L14,0 L14,1 L0,1 Z " fill="#525252" opacity="0.42352942" transform="translate(81,97)"/>
<path d="M0,0 L14,0 L14,1 L0,1 Z " fill="#525252" opacity="0.42352942" transform="translate(34,97)"/>
<path d="M0,0 L14,0 L14,1 L0,1 Z " fill="#525252" opacity="0.42352942" transform="translate(17,97)"/>
<path d="M0,0 L1,0 L1,14 L0,14 Z " fill="#525252" opacity="0.4392157" transform="translate(97,81)"/>
<path d="M0,0 L1,0 L1,14 L0,14 Z " fill="#525252" opacity="0.4392157" transform="translate(95,81)"/>
<path d="M0,0 L1,0 L1,14 L0,14 Z " fill="#000000" opacity="0.4392157" transform="translate(66,81)"/>
<path d="M0,0 L1,0 L1,14 L0,14 Z " fill="#000000" opacity="0.4392157" transform="translate(62,81)"/>
<path d="M0,0 L1,0 L1,14 L0,14 Z " fill="#525252" opacity="0.4392157" transform="translate(33,81)"/>
<path d="M0,0 L1,0 L1,14 L0,14 Z " fill="#525252" opacity="0.4392157" transform="translate(31,81)"/>
<path d="M0,0 L14,0 L14,1 L0,1 Z " fill="#767676" opacity="0.9411765" transform="translate(114,80)"/>
<path d="M0,0 L14,0 L14,1 L0,1 Z " fill="#000000" opacity="0.42352942" transform="translate(98,66)"/>
<path d="M0,0 L14,0 L14,1 L0,1 Z " fill="#000000" opacity="0.42352942" transform="translate(81,66)"/>
<path d="M0,0 L14,0 L14,1 L0,1 Z " fill="#000000" opacity="0.42352942" transform="translate(34,66)"/>
<path d="M0,0 L14,0 L14,1 L0,1 Z " fill="#000000" opacity="0.42352942" transform="translate(17,66)"/>
<path d="M0,0 L14,0 L14,1 L0,1 Z " fill="#000000" opacity="0.45490196" transform="translate(98,62)"/>
<path d="M0,0 L14,0 L14,1 L0,1 Z " fill="#000000" opacity="0.45490196" transform="translate(81,62)"/>
<path d="M0,0 L14,0 L14,1 L0,1 Z " fill="#000000" opacity="0.45490196" transform="translate(34,62)"/>
<path d="M0,0 L14,0 L14,1 L0,1 Z " fill="#000000" opacity="0.45490196" transform="translate(17,62)"/>
<path d="M0,0 L14,0 L14,1 L0,1 Z " fill="#767676" opacity="0.9411765" transform="translate(114,48)"/>
<path d="M0,0 L14,0 L14,1 L0,1 Z " fill="#767676" opacity="0.9411765" transform="translate(0,48)"/>
<path d="M0,0 L1,0 L1,14 L0,14 Z " fill="#000000" opacity="0.4392157" transform="translate(66,34)"/>
<path d="M0,0 L1,0 L1,14 L0,14 Z " fill="#000000" opacity="0.4392157" transform="translate(62,34)"/>
<path d="M0,0 L14,0 L14,1 L0,1 Z " fill="#525252" opacity="0.42352942" transform="translate(98,33)"/>
<path d="M0,0 L14,0 L14,1 L0,1 Z " fill="#525252" opacity="0.42352942" transform="translate(81,33)"/>
<path d="M0,0 L14,0 L14,1 L0,1 Z " fill="#525252" opacity="0.42352942" transform="translate(34,33)"/>
<path d="M0,0 L14,0 L14,1 L0,1 Z " fill="#525252" opacity="0.42352942" transform="translate(17,33)"/>
<path d="M0,0 L1,0 L1,14 L0,14 Z " fill="#525252" opacity="0.4392157" transform="translate(97,17)"/>
<path d="M0,0 L1,0 L1,14 L0,14 Z " fill="#525252" opacity="0.4392157" transform="translate(95,17)"/>
<path d="M0,0 L1,0 L1,14 L0,14 Z " fill="#000000" opacity="0.4392157" transform="translate(66,17)"/>
<path d="M0,0 L1,0 L1,14 L0,14 Z " fill="#000000" opacity="0.4392157" transform="translate(62,17)"/>
<path d="M0,0 L1,0 L1,14 L0,14 Z " fill="#525252" opacity="0.4392157" transform="translate(33,17)"/>
<path d="M0,0 L1,0 L1,14 L0,14 Z " fill="#525252" opacity="0.4392157" transform="translate(31,17)"/>
<path d="M0,0 L12,0 L12,1 L0,1 Z " fill="#767676" opacity="0.9411765" transform="translate(50,112)"/>
<path d="M0,0 L13,0 L13,1 L0,1 Z " fill="#525252" opacity="0.42352942" transform="translate(67,97)"/>
<path d="M0,0 L13,0 L13,1 L0,1 Z " fill="#525252" opacity="0.42352942" transform="translate(49,97)"/>
<path d="M0,0 L13,0 L13,1 L0,1 Z " fill="#535353" opacity="0.45490196" transform="translate(67,95)"/>
<path d="M0,0 L13,0 L13,1 L0,1 Z " fill="#535353" opacity="0.45490196" transform="translate(49,95)"/>
<path d="M0,0 L12,0 L12,1 L0,1 Z " fill="#767676" opacity="0.9411765" transform="translate(50,80)"/>
<path d="M0,0 L1,0 L1,11 L0,11 Z " fill="#767676" opacity="0.9411765" transform="translate(112,68)"/>
<path d="M0,0 L1,0 L1,11 L0,11 Z " fill="#767676" opacity="0.9411765" transform="translate(80,68)"/>
<path d="M0,0 L1,0 L1,11 L0,11 Z " fill="#767676" opacity="0.9411765" transform="translate(48,68)"/>
<path d="M0,0 L1,0 L1,11 L0,11 Z " fill="#767676" opacity="0.9411765" transform="translate(16,68)"/>
<path d="M0,0 L1,0 L1,13 L0,13 Z " fill="#525252" opacity="0.4392157" transform="translate(97,67)"/>
<path d="M0,0 L1,0 L1,13 L0,13 Z " fill="#525252" opacity="0.4392157" transform="translate(95,67)"/>
<path d="M0,0 L1,0 L1,13 L0,13 Z " fill="#525252" opacity="0.4392157" transform="translate(33,67)"/>
<path d="M0,0 L1,0 L1,13 L0,13 Z " fill="#525252" opacity="0.4392157" transform="translate(31,67)"/>
<path d="M0,0 L13,0 L13,1 L0,1 Z " fill="#000000" opacity="0.42352942" transform="translate(67,66)"/>
<path d="M0,0 L13,0 L13,1 L0,1 Z " fill="#000000" opacity="0.42352942" transform="translate(49,66)"/>
<path d="M0,0 L1,0 L1,12 L0,12 Z " fill="#767676" opacity="0.9411765" transform="translate(112,50)"/>
<path d="M0,0 L1,0 L1,12 L0,12 Z " fill="#767676" opacity="0.9411765" transform="translate(80,50)"/>
<path d="M0,0 L1,0 L1,12 L0,12 Z " fill="#767676" opacity="0.9411765" transform="translate(48,50)"/>
<path d="M0,0 L1,0 L1,12 L0,12 Z " fill="#767676" opacity="0.9411765" transform="translate(16,50)"/>
<path d="M0,0 L1,0 L1,13 L0,13 Z " fill="#525252" opacity="0.4392157" transform="translate(97,49)"/>
<path d="M0,0 L1,0 L1,13 L0,13 Z " fill="#525252" opacity="0.4392157" transform="translate(95,49)"/>
<path d="M0,0 L1,0 L1,13 L0,13 Z " fill="#000000" opacity="0.4392157" transform="translate(66,49)"/>
<path d="M0,0 L1,0 L1,13 L0,13 Z " fill="#000000" opacity="0.4392157" transform="translate(62,49)"/>
<path d="M0,0 L1,0 L1,13 L0,13 Z " fill="#525252" opacity="0.4392157" transform="translate(33,49)"/>
<path d="M0,0 L1,0 L1,13 L0,13 Z " fill="#525252" opacity="0.4392157" transform="translate(31,49)"/>
<path d="M0,0 L12,0 L12,1 L0,1 Z " fill="#767676" opacity="0.9411765" transform="translate(50,48)"/>
<path d="M0,0 L13,0 L13,1 L0,1 Z " fill="#525252" opacity="0.42352942" transform="translate(67,33)"/>
<path d="M0,0 L13,0 L13,1 L0,1 Z " fill="#525252" opacity="0.42352942" transform="translate(49,33)"/>
<path d="M0,0 L13,0 L13,1 L0,1 Z " fill="#535353" opacity="0.45490196" transform="translate(67,31)"/>
<path d="M0,0 L13,0 L13,1 L0,1 Z " fill="#535353" opacity="0.45490196" transform="translate(49,31)"/>
<path d="M0,0 L12,0 L12,1 L0,1 Z " fill="#767676" opacity="0.9411765" transform="translate(50,16)"/>
<path d="M0,0 L10,0 L10,1 L0,1 Z " fill="#767676" opacity="0.9411765" transform="translate(68,112)"/>
<path d="M0,0 L10,0 L10,1 L0,1 Z " fill="#767676" opacity="0.9411765" transform="translate(68,80)"/>
<path d="M0,0 L10,0 L10,1 L0,1 Z " fill="#767676" opacity="0.9411765" transform="translate(68,48)"/>
<path d="M0,0 L10,0 L10,1 L0,1 Z " fill="#767676" opacity="0.9411765" transform="translate(68,16)"/>
<path d="M0,0 L1,0 L1,1 L2,1 L2,2 L1,2 L1,3 L0,3 L0,2 L-2,2 L-2,1 L0,1 Z " fill="#767676" opacity="0.9411765" transform="translate(112,111)"/>
<path d="M0,0 L1,0 L1,1 L2,1 L2,2 L1,2 L1,3 L0,3 L0,2 L-2,2 L-2,1 L0,1 Z " fill="#767676" opacity="0.9411765" transform="translate(80,111)"/>
<path d="M0,0 L1,0 L1,1 L2,1 L2,2 L1,2 L1,3 L0,3 L0,2 L-2,2 L-2,1 L0,1 Z " fill="#767676" opacity="0.9411765" transform="translate(48,111)"/>
<path d="M0,0 L1,0 L1,1 L2,1 L2,2 L1,2 L1,3 L0,3 L0,2 L-2,2 L-2,1 L0,1 Z " fill="#767676" opacity="0.9411765" transform="translate(16,111)"/>
<path d="M0,0 L1,0 L1,1 L2,1 L2,2 L1,2 L1,3 L0,3 L0,2 L-2,2 L-2,1 L0,1 Z " fill="#767676" opacity="0.9411765" transform="translate(112,79)"/>
<path d="M0,0 L1,0 L1,1 L2,1 L2,2 L1,2 L1,3 L0,3 L0,2 L-2,2 L-2,1 L0,1 Z " fill="#767676" opacity="0.9411765" transform="translate(80,79)"/>
<path d="M0,0 L1,0 L1,1 L2,1 L2,2 L1,2 L1,3 L0,3 L0,2 L-2,2 L-2,1 L0,1 Z " fill="#767676" opacity="0.9411765" transform="translate(48,79)"/>
<path d="M0,0 L1,0 L1,1 L2,1 L2,2 L1,2 L1,3 L0,3 L0,2 L-2,2 L-2,1 L0,1 Z " fill="#767676" opacity="0.9411765" transform="translate(16,79)"/>
<path d="M0,0 L1,0 L1,1 L2,1 L2,2 L1,2 L1,3 L0,3 L0,2 L-2,2 L-2,1 L0,1 Z " fill="#767676" opacity="0.9411765" transform="translate(112,47)"/>
<path d="M0,0 L1,0 L1,1 L2,1 L2,2 L1,2 L1,3 L0,3 L0,2 L-2,2 L-2,1 L0,1 Z " fill="#767676" opacity="0.9411765" transform="translate(80,47)"/>
<path d="M0,0 L1,0 L1,1 L2,1 L2,2 L1,2 L1,3 L0,3 L0,2 L-2,2 L-2,1 L0,1 Z " fill="#767676" opacity="0.9411765" transform="translate(48,47)"/>
<path d="M0,0 L1,0 L1,1 L2,1 L2,2 L1,2 L1,3 L0,3 L0,2 L-2,2 L-2,1 L0,1 Z " fill="#767676" opacity="0.9411765" transform="translate(16,47)"/>
<path d="M0,0 L1,0 L1,1 L2,1 L2,2 L1,2 L1,3 L0,3 L0,2 L-2,2 L-2,1 L0,1 Z " fill="#767676" opacity="0.9411765" transform="translate(112,15)"/>
<path d="M0,0 L1,0 L1,1 L2,1 L2,2 L1,2 L1,3 L0,3 L0,2 L-2,2 L-2,1 L0,1 Z " fill="#767676" opacity="0.9411765" transform="translate(80,15)"/>
<path d="M0,0 L1,0 L1,1 L2,1 L2,2 L1,2 L1,3 L0,3 L0,2 L-2,2 L-2,1 L0,1 Z " fill="#767676" opacity="0.9411765" transform="translate(48,15)"/>
<path d="M0,0 L1,0 L1,1 L2,1 L2,2 L1,2 L1,3 L0,3 L0,2 L-2,2 L-2,1 L0,1 Z " fill="#767676" opacity="0.9411765" transform="translate(16,15)"/>
<path d="M0,0 L1,0 L1,1 L0,1 Z " fill="#2E2E2E" transform="translate(66,96)"/>
<path d="M0,0 L1,0 L1,1 L0,1 Z " fill="#2E2E2E" transform="translate(62,96)"/>
<path d="M0,0 L1,0 L1,1 L0,1 Z " fill="#303030" transform="translate(96,66)"/>
<path d="M0,0 L1,0 L1,1 L0,1 Z " fill="#303030" transform="translate(32,66)"/>
<path d="M0,0 L1,0 L1,1 L0,1 Z " fill="#2D2D2D" transform="translate(96,62)"/>
<path d="M0,0 L1,0 L1,1 L0,1 Z " fill="#2D2D2D" transform="translate(32,62)"/>
<path d="M0,0 L1,0 L1,1 L0,1 Z " fill="#2E2E2E" transform="translate(66,32)"/>
<path d="M0,0 L1,0 L1,1 L0,1 Z " fill="#2E2E2E" transform="translate(62,32)"/>
<path d="M0,0 L2,0 L2,1 L0,1 Z " fill="#767676" opacity="0.96862745" transform="translate(96,112)"/>
<path d="M0,0 L1,0 L1,1 L0,1 Z " fill="#767676" opacity="0.9411765" transform="translate(67,112)"/>
<path d="M0,0 L2,0 L2,1 L0,1 Z " fill="#767676" opacity="0.96862745" transform="translate(32,112)"/>
<path d="M0,0 L1,0 L1,1 L0,1 Z " fill="#525252" opacity="0.4392157" transform="translate(97,98)"/>
<path d="M0,0 L1,0 L1,1 L0,1 Z " fill="#525252" opacity="0.4392157" transform="translate(95,98)"/>
<path d="M0,0 L1,0 L1,1 L0,1 Z " fill="#525252" opacity="0.4392157" transform="translate(33,98)"/>
<path d="M0,0 L1,0 L1,1 L0,1 Z " fill="#525252" opacity="0.4392157" transform="translate(31,98)"/>
<path d="M0,0 L1,0 L1,2 L0,2 Z " fill="#767676" opacity="0.96862745" transform="translate(112,96)"/>
<path d="M0,0 L1,0 L1,2 L0,2 Z " fill="#767676" opacity="0.96862745" transform="translate(80,96)"/>
<path d="M0,0 L1,0 L1,2 L0,2 Z " fill="#767676" opacity="0.96862745" transform="translate(48,96)"/>
<path d="M0,0 L1,0 L1,2 L0,2 Z " fill="#767676" opacity="0.96862745" transform="translate(16,96)"/>
<path d="M0,0 L1,0 L1,1 L0,1 Z " fill="#535353" opacity="0.45490196" transform="translate(98,95)"/>
<path d="M0,0 L1,0 L1,1 L0,1 Z " fill="#535353" opacity="0.45490196" transform="translate(34,95)"/>
<path d="M0,0 L2,0 L2,1 L0,1 Z " fill="#767676" opacity="0.96862745" transform="translate(96,80)"/>
<path d="M0,0 L1,0 L1,1 L0,1 Z " fill="#767676" opacity="0.9411765" transform="translate(67,80)"/>
<path d="M0,0 L2,0 L2,1 L0,1 Z " fill="#767676" opacity="0.96862745" transform="translate(32,80)"/>
<path d="M0,0 L1,0 L1,1 L0,1 Z " fill="#767676" opacity="0.9411765" transform="translate(112,67)"/>
<path d="M0,0 L1,0 L1,1 L0,1 Z " fill="#767676" opacity="0.9411765" transform="translate(80,67)"/>
<path d="M0,0 L1,0 L1,1 L0,1 Z " fill="#000000" opacity="0.4392157" transform="translate(66,67)"/>
<path d="M0,0 L1,0 L1,1 L0,1 Z " fill="#000000" opacity="0.4392157" transform="translate(62,67)"/>
<path d="M0,0 L1,0 L1,1 L0,1 Z " fill="#767676" opacity="0.9411765" transform="translate(48,67)"/>
<path d="M0,0 L1,0 L1,1 L0,1 Z " fill="#767676" opacity="0.9411765" transform="translate(16,67)"/>
<path d="M0,0 L1,0 L1,1 L0,1 Z " fill="#000000" opacity="0.45490196" transform="translate(67,62)"/>
<path d="M0,0 L2,0 L2,1 L0,1 Z " fill="#767676" opacity="0.96862745" transform="translate(96,48)"/>
<path d="M0,0 L1,0 L1,1 L0,1 Z " fill="#767676" opacity="0.9411765" transform="translate(67,48)"/>
<path d="M0,0 L2,0 L2,1 L0,1 Z " fill="#767676" opacity="0.96862745" transform="translate(32,48)"/>
<path d="M0,0 L1,0 L1,1 L0,1 Z " fill="#525252" opacity="0.4392157" transform="translate(97,34)"/>
<path d="M0,0 L1,0 L1,1 L0,1 Z " fill="#525252" opacity="0.4392157" transform="translate(95,34)"/>
<path d="M0,0 L1,0 L1,1 L0,1 Z " fill="#525252" opacity="0.4392157" transform="translate(33,34)"/>
<path d="M0,0 L1,0 L1,1 L0,1 Z " fill="#525252" opacity="0.4392157" transform="translate(31,34)"/>
<path d="M0,0 L1,0 L1,2 L0,2 Z " fill="#767676" opacity="0.96862745" transform="translate(112,32)"/>
<path d="M0,0 L1,0 L1,2 L0,2 Z " fill="#767676" opacity="0.96862745" transform="translate(80,32)"/>
<path d="M0,0 L1,0 L1,2 L0,2 Z " fill="#767676" opacity="0.96862745" transform="translate(48,32)"/>
<path d="M0,0 L1,0 L1,2 L0,2 Z " fill="#767676" opacity="0.96862745" transform="translate(16,32)"/>
<path d="M0,0 L1,0 L1,1 L0,1 Z " fill="#535353" opacity="0.45490196" transform="translate(98,31)"/>
<path d="M0,0 L1,0 L1,1 L0,1 Z " fill="#535353" opacity="0.45490196" transform="translate(34,31)"/>
<path d="M0,0 L2,0 L2,1 L0,1 Z " fill="#767676" opacity="0.96862745" transform="translate(96,16)"/>
<path d="M0,0 L1,0 L1,1 L0,1 Z " fill="#767676" opacity="0.9411765" transform="translate(67,16)"/>
<path d="M0,0 L2,0 L2,1 L0,1 Z " fill="#767676" opacity="0.96862745" transform="translate(32,16)"/>
<path d="M0,0 L1,0 L1,1 L0,1 Z " fill="#767676" transform="translate(112,112)"/>
<path d="M0,0 L1,0 L1,1 L0,1 Z " fill="#747474" transform="translate(96,112)"/>
<path d="M0,0 L1,0 L1,1 L0,1 Z " fill="#767676" opacity="0.96862745" transform="translate(95,112)"/>
<path d="M0,0 L1,0 L1,1 L0,1 Z " fill="#767676" transform="translate(80,112)"/>
<path d="M0,0 L1,0 L1,1 L0,1 Z " fill="#414141" opacity="0.96862745" transform="translate(66,112)"/>
<path d="M0,0 L1,0 L1,1 L0,1 Z " fill="#414141" opacity="0.96862745" transform="translate(62,112)"/>
<path d="M0,0 L1,0 L1,1 L0,1 Z " fill="#767676" transform="translate(48,112)"/>
<path d="M0,0 L1,0 L1,1 L0,1 Z " fill="#747474" transform="translate(32,112)"/>
<path d="M0,0 L1,0 L1,1 L0,1 Z " fill="#767676" opacity="0.96862745" transform="translate(31,112)"/>
<path d="M0,0 L1,0 L1,1 L0,1 Z " fill="#767676" transform="translate(16,112)"/>
<path d="M0,0 L1,0 L1,1 L0,1 Z " fill="#525252" opacity="0.6784314" transform="translate(97,97)"/>
<path d="M0,0 L1,0 L1,1 L0,1 Z " fill="#525252" opacity="0.6784314" transform="translate(95,97)"/>
<path d="M0,0 L1,0 L1,1 L0,1 Z " fill="#1D1D1D" opacity="0.6784314" transform="translate(66,97)"/>
<path d="M0,0 L1,0 L1,1 L0,1 Z " fill="#1D1D1D" opacity="0.6784314" transform="translate(62,97)"/>
<path d="M0,0 L1,0 L1,1 L0,1 Z " fill="#525252" opacity="0.6784314" transform="translate(33,97)"/>
<path d="M0,0 L1,0 L1,1 L0,1 Z " fill="#525252" opacity="0.6784314" transform="translate(31,97)"/>
<path d="M0,0 L1,0 L1,1 L0,1 Z " fill="#747474" transform="translate(112,96)"/>
<path d="M0,0 L1,0 L1,1 L0,1 Z " fill="#747474" transform="translate(80,96)"/>
<path d="M0,0 L1,0 L1,1 L0,1 Z " fill="#747474" transform="translate(48,96)"/>
<path d="M0,0 L1,0 L1,1 L0,1 Z " fill="#747474" transform="translate(16,96)"/>
<path d="M0,0 L1,0 L1,1 L0,1 Z " fill="#767676" opacity="0.96862745" transform="translate(112,95)"/>
<path d="M0,0 L1,0 L1,1 L0,1 Z " fill="#535353" opacity="0.69411767" transform="translate(97,95)"/>
<path d="M0,0 L1,0 L1,1 L0,1 Z " fill="#535353" opacity="0.69411767" transform="translate(95,95)"/>
<path d="M0,0 L1,0 L1,1 L0,1 Z " fill="#767676" opacity="0.96862745" transform="translate(80,95)"/>
<path d="M0,0 L1,0 L1,1 L0,1 Z " fill="#1F1F1F" opacity="0.69411767" transform="translate(66,95)"/>
<path d="M0,0 L1,0 L1,1 L0,1 Z " fill="#1F1F1F" opacity="0.69411767" transform="translate(62,95)"/>
<path d="M0,0 L1,0 L1,1 L0,1 Z " fill="#767676" opacity="0.96862745" transform="translate(48,95)"/>
<path d="M0,0 L1,0 L1,1 L0,1 Z " fill="#535353" opacity="0.69411767" transform="translate(33,95)"/>
<path d="M0,0 L1,0 L1,1 L0,1 Z " fill="#535353" opacity="0.69411767" transform="translate(31,95)"/>
<path d="M0,0 L1,0 L1,1 L0,1 Z " fill="#767676" opacity="0.96862745" transform="translate(16,95)"/>
<path d="M0,0 L1,0 L1,1 L0,1 Z " fill="#767676" transform="translate(112,80)"/>
<path d="M0,0 L1,0 L1,1 L0,1 Z " fill="#747474" transform="translate(96,80)"/>
<path d="M0,0 L1,0 L1,1 L0,1 Z " fill="#767676" opacity="0.96862745" transform="translate(95,80)"/>
<path d="M0,0 L1,0 L1,1 L0,1 Z " fill="#767676" transform="translate(80,80)"/>
<path d="M0,0 L1,0 L1,1 L0,1 Z " fill="#414141" opacity="0.96862745" transform="translate(66,80)"/>
<path d="M0,0 L1,0 L1,1 L0,1 Z " fill="#414141" opacity="0.96862745" transform="translate(62,80)"/>
<path d="M0,0 L1,0 L1,1 L0,1 Z " fill="#767676" transform="translate(48,80)"/>
<path d="M0,0 L1,0 L1,1 L0,1 Z " fill="#747474" transform="translate(32,80)"/>
<path d="M0,0 L1,0 L1,1 L0,1 Z " fill="#767676" opacity="0.96862745" transform="translate(31,80)"/>
<path d="M0,0 L1,0 L1,1 L0,1 Z " fill="#767676" transform="translate(16,80)"/>
<path d="M0,0 L1,0 L1,1 L0,1 Z " fill="#424242" opacity="0.9647059" transform="translate(112,66)"/>
<path d="M0,0 L1,0 L1,1 L0,1 Z " fill="#1F1F1F" opacity="0.6784314" transform="translate(97,66)"/>
<path d="M0,0 L1,0 L1,1 L0,1 Z " fill="#1F1F1F" opacity="0.6784314" transform="translate(95,66)"/>
<path d="M0,0 L1,0 L1,1 L0,1 Z " fill="#424242" opacity="0.9647059" transform="translate(80,66)"/>
<path d="M0,0 L1,0 L1,1 L0,1 Z " fill="#000000" opacity="0.6784314" transform="translate(66,66)"/>
<path d="M0,0 L1,0 L1,1 L0,1 Z " fill="#000000" opacity="0.6784314" transform="translate(62,66)"/>
<path d="M0,0 L1,0 L1,1 L0,1 Z " fill="#424242" opacity="0.9647059" transform="translate(48,66)"/>
<path d="M0,0 L1,0 L1,1 L0,1 Z " fill="#1F1F1F" opacity="0.6784314" transform="translate(33,66)"/>
<path d="M0,0 L1,0 L1,1 L0,1 Z " fill="#1F1F1F" opacity="0.6784314" transform="translate(31,66)"/>
<path d="M0,0 L1,0 L1,1 L0,1 Z " fill="#424242" opacity="0.9647059" transform="translate(16,66)"/>
<path d="M0,0 L1,0 L1,1 L0,1 Z " fill="#3F3F3F" opacity="0.96862745" transform="translate(112,62)"/>
<path d="M0,0 L1,0 L1,1 L0,1 Z " fill="#1C1C1C" opacity="0.69411767" transform="translate(97,62)"/>
<path d="M0,0 L1,0 L1,1 L0,1 Z " fill="#1C1C1C" opacity="0.69411767" transform="translate(95,62)"/>
<path d="M0,0 L1,0 L1,1 L0,1 Z " fill="#3F3F3F" opacity="0.96862745" transform="translate(80,62)"/>
<path d="M0,0 L1,0 L1,1 L0,1 Z " fill="#000000" opacity="0.69411767" transform="translate(66,62)"/>
<path d="M0,0 L1,0 L1,1 L0,1 Z " fill="#000000" opacity="0.69411767" transform="translate(62,62)"/>
<path d="M0,0 L1,0 L1,1 L0,1 Z " fill="#3F3F3F" opacity="0.96862745" transform="translate(48,62)"/>
<path d="M0,0 L1,0 L1,1 L0,1 Z " fill="#1C1C1C" opacity="0.69411767" transform="translate(33,62)"/>
<path d="M0,0 L1,0 L1,1 L0,1 Z " fill="#1C1C1C" opacity="0.69411767" transform="translate(31,62)"/>
<path d="M0,0 L1,0 L1,1 L0,1 Z " fill="#3F3F3F" opacity="0.96862745" transform="translate(16,62)"/>
<path d="M0,0 L1,0 L1,1 L0,1 Z " fill="#767676" transform="translate(112,48)"/>
<path d="M0,0 L1,0 L1,1 L0,1 Z " fill="#747474" transform="translate(96,48)"/>
<path d="M0,0 L1,0 L1,1 L0,1 Z " fill="#767676" opacity="0.96862745" transform="translate(95,48)"/>
<path d="M0,0 L1,0 L1,1 L0,1 Z " fill="#767676" transform="translate(80,48)"/>
<path d="M0,0 L1,0 L1,1 L0,1 Z " fill="#414141" opacity="0.96862745" transform="translate(66,48)"/>
<path d="M0,0 L1,0 L1,1 L0,1 Z " fill="#414141" opacity="0.96862745" transform="translate(62,48)"/>
<path d="M0,0 L1,0 L1,1 L0,1 Z " fill="#767676" transform="translate(48,48)"/>
<path d="M0,0 L1,0 L1,1 L0,1 Z " fill="#747474" transform="translate(32,48)"/>
<path d="M0,0 L1,0 L1,1 L0,1 Z " fill="#767676" opacity="0.96862745" transform="translate(31,48)"/>
<path d="M0,0 L1,0 L1,1 L0,1 Z " fill="#767676" transform="translate(16,48)"/>
<path d="M0,0 L1,0 L1,1 L0,1 Z " fill="#525252" opacity="0.6784314" transform="translate(97,33)"/>
<path d="M0,0 L1,0 L1,1 L0,1 Z " fill="#525252" opacity="0.6784314" transform="translate(95,33)"/>
<path d="M0,0 L1,0 L1,1 L0,1 Z " fill="#1D1D1D" opacity="0.6784314" transform="translate(66,33)"/>
<path d="M0,0 L1,0 L1,1 L0,1 Z " fill="#1D1D1D" opacity="0.6784314" transform="translate(62,33)"/>
<path d="M0,0 L1,0 L1,1 L0,1 Z " fill="#525252" opacity="0.6784314" transform="translate(33,33)"/>
<path d="M0,0 L1,0 L1,1 L0,1 Z " fill="#525252" opacity="0.6784314" transform="translate(31,33)"/>
<path d="M0,0 L1,0 L1,1 L0,1 Z " fill="#747474" transform="translate(112,32)"/>
<path d="M0,0 L1,0 L1,1 L0,1 Z " fill="#747474" transform="translate(80,32)"/>
<path d="M0,0 L1,0 L1,1 L0,1 Z " fill="#747474" transform="translate(48,32)"/>
<path d="M0,0 L1,0 L1,1 L0,1 Z " fill="#747474" transform="translate(16,32)"/>
<path d="M0,0 L1,0 L1,1 L0,1 Z " fill="#767676" opacity="0.96862745" transform="translate(112,31)"/>
<path d="M0,0 L1,0 L1,1 L0,1 Z " fill="#535353" opacity="0.69411767" transform="translate(97,31)"/>
<path d="M0,0 L1,0 L1,1 L0,1 Z " fill="#535353" opacity="0.69411767" transform="translate(95,31)"/>
<path d="M0,0 L1,0 L1,1 L0,1 Z " fill="#767676" opacity="0.96862745" transform="translate(80,31)"/>
<path d="M0,0 L1,0 L1,1 L0,1 Z " fill="#1F1F1F" opacity="0.69411767" transform="translate(66,31)"/>
<path d="M0,0 L1,0 L1,1 L0,1 Z " fill="#1F1F1F" opacity="0.69411767" transform="translate(62,31)"/>
<path d="M0,0 L1,0 L1,1 L0,1 Z " fill="#767676" opacity="0.96862745" transform="translate(48,31)"/>
<path d="M0,0 L1,0 L1,1 L0,1 Z " fill="#535353" opacity="0.69411767" transform="translate(33,31)"/>
<path d="M0,0 L1,0 L1,1 L0,1 Z " fill="#535353" opacity="0.69411767" transform="translate(31,31)"/>
<path d="M0,0 L1,0 L1,1 L0,1 Z " fill="#767676" opacity="0.96862745" transform="translate(16,31)"/>
<path d="M0,0 L1,0 L1,1 L0,1 Z " fill="#767676" transform="translate(112,16)"/>
<path d="M0,0 L1,0 L1,1 L0,1 Z " fill="#747474" transform="translate(96,16)"/>
<path d="M0,0 L1,0 L1,1 L0,1 Z " fill="#767676" opacity="0.96862745" transform="translate(95,16)"/>
<path d="M0,0 L1,0 L1,1 L0,1 Z " fill="#767676" transform="translate(80,16)"/>
<path d="M0,0 L1,0 L1,1 L0,1 Z " fill="#414141" opacity="0.96862745" transform="translate(66,16)"/>
<path d="M0,0 L1,0 L1,1 L0,1 Z " fill="#414141" opacity="0.96862745" transform="translate(62,16)"/>
<path d="M0,0 L1,0 L1,1 L0,1 Z " fill="#767676" transform="translate(48,16)"/>
<path d="M0,0 L1,0 L1,1 L0,1 Z " fill="#747474" transform="translate(32,16)"/>
<path d="M0,0 L1,0 L1,1 L0,1 Z " fill="#767676" opacity="0.96862745" transform="translate(31,16)"/>
<path d="M0,0 L1,0 L1,1 L0,1 Z " fill="#767676" transform="translate(16,16)"/>
</svg>
